<?xml version="1.0" encoding="utf-8"?>
<!-- Generator: Adobe Illustrator 27.9.0, SVG Export Plug-In . SVG Version: 6.00 Build 0)  -->
<svg version="1.1" id="Layer_1" xmlns="http://www.w3.org/2000/svg" xmlns:xlink="http://www.w3.org/1999/xlink" x="0px" y="0px"
	 viewBox="0 0 841.8 700.4" style="enable-background:new 0 0 841.8 700.4;" xml:space="preserve">
<style type="text/css">
	.st0{opacity:0.3;}
	.st1{fill:#CCCCCC;}
	.st2{fill:#1C6BB4;}
	.st3{fill:#F2F2F2;}
	.st4{fill:#8BD5D8;}
	.st5{fill:#263852;}
	.st6{fill:#263953;}
</style>
<g id="Слой_2">
	<g id="Слой_1-2">
		<g class="st0">
			<path class="st1" d="M243.5,357.8H12.8c-6.6,0-12-5.4-12.1-12c0,0,0,0,0,0V12.1c0-6.6,5.4-12,12-12.1c0,0,0,0,0,0h230.8
				c6.6,0,12,5.4,12.1,12c0,0,0,0,0,0v333.7C255.4,352.3,250.1,357.6,243.5,357.8z"/>
		</g>
		<g class="st0">
			<path class="st1" d="M535.4,357.8H305.1c-6.6,0-12-5.4-12.1-12c0,0,0,0,0,0V12.1c0-6.6,5.4-12,12-12.1c0,0,0,0,0,0h230.3
				c6.6,0,12,5.4,12.1,12c0,0,0,0,0,0v333.7C547.5,352.4,542.1,357.8,535.4,357.8C535.4,357.8,535.4,357.8,535.4,357.8z"/>
		</g>
		<g class="st0">
			<path class="st1" d="M827.3,357.8H597c-6.6,0-12-5.4-12.1-12c0,0,0,0,0,0V12.1c0-6.6,5.4-12,12-12.1c0,0,0,0,0,0h230.3
				c6.6,0,12,5.4,12.1,12c0,0,0,0,0,0v333.7C839.8,352.2,834.2,357.8,827.3,357.8z"/>
		</g>
		<path class="st2" d="M492.4,612.2c0,46.8-38,84.8-84.8,84.8s-84.8-38-84.8-84.8s38-84.8,84.8-84.8c0,0,0,0,0,0
			c43.1,0,78.8,32.3,84.4,74c0.4,3,0.4,6,0.9,9C492.5,611,492.3,611.6,492.4,612.2z"/>
		<path class="st3" d="M492.4,610.9c-7.3,9-21.5,8.2-21.5,8.2c-8.6,37.9-61.6,56.8-98.2,47.4s-31.9-53.4-31.9-53.4h107.6
			c9,0,9.5-2.6,9.5-2.6c-7.7-18.5,4.3-28.8,4.3-28.8c9.5,1.7,11.6,17.7,11.6,17.7c5.9-0.9,12-0.3,17.7,1.7
			C492,604.3,492.3,607.6,492.4,610.9z"/>
		<rect x="352" y="596.3" class="st3" width="15.1" height="13.8"/>
		<rect x="371" y="596.3" class="st3" width="15.1" height="13.8"/>
		<rect x="427.8" y="596.3" class="st3" width="15.1" height="13.8"/>
		<rect x="408.8" y="596.3" class="st3" width="15.1" height="13.8"/>
		<rect x="408.8" y="561" class="st3" width="15.1" height="13.8"/>
		<rect x="389.9" y="596.3" class="st3" width="15.1" height="13.8"/>
		<rect x="371" y="578.6" class="st3" width="15.1" height="13.8"/>
		<rect x="408.8" y="578.6" class="st3" width="15.1" height="13.8"/>
		<rect x="389.9" y="578.6" class="st3" width="15.1" height="13.8"/>
		<path class="st4" d="M230.2,167H27c-2.6,0-4.7-2.1-4.7-4.7v-62c0-2.6,2.1-4.7,4.7-4.7h203.2c2.6,0,4.7,2.1,4.7,4.7v62
			C234.9,164.9,232.8,167,230.2,167z"/>
		<path class="st5" d="M230.2,167.8H27c-3,0-5.4-2.5-5.4-5.4v-62c0-3,2.5-5.4,5.4-5.4h203.2c3,0,5.4,2.5,5.4,5.4v62
			C235.6,165.3,233.2,167.7,230.2,167.8z M27,96.3c-2.2,0-4,1.8-4,4v62c0,2.2,1.8,4,4,4h203.2c2.2,0,4-1.8,4-4v-62c0-2.2-1.8-4-4-4
			H27z"/>
		<g>
			<path class="st5" d="M79.9,142.7V121h-8.1v-2.9h19.5v2.9h-8.2v21.7L79.9,142.7z"/>
			<path class="st5" d="M89.4,133.8c0-3.3,0.9-5.8,2.8-7.3c1.6-1.3,3.6-2,5.6-2c2.3-0.1,4.4,0.8,6,2.4c1.6,1.8,2.5,4.2,2.3,6.7
				c0.1,1.9-0.3,3.7-1,5.4c-0.7,1.3-1.7,2.4-3,3.1c-1.3,0.7-2.8,1.1-4.3,1.1c-2.3,0.1-4.5-0.8-6.1-2.4
				C90.1,139.1,89.4,136.8,89.4,133.8z M92.5,133.8c-0.1,1.8,0.4,3.7,1.5,5.1c1.8,2.1,5,2.3,7,0.5c0.2-0.2,0.3-0.3,0.5-0.5
				c1.1-1.5,1.6-3.4,1.5-5.2c0.1-1.8-0.4-3.6-1.5-5c-1.8-2.1-5-2.3-7-0.5c-0.2,0.1-0.3,0.3-0.5,0.5C92.9,130.1,92.3,132,92.5,133.8z
				"/>
			<path class="st5" d="M109.7,142.7v-17.9h2.7v2.5c0.6-0.9,1.3-1.6,2.2-2.1c1-0.5,2.1-0.8,3.2-0.8c1.1,0,2.3,0.2,3.3,0.8
				c0.8,0.5,1.5,1.4,1.8,2.3c1.2-1.9,3.3-3.1,5.5-3.1c1.5-0.1,3,0.4,4.1,1.5c1.1,1.3,1.6,2.9,1.4,4.5v12.3h-3v-11.3
				c0-0.9-0.1-1.8-0.3-2.6c-0.2-0.5-0.6-1-1.1-1.3c-0.5-0.3-1.2-0.5-1.8-0.5c-1.2,0-2.3,0.4-3.1,1.3c-0.9,1.1-1.4,2.6-1.2,4v10.4h-3
				v-11.6c0.1-1.1-0.2-2.1-0.7-3c-0.6-0.7-1.5-1.1-2.4-1c-0.8,0-1.7,0.2-2.4,0.7c-0.7,0.5-1.3,1.2-1.6,2c-0.4,1.2-0.5,2.5-0.5,3.7
				v9.3L109.7,142.7z"/>
			<path class="st5" d="M150,136.2l3,0.4c-0.2,1.9-1.1,3.6-2.5,4.8c-1.4,1.2-3.1,1.8-4.9,1.7c-2.2,0.1-4.4-0.8-5.9-2.4
				c-1.5-1.6-2.2-3.9-2.2-6.9c0-1.7,0.3-3.5,1-5.1c0.6-1.4,1.6-2.5,2.9-3.3c1.3-0.7,2.8-1.1,4.3-1.1c1.7-0.1,3.4,0.4,4.8,1.5
				c1.3,1.1,2.1,2.5,2.4,4.2l-2.9,0.5c-0.2-1-0.7-2-1.5-2.7c-0.7-0.6-1.6-0.9-2.6-0.9c-1.4,0-2.8,0.6-3.7,1.6
				c-1,1.1-1.4,2.8-1.4,5.2c0,2.4,0.5,4.1,1.4,5.2c0.9,1.1,2.2,1.7,3.6,1.6c1.1,0,2.2-0.4,3-1.1C149.4,138.6,149.9,137.5,150,136.2z
				"/>
			<path class="st5" d="M167.2,140.5c-1,0.9-2.1,1.5-3.2,2c-1.1,0.4-2.2,0.6-3.3,0.6c-1.6,0.1-3.3-0.4-4.5-1.4
				c-1-0.9-1.6-2.3-1.6-3.7c0-0.8,0.2-1.7,0.6-2.4c0.4-0.7,0.9-1.3,1.6-1.7c0.7-0.4,1.4-0.8,2.2-1c0.9-0.2,1.8-0.4,2.7-0.5
				c1.8-0.2,3.6-0.5,5.4-1c0-0.4,0-0.7,0-0.8c0.1-1-0.2-1.9-0.9-2.6c-1-0.8-2.2-1.1-3.4-1c-1.1-0.1-2.2,0.2-3.2,0.7
				c-0.8,0.7-1.3,1.6-1.5,2.6l-3-0.4c0.2-1.1,0.7-2.2,1.3-3.1c0.7-0.8,1.6-1.5,2.7-1.8c1.3-0.4,2.7-0.7,4.1-0.6
				c1.3,0,2.5,0.1,3.7,0.5c0.8,0.3,1.5,0.7,2.1,1.4c0.5,0.6,0.8,1.3,0.9,2.1c0.1,0.9,0.2,1.9,0.2,2.8v4c0,1.8,0,3.6,0.2,5.3
				c0.1,0.8,0.4,1.5,0.8,2.1h-3.2C167.5,142,167.3,141.3,167.2,140.5z M167,133.8c-1.6,0.6-3.3,1-4.9,1.1c-0.9,0.1-1.8,0.3-2.6,0.6
				c-0.5,0.2-0.9,0.5-1.2,1c-0.7,1.1-0.5,2.6,0.5,3.5c0.8,0.6,1.7,0.9,2.7,0.8c1.1,0,2.2-0.2,3.1-0.8c0.9-0.5,1.6-1.2,2-2.1
				c0.4-1,0.5-2,0.5-3L167,133.8z"/>
			<path class="st5" d="M181.3,140l0.4,2.7c-0.8,0.2-1.5,0.3-2.3,0.3c-0.9,0-1.8-0.1-2.6-0.5c-0.6-0.3-1-0.8-1.3-1.4
				c-0.3-1.2-0.4-2.4-0.4-3.6v-10.3h-2.2v-2.4h2.2v-4.4l3-1.8v6.2h3v2.4h-3v10.4c0,0.6,0,1.1,0.2,1.7c0.1,0.2,0.3,0.5,0.5,0.6
				c0.3,0.2,0.7,0.2,1,0.2C180.4,140.1,180.9,140.1,181.3,140z"/>
		</g>
		<path class="st4" d="M230.2,253.1H27c-2.6,0-4.7-2.1-4.7-4.7v-62c0-2.6,2.1-4.7,4.7-4.7h203.2c2.6,0,4.7,2.1,4.7,4.7v62
			C234.7,251,232.7,253,230.2,253.1z"/>
		<path class="st5" d="M230.2,253.9H27c-3,0-5.4-2.5-5.4-5.4v-62c0-3,2.5-5.4,5.4-5.4h203.2c3,0,5.4,2.5,5.4,5.4v62
			C235.4,251.3,233.1,253.7,230.2,253.9z M27,182.4c-2.2,0-4,1.8-4,4v62c0,2.2,1.8,4,4,4h203.2c2.2-0.2,3.9-1.9,4-4v-62
			c0-2.2-1.8-4-4-4H27z"/>
		<g>
			<path class="st5" d="M93,221.6l2.9-0.4c0.1,1.9,0.4,3.2,1.1,3.9c0.7,0.7,1.6,1.1,2.6,1c0.7,0,1.5-0.2,2.1-0.6
				c0.6-0.4,1-0.9,1.2-1.5c0.3-1,0.4-2,0.3-3.1v-17h3.3v16.8c0.1,1.6-0.2,3.3-0.7,4.8c-0.5,1.1-1.3,2-2.4,2.6
				c-1.2,0.6-2.5,0.9-3.8,0.9c-1.8,0.1-3.7-0.6-5-1.9C93.5,225.9,93,224.1,93,221.6z"/>
			<path class="st5" d="M123.2,226.4c-1,0.9-2.1,1.5-3.2,2c-1.1,0.4-2.2,0.6-3.3,0.6c-1.6,0.1-3.3-0.4-4.5-1.4
				c-1-0.9-1.6-2.3-1.6-3.7c0-0.8,0.2-1.7,0.6-2.4c0.4-0.7,0.9-1.3,1.6-1.7c0.7-0.4,1.4-0.8,2.2-1c0.9-0.2,1.8-0.4,2.7-0.5
				c1.8-0.2,3.6-0.5,5.4-1c0-0.4,0-0.7,0-0.8c0.1-1-0.2-1.9-0.9-2.6c-1-0.8-2.2-1.1-3.4-1c-1.1-0.1-2.2,0.2-3.2,0.7
				c-0.8,0.7-1.3,1.6-1.5,2.6l-3-0.4c0.2-1.1,0.7-2.2,1.3-3.1c0.7-0.8,1.6-1.5,2.7-1.8c1.3-0.4,2.7-0.7,4.1-0.6
				c1.3,0,2.5,0.1,3.7,0.5c0.8,0.3,1.5,0.7,2.1,1.4c0.5,0.6,0.8,1.3,0.9,2.1c0.1,0.9,0.2,1.9,0.2,2.8v4c0,1.8,0,3.6,0.2,5.3
				c0.1,0.8,0.4,1.5,0.8,2.1h-3.2C123.5,227.9,123.3,227.2,123.2,226.4z M122.9,219.7c-1.6,0.6-3.3,1-4.9,1.1
				c-0.9,0.1-1.8,0.3-2.6,0.6c-0.5,0.2-0.9,0.5-1.2,1c-0.7,1.1-0.5,2.6,0.5,3.5c0.8,0.6,1.7,0.9,2.7,0.8c1.1,0,2.2-0.2,3.1-0.8
				c0.9-0.5,1.6-1.2,2-2.1c0.4-1,0.5-2,0.5-3L122.9,219.7z"/>
			<path class="st5" d="M135.7,228.6l-6.8-17.9h3.2l3.8,10.7c0.4,1.2,0.8,2.4,1.1,3.6c0.3-0.9,0.6-2.1,1.1-3.4l4-10.9h3.1l-6.8,17.9
				H135.7z"/>
			<path class="st5" d="M159.6,226.4c-1,0.9-2.1,1.5-3.2,2c-1.1,0.4-2.2,0.6-3.3,0.6c-1.6,0.1-3.3-0.4-4.5-1.4
				c-1-0.9-1.6-2.3-1.6-3.7c0-0.8,0.2-1.7,0.6-2.4c0.4-0.7,0.9-1.3,1.6-1.7c0.7-0.4,1.4-0.8,2.2-1c0.9-0.2,1.8-0.4,2.7-0.5
				c1.8-0.2,3.6-0.5,5.4-1c0-0.4,0-0.7,0-0.8c0.1-1-0.2-1.9-0.9-2.6c-1-0.8-2.2-1.1-3.4-1c-1.1-0.1-2.2,0.2-3.2,0.7
				c-0.8,0.7-1.3,1.6-1.5,2.6l-3-0.4c0.2-1.1,0.7-2.2,1.3-3.1c0.7-0.8,1.6-1.5,2.7-1.8c1.3-0.4,2.7-0.7,4.1-0.6
				c1.3,0,2.5,0.1,3.7,0.5c0.8,0.3,1.5,0.7,2.1,1.4c0.5,0.6,0.8,1.3,0.9,2.1c0.1,0.9,0.2,1.9,0.2,2.8v4c0,1.8,0,3.6,0.2,5.3
				c0.1,0.8,0.4,1.5,0.8,2.1h-3.2C159.8,227.9,159.6,227.2,159.6,226.4z M159.3,219.7c-1.6,0.6-3.3,1-4.9,1.1
				c-0.9,0.1-1.8,0.3-2.6,0.6c-0.5,0.2-0.9,0.5-1.2,1c-0.7,1.1-0.5,2.6,0.5,3.5c0.8,0.6,1.7,0.9,2.7,0.8c1.1,0,2.2-0.2,3.1-0.8
				c0.9-0.5,1.6-1.2,2-2.1c0.4-1,0.5-2,0.5-3L159.3,219.7z"/>
		</g>
		<path class="st4" d="M230.2,338.8H27c-2.6,0-4.7-2.1-4.7-4.7v-62c0-2.6,2.1-4.7,4.7-4.7h203.2c2.6,0,4.7,2.1,4.7,4.7v62
			C234.9,336.7,232.8,338.8,230.2,338.8z"/>
		<path class="st5" d="M230.2,339.5H27c-3,0-5.4-2.5-5.4-5.4v-62c0-3,2.5-5.4,5.4-5.4h203.2c3,0,5.4,2.5,5.4,5.4v62
			C235.6,337.1,233.2,339.5,230.2,339.5z M27,268.1c-2.2,0-4,1.8-4,4v62c0,2.2,1.8,4,4,4h203.2c2.2,0,4-1.8,4-4v-62c0-2.2-1.8-4-4-4
			L27,268.1z"/>
		<g>
			<path class="st5" d="M76.5,314.5v-24.7H85c1.5,0,2.9,0.1,4.4,0.4c1.3,0.3,2.6,0.9,3.6,1.8c1.3,1.1,2.3,2.6,2.9,4.2
				c0.7,1.9,1,3.9,1,5.9c0,1.7-0.2,3.4-0.7,5c-0.4,1.3-0.9,2.5-1.7,3.6c-0.6,0.9-1.4,1.6-2.2,2.2c-0.9,0.6-1.9,1-2.9,1.2
				c-1.3,0.3-2.6,0.4-4,0.4L76.5,314.5z M79.8,311.6H85c1.3,0,2.6-0.1,3.8-0.5c0.8-0.2,1.6-0.7,2.2-1.3c0.8-0.9,1.5-2,1.8-3.1
				c0.5-1.5,0.7-3.1,0.6-4.8c0.1-2.1-0.3-4.1-1.3-5.9c-0.7-1.2-1.8-2.2-3.1-2.8c-1.4-0.4-2.8-0.6-4.2-0.5h-5.2L79.8,311.6z"/>
			<path class="st5" d="M113.2,308.8l3.1,0.4c-0.4,1.7-1.4,3.2-2.7,4.3c-3.5,2.3-8.2,1.9-11.3-0.9c-1.6-1.9-2.4-4.3-2.3-6.8
				c-0.2-2.5,0.7-5.1,2.3-7c1.6-1.7,3.7-2.6,6-2.5c2.2-0.1,4.3,0.8,5.9,2.4c1.6,1.9,2.4,4.4,2.3,6.9c0,0.2,0,0.4,0,0.8h-13.3
				c0,1.7,0.6,3.3,1.7,4.5c1,1,2.3,1.6,3.7,1.6c1,0,2-0.3,2.8-0.9C112.2,310.8,112.9,309.9,113.2,308.8z M103.3,303.9h10
				c0-1.2-0.4-2.4-1.1-3.4c-0.9-1.1-2.3-1.8-3.8-1.7c-1.3,0-2.6,0.5-3.5,1.4C103.9,301.2,103.3,302.5,103.3,303.9L103.3,303.9z"/>
			<path class="st5" d="M122.9,314.5h-2.8v-24.7h3v8.8c1.2-1.5,3-2.4,4.9-2.4c1.1,0,2.1,0.2,3.1,0.7c0.9,0.4,1.8,1.1,2.4,1.9
				c0.7,0.9,1.2,1.9,1.5,2.9c0.4,1.2,0.5,2.4,0.5,3.6c0,3.1-0.8,5.4-2.3,7.1c-1.4,1.6-3.4,2.5-5.4,2.5c-2,0.1-3.9-0.9-5-2.6
				L122.9,314.5z M122.9,305.5c-0.1,1.6,0.2,3.2,0.9,4.6c1.1,2.1,3.7,3,5.8,1.9c0.6-0.3,1.1-0.7,1.5-1.2c1.1-1.5,1.6-3.3,1.4-5.1
				c0-2.3-0.5-4.1-1.4-5.2c-0.8-1-2-1.7-3.4-1.7c-1.3,0-2.6,0.6-3.4,1.7C123.3,301.9,122.8,303.7,122.9,305.5z"/>
			<path class="st5" d="M139.3,293.4v-3.5h3v3.5H139.3z M139.3,314.5v-17.9h3v17.9L139.3,314.5z"/>
			<path class="st5" d="M158.6,312.3c-1,0.9-2.1,1.5-3.2,2c-1.1,0.4-2.2,0.6-3.3,0.6c-1.6,0.1-3.3-0.4-4.5-1.4
				c-1-0.9-1.6-2.3-1.6-3.7c0-0.8,0.2-1.7,0.6-2.4c0.4-0.7,0.9-1.3,1.6-1.7c0.7-0.4,1.4-0.8,2.2-1c0.9-0.2,1.8-0.4,2.7-0.5
				c1.8-0.2,3.6-0.5,5.4-1c0-0.4,0-0.7,0-0.8c0.1-1-0.2-1.9-0.9-2.6c-1-0.8-2.2-1.1-3.4-1c-1.1-0.1-2.2,0.2-3.2,0.7
				c-0.8,0.7-1.3,1.6-1.5,2.6l-3-0.4c0.2-1.1,0.7-2.2,1.3-3.1c0.7-0.8,1.6-1.5,2.7-1.8c1.3-0.4,2.7-0.7,4.1-0.6
				c1.3,0,2.5,0.1,3.7,0.5c0.8,0.3,1.5,0.7,2.1,1.4c0.5,0.6,0.8,1.3,0.9,2.1c0.1,0.9,0.2,1.9,0.2,2.8v4c0,1.8,0,3.6,0.2,5.3
				c0.1,0.8,0.4,1.5,0.8,2.1h-3.2C158.9,313.8,158.7,313.1,158.6,312.3z M158.4,305.6c-1.6,0.6-3.3,1-4.9,1.1
				c-0.9,0.1-1.8,0.3-2.6,0.6c-0.5,0.2-0.9,0.5-1.2,1c-0.7,1.1-0.5,2.6,0.5,3.5c0.8,0.6,1.7,0.9,2.7,0.8c1.1,0,2.2-0.2,3.1-0.8
				c0.9-0.5,1.6-1.2,2-2.1c0.4-1,0.5-2,0.5-3L158.4,305.6z"/>
			<path class="st5" d="M166.1,314.5v-17.9h2.7v2.5c1.2-1.9,3.4-3,5.7-2.9c1,0,2,0.2,3,0.6c0.8,0.3,1.5,0.8,2,1.5
				c0.5,0.7,0.8,1.4,0.9,2.2c0.1,1,0.2,2,0.2,2.9v11h-3v-10.9c0-0.9-0.1-1.9-0.4-2.8c-0.2-0.6-0.7-1.1-1.3-1.5
				c-0.6-0.4-1.4-0.6-2.1-0.5c-1.2,0-2.4,0.4-3.3,1.2c-0.9,0.8-1.4,2.4-1.4,4.7v9.8L166.1,314.5z"/>
		</g>
		<path class="st1" d="M829,470.1H12.8c-6.6,0-12-5.4-12.1-12c0,0,0,0,0,0v-64.6c0-6.6,5.4-12,12-12.1c0,0,0,0,0,0H829
			c6.6,0,12,5.4,12.1,12c0,0,0,0,0,0v64.6C840.9,464.7,835.6,470,829,470.1z"/>
		<path class="st6" d="M829,470.8H12.8c-7,0-12.8-5.7-12.8-12.8v-64.6c0-7,5.7-12.8,12.8-12.8H829c7,0,12.8,5.7,12.8,12.8v64.6
			C841.6,465.1,836,470.7,829,470.8z M12.8,382.2c-6.3,0-11.3,5.1-11.3,11.3v64.6c0,6.3,5.1,11.3,11.3,11.3H829
			c6.2-0.2,11.2-5.1,11.3-11.3v-64.6c0-6.3-5.1-11.3-11.3-11.3H12.8z"/>
		<g>
			<path class="st5" d="M65.4,45l5,1.6c-0.5,2.4-1.9,4.6-3.8,6.2c-2,1.4-4.3,2.1-6.8,2c-3.1,0.1-6.2-1.2-8.3-3.5
				c-2.2-2.3-3.3-5.5-3.3-9.5c0-4.2,1.1-7.5,3.3-9.9c2.2-2.4,5.4-3.6,8.6-3.5c2.8-0.1,5.5,0.9,7.6,2.8c1.3,1.3,2.2,2.9,2.6,4.7
				l-5.1,1.2c-0.5-2.6-2.8-4.4-5.4-4.3c-1.8-0.1-3.4,0.7-4.6,2c-1.2,1.4-1.8,3.5-1.8,6.6c0,3.2,0.6,5.5,1.7,6.9
				c1.1,1.3,2.8,2.1,4.5,2c1.3,0,2.6-0.4,3.5-1.3C64.4,47.9,65.1,46.5,65.4,45z"/>
			<path class="st5" d="M73.6,44.8c0-1.6,0.4-3.3,1.2-4.7c0.8-1.5,1.9-2.7,3.4-3.5c1.5-0.8,3.2-1.2,4.9-1.2c2.6-0.1,5,0.9,6.9,2.7
				c1.8,1.8,2.8,4.3,2.7,6.9c0.1,2.6-0.9,5.1-2.7,6.9c-1.8,1.8-4.2,2.8-6.8,2.7c-1.7,0-3.3-0.4-4.8-1.1c-1.5-0.7-2.7-1.9-3.5-3.4
				C74,48.6,73.6,46.7,73.6,44.8z M78.6,45.1c-0.1,1.5,0.4,3,1.3,4.2c1.5,1.8,4.2,2,6,0.4c0.1-0.1,0.3-0.3,0.4-0.4
				c0.9-1.2,1.4-2.7,1.3-4.2c0.1-1.5-0.4-3-1.3-4.2c-1.5-1.8-4.2-2-6-0.4c-0.1,0.1-0.3,0.3-0.4,0.4C79,42.1,78.5,43.6,78.6,45.1
				L78.6,45.1z"/>
			<path class="st5" d="M113.2,54.3h-4.9v-9.4c0.1-1.3,0-2.6-0.3-3.9c-0.2-0.6-0.5-1-1-1.4c-0.5-0.3-1.1-0.5-1.7-0.5
				c-0.8,0-1.6,0.2-2.3,0.7c-0.7,0.4-1.1,1.1-1.4,1.8c-0.3,1.4-0.4,2.8-0.4,4.2v8.3h-4.9V35.9h4.5v2.7c2.1-2.8,5.8-3.9,9-2.5
				c0.8,0.3,1.5,0.8,2,1.5c0.5,0.6,0.8,1.3,1,2c0.2,1.1,0.3,2.2,0.3,3.3L113.2,54.3z"/>
			<path class="st5" d="M126.6,35.9v3.9h-3.3v7.4c0,0.9,0,1.8,0.1,2.6c0.1,0.3,0.2,0.5,0.4,0.6c0.2,0.2,0.5,0.3,0.8,0.2
				c0.7-0.1,1.3-0.2,2-0.5L127,54c-1.2,0.5-2.5,0.8-3.9,0.7c-0.8,0-1.6-0.1-2.4-0.4c-0.6-0.2-1.2-0.6-1.6-1.1
				c-0.4-0.6-0.6-1.2-0.7-1.9c-0.1-1.1-0.2-2.3-0.2-3.4v-8h-2.2v-3.9h2.2v-3.7l4.9-2.8v6.5H126.6z"/>
			<path class="st5" d="M133.6,41.5l-4.4-0.8c0.4-1.6,1.3-3,2.6-4c1.6-1,3.5-1.4,5.4-1.3c1.7-0.1,3.3,0.2,4.9,0.8
				c0.9,0.4,1.7,1.1,2.2,2c0.5,1.4,0.8,2.9,0.6,4.4l-0.1,5.7c0,1.2,0,2.4,0.2,3.6c0.2,0.9,0.5,1.7,0.9,2.5h-4.8
				c-0.1-0.3-0.3-0.8-0.5-1.4c-0.1-0.3-0.1-0.5-0.2-0.6c-0.8,0.8-1.7,1.4-2.7,1.8c-1,0.4-2,0.6-3,0.6c-1.6,0.1-3.2-0.5-4.5-1.5
				c-1.1-1-1.7-2.4-1.6-3.9c0-1,0.2-1.9,0.7-2.8c0.5-0.8,1.2-1.5,2.1-1.9c1.2-0.5,2.5-0.9,3.9-1.1c1.6-0.3,3.2-0.7,4.7-1.2v-0.5
				c0.1-0.7-0.2-1.5-0.7-2c-0.8-0.5-1.7-0.7-2.6-0.6c-0.7,0-1.4,0.1-2,0.5C134.2,40.2,133.8,40.8,133.6,41.5z M140.1,45.5
				c-1,0.3-2,0.5-3,0.7c-0.9,0.1-1.8,0.4-2.7,0.8c-0.6,0.4-1,1-1,1.7c0,0.7,0.3,1.3,0.8,1.8c0.5,0.5,1.2,0.8,1.9,0.7
				c0.9,0,1.8-0.3,2.5-0.9c0.6-0.4,1-1,1.2-1.6c0.2-0.8,0.2-1.6,0.2-2.4L140.1,45.5z"/>
			<path class="st5" d="M149.7,33.4v-4.5h4.9v4.5H149.7z M149.7,54.3V35.9h4.9v18.4L149.7,54.3z"/>
			<path class="st5" d="M176.3,54.3h-4.9v-9.4c0.1-1.3,0-2.6-0.3-3.9c-0.2-0.6-0.5-1-1-1.4c-0.5-0.3-1.1-0.5-1.7-0.5
				c-0.8,0-1.6,0.2-2.3,0.7c-0.7,0.4-1.1,1.1-1.4,1.8c-0.3,1.4-0.4,2.8-0.4,4.2v8.3h-4.9V35.9h4.5v2.7c2.1-2.8,5.8-3.9,9-2.5
				c0.8,0.3,1.5,0.8,2,1.5c0.5,0.6,0.8,1.3,1,2c0.2,1.1,0.3,2.2,0.3,3.3L176.3,54.3z"/>
			<path class="st5" d="M192,48.4l4.9,0.8c-0.5,1.6-1.6,3.1-3,4.1c-1.5,1-3.3,1.5-5.1,1.4c-3.2,0-5.6-1-7.1-3.1
				c-1.3-1.9-1.9-4.1-1.8-6.3c-0.2-2.6,0.7-5.2,2.4-7.2c1.5-1.7,3.8-2.7,6.1-2.6c2.5-0.1,4.8,0.9,6.5,2.7c1.6,1.8,2.3,4.6,2.3,8.3
				h-12.2c0,1.2,0.4,2.4,1.2,3.4c0.7,0.8,1.7,1.2,2.8,1.2c0.7,0,1.4-0.2,1.9-0.6C191.4,49.9,191.8,49.2,192,48.4z M192.2,43.5
				c0.1-1.2-0.3-2.3-1.1-3.2c-1.3-1.4-3.6-1.5-5-0.1c-0.1,0.1-0.1,0.1-0.2,0.2c-0.7,0.9-1.1,2-1,3.2L192.2,43.5z"/>
			<path class="st5" d="M205.7,54.3h-4.9V35.9h4.5v2.6c0.5-1,1.2-1.8,2.1-2.4c0.6-0.4,1.4-0.6,2.1-0.6c1.1,0,2.2,0.3,3.2,0.9
				l-1.5,4.2c-0.7-0.5-1.5-0.8-2.3-0.8c-0.6,0-1.2,0.2-1.7,0.6c-0.6,0.5-1,1.3-1.1,2c-0.4,2-0.5,4.1-0.4,6.2L205.7,54.3z"/>
		</g>
		<path class="st4" d="M522.1,168.3H318.9c-2.6,0-4.7-2.1-4.7-4.7v-62c0-2.6,2.1-4.7,4.7-4.7h203.2c2.6,0,4.7,2.1,4.7,4.7v62
			C526.8,166.2,524.7,168.3,522.1,168.3z"/>
		<path class="st5" d="M522.1,169H318.9c-3,0-5.4-2.5-5.4-5.4v-62c0-3,2.5-5.4,5.4-5.4h203.2c3,0,5.4,2.5,5.4,5.4v62
			C527.5,166.6,525.1,169,522.1,169z M318.9,97.6c-2.2,0-4,1.8-4,4v62c0,2.2,1.8,4,4,4h203.2c2.2,0,4-1.8,4-4v-62c0-2.2-1.8-4-4-4
			H318.9z"/>
		<g>
			<path class="st5" d="M332.1,136.2l3.1-0.3c0.1,1.1,0.4,2.1,1,3c0.6,0.9,1.5,1.5,2.5,1.9c1.2,0.5,2.5,0.8,3.8,0.7
				c1.1,0,2.2-0.2,3.3-0.6c0.8-0.3,1.6-0.8,2.1-1.5c0.5-0.6,0.7-1.3,0.7-2.1c0-0.7-0.2-1.4-0.7-2c-0.6-0.7-1.4-1.2-2.2-1.5
				c-1.4-0.5-2.9-0.9-4.4-1.2c-1.6-0.3-3.2-0.9-4.8-1.5c-1.1-0.5-2-1.3-2.6-2.3c-0.6-0.9-0.9-2-0.9-3.1c0-1.2,0.4-2.5,1.1-3.5
				c0.8-1.1,1.8-2,3.1-2.5c1.4-0.6,3-0.9,4.5-0.8c1.7,0,3.3,0.3,4.8,0.9c1.3,0.5,2.4,1.4,3.2,2.6c0.8,1.2,1.2,2.5,1.2,3.9l-3.1,0.2
				c-0.1-1.4-0.7-2.6-1.7-3.5c-1.3-0.9-2.8-1.3-4.3-1.2c-1.5-0.1-3,0.3-4.3,1.1c-0.8,0.6-1.3,1.6-1.4,2.6c0,0.8,0.3,1.6,1,2.2
				c0.6,0.6,2.3,1.2,4.9,1.8c1.9,0.4,3.7,0.9,5.5,1.6c1.3,0.5,2.4,1.4,3.2,2.5c0.7,1,1,2.3,1,3.5c0,1.3-0.4,2.6-1.1,3.7
				c-0.8,1.2-1.9,2.1-3.2,2.7c-1.5,0.7-3.1,1-4.8,1c-1.9,0.1-3.8-0.3-5.6-1c-1.4-0.6-2.7-1.6-3.5-2.9
				C332.6,139.4,332.1,137.8,332.1,136.2z"/>
			<path class="st5" d="M374.8,141.5c1.3,0.9,2.7,1.7,4.2,2.3l-1,2.3c-1.9-0.7-3.7-1.7-5.3-3c-1.9,1-3.9,1.6-6.1,1.5
				c-2.1,0-4.2-0.5-6.1-1.6c-1.8-1.1-3.3-2.6-4.2-4.5c-1-2.1-1.5-4.3-1.5-6.6c0-2.3,0.5-4.6,1.5-6.6c0.9-1.9,2.4-3.5,4.2-4.6
				c1.9-1.1,4-1.6,6.1-1.6c2.2,0,4.3,0.5,6.2,1.6c1.8,1.1,3.3,2.6,4.2,4.5c1,2.1,1.5,4.3,1.4,6.6c0,1.9-0.3,3.7-0.9,5.5
				C377,138.9,376.1,140.3,374.8,141.5z M367.6,137.4c1.7,0.4,3.3,1.2,4.7,2.4c1.9-1.7,2.9-4.4,2.9-7.9c0-1.8-0.3-3.6-1-5.2
				c-0.6-1.4-1.7-2.6-3-3.5c-3.4-2-7.7-1.5-10.5,1.3c-1.6,1.7-2.4,4.2-2.4,7.5c0,3.2,0.8,5.7,2.4,7.4c1.6,1.7,3.8,2.6,6.1,2.6
				c1.1,0,2.3-0.2,3.3-0.7c-1-0.6-2.1-1.1-3.2-1.4L367.6,137.4z"/>
			<path class="st5" d="M382.8,144.2v-24.7h3.3v21.7h12.1v2.9L382.8,144.2z"/>
			<path class="st5" d="M409.3,136.2l3.1-0.3c0.1,1.1,0.4,2.1,1,3c0.6,0.9,1.5,1.5,2.5,1.9c1.2,0.5,2.5,0.8,3.8,0.7
				c1.1,0,2.2-0.2,3.3-0.6c0.8-0.3,1.6-0.8,2.1-1.5c0.5-0.6,0.7-1.3,0.7-2.1c0-0.7-0.2-1.4-0.7-2c-0.6-0.7-1.4-1.2-2.2-1.5
				c-1.4-0.5-2.9-0.9-4.4-1.2c-1.6-0.3-3.2-0.9-4.8-1.5c-1.1-0.5-2-1.3-2.6-2.3c-0.6-0.9-0.9-2-0.9-3.1c0-1.2,0.4-2.5,1.1-3.5
				c0.8-1.1,1.8-2,3.1-2.5c1.4-0.6,3-0.9,4.5-0.8c1.7,0,3.3,0.3,4.8,0.9c1.3,0.5,2.4,1.4,3.2,2.6c0.8,1.2,1.2,2.5,1.2,3.9l-3.1,0.2
				c-0.1-1.4-0.7-2.6-1.7-3.5c-1.3-0.9-2.8-1.3-4.3-1.2c-1.5-0.1-3,0.3-4.3,1.1c-0.8,0.6-1.3,1.6-1.4,2.6c0,0.8,0.3,1.6,1,2.2
				c0.6,0.6,2.3,1.2,4.9,1.8c1.9,0.4,3.7,0.9,5.5,1.6c1.3,0.5,2.4,1.4,3.2,2.5c0.7,1,1,2.3,1,3.5c0,1.3-0.4,2.6-1.1,3.7
				c-0.8,1.2-1.9,2.1-3.2,2.7c-1.5,0.7-3.1,1-4.8,1c-1.9,0.1-3.8-0.3-5.6-1c-1.4-0.6-2.7-1.6-3.5-2.9
				C409.8,139.4,409.3,137.8,409.3,136.2z"/>
			<path class="st5" d="M445.2,138.4l3.1,0.4c-0.4,1.7-1.4,3.2-2.7,4.3c-3.5,2.3-8.2,1.9-11.3-0.9c-1.6-1.9-2.4-4.3-2.3-6.8
				c-0.2-2.5,0.7-5.1,2.3-7c1.6-1.7,3.7-2.6,6-2.5c2.2-0.1,4.3,0.8,5.9,2.4c1.6,1.9,2.4,4.4,2.3,6.9c0,0.2,0,0.4,0,0.8h-13.3
				c0,1.7,0.6,3.3,1.7,4.5c1,1,2.3,1.6,3.7,1.6c1,0,2-0.3,2.8-0.9C444.2,140.5,444.9,139.5,445.2,138.4z M435.3,133.5h10
				c0-1.2-0.4-2.4-1.1-3.4c-0.9-1.1-2.3-1.8-3.8-1.7c-1.3,0-2.6,0.5-3.5,1.4C435.8,130.8,435.3,132.1,435.3,133.5L435.3,133.5z"/>
			<path class="st5" d="M452.1,144.2v-17.9h2.7v2.7c0.5-1,1.1-1.8,1.9-2.5c0.6-0.4,1.2-0.6,1.9-0.6c1.1,0,2.2,0.4,3.1,1l-1,2.8
				c-0.7-0.4-1.4-0.6-2.2-0.7c-0.6,0-1.3,0.2-1.8,0.6c-0.5,0.4-0.9,1-1.1,1.7c-0.3,1.1-0.5,2.3-0.5,3.5v9.4L452.1,144.2z"/>
			<path class="st5" d="M468.6,144.2l-6.8-17.9h3.2l3.8,10.7c0.4,1.2,0.8,2.4,1.1,3.6c0.3-0.9,0.6-2.1,1.1-3.4l4-10.9h3.1l-6.8,17.9
				H468.6z"/>
			<path class="st5" d="M493,138.4l3.1,0.4c-0.4,1.7-1.4,3.2-2.7,4.3c-3.5,2.3-8.2,1.9-11.3-0.9c-1.6-1.9-2.4-4.3-2.3-6.8
				c-0.2-2.5,0.7-5.1,2.3-7c1.6-1.7,3.7-2.6,6-2.5c2.2-0.1,4.3,0.8,5.9,2.4c1.6,1.9,2.4,4.4,2.3,6.9c0,0.2,0,0.4,0,0.8h-13.3
				c0,1.7,0.6,3.3,1.7,4.5c1,1,2.3,1.6,3.7,1.6c1,0,2-0.3,2.8-0.9C492.1,140.5,492.7,139.5,493,138.4z M483.1,133.5h10
				c0-1.2-0.4-2.4-1.1-3.4c-0.9-1.1-2.3-1.8-3.8-1.7c-1.3,0-2.6,0.5-3.5,1.4C483.7,130.8,483.1,132.1,483.1,133.5z"/>
			<path class="st5" d="M499.9,144.2v-17.9h2.7v2.7c0.5-1,1.1-1.8,1.9-2.5c0.6-0.4,1.2-0.6,1.9-0.6c1.1,0,2.2,0.4,3.1,1l-1,2.8
				c-0.7-0.4-1.4-0.6-2.2-0.7c-0.6,0-1.3,0.2-1.8,0.6c-0.5,0.4-0.9,1-1.1,1.7c-0.3,1.1-0.5,2.3-0.5,3.5v9.4L499.9,144.2z"/>
		</g>
		<path class="st4" d="M522.1,254.4H318.9c-2.6,0-4.7-2.1-4.7-4.7v-62c0-2.6,2.1-4.7,4.7-4.7h203.2c2.6,0,4.7,2.1,4.7,4.7v62
			C526.8,252.3,524.7,254.4,522.1,254.4z"/>
		<path class="st5" d="M522.1,255.1H318.9c-3,0-5.4-2.5-5.4-5.4v-62c0-3,2.5-5.4,5.4-5.4h203.2c3,0,5.4,2.5,5.4,5.4v62
			C527.5,252.7,525.1,255.1,522.1,255.1z M318.9,183.7c-2.2,0-4,1.8-4,4v62c0,2.2,1.8,4,4,4h203.2c2.2,0,4-1.8,4-4v-62
			c0-2.2-1.8-4-4-4H318.9z"/>
		<g>
			<path class="st5" d="M384.4,230.1v-3.4h3.4v3.4L384.4,230.1z"/>
			<path class="st5" d="M393.4,230.1v-24.7h3.3l12.9,19.4v-19.4h3.1v24.7h-3.3l-12.9-19.4v19.4L393.4,230.1z"/>
			<path class="st5" d="M418.4,230.1v-24.7h17.8v2.9h-14.6v7.6h13.6v2.9h-13.6v8.4h15.1v2.9L418.4,230.1z"/>
			<path class="st5" d="M447.6,230.1v-21.7h-8.1v-2.9H459v2.9h-8.2v21.7H447.6z"/>
		</g>
		<path class="st4" d="M522.1,340.1H318.9c-2.6,0-4.7-2.1-4.7-4.7v-62c0-2.6,2.1-4.7,4.7-4.7h203.2c2.6,0,4.7,2.1,4.7,4.7v62
			C526.8,338,524.7,340.1,522.1,340.1z"/>
		<path class="st5" d="M522.1,340.8H318.9c-3,0-5.4-2.5-5.4-5.4v-62c0-3,2.5-5.4,5.4-5.4h203.2c3,0,5.4,2.5,5.4,5.4v62
			C527.5,338.4,525.1,340.8,522.1,340.8z M318.9,269.4c-2.2,0-4,1.8-4,4v62c0,2.2,1.8,4,4,4h203.2c2.2,0,4-1.8,4-4v-62
			c0-2.2-1.8-4-4-4H318.9z"/>
		<g>
			<path class="st5" d="M383.8,291.3h3.3v14.2c0.1,2-0.2,4-0.8,5.9c-0.6,1.5-1.7,2.7-3,3.6c-1.8,1-3.7,1.5-5.8,1.4
				c-2,0.1-3.9-0.3-5.7-1.2c-1.4-0.7-2.5-2-3.1-3.5c-0.7-2-1-4.1-0.9-6.2v-14.2h3.3v14.2c-0.1,1.6,0.1,3.2,0.6,4.7
				c0.4,1,1.1,1.8,2.1,2.3c1.1,0.6,2.3,0.9,3.6,0.8c2.4,0,4.1-0.5,5.1-1.6c1-1.1,1.5-3.2,1.5-6.3V291.3z"/>
			<path class="st5" d="M394.9,316h-2.8v-24.7h3v8.8c1.2-1.5,3-2.4,4.9-2.4c1.1,0,2.1,0.2,3.1,0.7c0.9,0.4,1.8,1.1,2.4,1.9
				c0.7,0.9,1.2,1.9,1.5,2.9c0.4,1.2,0.5,2.4,0.5,3.6c0,3.1-0.8,5.4-2.3,7.1c-1.4,1.6-3.4,2.5-5.4,2.5c-2,0.1-3.9-0.9-5-2.6
				L394.9,316z M394.8,306.9c-0.1,1.6,0.2,3.2,0.9,4.6c1.1,2.1,3.7,3,5.8,1.9c0.6-0.3,1.1-0.7,1.5-1.2c1.1-1.5,1.6-3.3,1.4-5.1
				c0-2.3-0.5-4.1-1.4-5.2c-0.8-1-2-1.7-3.4-1.7c-1.3,0-2.6,0.6-3.4,1.7C395.2,303.4,394.7,305.1,394.8,306.9L394.8,306.9z"/>
			<path class="st5" d="M423,316v-2.6c-1.2,1.9-3.4,3.1-5.7,3c-1,0-2-0.2-3-0.6c-0.8-0.3-1.5-0.8-2-1.5c-0.5-0.7-0.8-1.4-0.9-2.2
				c-0.1-0.9-0.2-1.9-0.2-2.8v-11.1h3v9.9c0,1.1,0,2.1,0.2,3.2c0.2,0.8,0.6,1.4,1.2,1.9c0.7,0.5,1.5,0.7,2.3,0.7
				c0.9,0,1.8-0.2,2.6-0.7c0.8-0.4,1.4-1.1,1.7-1.9c0.4-1.1,0.5-2.3,0.5-3.5v-9.6h3V316L423,316z"/>
			<path class="st5" d="M430.4,316v-17.9h2.7v2.5c1.2-1.9,3.4-3,5.7-2.9c1,0,2,0.2,3,0.6c0.8,0.3,1.5,0.8,2,1.5
				c0.5,0.7,0.8,1.4,0.9,2.2c0.1,1,0.2,2,0.2,2.9v11h-3v-10.9c0-0.9-0.1-1.9-0.4-2.8c-0.2-0.6-0.7-1.1-1.3-1.5
				c-0.6-0.4-1.4-0.6-2.1-0.5c-1.2,0-2.4,0.4-3.3,1.2c-0.9,0.8-1.4,2.4-1.4,4.7v9.8L430.4,316z"/>
			<path class="st5" d="M456.2,313.3l0.4,2.7c-0.8,0.2-1.5,0.3-2.3,0.3c-0.9,0-1.8-0.1-2.6-0.5c-0.6-0.3-1-0.8-1.3-1.4
				c-0.3-1.2-0.4-2.4-0.4-3.6v-10.3h-2.2v-2.4h2.2v-4.4l3-1.8v6.2h3v2.4h-3v10.4c0,0.6,0,1.1,0.2,1.7c0.1,0.2,0.3,0.5,0.5,0.6
				c0.3,0.2,0.7,0.2,1,0.2C455.3,313.4,455.7,313.3,456.2,313.3z"/>
			<path class="st5" d="M470.8,316v-2.6c-1.2,1.9-3.4,3.1-5.7,3c-1,0-2-0.2-3-0.6c-0.8-0.3-1.5-0.8-2-1.5c-0.5-0.7-0.8-1.4-0.9-2.2
				c-0.1-0.9-0.2-1.9-0.2-2.8v-11.1h3v9.9c0,1.1,0,2.1,0.2,3.2c0.2,0.8,0.6,1.4,1.2,1.9c0.7,0.5,1.5,0.7,2.3,0.7
				c0.9,0,1.8-0.2,2.6-0.7c0.8-0.4,1.4-1.1,1.7-1.9c0.4-1.1,0.5-2.3,0.5-3.5v-9.6h3V316L470.8,316z"/>
		</g>
		<g>
			<path class="st5" d="M357.5,45l5,1.6c-0.5,2.4-1.9,4.6-3.8,6.2c-4.7,3.2-11,2.6-15.1-1.4c-2.2-2.3-3.3-5.5-3.3-9.5
				c0-4.2,1.1-7.5,3.3-9.9c2.2-2.4,5.4-3.6,8.6-3.5c2.8-0.1,5.5,0.9,7.6,2.8c1.3,1.3,2.2,2.9,2.6,4.7l-5.1,1.2
				c-0.5-2.6-2.8-4.4-5.4-4.3c-1.8-0.1-3.4,0.7-4.6,2c-1.2,1.4-1.8,3.5-1.8,6.6c0,3.2,0.6,5.5,1.7,6.9c1.1,1.3,2.8,2.1,4.5,2
				c1.3,0,2.6-0.4,3.5-1.3C356.5,47.9,357.2,46.5,357.5,45z"/>
			<path class="st5" d="M365.7,44.8c0-1.6,0.4-3.3,1.2-4.7c0.8-1.5,1.9-2.7,3.4-3.5c1.5-0.8,3.2-1.2,4.9-1.2c2.6-0.1,5,0.9,6.9,2.7
				c1.8,1.8,2.8,4.3,2.7,6.9c0.1,2.6-0.9,5.1-2.7,6.9c-1.8,1.8-4.2,2.8-6.8,2.7c-1.7,0-3.3-0.4-4.8-1.1c-1.5-0.7-2.7-1.9-3.5-3.4
				C366,48.6,365.6,46.7,365.7,44.8z M370.7,45.1c-0.1,1.5,0.4,3,1.3,4.2c1.5,1.8,4.2,2,6,0.4c0.1-0.1,0.3-0.3,0.4-0.4
				c0.9-1.2,1.4-2.7,1.3-4.2c0.1-1.5-0.4-3-1.3-4.2c-1.5-1.8-4.2-2-6-0.4c-0.1,0.1-0.3,0.3-0.4,0.4C371,42.1,370.6,43.6,370.7,45.1
				L370.7,45.1z"/>
			<path class="st5" d="M405.3,54.3h-4.9v-9.4c0.1-1.3,0-2.6-0.3-3.9c-0.2-0.6-0.5-1-1-1.4c-0.5-0.3-1.1-0.5-1.7-0.5
				c-0.8,0-1.6,0.2-2.3,0.7c-0.7,0.4-1.1,1.1-1.4,1.8c-0.3,1.4-0.4,2.8-0.4,4.2v8.3h-4.9V35.9h4.5v2.7c2.1-2.8,5.8-3.9,9-2.5
				c0.8,0.3,1.5,0.8,2,1.5c0.5,0.6,0.8,1.3,1,2c0.2,1.1,0.3,2.2,0.3,3.3L405.3,54.3z"/>
			<path class="st5" d="M418.6,35.9v3.9h-3.3v7.4c0,0.9,0,1.8,0.1,2.6c0.1,0.3,0.2,0.5,0.4,0.6c0.2,0.2,0.5,0.3,0.8,0.2
				c0.7-0.1,1.3-0.2,2-0.5L419,54c-1.2,0.5-2.5,0.8-3.9,0.7c-0.8,0-1.6-0.1-2.4-0.4c-0.6-0.2-1.2-0.6-1.6-1.1
				c-0.4-0.6-0.6-1.2-0.7-1.9c-0.1-1.1-0.2-2.3-0.2-3.4v-8h-2.2v-3.9h2.2v-3.7l4.9-2.8v6.5H418.6z"/>
			<path class="st5" d="M425.7,41.5l-4.4-0.8c0.4-1.6,1.3-3,2.6-4c1.6-1,3.5-1.4,5.4-1.3c1.7-0.1,3.3,0.2,4.9,0.8
				c0.9,0.4,1.7,1.1,2.2,2c0.5,1.4,0.8,2.9,0.6,4.4l-0.1,5.7c0,1.2,0,2.4,0.2,3.6c0.2,0.9,0.5,1.7,0.9,2.5h-4.8
				c-0.1-0.3-0.3-0.8-0.5-1.4c-0.1-0.3-0.1-0.5-0.2-0.6c-0.8,0.8-1.7,1.4-2.7,1.8c-1,0.4-2,0.6-3,0.6c-1.6,0.1-3.2-0.5-4.5-1.5
				c-1.1-1-1.7-2.4-1.6-3.9c0-1,0.2-1.9,0.7-2.8c0.5-0.8,1.2-1.5,2.1-1.9c1.2-0.5,2.5-0.9,3.9-1.1c1.6-0.3,3.2-0.7,4.7-1.2v-0.5
				c0.1-0.7-0.2-1.5-0.7-2c-0.8-0.5-1.7-0.7-2.6-0.6c-0.7,0-1.4,0.1-2,0.5C426.3,40.2,425.9,40.8,425.7,41.5z M432.2,45.5
				c-1,0.3-2,0.5-3,0.7c-0.9,0.1-1.8,0.4-2.7,0.8c-0.6,0.4-1,1-1,1.7c0,0.7,0.3,1.3,0.8,1.8c0.5,0.5,1.2,0.8,1.9,0.7
				c0.9,0,1.8-0.3,2.5-0.9c0.6-0.4,1-1,1.2-1.6c0.2-0.8,0.2-1.6,0.2-2.4L432.2,45.5z"/>
			<path class="st5" d="M441.8,33.4v-4.5h4.9v4.5H441.8z M441.8,54.3V35.9h4.9v18.4L441.8,54.3z"/>
			<path class="st5" d="M468.4,54.3h-4.9v-9.4c0.1-1.3,0-2.6-0.3-3.9c-0.2-0.6-0.5-1-1-1.4c-0.5-0.3-1.1-0.5-1.7-0.5
				c-0.8,0-1.6,0.2-2.3,0.7c-0.7,0.4-1.1,1.1-1.4,1.8c-0.3,1.4-0.4,2.8-0.4,4.2v8.3h-4.9V35.9h4.5v2.7c2.1-2.8,5.8-3.9,9-2.5
				c0.8,0.3,1.5,0.8,2,1.5c0.5,0.6,0.8,1.3,1,2c0.2,1.1,0.3,2.2,0.3,3.3L468.4,54.3z"/>
			<path class="st5" d="M484,48.4l4.9,0.8c-0.5,1.6-1.6,3.1-3,4.1c-1.5,1-3.3,1.5-5.1,1.4c-3.2,0-5.6-1-7.1-3.1
				c-1.3-1.9-1.9-4.1-1.8-6.3c-0.2-2.6,0.7-5.2,2.4-7.2c1.5-1.7,3.8-2.7,6.1-2.6c2.5-0.1,4.8,0.9,6.5,2.7c1.6,1.8,2.3,4.6,2.3,8.3
				h-12.2c0,1.2,0.4,2.4,1.2,3.4c0.7,0.8,1.7,1.2,2.8,1.2c0.7,0,1.4-0.2,1.9-0.6C483.4,49.9,483.8,49.2,484,48.4z M484.3,43.5
				c0-1.2-0.3-2.3-1.1-3.2c-1.3-1.4-3.6-1.5-5-0.1c-0.1,0.1-0.1,0.1-0.2,0.2c-0.7,0.9-1.1,2-1,3.2L484.3,43.5z"/>
			<path class="st5" d="M497.8,54.3h-4.9V35.9h4.5v2.6c0.5-1,1.2-1.8,2.1-2.4c0.6-0.4,1.4-0.6,2.1-0.6c1.1,0,2.2,0.3,3.2,0.9
				l-1.5,4.2c-0.7-0.5-1.5-0.8-2.3-0.8c-0.6,0-1.2,0.2-1.7,0.6c-0.6,0.5-1,1.3-1.1,2c-0.4,2-0.5,4.1-0.4,6.2L497.8,54.3z"/>
		</g>
		<g>
			<path class="st5" d="M344.1,440.9v-25.4h5.1v11.3l10.4-11.3h6.9l-9.6,9.9l10.1,15.5h-6.6l-7-11.9l-4.2,4.2v7.7L344.1,440.9z"/>
			<path class="st5" d="M380.3,435l4.9,0.8c-0.5,1.6-1.6,3.1-3,4.1c-1.5,1-3.3,1.5-5.1,1.4c-3.2,0-5.6-1-7.1-3.1
				c-1.3-1.9-1.9-4.1-1.8-6.3c-0.2-2.6,0.7-5.2,2.4-7.2c1.5-1.7,3.8-2.7,6.1-2.6c2.5-0.1,4.8,0.9,6.5,2.7c1.6,1.8,2.3,4.6,2.3,8.3
				h-12.2c0,1.2,0.4,2.4,1.2,3.4c0.7,0.8,1.7,1.2,2.8,1.2c0.7,0,1.4-0.2,1.9-0.6C379.8,436.5,380.2,435.8,380.3,435z M380.6,430.1
				c0.1-1.2-0.3-2.3-1.1-3.2c-1.3-1.4-3.6-1.5-5-0.1c-0.1,0.1-0.1,0.1-0.2,0.2c-0.7,0.9-1.1,2-1,3.2L380.6,430.1z"/>
			<path class="st5" d="M394.1,440.9h-4.9v-18.4h4.5v2.6c0.5-1,1.2-1.8,2.1-2.4c0.6-0.4,1.4-0.6,2.1-0.6c1.1,0,2.2,0.3,3.2,0.9
				l-1.5,4.2c-0.7-0.5-1.5-0.8-2.3-0.8c-0.6,0-1.2,0.2-1.7,0.6c-0.6,0.5-1,1.3-1.1,2c-0.4,2-0.5,4.1-0.4,6.2L394.1,440.9z"/>
			<path class="st5" d="M420,440.9h-4.9v-9.4c0.1-1.3,0-2.6-0.3-3.9c-0.2-0.6-0.5-1-1-1.4c-0.5-0.3-1.1-0.5-1.7-0.5
				c-0.8,0-1.6,0.2-2.3,0.7c-0.7,0.4-1.1,1.1-1.4,1.8c-0.3,1.4-0.4,2.8-0.4,4.2v8.3h-4.9v-18.4h4.5v2.7c2.1-2.8,5.8-3.9,9-2.5
				c0.8,0.3,1.5,0.8,2,1.5c0.5,0.6,0.8,1.3,1,2c0.2,1.1,0.3,2.2,0.3,3.3L420,440.9z"/>
			<path class="st5" d="M435.6,435l4.9,0.8c-0.5,1.6-1.6,3.1-3,4.1c-1.5,1-3.3,1.5-5.1,1.4c-3.2,0-5.6-1-7.1-3.1
				c-1.3-1.9-1.9-4.1-1.8-6.3c-0.2-2.6,0.7-5.2,2.4-7.2c1.5-1.7,3.8-2.7,6.1-2.6c2.5-0.1,4.8,0.9,6.5,2.7c1.6,1.8,2.3,4.6,2.3,8.3
				h-12.2c0,1.2,0.4,2.4,1.2,3.4c0.7,0.8,1.7,1.2,2.8,1.2c0.7,0,1.4-0.2,1.9-0.6C435,436.5,435.4,435.8,435.6,435z M435.9,430.1
				c0.1-1.2-0.3-2.3-1.1-3.2c-1.3-1.4-3.6-1.5-5-0.1c-0.1,0.1-0.1,0.1-0.2,0.2c-0.7,0.9-1.1,2-1,3.2L435.9,430.1z"/>
			<path class="st5" d="M444.7,440.9v-25.4h4.9v25.4H444.7z"/>
		</g>
		<path class="st4" d="M814,255.7H610.8c-2.6,0-4.7-2.1-4.7-4.7v-62c0-2.6,2.1-4.7,4.7-4.7H814c2.6,0,4.7,2.1,4.7,4.7v62
			C819.1,253.6,817,255.7,814,255.7z"/>
		<path class="st5" d="M814,256.4H610.8c-3,0-5.4-2.5-5.4-5.4v-62c0-3,2.5-5.4,5.4-5.4H814c3,0,5.4,2.5,5.4,5.4v61.9
			c0.2,1.3-0.2,2.6-1,3.6C817.3,255.8,815.6,256.5,814,256.4z M610.8,185c-2.2,0-4,1.8-4,4v62c0,2.2,1.8,4,4,4H814
			c1.3,0,2.5-0.5,3.3-1.4c0.6-0.7,0.8-1.6,0.7-2.5c0,0,0-0.1,0-0.1v-62c0-2.2-1.8-4-4-4H610.8z"/>
		<g>
			<path class="st5" d="M617.4,223.6l3.1-0.3c0.1,1.1,0.4,2.1,1,3c0.6,0.9,1.5,1.5,2.5,1.9c1.2,0.5,2.5,0.8,3.8,0.7
				c1.1,0,2.2-0.2,3.3-0.6c0.8-0.3,1.6-0.8,2.1-1.5c0.5-0.6,0.7-1.3,0.7-2.1c0-0.7-0.2-1.4-0.7-2c-0.6-0.7-1.4-1.2-2.2-1.5
				c-1.4-0.5-2.9-0.9-4.4-1.2c-1.6-0.3-3.2-0.9-4.8-1.5c-1.1-0.5-2-1.3-2.6-2.3c-0.6-0.9-0.9-2-0.9-3.1c0-1.2,0.4-2.5,1.1-3.5
				c0.8-1.1,1.8-2,3.1-2.5c1.4-0.6,3-0.9,4.5-0.8c1.7,0,3.3,0.3,4.8,0.9c1.3,0.5,2.4,1.4,3.2,2.6c0.8,1.2,1.2,2.5,1.2,3.9l-3.1,0.2
				c-0.1-1.4-0.7-2.6-1.7-3.5c-1.3-0.9-2.8-1.3-4.3-1.2c-1.5-0.1-3,0.3-4.3,1.1c-0.8,0.6-1.3,1.6-1.4,2.6c0,0.8,0.3,1.6,1,2.2
				c0.6,0.6,2.3,1.2,4.9,1.8c1.9,0.4,3.7,0.9,5.5,1.6c1.3,0.5,2.4,1.4,3.2,2.5c0.7,1,1,2.3,1,3.5c0,1.3-0.4,2.6-1.1,3.7
				c-0.8,1.2-1.9,2.1-3.2,2.7c-1.5,0.7-3.1,1-4.8,1c-1.9,0.1-3.8-0.3-5.6-1c-1.4-0.6-2.7-1.6-3.5-2.9
				C617.9,226.7,617.4,225.2,617.4,223.6z"/>
			<path class="st5" d="M647.7,228.8l0.4,2.7c-0.8,0.2-1.5,0.3-2.3,0.3c-0.9,0-1.8-0.1-2.6-0.5c-0.6-0.3-1-0.8-1.3-1.4
				c-0.3-1.2-0.4-2.4-0.4-3.6V216h-2.2v-2.4h2.2v-4.4l3-1.8v6.2h3v2.4h-3v10.4c0,0.6,0,1.1,0.2,1.7c0.1,0.2,0.3,0.5,0.5,0.6
				c0.3,0.2,0.7,0.2,1,0.2C646.8,228.9,647.3,228.9,647.7,228.8z"/>
			<path class="st5" d="M662.3,229.3c-1,0.9-2.1,1.5-3.2,2c-1.1,0.4-2.2,0.6-3.3,0.6c-1.6,0.1-3.3-0.4-4.5-1.4
				c-1-0.9-1.6-2.3-1.6-3.7c0-0.8,0.2-1.7,0.6-2.4c0.4-0.7,0.9-1.3,1.6-1.7c0.7-0.4,1.4-0.8,2.2-1c0.9-0.2,1.8-0.4,2.7-0.5
				c1.8-0.2,3.6-0.5,5.4-1c0-0.4,0-0.7,0-0.8c0.1-1-0.2-1.9-0.9-2.6c-1-0.8-2.2-1.1-3.4-1c-1.1-0.1-2.2,0.2-3.2,0.7
				c-0.8,0.7-1.3,1.6-1.5,2.6l-3-0.4c0.2-1.1,0.7-2.2,1.3-3.1c0.7-0.8,1.6-1.5,2.7-1.8c1.3-0.4,2.7-0.7,4.1-0.6
				c1.3,0,2.5,0.1,3.7,0.5c0.8,0.3,1.5,0.7,2.1,1.4c0.5,0.6,0.8,1.3,0.9,2.1c0.1,0.9,0.2,1.9,0.2,2.8v4c0,1.8,0,3.6,0.2,5.3
				c0.1,0.8,0.4,1.5,0.8,2.1h-3.2C662.6,230.8,662.4,230.1,662.3,229.3z M662.1,222.5c-1.6,0.6-3.3,1-4.9,1.1
				c-0.9,0.1-1.8,0.3-2.6,0.6c-0.5,0.2-0.9,0.5-1.2,1c-0.7,1.1-0.5,2.6,0.5,3.5c0.8,0.6,1.7,0.9,2.7,0.8c1.1,0,2.2-0.2,3.1-0.8
				c0.9-0.5,1.6-1.2,2-2.1c0.4-1,0.5-2,0.5-3V222.5z"/>
			<path class="st5" d="M676.4,228.8l0.4,2.7c-0.8,0.2-1.5,0.3-2.3,0.3c-0.9,0-1.8-0.1-2.6-0.5c-0.6-0.3-1-0.8-1.3-1.4
				c-0.3-1.2-0.4-2.4-0.4-3.6V216h-2.2v-2.4h2.2v-4.4l3-1.8v6.2h3v2.4h-3v10.4c0,0.6,0,1.1,0.2,1.7c0.1,0.2,0.3,0.5,0.5,0.6
				c0.3,0.2,0.7,0.2,1,0.2C675.6,228.9,676,228.9,676.4,228.8z"/>
			<path class="st5" d="M679.4,210.3v-3.5h3v3.5H679.4z M679.4,231.5v-17.9h3v17.9H679.4z"/>
			<path class="st5" d="M698.7,225l3,0.4c-0.2,1.9-1.1,3.6-2.5,4.8c-1.4,1.2-3.1,1.8-4.9,1.7c-2.2,0.1-4.4-0.8-5.9-2.4
				c-1.5-1.6-2.2-3.9-2.2-6.9c0-1.7,0.3-3.5,1-5.1c0.6-1.4,1.6-2.5,2.9-3.3c1.3-0.7,2.8-1.1,4.3-1.1c1.7-0.1,3.4,0.4,4.8,1.5
				c1.3,1.1,2.1,2.5,2.4,4.2l-2.9,0.5c-0.2-1-0.7-2-1.5-2.7c-0.7-0.6-1.6-0.9-2.6-0.9c-1.4,0-2.8,0.6-3.7,1.6
				c-1,1.1-1.4,2.8-1.4,5.2c0,2.4,0.5,4.1,1.4,5.2c0.9,1.1,2.2,1.7,3.6,1.6c1.1,0,2.2-0.4,3-1.1C698.1,227.4,698.6,226.2,698.7,225z
				"/>
			<path class="st5" d="M714.1,231.5v-24.7h9.2c1.5-0.1,3.1,0.2,4.5,0.7c1.1,0.5,2,1.3,2.7,2.3c0.6,1,1,2.1,1,3.3
				c0,1.1-0.3,2.1-0.9,3c-0.6,1-1.5,1.8-2.6,2.3c1.4,0.4,2.6,1.1,3.4,2.2c0.8,1.1,1.2,2.4,1.2,3.7c0,1.1-0.2,2.2-0.7,3.2
				c-0.4,0.9-1,1.7-1.8,2.3c-0.8,0.6-1.7,1-2.7,1.2c-1.3,0.3-2.6,0.4-4,0.4L714.1,231.5z M717.4,217.2h5.3c1,0,2.1-0.1,3.1-0.3
				c0.7-0.2,1.4-0.6,1.9-1.2c0.4-0.6,0.7-1.4,0.6-2.2c0-0.8-0.2-1.5-0.6-2.2c-0.4-0.6-1-1.1-1.7-1.3c-1.2-0.3-2.5-0.4-3.8-0.3h-4.9
				V217.2z M717.4,228.6h6.1c0.7,0,1.5,0,2.2-0.1c0.7-0.1,1.3-0.3,1.9-0.7c0.5-0.3,1-0.8,1.2-1.4c0.3-0.6,0.5-1.4,0.5-2.1
				c0-0.9-0.2-1.7-0.7-2.4c-0.5-0.7-1.2-1.2-2-1.4c-1.2-0.3-2.4-0.5-3.6-0.4h-5.7L717.4,228.6z"/>
			<path class="st5" d="M736.8,210.3v-3.5h3v3.5H736.8z M736.8,231.5v-17.9h3v17.9H736.8z"/>
			<path class="st5" d="M744.5,231.5v-17.9h2.7v2.5c1.2-1.9,3.4-3,5.7-2.9c1,0,2,0.2,3,0.6c0.8,0.3,1.5,0.8,2,1.5
				c0.5,0.7,0.8,1.4,0.9,2.2c0.1,1,0.2,2,0.2,2.9v11h-3v-10.9c0-0.9-0.1-1.9-0.4-2.8c-0.2-0.6-0.7-1.1-1.3-1.5
				c-0.6-0.4-1.4-0.6-2.1-0.5c-1.2,0-2.4,0.4-3.3,1.2c-0.9,0.8-1.4,2.4-1.4,4.7v9.8H744.5z"/>
			<path class="st5" d="M775.3,229.3c-1,0.9-2.1,1.5-3.2,2c-1.1,0.4-2.2,0.6-3.3,0.6c-1.6,0.1-3.3-0.4-4.5-1.4
				c-1-0.9-1.6-2.3-1.6-3.7c0-0.8,0.2-1.7,0.6-2.4c0.4-0.7,0.9-1.3,1.6-1.7c0.7-0.4,1.4-0.8,2.2-1c0.9-0.2,1.8-0.4,2.7-0.5
				c1.8-0.2,3.6-0.5,5.4-1c0-0.4,0-0.7,0-0.8c0.1-1-0.2-1.9-0.9-2.6c-1-0.8-2.2-1.1-3.4-1c-1.1-0.1-2.2,0.2-3.2,0.7
				c-0.8,0.7-1.3,1.6-1.5,2.6l-3-0.4c0.2-1.1,0.7-2.2,1.3-3.1c0.7-0.8,1.6-1.5,2.7-1.8c1.3-0.4,2.7-0.7,4.1-0.6
				c1.3,0,2.5,0.1,3.7,0.5c0.8,0.3,1.5,0.7,2.1,1.4c0.5,0.6,0.8,1.3,0.9,2.1c0.1,0.9,0.2,1.9,0.2,2.8v4c0,1.8,0,3.6,0.2,5.3
				c0.1,0.8,0.4,1.5,0.8,2.1h-3.2C775.6,230.8,775.4,230.1,775.3,229.3z M775,222.5c-1.6,0.6-3.3,1-4.9,1.1
				c-0.9,0.1-1.8,0.3-2.6,0.6c-0.5,0.2-0.9,0.5-1.2,1c-0.7,1.1-0.5,2.6,0.5,3.5c0.8,0.6,1.7,0.9,2.7,0.8c1.1,0,2.2-0.2,3.1-0.8
				c0.9-0.5,1.6-1.2,2-2.1c0.4-1,0.5-2,0.5-3L775,222.5z"/>
			<path class="st5" d="M782.8,231.5v-17.9h2.7v2.7c0.5-1,1.1-1.8,1.9-2.5c0.6-0.4,1.2-0.6,1.9-0.6c1.1,0,2.2,0.4,3.1,1l-1,2.8
				c-0.7-0.4-1.4-0.6-2.2-0.7c-0.6,0-1.3,0.2-1.8,0.6c-0.5,0.4-0.9,1-1.1,1.7c-0.3,1.1-0.5,2.3-0.5,3.5v9.4L782.8,231.5z"/>
			<path class="st5" d="M794.1,238.4l-0.3-2.8c0.6,0.2,1.1,0.3,1.7,0.3c0.6,0,1.1-0.1,1.6-0.3c0.4-0.2,0.7-0.5,1-0.9
				c0.4-0.7,0.7-1.5,0.9-2.3c0.1-0.2,0.1-0.4,0.3-0.7l-6.8-17.9h3.3l3.7,10.3c0.5,1.3,0.9,2.7,1.3,4.1c0.3-1.4,0.8-2.7,1.2-4.1
				l3.8-10.4h3l-6.8,18.2c-0.5,1.4-1,2.7-1.7,4.1c-0.4,0.9-1.1,1.6-1.8,2.2c-0.7,0.5-1.6,0.7-2.5,0.7
				C795.4,238.7,794.7,238.6,794.1,238.4z"/>
		</g>
		<path class="st4" d="M814,341.8H610.8c-2.6,0-4.7-2.1-4.7-4.7v-62c0-2.6,2.1-4.7,4.7-4.7H814c2.6,0,4.7,2.1,4.7,4.7v62
			C819.1,339.7,817,341.8,814,341.8z"/>
		<path class="st5" d="M814,342.5H610.8c-3,0-5.4-2.5-5.4-5.4v-62c0-3,2.5-5.4,5.4-5.4H814c3,0,5.4,2.5,5.4,5.4V337
			c0.2,1.3-0.2,2.6-1,3.6C817.3,341.9,815.6,342.6,814,342.5z M610.8,271.1c-2.2,0-4,1.8-4,4v62c0,2.2,1.8,4,4,4H814
			c1.3,0,2.5-0.5,3.3-1.4c0.6-0.7,0.8-1.6,0.7-2.5c0,0,0-0.1,0-0.1v-62c0-2.2-1.8-4-4-4H610.8z"/>
		<g>
			<path class="st5" d="M664.6,317.4l9.5-24.7h3.5l10.1,24.7H684l-2.9-7.5h-10.3l-2.7,7.5H664.6z M671.7,307.3h8.4l-2.6-6.8
				c-0.8-2.1-1.4-3.8-1.7-5.1c-0.3,1.6-0.8,3.2-1.3,4.7L671.7,307.3z"/>
			<path class="st5" d="M689.8,317.4v-24.7h3v24.7H689.8z"/>
			<path class="st5" d="M697.6,324.2v-24.7h2.8v2.3c0.6-0.8,1.3-1.5,2.2-2c0.9-0.5,1.9-0.7,3-0.7c1.4,0,2.8,0.4,4,1.2
				c1.2,0.8,2.1,2,2.6,3.3c0.6,1.5,0.9,3.1,0.9,4.7c0,1.7-0.3,3.4-1,4.9c-0.6,1.4-1.6,2.6-2.9,3.4c-1.2,0.8-2.5,1.2-3.9,1.2
				c-0.9,0-1.9-0.2-2.7-0.6c-0.8-0.4-1.4-0.9-2-1.6v8.7L697.6,324.2z M700.3,308.6c-0.1,1.8,0.3,3.6,1.4,5.1c0.8,1,2.1,1.6,3.4,1.6
				c1.4,0,2.6-0.6,3.5-1.7c1-1.1,1.4-2.9,1.4-5.3c0.1-1.8-0.4-3.6-1.4-5.1c-0.8-1.1-2-1.7-3.4-1.7c-1.4,0-2.6,0.7-3.4,1.8
				C700.7,304.8,700.2,306.7,700.3,308.6z"/>
			<path class="st5" d="M716.7,296.2v-3.5h3v3.5H716.7z M716.7,317.4v-17.9h3v17.9H716.7z"/>
			<path class="st5" d="M724.4,317.4v-17.9h2.7v2.5c1.2-1.9,3.4-3,5.7-2.9c1,0,2,0.2,3,0.6c0.8,0.3,1.5,0.8,2,1.5
				c0.5,0.7,0.8,1.4,0.9,2.2c0.1,1,0.2,2,0.2,2.9v11h-3v-10.9c0-0.9-0.1-1.9-0.4-2.8c-0.2-0.6-0.7-1.1-1.3-1.5
				c-0.6-0.4-1.4-0.6-2.1-0.5c-1.2,0-2.4,0.4-3.3,1.2c-0.9,0.8-1.4,2.4-1.4,4.7v9.8L724.4,317.4z"/>
			<path class="st5" d="M755.8,311.6l3.1,0.4c-0.4,1.7-1.4,3.2-2.7,4.3c-3.5,2.3-8.2,1.9-11.3-0.9c-1.6-1.9-2.4-4.3-2.3-6.8
				c-0.2-2.5,0.7-5.1,2.3-7c1.6-1.7,3.7-2.6,6-2.5c2.2-0.1,4.3,0.8,5.9,2.4c1.6,1.9,2.4,4.4,2.3,6.9c0,0.2,0,0.4,0,0.8h-13.3
				c0,1.7,0.6,3.3,1.7,4.5c1,1,2.3,1.6,3.7,1.6c1,0,2-0.3,2.8-0.9C754.8,313.7,755.4,312.7,755.8,311.6z M745.8,306.8h10
				c0-1.2-0.4-2.4-1.1-3.4c-0.9-1.1-2.3-1.8-3.8-1.7c-1.3,0-2.6,0.5-3.5,1.4C746.4,304,745.8,305.4,745.8,306.8z"/>
		</g>
		<g>
			<path class="st5" d="M649.5,45l5,1.6c-0.5,2.4-1.9,4.6-3.8,6.2c-4.7,3.2-11,2.6-15.1-1.4c-2.2-2.3-3.3-5.5-3.3-9.5
				c0-4.2,1.1-7.5,3.3-9.9c2.2-2.4,5.4-3.6,8.6-3.5c2.8-0.1,5.5,0.9,7.6,2.8c1.3,1.3,2.2,2.9,2.6,4.7l-5.1,1.2
				c-0.5-2.6-2.8-4.4-5.4-4.3c-1.8-0.1-3.4,0.7-4.6,2c-1.2,1.4-1.8,3.5-1.8,6.6c0,3.2,0.6,5.5,1.7,6.9c1.1,1.3,2.8,2.1,4.5,2
				c1.3,0,2.6-0.4,3.5-1.3C648.5,47.9,649.3,46.5,649.5,45z"/>
			<path class="st5" d="M657.7,44.8c0-1.6,0.4-3.3,1.2-4.7c0.8-1.5,1.9-2.7,3.4-3.5c1.5-0.8,3.2-1.2,4.9-1.2c2.6-0.1,5,0.9,6.9,2.7
				c1.8,1.8,2.8,4.3,2.7,6.9c0.1,2.6-0.9,5.1-2.7,6.9c-1.8,1.8-4.2,2.8-6.8,2.7c-1.7,0-3.3-0.4-4.8-1.1c-1.5-0.7-2.7-1.9-3.5-3.4
				C658.1,48.6,657.7,46.7,657.7,44.8z M662.7,45.1c-0.1,1.5,0.4,3,1.3,4.2c1.5,1.8,4.2,2,6,0.4c0.1-0.1,0.3-0.3,0.4-0.4
				c0.9-1.2,1.4-2.7,1.3-4.2c0.1-1.5-0.4-3-1.3-4.2c-1.5-1.8-4.2-2-6-0.4c-0.1,0.1-0.3,0.3-0.4,0.4
				C663.1,42.1,662.6,43.6,662.7,45.1L662.7,45.1z"/>
			<path class="st5" d="M697.3,54.3h-4.9v-9.4c0.1-1.3,0-2.6-0.3-3.9c-0.2-0.6-0.5-1-1-1.4c-0.5-0.3-1.1-0.5-1.7-0.5
				c-0.8,0-1.6,0.2-2.3,0.7c-0.7,0.4-1.1,1.1-1.4,1.8c-0.3,1.4-0.4,2.8-0.4,4.2v8.3h-4.9V35.9h4.5v2.7c2.1-2.8,5.8-3.9,9-2.5
				c0.8,0.3,1.5,0.8,2,1.5c0.5,0.6,0.8,1.3,1,2c0.2,1.1,0.3,2.2,0.3,3.3V54.3z"/>
			<path class="st5" d="M710.7,35.9v3.9h-3.3v7.4c0,0.9,0,1.8,0.1,2.6c0.1,0.3,0.2,0.5,0.4,0.6c0.2,0.2,0.5,0.3,0.8,0.2
				c0.7-0.1,1.3-0.2,2-0.5l0.4,3.8c-1.2,0.5-2.5,0.8-3.9,0.7c-0.8,0-1.6-0.1-2.4-0.4c-0.6-0.2-1.2-0.6-1.6-1.1
				c-0.4-0.6-0.6-1.2-0.7-1.9c-0.1-1.1-0.2-2.3-0.2-3.4v-8h-2.2v-3.9h2.2v-3.7l4.9-2.8v6.5L710.7,35.9z"/>
			<path class="st5" d="M717.7,41.5l-4.4-0.8c0.4-1.6,1.3-3,2.6-4c1.6-1,3.5-1.4,5.4-1.3c1.7-0.1,3.3,0.2,4.9,0.8
				c0.9,0.4,1.7,1.1,2.2,2c0.5,1.4,0.8,2.9,0.7,4.4l-0.1,5.7c0,1.2,0,2.4,0.2,3.6c0.2,0.9,0.5,1.7,0.9,2.5h-4.8
				c-0.1-0.3-0.3-0.8-0.5-1.4c-0.1-0.3-0.1-0.5-0.2-0.6c-0.8,0.8-1.7,1.4-2.7,1.8c-1,0.4-2,0.6-3,0.6c-1.6,0.1-3.2-0.5-4.5-1.5
				c-1.1-1-1.7-2.4-1.6-3.9c0-1,0.2-1.9,0.7-2.8c0.5-0.8,1.2-1.5,2.1-1.9c1.2-0.5,2.5-0.9,3.9-1.1c1.6-0.3,3.2-0.7,4.7-1.2v-0.5
				c0.1-0.7-0.2-1.5-0.7-2c-0.8-0.5-1.7-0.7-2.6-0.6c-0.7,0-1.4,0.1-2,0.5C718.3,40.2,717.9,40.8,717.7,41.5z M724.3,45.5
				c-1,0.3-2,0.5-3,0.7c-0.9,0.1-1.8,0.4-2.7,0.8c-0.6,0.4-1,1-1,1.7c0,0.7,0.3,1.3,0.8,1.8c0.5,0.5,1.2,0.8,1.9,0.7
				c0.9,0,1.8-0.3,2.5-0.9c0.6-0.4,1-1,1.2-1.6c0.2-0.8,0.2-1.6,0.2-2.4L724.3,45.5z"/>
			<path class="st5" d="M733.8,33.4v-4.5h4.9v4.5H733.8z M733.8,54.3V35.9h4.9v18.4L733.8,54.3z"/>
			<path class="st5" d="M760.5,54.3h-4.9v-9.4c0.1-1.3,0-2.6-0.3-3.9c-0.2-0.6-0.5-1-1-1.4c-0.5-0.3-1.1-0.5-1.7-0.5
				c-0.8,0-1.6,0.2-2.3,0.7c-0.7,0.4-1.1,1.1-1.4,1.8c-0.3,1.4-0.4,2.8-0.4,4.2v8.3h-4.9V35.9h4.5v2.7c2.1-2.8,5.8-3.9,9-2.5
				c0.8,0.3,1.5,0.8,2,1.5c0.5,0.6,0.8,1.3,1,2c0.2,1.1,0.3,2.2,0.3,3.3L760.5,54.3z"/>
			<path class="st5" d="M776.1,48.4l4.9,0.8c-0.5,1.6-1.6,3.1-3,4.1c-1.5,1-3.3,1.5-5.1,1.4c-3.2,0-5.6-1-7.1-3.1
				c-1.3-1.9-1.9-4.1-1.8-6.3c-0.2-2.6,0.7-5.2,2.4-7.2c1.5-1.7,3.8-2.7,6.1-2.6c2.5-0.1,4.8,0.9,6.5,2.7c1.6,1.8,2.3,4.6,2.3,8.3
				H769c0,1.2,0.4,2.4,1.2,3.4c0.7,0.8,1.7,1.2,2.8,1.2c0.7,0,1.4-0.2,1.9-0.6C775.5,49.9,775.9,49.2,776.1,48.4z M776.4,43.5
				c0-1.2-0.3-2.3-1.1-3.2c-1.3-1.4-3.6-1.5-5-0.1c-0.1,0.1-0.1,0.1-0.2,0.2c-0.7,0.9-1.1,2-1,3.2H776.4z"/>
			<path class="st5" d="M789.8,54.3H785V35.9h4.5v2.6c0.5-1,1.2-1.8,2.1-2.4c0.6-0.4,1.4-0.6,2.1-0.6c1.1,0,2.2,0.3,3.2,0.9
				l-1.5,4.2c-0.7-0.5-1.5-0.8-2.3-0.8c-0.6,0-1.2,0.2-1.7,0.6c-0.6,0.5-1,1.3-1.1,2c-0.4,2-0.5,4.1-0.4,6.2L789.8,54.3z"/>
		</g>
	</g>
</g>
</svg>
