<?xml version="1.0" encoding="utf-8"?>
<!-- Generator: Adobe Illustrator 27.9.0, SVG Export Plug-In . SVG Version: 6.00 Build 0)  -->
<svg version="1.1"
	 id="svg286" xmlns:svg="http://www.w3.org/2000/svg" xmlns:inkscape="http://www.inkscape.org/namespaces/inkscape" xmlns:sodipodi="http://sodipodi.sourceforge.net/DTD/sodipodi-0.dtd"
	 xmlns="http://www.w3.org/2000/svg" xmlns:xlink="http://www.w3.org/1999/xlink" x="0px" y="0px" viewBox="0 0 1322 355.6"
	 style="enable-background:new 0 0 1322 355.6;" xml:space="preserve">
<style type="text/css">
	.st0{fill:#263852;}
	.st1{fill:#CFDA54;}
	.st2{fill:#263953;}
	.st3{fill:#3BC2D7;}
	.st4{font-family:'ArialMT';}
	.st5{font-size:28px;}
</style>
<sodipodi:namedview  bordercolor="#000000" borderopacity="0.25" id="namedview288" inkscape:current-layer="Слой_1-2" inkscape:cx="448.05653" inkscape:cy="134.41696" inkscape:deskcolor="#d1d1d1" inkscape:pagecheckerboard="0" inkscape:pageopacity="0.0" inkscape:showpageshadow="2" inkscape:window-height="1205" inkscape:window-maximized="0" inkscape:window-width="1565" inkscape:window-x="1027" inkscape:window-y="84" inkscape:zoom="0.56912461" pagecolor="#ffffff" showgrid="false">
	</sodipodi:namedview>
<g id="Слой_2">
	<g id="Слой_1-2">
		<g id="g204">
			<path id="path184" class="st0" d="M498.7,55.2v-13h2v1.8c0.9-1.4,2.5-2.2,4.1-2.1c0.7,0,1.5,0.1,2.2,0.4c0.6,0.2,1.1,0.6,1.5,1.1
				c0.3,0.5,0.6,1,0.7,1.6c0.1,0.7,0.1,1.4,0.1,2.1v8H507v-7.9c0-0.7-0.1-1.4-0.3-2c-0.2-0.4-0.5-0.8-0.9-1.1
				c-0.5-0.3-1-0.4-1.5-0.4c-0.9,0-1.8,0.3-2.4,0.9c-0.7,0.6-1,1.7-1,3.4v7.1L498.7,55.2z"/>
			<path id="path186" class="st0" d="M521,53.6c-0.7,0.6-1.5,1.1-2.3,1.5c-0.8,0.3-1.6,0.4-2.4,0.4c-1.2,0.1-2.4-0.3-3.3-1
				c-0.8-0.7-1.2-1.7-1.1-2.7c0-1.2,0.6-2.3,1.6-3c0.5-0.3,1-0.6,1.6-0.7c0.6-0.2,1.3-0.3,2-0.3c1.3-0.1,2.6-0.4,3.9-0.8
				c0-0.3,0-0.5,0-0.6c0.1-0.7-0.2-1.4-0.6-1.9c-0.7-0.5-1.6-0.8-2.5-0.7c-0.8-0.1-1.6,0.1-2.3,0.5c-0.6,0.5-1,1.2-1.1,1.9l-2.1-0.3
				c0.1-0.8,0.5-1.6,1-2.2c0.5-0.6,1.2-1.1,1.9-1.3c0.9-0.3,1.9-0.5,2.9-0.5c0.9,0,1.8,0.1,2.7,0.4c0.6,0.2,1.1,0.5,1.5,1
				c0.3,0.4,0.6,0.9,0.7,1.5c0.1,0.7,0.1,1.3,0.1,2v2.9c0,1.3,0,2.6,0.1,3.9c0.1,0.5,0.3,1.1,0.6,1.6h-2.3
				C521.2,54.7,521.1,54.2,521,53.6z M520.8,48.7c-1.2,0.4-2.4,0.7-3.6,0.8c-0.7,0.1-1.3,0.2-1.9,0.4c-0.4,0.1-0.7,0.4-0.9,0.7
				c-0.5,0.8-0.4,1.9,0.4,2.5c0.6,0.4,1.2,0.6,1.9,0.6c0.8,0,1.6-0.2,2.3-0.6c0.6-0.3,1.1-0.9,1.5-1.5c0.3-0.7,0.4-1.4,0.4-2.2
				L520.8,48.7z"/>
			<path id="path188" class="st0" d="M526.5,55.2v-13h2v1.8c0.4-0.6,1-1.2,1.6-1.5c0.7-0.4,1.5-0.6,2.3-0.6c0.8,0,1.6,0.2,2.4,0.6
				c0.6,0.4,1.1,1,1.3,1.7c0.8-1.4,2.4-2.3,4-2.3c1.1-0.1,2.2,0.3,3,1.1c0.8,0.9,1.1,2.1,1,3.3v8.9h-2.2v-8.2c0-0.6,0-1.3-0.2-1.9
				c-0.1-0.4-0.4-0.7-0.8-0.9c-0.4-0.2-0.9-0.4-1.3-0.4c-0.8,0-1.7,0.3-2.3,0.9c-0.7,0.8-1,1.9-0.9,2.9v7.5h-2.2v-8.4
				c0.1-0.8-0.1-1.5-0.5-2.2c-0.4-0.5-1.1-0.8-1.8-0.7c-0.6,0-1.2,0.2-1.7,0.5c-0.5,0.3-0.9,0.8-1.1,1.4c-0.3,0.9-0.4,1.8-0.4,2.7
				v6.7H526.5z"/>
			<path id="path190" class="st0" d="M556.2,51.1l2.3,0.3c-0.3,1.2-1,2.3-2,3.1c-2.6,1.7-5.9,1.4-8.2-0.7c-1.2-1.4-1.8-3.1-1.7-4.9
				c-0.1-1.8,0.5-3.7,1.7-5.1c1.1-1.2,2.7-1.9,4.4-1.8c1.6-0.1,3.2,0.6,4.2,1.8c1.2,1.4,1.8,3.2,1.6,5c0,0.1,0,0.3,0,0.6h-9.7
				c0,1.2,0.4,2.4,1.2,3.3c0.7,0.7,1.7,1.2,2.7,1.1c0.7,0,1.5-0.2,2.1-0.6C555.5,52.6,555.9,51.9,556.2,51.1z M549,47.5h7.2
				c0-0.9-0.3-1.7-0.8-2.5c-0.7-0.8-1.7-1.3-2.7-1.3c-1,0-1.9,0.3-2.5,1C549.4,45.5,549,46.5,549,47.5z"/>
			<path id="path192" class="st0" d="M560.3,51.4l2.2-0.3c0.1,0.8,0.4,1.5,1,2c0.7,0.5,1.5,0.7,2.3,0.7c0.8,0.1,1.6-0.2,2.2-0.6
				c0.5-0.3,0.7-0.9,0.7-1.4c0-0.5-0.2-0.9-0.6-1.2c-0.7-0.3-1.5-0.6-2.2-0.7c-1.1-0.3-2.3-0.6-3.4-1.1c-1.2-0.5-1.9-1.7-1.9-3
				c0-0.6,0.1-1.1,0.4-1.6c0.3-0.5,0.6-0.9,1.1-1.2c0.4-0.3,0.9-0.5,1.4-0.6c0.6-0.2,1.3-0.3,1.9-0.3c0.9,0,1.8,0.1,2.7,0.4
				c0.7,0.2,1.3,0.6,1.7,1.2c0.4,0.6,0.7,1.3,0.8,2l-2.1,0.3c-0.1-0.6-0.4-1.2-0.8-1.6c-0.6-0.4-1.3-0.6-2-0.6
				c-0.8-0.1-1.5,0.1-2.2,0.5c-0.4,0.3-0.6,0.7-0.6,1.2c0,0.3,0.1,0.6,0.3,0.8c0.2,0.3,0.5,0.5,0.8,0.6c0.2,0.1,0.9,0.3,1.9,0.6
				c1.1,0.3,2.2,0.6,3.3,1c0.6,0.2,1.1,0.6,1.4,1.2c0.4,0.6,0.5,1.2,0.5,1.9c0,0.7-0.2,1.5-0.6,2.1c-0.5,0.7-1.1,1.2-1.8,1.5
				c-0.9,0.4-1.8,0.5-2.7,0.5c-1.4,0.1-2.7-0.3-3.9-1C561.1,53.7,560.5,52.6,560.3,51.4z"/>
			<path id="path194" class="st0" d="M573.7,60.2V42.3h2V44c0.4-0.6,1-1.1,1.6-1.5c0.7-0.3,1.4-0.5,2.2-0.5c1,0,2.1,0.3,2.9,0.9
				c0.9,0.6,1.5,1.4,1.9,2.4c0.4,1.1,0.7,2.2,0.6,3.4c0,1.2-0.2,2.5-0.7,3.6c-0.8,2-2.8,3.3-4.9,3.3c-0.7,0-1.4-0.1-2-0.5
				c-0.6-0.3-1-0.7-1.4-1.2v6.3L573.7,60.2z M575.7,48.8c-0.1,1.3,0.3,2.6,1,3.7c0.6,0.8,1.5,1.2,2.5,1.2c1,0,1.9-0.5,2.5-1.2
				c0.8-1.1,1.2-2.5,1-3.8c0.1-1.3-0.3-2.6-1-3.7c-0.6-0.8-1.5-1.2-2.4-1.2c-1,0-1.9,0.5-2.5,1.3C576,46.1,575.6,47.5,575.7,48.8z"
				/>
			<path id="path196" class="st0" d="M596.1,53.6c-0.7,0.6-1.5,1.1-2.3,1.5c-0.8,0.3-1.6,0.4-2.4,0.4c-1.2,0.1-2.4-0.3-3.3-1
				c-0.8-0.7-1.2-1.7-1.1-2.7c0-0.6,0.1-1.2,0.4-1.7c0.3-0.5,0.7-0.9,1.1-1.3c0.5-0.3,1-0.6,1.6-0.7c0.6-0.2,1.3-0.3,2-0.3
				c1.3-0.1,2.6-0.4,3.9-0.8c0-0.3,0-0.5,0-0.6c0.1-0.7-0.2-1.4-0.6-1.9c-0.7-0.5-1.6-0.8-2.5-0.7c-0.8-0.1-1.6,0.1-2.3,0.5
				c-0.6,0.5-1,1.2-1.1,1.9l-2.1-0.3c0.1-0.8,0.5-1.6,1-2.2c0.5-0.6,1.2-1.1,1.9-1.3c0.9-0.3,1.9-0.5,2.9-0.5c0.9,0,1.8,0.1,2.7,0.4
				c0.6,0.2,1.1,0.5,1.5,1c0.3,0.4,0.6,0.9,0.7,1.5c0.1,0.7,0.1,1.3,0.1,2v2.9c0,1.3,0,2.6,0.1,3.9c0.1,0.5,0.3,1.1,0.6,1.6h-2.3
				C596.3,54.7,596.1,54.2,596.1,53.6z M595.9,48.7c-1.2,0.4-2.4,0.7-3.6,0.8c-0.7,0.1-1.3,0.2-1.9,0.4c-0.4,0.1-0.7,0.4-0.9,0.7
				c-0.5,0.8-0.4,1.9,0.4,2.5c0.6,0.4,1.2,0.6,1.9,0.6c0.8,0,1.6-0.2,2.3-0.6c0.6-0.3,1.1-0.9,1.5-1.5c0.3-0.7,0.4-1.4,0.4-2.2
				L595.9,48.7z"/>
			<path id="path198" class="st0" d="M610,50.5l2.2,0.3c-0.2,1.3-0.8,2.6-1.8,3.5c-1,0.9-2.3,1.3-3.6,1.3c-1.6,0.1-3.2-0.6-4.3-1.7
				c-1.2-1.4-1.7-3.2-1.6-5c0-1.3,0.2-2.5,0.7-3.7c0.4-1,1.2-1.8,2.1-2.4c0.9-0.5,2-0.8,3.1-0.8c1.2-0.1,2.5,0.3,3.5,1.1
				c0.9,0.8,1.5,1.8,1.7,3l-2.1,0.3c-0.1-0.8-0.5-1.4-1.1-2c-0.5-0.4-1.2-0.7-1.9-0.7c-1,0-2,0.4-2.7,1.2c-0.8,1.1-1.2,2.4-1,3.8
				c-0.1,1.3,0.2,2.7,1,3.8c0.6,0.8,1.6,1.2,2.6,1.2c0.8,0,1.6-0.3,2.2-0.8C609.5,52.3,609.9,51.4,610,50.5z"/>
			<path id="path200" class="st0" d="M622.9,51.1l2.3,0.3c-0.3,1.2-1,2.3-2,3.1c-2.6,1.7-5.9,1.4-8.2-0.7c-1.2-1.4-1.8-3.1-1.7-4.9
				c-0.1-1.8,0.5-3.7,1.7-5.1c1.1-1.2,2.7-1.9,4.4-1.8c1.6-0.1,3.2,0.6,4.2,1.8c1.2,1.4,1.8,3.2,1.6,5c0,0.1,0,0.3,0,0.6h-9.7
				c0,1.2,0.4,2.4,1.2,3.3c0.7,0.7,1.7,1.2,2.7,1.1c0.7,0,1.5-0.2,2.1-0.6C622.2,52.6,622.6,51.9,622.9,51.1z M615.7,47.5h7.2
				c0-0.9-0.3-1.7-0.8-2.5c-0.7-0.8-1.7-1.3-2.7-1.3c-1,0-1.9,0.3-2.5,1C616.1,45.5,615.7,46.5,615.7,47.5z"/>
			<path id="path202" class="st0" d="M627,51.4l2.2-0.3c0.1,0.8,0.4,1.5,1,2c0.7,0.5,1.5,0.7,2.3,0.7c0.8,0.1,1.6-0.2,2.2-0.6
				c0.5-0.3,0.7-0.9,0.7-1.4c0-0.5-0.2-0.9-0.6-1.2c-0.7-0.3-1.5-0.6-2.2-0.7c-1.1-0.3-2.3-0.6-3.4-1.1c-1.2-0.5-1.9-1.7-1.9-3
				c0-0.6,0.1-1.1,0.4-1.6c0.3-0.5,0.6-0.9,1.1-1.2c0.4-0.3,0.9-0.5,1.4-0.6c0.6-0.2,1.3-0.3,1.9-0.3c0.9,0,1.8,0.1,2.7,0.4
				c0.7,0.2,1.3,0.6,1.7,1.2c0.4,0.6,0.7,1.3,0.8,2l-2.1,0.3c-0.1-0.6-0.4-1.2-0.8-1.6c-0.6-0.4-1.3-0.6-2-0.6
				c-0.8-0.1-1.5,0.1-2.2,0.5c-0.4,0.3-0.6,0.7-0.6,1.2c0,0.3,0.1,0.6,0.3,0.8c0.2,0.3,0.5,0.5,0.8,0.6c0.2,0.1,0.9,0.3,1.9,0.6
				c1.1,0.3,2.2,0.6,3.3,1c0.6,0.2,1.1,0.6,1.4,1.2c0.4,0.6,0.5,1.2,0.5,1.9c0,0.7-0.2,1.5-0.6,2.1c-0.5,0.7-1.1,1.2-1.8,1.5
				c-0.9,0.4-1.8,0.5-2.7,0.5c-1.4,0.1-2.7-0.3-3.9-1C627.8,53.7,627.2,52.6,627,51.4z"/>
		</g>
		<path id="rect206" class="st1" d="M4.9,211.5h1312.2c2.3,0,4.2,1.9,4.2,4.2v53.7c0,2.3-1.9,4.2-4.2,4.2H4.9
			c-2.3,0-4.2-1.9-4.2-4.2v-53.7C0.7,213.3,2.6,211.5,4.9,211.5z"/>
		<path id="path208" class="st2" d="M1317.1,274.2H4.9c-2.7,0-4.9-2.2-4.9-4.9v-53.7c0-2.7,2.2-4.9,4.9-4.9h1312.2
			c2.7,0,4.9,2.2,4.9,4.9v53.7C1322,272,1319.8,274.2,1317.1,274.2z M4.9,212.2c-1.9,0-3.5,1.5-3.5,3.5v53.7c0,1.9,1.5,3.5,3.5,3.5
			h1312.2c1.9,0,3.5-1.5,3.5-3.5v-53.7c0-1.9-1.5-3.5-3.5-3.5L4.9,212.2z"/>
		<path id="rect210" class="st3" d="M17,208V21.6c0-1.9,1.5-3.4,3.4-3.4h137c1.9,0,3.4,1.5,3.4,3.4V208c0,1.9-1.5,3.4-3.4,3.4h-137
			C18.5,211.4,17,209.9,17,208z"/>
		<path id="path212" class="st2" d="M157.4,212.1h-137c-2.3,0-4.1-1.8-4.1-4.1V21.6c0-2.3,1.8-4.1,4.1-4.1h137
			c2.3,0,4.1,1.8,4.1,4.1V208C161.5,210.3,159.7,212.1,157.4,212.1z M20.4,18.9c-1.5,0-2.7,1.2-2.7,2.7V208c0,1.5,1.2,2.7,2.7,2.7
			h137c1.5,0,2.7-1.2,2.7-2.7V21.6c0-1.5-1.2-2.7-2.7-2.7L20.4,18.9z"/>
		<g id="g218">
			<path id="path214" class="st0" d="M640.8,244.1c0-3.6,1-6.4,2.9-8.4c1.9-2,4.6-3.1,7.4-3c1.9,0,3.7,0.5,5.4,1.4
				c1.6,0.9,2.8,2.3,3.6,4c0.9,1.8,1.3,3.8,1.3,5.8c0,2-0.4,4-1.3,5.8c-0.8,1.7-2.1,3-3.7,3.9c-1.6,0.9-3.4,1.3-5.2,1.3
				c-1.9,0-3.8-0.5-5.4-1.5c-1.6-1-2.8-2.3-3.6-4C641.2,247.8,640.8,246,640.8,244.1z M643.7,244.2c-0.1,2.2,0.6,4.4,2.1,6.1
				c2.8,2.9,7.4,3,10.3,0.2c0.1-0.1,0.1-0.1,0.2-0.2c1.5-1.8,2.2-4.1,2.1-6.4c0-1.6-0.3-3.1-0.9-4.6c-0.5-1.2-1.4-2.3-2.6-3
				c-1.1-0.7-2.5-1.1-3.8-1.1c-1.9,0-3.8,0.7-5.2,2.1C644.4,238.6,643.7,241,643.7,244.2L643.7,244.2z"/>
			<path id="path216" class="st0" d="M664,247.7l2.7-0.2c0.1,0.9,0.4,1.8,0.9,2.6c0.5,0.8,1.3,1.3,2.2,1.7c1,0.4,2.2,0.7,3.3,0.6
				c1,0,2-0.1,2.9-0.5c0.7-0.3,1.4-0.7,1.9-1.3c0.4-0.5,0.6-1.2,0.6-1.8c0-0.6-0.2-1.3-0.6-1.8c-0.5-0.6-1.2-1-1.9-1.3
				c-1.3-0.4-2.5-0.8-3.8-1c-1.4-0.3-2.8-0.7-4.1-1.3c-0.9-0.5-1.7-1.1-2.3-2c-0.5-0.8-0.8-1.7-0.8-2.7c0-1.1,0.3-2.1,0.9-3
				c0.7-1,1.6-1.7,2.7-2.1c1.3-0.5,2.6-0.8,3.9-0.7c1.4,0,2.9,0.2,4.2,0.8c1.1,0.5,2.1,1.2,2.8,2.3c0.7,1,1,2.2,1.1,3.4l-2.7,0.2
				c-0.1-1.2-0.6-2.3-1.5-3.1c-1.1-0.8-2.4-1.1-3.7-1c-1.3-0.1-2.6,0.2-3.8,0.9c-0.7,0.5-1.2,1.4-1.2,2.3c0,0.7,0.3,1.4,0.8,1.9
				c0.5,0.5,2,1,4.3,1.5c1.6,0.3,3.2,0.8,4.8,1.4c1.1,0.5,2.1,1.2,2.8,2.2c0.6,0.9,0.9,2,0.9,3.1c0,1.1-0.3,2.3-1,3.2
				c-0.7,1-1.7,1.9-2.8,2.4c-1.3,0.6-2.7,0.9-4.1,0.8c-1.7,0-3.3-0.2-4.9-0.9c-1.3-0.5-2.3-1.4-3.1-2.6
				C664.4,250.4,664,249.1,664,247.7z"/>
		</g>
		<path id="path220" class="st0" d="M57.2,122.9c-0.8,0.7-1.8,1.3-2.8,1.8c-0.9,0.3-1.9,0.5-2.9,0.5c-1.4,0.1-2.8-0.4-3.9-1.3
			c-0.9-0.8-1.4-2-1.4-3.2c0-0.7,0.2-1.4,0.5-2.1c0.3-0.6,0.8-1.1,1.4-1.5c0.6-0.4,1.2-0.7,1.9-0.9c0.8-0.2,1.6-0.3,2.3-0.4
			c1.6-0.1,3.2-0.5,4.7-0.9c0-0.4,0-0.6,0-0.7c0.1-0.8-0.2-1.7-0.7-2.3c-0.9-0.7-1.9-1-3-0.9c-1-0.1-1.9,0.2-2.7,0.7
			c-0.7,0.6-1.2,1.4-1.3,2.3l-2.6-0.4c0.2-1,0.6-1.9,1.2-2.7c0.6-0.7,1.4-1.3,2.3-1.6c1.1-0.4,2.3-0.6,3.5-0.5
			c1.1,0,2.2,0.1,3.2,0.5c0.7,0.2,1.3,0.6,1.8,1.2c0.4,0.5,0.7,1.1,0.8,1.8c0.1,0.8,0.2,1.6,0.1,2.4v3.5c0,1.6,0,3.1,0.2,4.7
			c0.1,0.7,0.3,1.3,0.7,1.9h-2.8C57.5,124.2,57.3,123.5,57.2,122.9z M57,117c-1.4,0.5-2.8,0.8-4.3,1c-0.8,0.1-1.6,0.3-2.3,0.5
			c-0.4,0.2-0.8,0.5-1,0.9c-0.6,1-0.4,2.3,0.4,3c0.7,0.5,1.5,0.8,2.3,0.7c0.9,0,1.9-0.2,2.7-0.7c0.8-0.4,1.4-1,1.7-1.8
			c0.3-0.8,0.5-1.7,0.4-2.6L57,117z"/>
		<path id="path222" class="st0" d="M63.8,130.8v-21.5h2.4v2c0.5-0.7,1.2-1.3,1.9-1.8c0.8-0.4,1.7-0.6,2.6-0.6c1.2,0,2.5,0.3,3.5,1
			c1,0.7,1.8,1.7,2.3,2.9c0.5,1.3,0.8,2.7,0.8,4.1c0,1.5-0.3,2.9-0.9,4.3c-1,2.4-3.3,3.9-5.9,3.9c-0.8,0-1.6-0.2-2.4-0.6
			c-0.7-0.3-1.3-0.8-1.7-1.4v7.6H63.8z M66.1,117.1c-0.1,1.6,0.3,3.1,1.2,4.4c0.7,0.9,1.8,1.4,2.9,1.4c1.2,0,2.3-0.6,3-1.5
			c0.9-1.3,1.4-3,1.3-4.6c0.1-1.6-0.3-3.2-1.2-4.5c-0.7-0.9-1.8-1.5-2.9-1.5c-1.2,0-2.3,0.6-3,1.6C66.5,113.9,66,115.5,66.1,117.1
			L66.1,117.1z"/>
		<path id="path224" class="st0" d="M80.4,130.8v-21.5h2.4v2c0.5-0.7,1.2-1.3,1.9-1.8c0.8-0.4,1.7-0.6,2.6-0.6c1.2,0,2.5,0.3,3.5,1
			c1,0.7,1.8,1.7,2.3,2.9c0.5,1.3,0.8,2.7,0.8,4.1c0,1.5-0.3,2.9-0.9,4.3c-1,2.4-3.3,3.9-5.9,3.9c-0.8,0-1.6-0.2-2.4-0.6
			c-0.7-0.3-1.3-0.8-1.7-1.4v7.6H80.4z M82.8,117.1c-0.1,1.6,0.3,3.1,1.2,4.4c0.7,0.9,1.8,1.4,2.9,1.4c1.2,0,2.3-0.6,3-1.5
			c0.9-1.3,1.4-3,1.3-4.6c0.1-1.6-0.3-3.2-1.2-4.5c-0.7-0.9-1.8-1.5-2.9-1.5c-1.2,0-2.3,0.6-3,1.6C83.2,113.9,82.7,115.5,82.8,117.1
			L82.8,117.1z"/>
		<path id="path226" class="st0" d="M105.4,124.8v-21.5h2.6v21.5H105.4z"/>
		<path id="path228" class="st0" d="M112.1,106.4v-3h2.6v3H112.1z M112.1,124.8v-15.6h2.6v15.6H112.1z"/>
		<path id="path230" class="st0" d="M121.2,124.8h-2.4v-21.5h2.6v7.7c1-1.3,2.6-2.1,4.3-2.1c0.9,0,1.9,0.2,2.7,0.6
			c0.8,0.4,1.5,0.9,2.1,1.6c0.6,0.8,1,1.6,1.3,2.5c0.3,1,0.5,2.1,0.5,3.2c0.1,2.2-0.6,4.4-2,6.2c-1.2,1.4-2.9,2.2-4.7,2.2
			c-1.7,0-3.4-0.8-4.3-2.3L121.2,124.8z M121.2,116.9c-0.1,1.4,0.2,2.8,0.8,4c1,1.8,3.2,2.6,5.1,1.6c0.5-0.3,0.9-0.6,1.3-1.1
			c0.9-1.3,1.4-2.9,1.3-4.5c0.1-1.6-0.3-3.2-1.2-4.5c-0.7-0.9-1.8-1.4-2.9-1.4c-1.2,0-2.3,0.6-3,1.5
			C121.5,113.8,121.1,115.4,121.2,116.9L121.2,116.9z"/>
		<path id="rect232" class="st1" d="M6.6,292.9h1308.8c3.2,0,5.9,2.6,5.9,5.9v50.2c0,3.2-2.6,5.9-5.9,5.9H6.6
			c-3.2,0-5.9-2.6-5.9-5.9v-50.2C0.7,295.6,3.3,292.9,6.6,292.9z"/>
		<path id="path234" class="st2" d="M1315.4,355.6H6.6c-3.6,0-6.6-3-6.6-6.6v-50.2c0-3.6,3-6.6,6.6-6.6h1308.8c3.6,0,6.6,3,6.6,6.6
			v50.2C1322,352.7,1319,355.6,1315.4,355.6z M6.6,293.6c-2.9,0-5.2,2.3-5.2,5.2v50.2c0,2.9,2.3,5.2,5.2,5.2h1308.8
			c2.9,0,5.2-2.3,5.2-5.2v-50.2c0-2.9-2.3-5.2-5.2-5.2H6.6z"/>
		<path id="path236" class="st2" d="M168.8,221.6h-1.1c-0.4,0-0.7-0.3-0.7-0.7c0-0.4,0.3-0.7,0.7-0.7h1.1c0.4,0,0.7,0.3,0.7,0.7
			C169.5,221.3,169.2,221.6,168.8,221.6z M163.6,221.6h-1.1c-0.4,0-0.7-0.3-0.7-0.7c0-0.4,0.3-0.7,0.7-0.7h1.1
			c0.4,0,0.7,0.3,0.7,0.7C164.3,221.3,164,221.6,163.6,221.6z M158.4,221.6h-1.1c-0.4,0-0.7-0.3-0.7-0.7c0-0.4,0.3-0.7,0.7-0.7h1.1
			c0.4,0,0.7,0.3,0.7,0.7C159.1,221.3,158.8,221.6,158.4,221.6z M153.3,221.6h-1.1c-0.4,0-0.7-0.3-0.7-0.7c0-0.4,0.3-0.7,0.7-0.7
			h1.1c0.4,0,0.7,0.3,0.7,0.7C154,221.3,153.7,221.6,153.3,221.6z M148.1,221.6h-1.1c-0.4,0-0.7-0.3-0.7-0.7c0-0.4,0.3-0.7,0.7-0.7
			h1.1c0.4,0,0.7,0.3,0.7,0.7C148.8,221.3,148.5,221.6,148.1,221.6z M142.9,221.6h-1.1c-0.4,0-0.7-0.3-0.7-0.7
			c0-0.4,0.3-0.7,0.7-0.7h1.1c0.4,0,0.7,0.3,0.7,0.7C143.6,221.3,143.3,221.6,142.9,221.6z M137.8,221.6h-1.1
			c-0.4,0-0.7-0.3-0.7-0.7c0-0.4,0.3-0.7,0.7-0.7h1.1c0.4,0,0.7,0.3,0.7,0.7C138.5,221.3,138.1,221.6,137.8,221.6z M132.6,221.6
			h-1.1c-0.4,0-0.7-0.3-0.7-0.7c0-0.4,0.3-0.7,0.7-0.7h1.1c0.4,0,0.7,0.3,0.7,0.7C133.3,221.3,133,221.6,132.6,221.6z M127.4,221.6
			h-1.1c-0.4,0-0.7-0.3-0.7-0.7c0-0.4,0.3-0.7,0.7-0.7l0,0h1.1c0.4,0,0.7,0.3,0.7,0.7C128.1,221.3,127.8,221.6,127.4,221.6z
			 M122.2,221.6h-1.1c-0.4,0-0.7-0.3-0.7-0.7c0-0.4,0.3-0.7,0.7-0.7h1.1c0.4,0,0.7,0.3,0.7,0.7C123,221.3,122.6,221.6,122.2,221.6
			L122.2,221.6z M117.1,221.6h-1.1c-0.4,0-0.7-0.3-0.7-0.7c0-0.4,0.3-0.7,0.7-0.7h1.1c0.4,0,0.7,0.3,0.7,0.7
			C117.8,221.3,117.5,221.6,117.1,221.6L117.1,221.6z M111.9,221.6h-1.1c-0.4,0-0.7-0.3-0.7-0.7c0-0.4,0.3-0.7,0.7-0.7h1.1
			c0.4,0,0.7,0.3,0.7,0.7C112.6,221.3,112.3,221.6,111.9,221.6L111.9,221.6L111.9,221.6z M106.7,221.6h-1.1c-0.4,0-0.7-0.3-0.7-0.7
			c0-0.4,0.3-0.7,0.7-0.7h1.1c0.4,0,0.7,0.3,0.7,0.7C107.4,221.3,107.1,221.6,106.7,221.6L106.7,221.6z M101.6,221.6h-1.1
			c-0.4,0-0.7-0.3-0.7-0.7c0-0.4,0.3-0.7,0.7-0.7h1.1c0.4,0,0.7,0.3,0.7,0.7C102.3,221.3,102,221.6,101.6,221.6L101.6,221.6z
			 M96.4,221.6h-1.1c-0.4,0-0.7-0.3-0.7-0.7c0-0.4,0.3-0.7,0.7-0.7l0,0h1.2c0.4,0,0.7,0.3,0.7,0.7C97.1,221.3,96.8,221.6,96.4,221.6
			L96.4,221.6z M91.2,221.6h-1.1c-0.4,0-0.7-0.3-0.7-0.7c0-0.4,0.3-0.7,0.7-0.7h1.1c0.4,0,0.7,0.3,0.7,0.7
			C91.9,221.3,91.6,221.6,91.2,221.6L91.2,221.6z M86.1,221.6h-1.1c-0.4,0-0.7-0.3-0.7-0.7c0-0.4,0.3-0.7,0.7-0.7h1.1
			c0.4,0,0.7,0.3,0.7,0.7C86.8,221.3,86.5,221.6,86.1,221.6L86.1,221.6z M80.9,221.6h-1.1c-0.4,0-0.7-0.3-0.7-0.7
			c0-0.4,0.3-0.7,0.7-0.7h1.1c0.4,0,0.7,0.3,0.7,0.7C81.6,221.3,81.3,221.6,80.9,221.6L80.9,221.6z M75.7,221.6h-1.1
			c-0.4,0-0.7-0.3-0.7-0.7c0-0.4,0.3-0.7,0.7-0.7h1.1c0.4,0,0.7,0.3,0.7,0.7C76.4,221.3,76.1,221.6,75.7,221.6L75.7,221.6z
			 M70.5,221.6h-1.1c-0.4,0-0.7-0.3-0.7-0.7c0-0.4,0.3-0.7,0.7-0.7h1.1c0.4,0,0.7,0.3,0.7,0.7C71.3,221.3,70.9,221.6,70.5,221.6z
			 M65.4,221.6h-1.1c-0.4,0-0.7-0.3-0.7-0.7c0-0.4,0.3-0.7,0.7-0.7l0,0h1.1c0.4,0,0.7,0.3,0.7,0.7C66.1,221.3,65.8,221.6,65.4,221.6
			L65.4,221.6z M60.2,221.6h-1.1c-0.4,0-0.7-0.3-0.7-0.7c0-0.4,0.3-0.7,0.7-0.7h1.1c0.4,0,0.7,0.3,0.7,0.7
			C60.9,221.3,60.6,221.6,60.2,221.6L60.2,221.6z M55,221.6h-1.1c-0.4,0-0.7-0.3-0.7-0.7c0-0.4,0.3-0.7,0.7-0.7H55
			c0.4,0,0.7,0.3,0.7,0.7C55.8,221.3,55.4,221.6,55,221.6L55,221.6z M49.9,221.6h-1.1c-0.4,0-0.7-0.3-0.7-0.7c0-0.4,0.3-0.7,0.7-0.7
			l0,0h1.1c0.4,0,0.7,0.3,0.7,0.7C50.6,221.3,50.3,221.6,49.9,221.6L49.9,221.6z M44.7,221.6h-1.1c-0.4,0-0.7-0.3-0.7-0.7
			c0-0.4,0.3-0.7,0.7-0.7h1.1c0.4,0,0.7,0.3,0.7,0.7C45.4,221.3,45.1,221.6,44.7,221.6z M39.5,221.6h-1.1c-0.4,0-0.7-0.3-0.7-0.7
			c0-0.4,0.3-0.7,0.7-0.7h1.1c0.4,0,0.7,0.3,0.7,0.7C40.2,221.3,39.9,221.6,39.5,221.6L39.5,221.6z M34.4,221.6h-1.1
			c-0.4,0-0.7-0.3-0.7-0.7c0-0.4,0.3-0.7,0.7-0.7h1.1c0.4,0,0.7,0.3,0.7,0.7C35.1,221.3,34.8,221.6,34.4,221.6L34.4,221.6z
			 M29.2,221.6H28c-0.4,0-0.7-0.3-0.7-0.7c0-0.4,0.3-0.7,0.7-0.7h1.1c0.4,0,0.7,0.3,0.7,0.7C29.9,221.3,29.6,221.6,29.2,221.6
			L29.2,221.6z M24,221.6h-1.1c-0.4,0-0.7-0.3-0.7-0.7c0-0.4,0.3-0.7,0.7-0.7l0,0H24c0.4,0,0.7,0.3,0.7,0.7
			C24.7,221.3,24.4,221.6,24,221.6L24,221.6z M18.9,221.6h-1.1c-0.4,0-0.7-0.3-0.7-0.7c0-0.4,0.3-0.7,0.7-0.7h1.1
			c0.4,0,0.7,0.3,0.7,0.7C19.6,221.3,19.2,221.6,18.9,221.6L18.9,221.6z M13.7,221.6h-1.1c-0.4,0-0.7-0.3-0.7-0.7
			c0-0.4,0.3-0.7,0.7-0.7l0,0h1.1c0.4,0,0.7,0.3,0.7,0.7C14.4,221.3,14.1,221.6,13.7,221.6L13.7,221.6z M8.5,221.6L8.5,221.6
			c-0.4,0-0.9-0.1-1.3-0.1c-0.4-0.1-0.6-0.5-0.6-0.8c0.1-0.4,0.4-0.6,0.8-0.6c0.3,0.1,0.7,0.1,1,0.1c0.4,0,0.7,0.3,0.7,0.7
			C9.2,221.3,8.9,221.6,8.5,221.6L8.5,221.6z M172.6,220.7c-0.4,0-0.7-0.3-0.7-0.7c0-0.3,0.1-0.5,0.4-0.6c0.3-0.2,0.6-0.3,0.9-0.6
			c0.3-0.2,0.8-0.2,1,0.2c0.2,0.3,0.2,0.8-0.1,1c-0.3,0.2-0.7,0.5-1.1,0.7C172.9,220.7,172.8,220.7,172.6,220.7L172.6,220.7z
			 M3.8,219.7c-0.2,0-0.3-0.1-0.5-0.2c-0.3-0.3-0.6-0.6-0.9-0.9c-0.3-0.3-0.2-0.7,0.1-1c0.3-0.3,0.7-0.2,1,0.1
			c0.2,0.3,0.5,0.5,0.7,0.7c0.3,0.3,0.3,0.7,0.1,1C4.2,219.7,4,219.7,3.8,219.7L3.8,219.7z M176.1,217c-0.4,0-0.7-0.3-0.7-0.7
			c0-0.1,0-0.2,0.1-0.3c0.1-0.3,0.3-0.6,0.4-1c0.1-0.4,0.5-0.6,0.9-0.5c0.4,0.1,0.6,0.5,0.5,0.9c-0.1,0.4-0.3,0.8-0.4,1.2
			C176.6,216.8,176.4,217,176.1,217z M1.2,215.4c-0.3,0-0.6-0.2-0.7-0.6c-0.1-0.4-0.1-0.8-0.1-1.2c0-0.4,0.3-0.7,0.7-0.7
			c0.4,0,0.7,0.3,0.7,0.7c0,0.3,0.1,0.7,0.1,1c0.1,0.4-0.2,0.8-0.6,0.8C1.3,215.4,1.3,215.4,1.2,215.4z M176.8,211.9
			c-0.4,0-0.7-0.3-0.7-0.7c0,0,0,0,0,0v-1.1c0-0.4,0.3-0.7,0.7-0.7c0.4,0,0.7,0.3,0.7,0.7v1.1C177.5,211.6,177.2,211.9,176.8,211.9
			C176.8,211.9,176.8,211.9,176.8,211.9z M1.1,210.2c-0.4,0-0.7-0.3-0.7-0.7c0,0,0,0,0,0v-1.1c0-0.4,0.3-0.7,0.7-0.7
			c0.4,0,0.7,0.3,0.7,0.7v1.1C1.8,209.9,1.5,210.2,1.1,210.2C1.1,210.2,1.1,210.2,1.1,210.2L1.1,210.2z M176.8,206.8
			c-0.4,0-0.7-0.3-0.7-0.7c0,0,0,0,0,0v-1.1c0-0.4,0.3-0.7,0.7-0.7c0.4,0,0.7,0.3,0.7,0.7v1.1C177.5,206.4,177.2,206.8,176.8,206.8
			C176.8,206.8,176.8,206.8,176.8,206.8z M1.1,205c-0.4,0-0.7-0.3-0.7-0.7c0,0,0,0,0,0v-1.1c0-0.4,0.3-0.7,0.7-0.7
			c0.4,0,0.7,0.3,0.7,0.7v1.1C1.8,204.7,1.5,205,1.1,205C1.1,205,1.1,205,1.1,205L1.1,205z M176.8,201.6c-0.4,0-0.7-0.3-0.7-0.7
			c0,0,0,0,0,0v-1.1c0-0.4,0.3-0.7,0.7-0.7c0.4,0,0.7,0.3,0.7,0.7v1.1C177.5,201.3,177.2,201.6,176.8,201.6
			C176.8,201.6,176.8,201.6,176.8,201.6L176.8,201.6z M1.1,199.9c-0.4,0-0.7-0.3-0.7-0.7c0,0,0,0,0,0V198c0-0.4,0.3-0.7,0.7-0.7
			c0.4,0,0.7,0.3,0.7,0.7v1.1C1.8,199.5,1.5,199.9,1.1,199.9C1.1,199.9,1.1,199.9,1.1,199.9L1.1,199.9z M176.8,196.4
			c-0.4,0-0.7-0.3-0.7-0.7c0,0,0,0,0,0v-1.1c0-0.4,0.3-0.7,0.7-0.7c0.4,0,0.7,0.3,0.7,0.7l0,0v1.1
			C177.5,196.1,177.2,196.4,176.8,196.4C176.8,196.4,176.8,196.4,176.8,196.4L176.8,196.4z M1.1,194.7c-0.4,0-0.7-0.3-0.7-0.7
			c0,0,0,0,0,0v-1.1c0-0.4,0.3-0.7,0.7-0.7c0.4,0,0.7,0.3,0.7,0.7v1.1C1.8,194.4,1.5,194.7,1.1,194.7C1.1,194.7,1.1,194.7,1.1,194.7
			L1.1,194.7z M176.8,191.2c-0.4,0-0.7-0.3-0.7-0.7c0,0,0,0,0,0v-1.1c0-0.4,0.3-0.7,0.7-0.7c0.4,0,0.7,0.3,0.7,0.7v1.1
			C177.5,190.9,177.2,191.2,176.8,191.2C176.8,191.2,176.8,191.2,176.8,191.2L176.8,191.2z M1.1,189.5c-0.4,0-0.7-0.3-0.7-0.7
			c0,0,0,0,0,0v-1.1c0-0.4,0.3-0.7,0.7-0.7c0.4,0,0.7,0.3,0.7,0.7v1.1C1.8,189.2,1.5,189.5,1.1,189.5C1.1,189.5,1.1,189.5,1.1,189.5
			L1.1,189.5z M176.8,186.1c-0.4,0-0.7-0.3-0.7-0.7c0,0,0,0,0,0v-1.1c0-0.4,0.3-0.7,0.7-0.7c0.4,0,0.7,0.3,0.7,0.7v1.1
			C177.5,185.8,177.2,186.1,176.8,186.1C176.8,186.1,176.8,186.1,176.8,186.1L176.8,186.1z M1.1,184.4c-0.4,0-0.7-0.3-0.7-0.7
			c0,0,0,0,0,0v-1.1c0-0.4,0.3-0.7,0.7-0.7c0.4,0,0.7,0.3,0.7,0.7v1.1C1.8,184,1.5,184.4,1.1,184.4C1.1,184.4,1.1,184.4,1.1,184.4
			L1.1,184.4z M176.8,180.9c-0.4,0-0.7-0.3-0.7-0.7c0,0,0,0,0,0V179c0-0.4,0.3-0.7,0.7-0.7c0.4,0,0.7,0.3,0.7,0.7v1.1
			C177.5,180.6,177.2,180.9,176.8,180.9C176.8,180.9,176.8,180.9,176.8,180.9L176.8,180.9z M1.1,179.2c-0.4,0-0.7-0.3-0.7-0.7
			c0,0,0,0,0,0v-1.1c0-0.4,0.3-0.7,0.7-0.7c0.4,0,0.7,0.3,0.7,0.7v1.1C1.8,178.9,1.5,179.2,1.1,179.2C1.1,179.2,1.1,179.2,1.1,179.2
			L1.1,179.2z M176.8,175.7c-0.4,0-0.7-0.3-0.7-0.7c0,0,0,0,0,0v-1.1c0-0.4,0.3-0.7,0.7-0.7c0.4,0,0.7,0.3,0.7,0.7v1.1
			C177.5,175.4,177.2,175.7,176.8,175.7C176.8,175.7,176.8,175.7,176.8,175.7L176.8,175.7z M1.1,174c-0.4,0-0.7-0.3-0.7-0.7
			c0,0,0,0,0,0v-1.1c0-0.4,0.3-0.7,0.7-0.7c0.4,0,0.7,0.3,0.7,0.7v1.1C1.8,173.7,1.5,174,1.1,174C1.1,174,1.1,174,1.1,174L1.1,174z
			 M176.8,170.6c-0.4,0-0.7-0.3-0.7-0.7c0,0,0,0,0,0v-1.1c0-0.4,0.3-0.7,0.7-0.7c0.4,0,0.7,0.3,0.7,0.7v1.1
			C177.5,170.2,177.2,170.6,176.8,170.6C176.8,170.6,176.8,170.6,176.8,170.6L176.8,170.6z M1.1,168.8c-0.4,0-0.7-0.3-0.7-0.7
			c0,0,0,0,0,0V167c0-0.4,0.3-0.7,0.7-0.7c0.4,0,0.7,0.3,0.7,0.7v1.1C1.8,168.5,1.5,168.8,1.1,168.8C1.1,168.8,1.1,168.8,1.1,168.8
			L1.1,168.8z M176.8,165.4c-0.4,0-0.7-0.3-0.7-0.7c0,0,0,0,0,0v-1.1c0-0.4,0.3-0.7,0.7-0.7c0.4,0,0.7,0.3,0.7,0.7v1.1
			C177.5,165.1,177.2,165.4,176.8,165.4C176.8,165.4,176.8,165.4,176.8,165.4L176.8,165.4z M1.1,163.7c-0.4,0-0.7-0.3-0.7-0.7
			c0,0,0,0,0,0v-1.1c0-0.4,0.3-0.7,0.7-0.7c0.4,0,0.7,0.3,0.7,0.7v1.1C1.8,163.4,1.5,163.7,1.1,163.7C1.1,163.7,1.1,163.7,1.1,163.7
			L1.1,163.7z M176.8,160.2c-0.4,0-0.7-0.3-0.7-0.7c0,0,0,0,0,0v-1.1c0-0.4,0.3-0.7,0.7-0.7c0.4,0,0.7,0.3,0.7,0.7v1.1
			C177.5,159.9,177.2,160.2,176.8,160.2C176.8,160.2,176.8,160.2,176.8,160.2L176.8,160.2z M1.1,158.5c-0.4,0-0.7-0.3-0.7-0.7
			c0,0,0,0,0,0v-1.1c0-0.4,0.3-0.7,0.7-0.7c0.4,0,0.7,0.3,0.7,0.7v1.1C1.8,158.2,1.5,158.5,1.1,158.5C1.1,158.5,1.1,158.5,1.1,158.5
			L1.1,158.5z M176.8,155.1c-0.4,0-0.7-0.3-0.7-0.7c0,0,0,0,0,0v-1.1c0-0.4,0.3-0.7,0.7-0.7c0.4,0,0.7,0.3,0.7,0.7v1.1
			C177.5,154.7,177.2,155.1,176.8,155.1C176.8,155.1,176.8,155.1,176.8,155.1L176.8,155.1z M1.1,153.3c-0.4,0-0.7-0.3-0.7-0.7
			c0,0,0,0,0,0v-1.1c0-0.4,0.3-0.7,0.7-0.7c0.4,0,0.7,0.3,0.7,0.7v1.1C1.8,153,1.5,153.3,1.1,153.3C1.1,153.3,1.1,153.3,1.1,153.3
			L1.1,153.3z M176.8,149.9c-0.4,0-0.7-0.3-0.7-0.7c0,0,0,0,0,0V148c0-0.4,0.3-0.7,0.7-0.7c0.4,0,0.7,0.3,0.7,0.7v1.1
			C177.5,149.6,177.2,149.9,176.8,149.9C176.8,149.9,176.8,149.9,176.8,149.9L176.8,149.9z M1.1,148.2c-0.4,0-0.7-0.3-0.7-0.7
			c0,0,0,0,0,0v-1.1c0-0.4,0.3-0.7,0.7-0.7c0.4,0,0.7,0.3,0.7,0.7v1.1C1.8,147.9,1.5,148.2,1.1,148.2C1.1,148.2,1.1,148.2,1.1,148.2
			z M176.8,144.7c-0.4,0-0.7-0.3-0.7-0.7c0,0,0,0,0,0v-1.1c0-0.4,0.3-0.7,0.7-0.7c0.4,0,0.7,0.3,0.7,0.7v1.1
			C177.5,144.4,177.2,144.7,176.8,144.7L176.8,144.7z M1.1,143c-0.4,0-0.7-0.3-0.7-0.7c0,0,0,0,0,0v-1.1c0-0.4,0.3-0.7,0.7-0.7
			c0.4,0,0.7,0.3,0.7,0.7v1.1C1.8,142.7,1.5,143,1.1,143C1.1,143,1.1,143,1.1,143z M176.8,139.5c-0.4,0-0.7-0.3-0.7-0.7c0,0,0,0,0,0
			v-1.1c0-0.4,0.3-0.7,0.7-0.7c0.4,0,0.7,0.3,0.7,0.7v1.1C177.5,139.2,177.2,139.5,176.8,139.5L176.8,139.5z M1.1,137.8
			c-0.4,0-0.7-0.3-0.7-0.7c0,0,0,0,0,0V136c0-0.4,0.3-0.7,0.7-0.7c0.4,0,0.7,0.3,0.7,0.7v1.1C1.8,137.5,1.5,137.8,1.1,137.8
			C1.1,137.8,1.1,137.8,1.1,137.8z M176.8,134.4c-0.4,0-0.7-0.3-0.7-0.7c0,0,0,0,0,0v-1.1c0-0.4,0.3-0.7,0.7-0.7
			c0.4,0,0.7,0.3,0.7,0.7v1.1C177.5,134.1,177.2,134.4,176.8,134.4C176.8,134.4,176.8,134.4,176.8,134.4L176.8,134.4z M1.1,132.7
			c-0.4,0-0.7-0.3-0.7-0.7c0,0,0,0,0,0v-1.1c0-0.4,0.3-0.7,0.7-0.7c0.4,0,0.7,0.3,0.7,0.7v1.1C1.8,132.3,1.5,132.7,1.1,132.7
			C1.1,132.7,1.1,132.7,1.1,132.7L1.1,132.7z M176.8,129.2c-0.4,0-0.7-0.3-0.7-0.7c0,0,0,0,0,0v-1.1c0-0.4,0.3-0.7,0.7-0.7
			c0.4,0,0.7,0.3,0.7,0.7v1.1C177.5,128.9,177.2,129.2,176.8,129.2C176.8,129.2,176.8,129.2,176.8,129.2L176.8,129.2z M1.1,127.5
			c-0.4,0-0.7-0.3-0.7-0.7c0,0,0,0,0,0v-1.1c0-0.4,0.3-0.7,0.7-0.7c0.4,0,0.7,0.3,0.7,0.7v1.1C1.8,127.2,1.5,127.5,1.1,127.5
			C1.1,127.5,1.1,127.5,1.1,127.5L1.1,127.5z M176.8,124c-0.4,0-0.7-0.3-0.7-0.7c0,0,0,0,0,0v-1.1c0-0.4,0.3-0.7,0.7-0.7
			c0.4,0,0.7,0.3,0.7,0.7v1.1C177.5,123.7,177.2,124,176.8,124C176.8,124,176.8,124,176.8,124L176.8,124z M1.1,122.3
			c-0.4,0-0.7-0.3-0.7-0.7c0,0,0,0,0,0v-1.1c0-0.4,0.3-0.7,0.7-0.7c0.4,0,0.7,0.3,0.7,0.7v1.1C1.8,122,1.5,122.3,1.1,122.3
			C1.1,122.3,1.1,122.3,1.1,122.3L1.1,122.3z M176.8,118.9c-0.4,0-0.7-0.3-0.7-0.7c0,0,0,0,0,0V117c0-0.4,0.3-0.7,0.7-0.7
			c0.4,0,0.7,0.3,0.7,0.7v1.1C177.5,118.6,177.2,118.9,176.8,118.9L176.8,118.9L176.8,118.9z M1.1,117.2c-0.4,0-0.7-0.3-0.7-0.7
			c0,0,0,0,0,0v-1.1c0-0.4,0.3-0.7,0.7-0.7c0.4,0,0.7,0.3,0.7,0.7v1.1C1.8,116.8,1.5,117.2,1.1,117.2C1.1,117.2,1.1,117.2,1.1,117.2
			L1.1,117.2z M176.8,113.7c-0.4,0-0.7-0.3-0.7-0.7c0,0,0,0,0,0v-1.1c0-0.4,0.3-0.7,0.7-0.7c0.4,0,0.7,0.3,0.7,0.7v1.1
			C177.5,113.4,177.2,113.7,176.8,113.7L176.8,113.7z M1.1,112c-0.4,0-0.7-0.3-0.7-0.7c0,0,0,0,0,0v-1.1c0-0.4,0.3-0.7,0.7-0.7
			c0.4,0,0.7,0.3,0.7,0.7v1.1C1.8,111.7,1.5,112,1.1,112C1.1,112,1.1,112,1.1,112L1.1,112z M176.8,108.5c-0.4,0-0.7-0.3-0.7-0.7
			c0,0,0,0,0,0v-1.1c0-0.4,0.3-0.7,0.7-0.7c0.4,0,0.7,0.3,0.7,0.7v1.1C177.5,108.2,177.2,108.5,176.8,108.5
			C176.8,108.5,176.8,108.5,176.8,108.5L176.8,108.5z M1.1,106.8c-0.4,0-0.7-0.3-0.7-0.7c0,0,0,0,0,0V105c0-0.4,0.3-0.7,0.7-0.7
			c0.4,0,0.7,0.3,0.7,0.7v1.1C1.8,106.5,1.5,106.8,1.1,106.8C1.1,106.8,1.1,106.8,1.1,106.8L1.1,106.8z M176.8,103.4
			c-0.4,0-0.7-0.3-0.7-0.7c0,0,0,0,0,0v-1.1c0-0.4,0.3-0.7,0.7-0.7c0.4,0,0.7,0.3,0.7,0.7v1.1C177.5,103,177.2,103.4,176.8,103.4
			C176.8,103.4,176.8,103.4,176.8,103.4L176.8,103.4z M1.1,101.6c-0.4,0-0.7-0.3-0.7-0.7c0,0,0,0,0,0v-1.1c0-0.4,0.3-0.7,0.7-0.7
			c0.4,0,0.7,0.3,0.7,0.7v1.1C1.8,101.3,1.5,101.6,1.1,101.6C1.1,101.6,1.1,101.6,1.1,101.6L1.1,101.6z M176.8,98.2
			c-0.4,0-0.7-0.3-0.7-0.7c0,0,0,0,0,0v-1.1c0-0.4,0.3-0.7,0.7-0.7c0.4,0,0.7,0.3,0.7,0.7v1.1C177.5,97.9,177.2,98.2,176.8,98.2
			L176.8,98.2L176.8,98.2z M1.1,96.5c-0.4,0-0.7-0.3-0.7-0.7c0,0,0,0,0,0v-1.1c0-0.4,0.3-0.7,0.7-0.7c0.4,0,0.7,0.3,0.7,0.7v1.1
			C1.8,96.2,1.5,96.5,1.1,96.5C1.1,96.5,1.1,96.5,1.1,96.5z M176.8,93c-0.4,0-0.7-0.3-0.7-0.7c0,0,0,0,0,0v-1.1
			c0-0.4,0.3-0.7,0.7-0.7c0.4,0,0.7,0.3,0.7,0.7l0,0v1.1C177.5,92.7,177.2,93,176.8,93L176.8,93L176.8,93z M1.1,91.3
			c-0.4,0-0.7-0.3-0.7-0.7c0,0,0,0,0,0v-1.1c0-0.4,0.3-0.7,0.7-0.7c0.4,0,0.7,0.3,0.7,0.7v1.1C1.8,91,1.5,91.3,1.1,91.3
			C1.1,91.3,1.1,91.3,1.1,91.3z M176.8,87.9c-0.4,0-0.7-0.3-0.7-0.7c0,0,0,0,0,0V86c0-0.4,0.3-0.7,0.7-0.7c0.4,0,0.7,0.3,0.7,0.7
			v1.1C177.5,87.5,177.2,87.9,176.8,87.9C176.8,87.9,176.8,87.9,176.8,87.9L176.8,87.9z M1.1,86.1c-0.4,0-0.7-0.3-0.7-0.7
			c0,0,0,0,0,0v-1.1c0-0.4,0.3-0.7,0.7-0.7c0.4,0,0.7,0.3,0.7,0.7v1.1C1.8,85.8,1.5,86.1,1.1,86.1C1.1,86.1,1.1,86.1,1.1,86.1z
			 M176.8,82.7c-0.4,0-0.7-0.3-0.7-0.7c0,0,0,0,0,0v-1.1c0-0.4,0.3-0.7,0.7-0.7c0.4,0,0.7,0.3,0.7,0.7V82
			C177.5,82.4,177.2,82.7,176.8,82.7L176.8,82.7L176.8,82.7z M1.1,81c-0.4,0-0.7-0.3-0.7-0.7c0,0,0,0,0,0v-1.1
			c0-0.4,0.3-0.7,0.7-0.7c0.4,0,0.7,0.3,0.7,0.7v1.1C1.8,80.6,1.5,81,1.1,81C1.1,81,1.1,81,1.1,81z M176.8,77.5
			c-0.4,0-0.7-0.3-0.7-0.7c0,0,0,0,0,0v-1.1c0-0.4,0.3-0.7,0.7-0.7c0.4,0,0.7,0.3,0.7,0.7v1.1C177.5,77.2,177.2,77.5,176.8,77.5
			L176.8,77.5L176.8,77.5z M1.1,75.8c-0.4,0-0.7-0.3-0.7-0.7c0,0,0,0,0,0v-1.1c0-0.4,0.3-0.7,0.7-0.7c0.4,0,0.7,0.3,0.7,0.7v1.1
			C1.8,75.5,1.5,75.8,1.1,75.8C1.1,75.8,1.1,75.8,1.1,75.8z M176.8,72.3c-0.4,0-0.7-0.3-0.7-0.7c0,0,0,0,0,0v-1.1
			c0-0.4,0.3-0.7,0.7-0.7c0.4,0,0.7,0.3,0.7,0.7v1.1C177.5,72,177.2,72.3,176.8,72.3L176.8,72.3L176.8,72.3z M1.1,70.6
			c-0.4,0-0.7-0.3-0.7-0.7c0,0,0,0,0,0v-1.1c0-0.4,0.3-0.7,0.7-0.7c0.4,0,0.7,0.3,0.7,0.7v1.1C1.8,70.3,1.5,70.6,1.1,70.6
			C1.1,70.6,1.1,70.6,1.1,70.6z M176.8,67.2c-0.4,0-0.7-0.3-0.7-0.7c0,0,0,0,0,0v-1.1c0-0.4,0.3-0.7,0.7-0.7c0.4,0,0.7,0.3,0.7,0.7
			v1.1C177.5,66.9,177.2,67.2,176.8,67.2L176.8,67.2L176.8,67.2z M1.1,65.5c-0.4,0-0.7-0.3-0.7-0.7c0,0,0,0,0,0v-1.1
			c0-0.4,0.3-0.7,0.7-0.7c0.4,0,0.7,0.3,0.7,0.7v1.1C1.8,65.1,1.5,65.5,1.1,65.5C1.1,65.5,1.1,65.5,1.1,65.5z M176.8,62
			c-0.4,0-0.7-0.3-0.7-0.7c0,0,0,0,0,0v-1.1c0-0.4,0.3-0.7,0.7-0.7c0.4,0,0.7,0.3,0.7,0.7v1.1C177.5,61.7,177.2,62,176.8,62
			C176.8,62,176.8,62,176.8,62L176.8,62z M1.1,60.3c-0.4,0-0.7-0.3-0.7-0.7c0,0,0,0,0,0v-1.1c0-0.4,0.3-0.7,0.7-0.7
			c0.4,0,0.7,0.3,0.7,0.7v1.1C1.8,60,1.5,60.3,1.1,60.3C1.1,60.3,1.1,60.3,1.1,60.3z M176.8,56.8c-0.4,0-0.7-0.3-0.7-0.7
			c0,0,0,0,0,0V55c0-0.4,0.3-0.7,0.7-0.7c0.4,0,0.7,0.3,0.7,0.7v1.1C177.5,56.5,177.2,56.8,176.8,56.8L176.8,56.8L176.8,56.8z
			 M1.1,55.1c-0.4,0-0.7-0.3-0.7-0.7c0,0,0,0,0,0v-1.1c0-0.4,0.3-0.7,0.7-0.7c0.4,0,0.7,0.3,0.7,0.7v1.1C1.8,54.8,1.5,55.1,1.1,55.1
			C1.1,55.1,1.1,55.1,1.1,55.1z M176.8,51.7c-0.4,0-0.7-0.3-0.7-0.7c0,0,0,0,0,0v-1.1c0-0.4,0.3-0.7,0.7-0.7c0.4,0,0.7,0.3,0.7,0.7
			V51C177.5,51.3,177.2,51.7,176.8,51.7C176.8,51.7,176.8,51.7,176.8,51.7L176.8,51.7z M1.1,49.9c-0.4,0-0.7-0.3-0.7-0.7
			c0,0,0,0,0,0v-1.1c0-0.4,0.3-0.7,0.7-0.7c0.4,0,0.7,0.3,0.7,0.7v1.1C1.8,49.6,1.5,49.9,1.1,49.9C1.1,49.9,1.1,49.9,1.1,49.9z
			 M176.8,46.5c-0.4,0-0.7-0.3-0.7-0.7c0,0,0,0,0,0v-1.1c0-0.4,0.3-0.7,0.7-0.7c0.4,0,0.7,0.3,0.7,0.7v1.1
			C177.5,46.2,177.2,46.5,176.8,46.5C176.8,46.5,176.8,46.5,176.8,46.5L176.8,46.5z M1.1,44.8c-0.4,0-0.7-0.3-0.7-0.7v-1.1
			c0-0.4,0.3-0.7,0.7-0.7c0.4,0,0.7,0.3,0.7,0.7v1.1C1.8,44.5,1.5,44.8,1.1,44.8z M176.8,41.3c-0.4,0-0.7-0.3-0.7-0.7c0,0,0,0,0,0
			v-1.1c0-0.4,0.3-0.7,0.7-0.7c0.4,0,0.7,0.3,0.7,0.7v1.1C177.5,41,177.2,41.3,176.8,41.3L176.8,41.3L176.8,41.3z M1.1,39.6
			c-0.4,0-0.7-0.3-0.7-0.7c0,0,0,0,0,0v-1.1c0-0.4,0.3-0.7,0.7-0.7c0.4,0,0.7,0.3,0.7,0.7v1.1C1.8,39.3,1.5,39.6,1.1,39.6
			C1.1,39.6,1.1,39.6,1.1,39.6z M176.8,36.2c-0.4,0-0.7-0.3-0.7-0.7c0,0,0,0,0,0v-1.1c0-0.4,0.3-0.7,0.7-0.7c0.4,0,0.7,0.3,0.7,0.7
			v1.1C177.5,35.8,177.2,36.2,176.8,36.2L176.8,36.2z M1.1,34.4c-0.4,0-0.7-0.3-0.7-0.7c0,0,0,0,0,0v-1.1c0-0.4,0.3-0.7,0.7-0.7
			c0.4,0,0.7,0.3,0.7,0.7v1.1C1.8,34.1,1.5,34.4,1.1,34.4C1.1,34.4,1.1,34.4,1.1,34.4z M176.8,31c-0.4,0-0.7-0.3-0.7-0.7
			c0,0,0,0,0,0v-1.1c0-0.4,0.3-0.7,0.7-0.7c0.4,0,0.7,0.3,0.7,0.7v1.1C177.5,30.7,177.2,31,176.8,31C176.8,31,176.8,31,176.8,31
			L176.8,31z M1.1,29.3c-0.4,0-0.7-0.3-0.7-0.7c0,0,0,0,0,0v-1.1c0-0.4,0.3-0.7,0.7-0.7c0.4,0,0.7,0.3,0.7,0.7v1.1
			C1.8,29,1.5,29.3,1.1,29.3C1.1,29.3,1.1,29.3,1.1,29.3z M176.8,25.8c-0.4,0-0.7-0.3-0.7-0.7c0,0,0,0,0,0V24c0-0.4,0.3-0.7,0.7-0.7
			c0.4,0,0.7,0.3,0.7,0.7v1.1C177.5,25.5,177.2,25.8,176.8,25.8L176.8,25.8z M1.1,24.1c-0.4,0-0.7-0.3-0.7-0.7c0,0,0,0,0,0v-1.1
			c0-0.4,0.3-0.7,0.7-0.7c0.4,0,0.7,0.3,0.7,0.7v1.1C1.8,23.8,1.5,24.1,1.1,24.1C1.1,24.1,1.1,24.1,1.1,24.1z M176.8,20.6
			c-0.4,0-0.7-0.3-0.7-0.7c0,0,0,0,0,0v-1.1c0-0.4,0.3-0.7,0.7-0.7c0.4,0,0.7,0.3,0.7,0.7v1.1C177.5,20.3,177.2,20.6,176.8,20.6
			L176.8,20.6z M1.1,18.9c-0.4,0-0.7-0.3-0.7-0.7c0,0,0,0,0,0v-1.1c0-0.4,0.3-0.7,0.7-0.7c0.4,0,0.7,0.3,0.7,0.7v1.1
			C1.8,18.6,1.5,18.9,1.1,18.9z M176.8,15.5c-0.4,0-0.7-0.3-0.7-0.7c0,0,0,0,0,0v-1.1c0-0.4,0.3-0.7,0.7-0.7c0.4,0,0.7,0.3,0.7,0.7
			v1.1C177.5,15.2,177.2,15.5,176.8,15.5C176.8,15.5,176.8,15.5,176.8,15.5L176.8,15.5z M1.1,13.8c-0.4,0-0.7-0.3-0.7-0.7
			c0,0,0,0,0,0v-1.1c0-0.4,0.3-0.7,0.7-0.7c0.4,0,0.7,0.3,0.7,0.7v1.1C1.8,13.4,1.5,13.8,1.1,13.8C1.1,13.8,1.1,13.8,1.1,13.8z
			 M176.8,10.3c-0.4,0-0.7-0.3-0.7-0.7c0,0,0,0,0,0V8.5c0-0.4,0.3-0.7,0.7-0.7c0.4,0,0.7,0.3,0.7,0.7v1.1
			C177.5,10,177.2,10.3,176.8,10.3L176.8,10.3L176.8,10.3z M1.1,8.6C1.1,8.6,1.1,8.6,1.1,8.6c-0.4,0-0.7-0.4-0.7-0.8
			c0-0.4,0.1-0.8,0.2-1.2C0.7,6.2,1.1,6,1.4,6.1C1.8,6.1,2.1,6.5,2,6.9c-0.1,0.3-0.1,0.7-0.2,1C1.8,8.3,1.5,8.6,1.1,8.6z M176.5,7.3
			c-0.3,0-0.6-0.2-0.7-0.5c-0.1-0.3-0.2-0.7-0.3-1c-0.1-0.4,0-0.8,0.4-0.9c0.4-0.1,0.8,0,0.9,0.4c0.2,0.4,0.3,0.8,0.4,1.2
			c0.1,0.4-0.1,0.8-0.5,0.9C176.7,7.3,176.6,7.3,176.5,7.3z M3.1,3.9c-0.4,0-0.7-0.3-0.7-0.7c0-0.2,0.1-0.3,0.2-0.5
			c0.3-0.3,0.6-0.6,0.9-0.9c0.3-0.2,0.8-0.2,1,0.1c0.2,0.3,0.2,0.8-0.1,1l0,0C4.1,3.2,3.9,3.4,3.6,3.7C3.5,3.9,3.3,3.9,3.1,3.9z
			 M173.8,3.1c-0.2,0-0.3-0.1-0.4-0.2c-0.3-0.2-0.6-0.4-0.9-0.6c-0.3-0.2-0.5-0.6-0.3-1c0.2-0.3,0.6-0.5,1-0.3l0,0
			c0.4,0.2,0.7,0.4,1,0.7c0.3,0.2,0.4,0.7,0.1,1C174.2,3,174,3.1,173.8,3.1L173.8,3.1z M7.6,1.5c-0.4,0-0.7-0.3-0.7-0.7
			c0-0.3,0.3-0.6,0.6-0.7C7.9,0,8.3,0,8.7,0c0.4,0,0.7,0.3,0.7,0.7c0,0.4-0.3,0.7-0.7,0.7c0,0,0,0,0,0c-0.3,0-0.7,0-1,0.1
			C7.7,1.5,7.6,1.5,7.6,1.5z M169,1.4h-1.1c-0.4,0-0.7-0.3-0.7-0.7s0.3-0.7,0.7-0.7c0,0,0,0,0,0h1.1c0.4,0,0.7,0.3,0.7,0.7
			S169.4,1.4,169,1.4C169,1.4,169,1.4,169,1.4z M163.8,1.4h-1.1c-0.4,0-0.7-0.3-0.7-0.7s0.3-0.7,0.7-0.7c0,0,0,0,0,0h1.1
			c0.4,0,0.7,0.3,0.7,0.7S164.2,1.4,163.8,1.4C163.8,1.4,163.8,1.4,163.8,1.4L163.8,1.4z M158.6,1.4h-1.1c-0.4,0-0.7-0.3-0.7-0.7
			s0.3-0.7,0.7-0.7c0,0,0,0,0,0h1.1c0.4,0,0.7,0.3,0.7,0.7S159,1.4,158.6,1.4C158.6,1.4,158.6,1.4,158.6,1.4z M153.5,1.4h-1.1
			c-0.4,0-0.7-0.3-0.7-0.7s0.3-0.7,0.7-0.7c0,0,0,0,0,0h1.1c0.4,0,0.7,0.3,0.7,0.7S153.9,1.4,153.5,1.4
			C153.5,1.4,153.5,1.4,153.5,1.4z M148.3,1.4h-1.1c-0.4,0-0.7-0.3-0.7-0.7s0.3-0.7,0.7-0.7c0,0,0,0,0,0h1.1c0.4,0,0.7,0.3,0.7,0.7
			S148.7,1.4,148.3,1.4C148.3,1.4,148.3,1.4,148.3,1.4z M143.1,1.4H142c-0.4,0-0.7-0.3-0.7-0.7S141.6,0,142,0c0,0,0,0,0,0h1.1
			c0.4,0,0.7,0.3,0.7,0.7S143.5,1.4,143.1,1.4C143.1,1.4,143.1,1.4,143.1,1.4z M138,1.4h-1.1c-0.4,0-0.7-0.3-0.7-0.7
			s0.3-0.7,0.7-0.7c0,0,0,0,0,0h1.1c0.4,0,0.7,0.3,0.7,0.7S138.4,1.4,138,1.4C138,1.4,138,1.4,138,1.4z M132.8,1.4h-1.1
			c-0.4,0-0.7-0.3-0.7-0.7s0.3-0.7,0.7-0.7c0,0,0,0,0,0h1.1c0.4,0,0.7,0.3,0.7,0.7S133.2,1.4,132.8,1.4
			C132.8,1.4,132.8,1.4,132.8,1.4z M127.6,1.4h-1.1c-0.4,0-0.7-0.3-0.7-0.7c0-0.4,0.3-0.7,0.7-0.7c0,0,0,0,0,0h1.1
			c0.4,0,0.7,0.3,0.7,0.7S128,1.4,127.6,1.4C127.6,1.4,127.6,1.4,127.6,1.4L127.6,1.4z M122.5,1.4h-1.1c-0.4,0-0.7-0.3-0.7-0.7
			c0-0.4,0.3-0.7,0.7-0.7c0,0,0,0,0,0h1.1c0.4,0,0.7,0.3,0.7,0.7C123.2,1.1,122.9,1.4,122.5,1.4C122.5,1.4,122.5,1.4,122.5,1.4
			L122.5,1.4z M117.3,1.4h-1.1c-0.4,0-0.7-0.3-0.7-0.7c0-0.4,0.3-0.7,0.7-0.7c0,0,0,0,0,0h1.1c0.4,0,0.7,0.3,0.7,0.7
			C118,1.1,117.7,1.4,117.3,1.4C117.3,1.4,117.3,1.4,117.3,1.4L117.3,1.4z M112.1,1.4H111c-0.4,0-0.7-0.3-0.7-0.7
			c0-0.4,0.3-0.7,0.7-0.7c0,0,0,0,0,0h1.1c0.4,0,0.7,0.3,0.7,0.7C112.8,1.1,112.5,1.4,112.1,1.4C112.1,1.4,112.1,1.4,112.1,1.4z
			 M106.9,1.4h-1.1c-0.4,0-0.7-0.3-0.7-0.7c0-0.4,0.3-0.7,0.7-0.7c0,0,0,0,0,0h1.2c0.4,0,0.7,0.3,0.7,0.7
			C107.7,1.1,107.3,1.4,106.9,1.4C107,1.4,107,1.4,106.9,1.4L106.9,1.4z M101.8,1.4h-1.1c-0.4,0-0.7-0.3-0.7-0.7
			c0-0.4,0.3-0.7,0.7-0.7c0,0,0,0,0,0h1.2c0.4,0,0.7,0.3,0.7,0.7C102.5,1.1,102.2,1.4,101.8,1.4C101.8,1.4,101.8,1.4,101.8,1.4
			L101.8,1.4z M96.6,1.4h-1.1c-0.4,0-0.7-0.3-0.7-0.7c0-0.4,0.3-0.7,0.7-0.7c0,0,0,0,0,0h1.1c0.4,0,0.7,0.3,0.7,0.7
			C97.3,1.1,97,1.4,96.6,1.4C96.6,1.4,96.6,1.4,96.6,1.4L96.6,1.4z M91.4,1.4h-1.1c-0.4,0-0.7-0.3-0.7-0.7c0-0.4,0.3-0.7,0.7-0.7
			c0,0,0,0,0,0h1.1c0.4,0,0.7,0.3,0.7,0.7C92.1,1.1,91.8,1.4,91.4,1.4C91.4,1.4,91.4,1.4,91.4,1.4L91.4,1.4z M86.3,1.4h-1.1
			c-0.4,0-0.7-0.3-0.7-0.7c0-0.4,0.3-0.7,0.7-0.7c0,0,0,0,0,0h1.1C86.7,0,87,0.3,87,0.7C87,1.1,86.7,1.4,86.3,1.4
			C86.3,1.4,86.3,1.4,86.3,1.4L86.3,1.4z M81.1,1.4H80c-0.4,0-0.7-0.3-0.7-0.7C79.2,0.3,79.6,0,80,0c0,0,0,0,0,0h1.1
			c0.4,0,0.7,0.3,0.7,0.7C81.8,1.1,81.5,1.4,81.1,1.4C81.1,1.4,81.1,1.4,81.1,1.4L81.1,1.4z M75.9,1.4h-1.1c-0.4,0-0.7-0.3-0.7-0.7
			c0-0.4,0.3-0.7,0.7-0.7c0,0,0,0,0,0h1.1c0.4,0,0.7,0.3,0.7,0.7C76.6,1.1,76.3,1.4,75.9,1.4C75.9,1.4,75.9,1.4,75.9,1.4L75.9,1.4z
			 M70.8,1.4h-1.1c-0.4,0-0.7-0.3-0.7-0.7c0-0.4,0.3-0.7,0.7-0.7c0,0,0,0,0,0h1.1c0.4,0,0.7,0.3,0.7,0.7C71.5,1.1,71.2,1.4,70.8,1.4
			C70.8,1.4,70.8,1.4,70.8,1.4L70.8,1.4z M65.6,1.4h-1.1c-0.4,0-0.7-0.3-0.7-0.7c0-0.4,0.3-0.7,0.7-0.7c0,0,0,0,0,0h1.1
			c0.4,0,0.7,0.3,0.7,0.7C66.3,1.1,66,1.4,65.6,1.4C65.6,1.4,65.6,1.4,65.6,1.4L65.6,1.4z M60.4,1.4h-1.1c-0.4,0-0.7-0.3-0.7-0.7
			c0-0.4,0.3-0.7,0.7-0.7c0,0,0,0,0,0h1.1c0.4,0,0.7,0.3,0.7,0.7C61.1,1.1,60.8,1.4,60.4,1.4C60.4,1.4,60.4,1.4,60.4,1.4L60.4,1.4z
			 M55.2,1.4h-1.1c-0.4,0-0.7-0.3-0.7-0.7c0-0.4,0.3-0.7,0.7-0.7c0,0,0,0,0,0h1.1C55.6,0,56,0.3,56,0.7C56,1.1,55.6,1.4,55.2,1.4
			C55.3,1.4,55.3,1.4,55.2,1.4L55.2,1.4z M50.1,1.4h-1.1c-0.4,0-0.7-0.3-0.7-0.7c0-0.4,0.3-0.7,0.7-0.7c0,0,0,0,0,0h1.1
			c0.4,0,0.7,0.3,0.7,0.7C50.8,1.1,50.5,1.4,50.1,1.4C50.1,1.4,50.1,1.4,50.1,1.4L50.1,1.4z M44.9,1.4h-1.1c-0.4,0-0.7-0.3-0.7-0.7
			c0-0.4,0.3-0.7,0.7-0.7c0,0,0,0,0,0h1.1c0.4,0,0.7,0.3,0.7,0.7C45.6,1.1,45.3,1.4,44.9,1.4C44.9,1.4,44.9,1.4,44.9,1.4L44.9,1.4z
			 M39.7,1.4h-1.1c-0.4,0-0.7-0.3-0.7-0.7c0-0.4,0.3-0.7,0.7-0.7c0,0,0,0,0,0h1.1c0.4,0,0.7,0.3,0.7,0.7C40.5,1.1,40.1,1.4,39.7,1.4
			C39.7,1.4,39.7,1.4,39.7,1.4L39.7,1.4z M34.6,1.4h-1.1c-0.4,0-0.7-0.3-0.7-0.7C32.7,0.3,33,0,33.4,0c0,0,0,0,0,0h1.1
			c0.4,0,0.7,0.3,0.7,0.7C35.3,1.1,35,1.4,34.6,1.4C34.6,1.4,34.6,1.4,34.6,1.4L34.6,1.4z M29.4,1.4h-1.1c-0.4,0-0.7-0.3-0.7-0.7
			c0-0.4,0.3-0.7,0.7-0.7c0,0,0,0,0,0h1.1c0.4,0,0.7,0.3,0.7,0.7C30.1,1.1,29.8,1.4,29.4,1.4C29.4,1.4,29.4,1.4,29.4,1.4L29.4,1.4z
			 M24.2,1.4h-1.1c-0.4,0-0.7-0.3-0.7-0.7c0-0.4,0.3-0.7,0.7-0.7c0,0,0,0,0,0h1.1c0.4,0,0.7,0.3,0.7,0.7C24.9,1.1,24.6,1.4,24.2,1.4
			C24.2,1.4,24.2,1.4,24.2,1.4L24.2,1.4z M19.1,1.4h-1.1c-0.4,0-0.7-0.3-0.7-0.7c0-0.4,0.3-0.7,0.7-0.7c0,0,0,0,0,0h1.1
			c0.4,0,0.7,0.3,0.7,0.7C19.8,1.1,19.5,1.4,19.1,1.4C19.1,1.4,19.1,1.4,19.1,1.4L19.1,1.4z M13.9,1.4h-1.1c-0.4,0-0.7-0.3-0.7-0.7
			S12.4,0,12.7,0c0,0,0,0,0,0h1.1c0.4,0,0.7,0.3,0.7,0.7S14.3,1.4,13.9,1.4C13.9,1.4,13.9,1.4,13.9,1.4L13.9,1.4z"/>
		<path id="rect238" class="st3" d="M223.2,208.4V21.1c0-1.6,1.3-3,3-3H364c1.6,0,3,1.3,3,3v187.3c0,1.6-1.3,3-3,3H226.2
			C224.6,211.4,223.2,210.1,223.2,208.4z"/>
		<path id="path240" class="st2" d="M364,212.1H226.2c-2,0-3.7-1.7-3.7-3.7V21.1c0-2,1.7-3.7,3.7-3.7H364c2,0,3.7,1.7,3.7,3.7v187.3
			C367.7,210.5,366.1,212.1,364,212.1z M226.2,18.9c-1.3,0-2.3,1-2.3,2.3v187.3c0,1.3,1,2.3,2.3,2.3H364c1.3,0,2.3-1,2.3-2.3V21.1
			c0-1.3-1-2.3-2.3-2.3H226.2z"/>
		<path id="path242" class="st0" d="M263.4,122.9c-0.8,0.7-1.8,1.3-2.8,1.8c-0.9,0.3-1.9,0.5-2.9,0.5c-1.4,0.1-2.8-0.4-3.9-1.3
			c-0.9-0.8-1.4-2-1.4-3.2c0-0.7,0.2-1.4,0.5-2.1c0.3-0.6,0.8-1.1,1.4-1.5c0.6-0.4,1.2-0.7,1.9-0.9c0.8-0.2,1.6-0.3,2.3-0.4
			c1.6-0.1,3.2-0.5,4.7-0.9c0-0.4,0-0.6,0-0.7c0.1-0.8-0.2-1.7-0.7-2.3c-0.9-0.7-1.9-1-3-0.9c-1-0.1-1.9,0.2-2.7,0.7
			c-0.7,0.6-1.2,1.4-1.3,2.3l-2.6-0.4c0.2-1,0.6-1.9,1.2-2.7c0.6-0.7,1.4-1.3,2.3-1.6c1.1-0.4,2.3-0.6,3.5-0.5
			c1.1,0,2.2,0.1,3.2,0.5c0.7,0.2,1.3,0.6,1.8,1.2c0.4,0.5,0.7,1.1,0.8,1.8c0.1,0.8,0.2,1.6,0.1,2.4v3.5c0,1.6,0,3.1,0.2,4.7
			c0.1,0.7,0.3,1.3,0.7,1.9h-2.8C263.7,124.2,263.5,123.5,263.4,122.9z M263.2,117c-1.4,0.5-2.8,0.8-4.3,1c-0.8,0.1-1.6,0.3-2.3,0.5
			c-0.4,0.2-0.8,0.5-1,0.9c-0.6,1-0.4,2.3,0.4,3c0.7,0.5,1.5,0.8,2.3,0.7c0.9,0,1.9-0.2,2.7-0.7c0.8-0.4,1.4-1,1.7-1.8
			c0.3-0.8,0.5-1.7,0.4-2.6L263.2,117z"/>
		<path id="path244" class="st0" d="M269.9,130.8v-21.5h2.4v2c0.5-0.7,1.2-1.3,1.9-1.8c0.8-0.4,1.7-0.6,2.6-0.6c1.2,0,2.5,0.3,3.5,1
			c1,0.7,1.8,1.7,2.3,2.9c0.5,1.3,0.8,2.7,0.8,4.1c0,1.5-0.3,2.9-0.9,4.3c-1,2.4-3.3,3.9-5.9,3.9c-0.8,0-1.6-0.2-2.4-0.6
			c-0.7-0.3-1.3-0.8-1.7-1.4v7.6H269.9z M272.3,117.1c-0.1,1.6,0.3,3.1,1.2,4.4c0.7,0.9,1.8,1.4,2.9,1.4c1.2,0,2.3-0.6,3-1.5
			c0.9-1.3,1.4-3,1.3-4.6c0.1-1.6-0.3-3.2-1.2-4.5c-0.7-0.9-1.8-1.5-2.9-1.5c-1.2,0-2.3,0.6-3,1.6
			C272.7,113.9,272.2,115.5,272.3,117.1L272.3,117.1z"/>
		<path id="path246" class="st0" d="M286.6,130.8v-21.5h2.4v2c0.5-0.7,1.2-1.3,1.9-1.8c0.8-0.4,1.7-0.6,2.6-0.6c1.2,0,2.5,0.3,3.5,1
			c1,0.7,1.8,1.7,2.3,2.9c0.5,1.3,0.8,2.7,0.8,4.1c0,1.5-0.3,2.9-0.9,4.3c-1,2.4-3.3,3.9-5.9,3.9c-0.8,0-1.6-0.2-2.4-0.6
			c-0.7-0.3-1.3-0.8-1.7-1.4v7.6H286.6z M289,117.1c-0.1,1.6,0.3,3.1,1.2,4.4c0.7,0.9,1.8,1.4,2.9,1.4c1.2,0,2.3-0.6,3-1.5
			c0.9-1.3,1.4-3,1.3-4.6c0.1-1.6-0.3-3.2-1.2-4.5c-0.7-0.9-1.8-1.5-2.9-1.5c-1.2,0-2.3,0.6-3,1.6
			C289.4,113.9,288.9,115.5,289,117.1L289,117.1z"/>
		<path id="path248" class="st0" d="M311.6,124.8v-21.5h2.6v21.5H311.6z"/>
		<path id="path250" class="st0" d="M318.3,106.4v-3h2.6v3H318.3z M318.3,124.8v-15.6h2.6v15.6H318.3z"/>
		<path id="path252" class="st0" d="M327.4,124.8H325v-21.5h2.6v7.7c1-1.3,2.6-2.1,4.3-2.1c0.9,0,1.9,0.2,2.7,0.6
			c0.8,0.4,1.5,0.9,2.1,1.6c0.6,0.8,1,1.6,1.3,2.5c0.3,1,0.5,2.1,0.5,3.2c0.1,2.2-0.6,4.4-2,6.2c-1.2,1.4-2.9,2.2-4.7,2.2
			c-1.7,0-3.4-0.8-4.3-2.3L327.4,124.8z M327.4,116.9c-0.1,1.4,0.2,2.8,0.8,4c1,1.8,3.2,2.6,5.1,1.6c0.5-0.3,0.9-0.6,1.3-1.1
			c0.9-1.3,1.4-2.9,1.3-4.5c0.1-1.6-0.3-3.2-1.2-4.5c-0.7-0.9-1.8-1.4-2.9-1.4c-1.2,0-2.3,0.6-3,1.5
			C327.7,113.8,327.3,115.4,327.4,116.9z"/>
		<path id="path254" class="st2" d="M375,221.6h-1.1c-0.4,0-0.7-0.3-0.7-0.7c0-0.4,0.3-0.7,0.7-0.7h1.1c0.4,0,0.7,0.3,0.7,0.7
			C375.7,221.3,375.4,221.6,375,221.6L375,221.6z M369.8,221.6h-1.1c-0.4,0-0.7-0.3-0.7-0.7c0-0.4,0.3-0.7,0.7-0.7h1.1
			c0.4,0,0.7,0.3,0.7,0.7C370.5,221.3,370.2,221.6,369.8,221.6L369.8,221.6z M364.6,221.6h-1.1c-0.4,0-0.7-0.3-0.7-0.7
			c0-0.4,0.3-0.7,0.7-0.7h1.1c0.4,0,0.7,0.3,0.7,0.7C365.3,221.3,365,221.6,364.6,221.6L364.6,221.6z M359.5,221.6h-1.1
			c-0.4,0-0.7-0.3-0.7-0.7c0-0.4,0.3-0.7,0.7-0.7h1.1c0.4,0,0.7,0.3,0.7,0.7C360.2,221.3,359.9,221.6,359.5,221.6L359.5,221.6z
			 M354.3,221.6h-1.1c-0.4,0-0.7-0.3-0.7-0.7c0-0.4,0.3-0.7,0.7-0.7h1.1c0.4,0,0.7,0.3,0.7,0.7C355,221.3,354.7,221.6,354.3,221.6z
			 M349.1,221.6H348c-0.4,0-0.7-0.3-0.7-0.7c0-0.4,0.3-0.7,0.7-0.7h1.1c0.4,0,0.7,0.3,0.7,0.7C349.8,221.3,349.5,221.6,349.1,221.6z
			 M344,221.6h-1.1c-0.4,0-0.7-0.3-0.7-0.7c0-0.4,0.3-0.7,0.7-0.7h1.1c0.4,0,0.7,0.3,0.7,0.7C344.7,221.3,344.3,221.6,344,221.6
			L344,221.6z M338.8,221.6h-1.1c-0.4,0-0.7-0.3-0.7-0.7c0-0.4,0.3-0.7,0.7-0.7h1.1c0.4,0,0.7,0.3,0.7,0.7
			C339.5,221.3,339.2,221.6,338.8,221.6z M333.6,221.6h-1.1c-0.4,0-0.7-0.3-0.7-0.7c0-0.4,0.3-0.7,0.7-0.7h1.1
			c0.4,0,0.7,0.3,0.7,0.7C334.3,221.3,334,221.6,333.6,221.6z M328.4,221.6h-1.1c-0.4,0-0.7-0.3-0.7-0.7c0-0.4,0.3-0.7,0.7-0.7h1.1
			c0.4,0,0.7,0.3,0.7,0.7C329.1,221.3,328.8,221.6,328.4,221.6z M323.3,221.6h-1.1c-0.4,0-0.7-0.3-0.7-0.7c0-0.4,0.3-0.7,0.7-0.7
			h1.1c0.4,0,0.7,0.3,0.7,0.7C324,221.3,323.7,221.6,323.3,221.6z M318.1,221.6H317c-0.4,0-0.7-0.3-0.7-0.7c0-0.4,0.3-0.7,0.7-0.7
			l0,0h1.1c0.4,0,0.7,0.3,0.7,0.7C318.8,221.3,318.5,221.6,318.1,221.6z M312.9,221.6h-1.1c-0.4,0-0.7-0.3-0.7-0.7
			c0-0.4,0.3-0.7,0.7-0.7h1.1c0.4,0,0.7,0.3,0.7,0.7C313.6,221.3,313.3,221.6,312.9,221.6z M307.8,221.6h-1.1
			c-0.4,0-0.7-0.3-0.7-0.7c0-0.4,0.3-0.7,0.7-0.7h1.1c0.4,0,0.7,0.3,0.7,0.7C308.5,221.3,308.2,221.6,307.8,221.6L307.8,221.6z
			 M302.6,221.6h-1.1c-0.4,0-0.7-0.3-0.7-0.7c0-0.4,0.3-0.7,0.7-0.7h1.1c0.4,0,0.7,0.3,0.7,0.7C303.3,221.3,303,221.6,302.6,221.6z
			 M297.4,221.6h-1.1c-0.4,0-0.7-0.3-0.7-0.7c0-0.4,0.3-0.7,0.7-0.7h1.1c0.4,0,0.7,0.3,0.7,0.7C298.1,221.3,297.8,221.6,297.4,221.6
			z M292.3,221.6h-1.1c-0.4,0-0.7-0.3-0.7-0.7c0-0.4,0.3-0.7,0.7-0.7l0,0h1.1c0.4,0,0.7,0.3,0.7,0.7
			C293,221.3,292.6,221.6,292.3,221.6z M287.1,221.6h-1.1c-0.4,0-0.7-0.3-0.7-0.7c0-0.4,0.3-0.7,0.7-0.7h1.1c0.4,0,0.7,0.3,0.7,0.7
			C287.8,221.3,287.5,221.6,287.1,221.6z M281.9,221.6h-1.1c-0.4,0-0.7-0.3-0.7-0.7c0-0.4,0.3-0.7,0.7-0.7h1.1
			c0.4,0,0.7,0.3,0.7,0.7C282.6,221.3,282.3,221.6,281.9,221.6z M276.7,221.6h-1.1c-0.4,0-0.7-0.3-0.7-0.7c0-0.4,0.3-0.7,0.7-0.7
			h1.1c0.4,0,0.7,0.3,0.7,0.7C277.5,221.3,277.1,221.6,276.7,221.6z M271.6,221.6h-1.1c-0.4,0-0.7-0.3-0.7-0.7
			c0-0.4,0.3-0.7,0.7-0.7h1.1c0.4,0,0.7,0.3,0.7,0.7C272.3,221.3,272,221.6,271.6,221.6L271.6,221.6z M266.4,221.6h-1.1
			c-0.4,0-0.7-0.3-0.7-0.7c0-0.4,0.3-0.7,0.7-0.7h1.1c0.4,0,0.7,0.3,0.7,0.7C267.1,221.3,266.8,221.6,266.4,221.6z M261.2,221.6
			h-1.1c-0.4,0-0.7-0.3-0.7-0.7c0-0.4,0.3-0.7,0.7-0.7h1.1c0.4,0,0.7,0.3,0.7,0.7C261.9,221.3,261.6,221.6,261.2,221.6L261.2,221.6z
			 M256.1,221.6h-1.1c-0.4,0-0.7-0.3-0.7-0.7c0-0.4,0.3-0.7,0.7-0.7h1.1c0.4,0,0.7,0.3,0.7,0.7C256.8,221.3,256.5,221.6,256.1,221.6
			L256.1,221.6z M250.9,221.6h-1.1c-0.4,0-0.7-0.3-0.7-0.7c0-0.4,0.3-0.7,0.7-0.7h1.1c0.4,0,0.7,0.3,0.7,0.7
			C251.6,221.3,251.3,221.6,250.9,221.6z M245.7,221.6h-1.1c-0.4,0-0.7-0.3-0.7-0.7c0-0.4,0.3-0.7,0.7-0.7h1.2
			c0.4,0,0.7,0.3,0.7,0.7C246.4,221.3,246.1,221.6,245.7,221.6L245.7,221.6L245.7,221.6z M240.6,221.6h-1.1c-0.4,0-0.7-0.3-0.7-0.7
			c0-0.4,0.3-0.7,0.7-0.7h1.2c0.4,0,0.7,0.3,0.7,0.7C241.3,221.3,241,221.6,240.6,221.6L240.6,221.6z M235.4,221.6h-1.1
			c-0.4,0-0.7-0.3-0.7-0.7c0-0.4,0.3-0.7,0.7-0.7h1.1c0.4,0,0.7,0.3,0.7,0.7C236.1,221.3,235.8,221.6,235.4,221.6z M230.2,221.6
			h-1.1c-0.4,0-0.7-0.3-0.7-0.7c0-0.4,0.3-0.7,0.7-0.7h1.1c0.4,0,0.7,0.3,0.7,0.7C230.9,221.3,230.6,221.6,230.2,221.6L230.2,221.6z
			 M225,221.6h-1.1c-0.4,0-0.7-0.3-0.7-0.7c0-0.4,0.3-0.7,0.7-0.7h1.1c0.4,0,0.7,0.3,0.7,0.7C225.8,221.3,225.4,221.6,225,221.6z
			 M219.9,221.6h-1.1c-0.4,0-0.7-0.3-0.7-0.7c0-0.4,0.3-0.7,0.7-0.7h1.1c0.4,0,0.7,0.3,0.7,0.7C220.6,221.3,220.3,221.6,219.9,221.6
			z M214.7,221.6L214.7,221.6c-0.4,0-0.9-0.1-1.3-0.1c-0.4-0.1-0.6-0.5-0.6-0.8c0.1-0.4,0.4-0.6,0.8-0.6c0.3,0.1,0.7,0.1,1,0.1
			c0.4,0,0.7,0.3,0.7,0.7C215.4,221.3,215.1,221.6,214.7,221.6L214.7,221.6z M378.8,220.7c-0.4,0-0.7-0.3-0.7-0.7
			c0-0.3,0.1-0.5,0.4-0.6c0.3-0.2,0.6-0.3,0.9-0.6c0.3-0.2,0.8-0.2,1,0.2c0.2,0.3,0.2,0.8-0.1,1c-0.3,0.2-0.7,0.5-1.1,0.7
			C379.1,220.7,379,220.7,378.8,220.7L378.8,220.7z M210,219.7c-0.2,0-0.3-0.1-0.5-0.2c-0.3-0.3-0.6-0.6-0.9-0.9
			c-0.3-0.3-0.2-0.7,0.1-1c0.3-0.3,0.7-0.2,1,0.1c0.2,0.3,0.5,0.5,0.7,0.7c0.3,0.3,0.3,0.7,0.1,1C210.4,219.7,210.2,219.7,210,219.7
			L210,219.7z M382.3,217c-0.4,0-0.7-0.3-0.7-0.7c0-0.1,0-0.2,0.1-0.3c0.1-0.3,0.3-0.6,0.4-1c0.1-0.4,0.5-0.6,0.9-0.5
			c0.4,0.1,0.6,0.5,0.5,0.9l0,0c-0.1,0.4-0.3,0.8-0.4,1.2C382.8,216.8,382.6,217,382.3,217z M207.4,215.4c-0.3,0-0.6-0.2-0.7-0.6
			c-0.1-0.4-0.1-0.8-0.1-1.2c0-0.4,0.3-0.7,0.7-0.7c0.4,0,0.7,0.3,0.7,0.7c0,0.3,0.1,0.7,0.1,1c0.1,0.4-0.2,0.8-0.6,0.8c0,0,0,0,0,0
			C207.5,215.4,207.5,215.4,207.4,215.4z M383,211.9c-0.4,0-0.7-0.3-0.7-0.7c0,0,0,0,0,0v-1.1c0-0.4,0.3-0.7,0.7-0.7
			c0.4,0,0.7,0.3,0.7,0.7v1.1C383.7,211.6,383.4,211.9,383,211.9C383,211.9,383,211.9,383,211.9z M207.3,210.2
			c-0.4,0-0.7-0.3-0.7-0.7c0,0,0,0,0,0v-1.1c0-0.4,0.3-0.7,0.7-0.7c0.4,0,0.7,0.3,0.7,0.7v1.1C208,209.9,207.7,210.2,207.3,210.2
			C207.3,210.2,207.3,210.2,207.3,210.2z M383,206.8c-0.4,0-0.7-0.3-0.7-0.7c0,0,0,0,0,0v-1.1c0-0.4,0.3-0.7,0.7-0.7
			c0.4,0,0.7,0.3,0.7,0.7v1.1C383.7,206.4,383.4,206.8,383,206.8C383,206.8,383,206.8,383,206.8z M207.3,205c-0.4,0-0.7-0.3-0.7-0.7
			c0,0,0,0,0,0v-1.1c0-0.4,0.3-0.7,0.7-0.7c0.4,0,0.7,0.3,0.7,0.7v1.1C208,204.7,207.7,205,207.3,205C207.3,205,207.3,205,207.3,205
			z M383,201.6c-0.4,0-0.7-0.3-0.7-0.7c0,0,0,0,0,0v-1.1c0-0.4,0.3-0.7,0.7-0.7c0.4,0,0.7,0.3,0.7,0.7v1.1
			C383.7,201.3,383.4,201.6,383,201.6C383,201.6,383,201.6,383,201.6L383,201.6z M207.3,199.9c-0.4,0-0.7-0.3-0.7-0.7c0,0,0,0,0,0
			V198c0-0.4,0.3-0.7,0.7-0.7c0.4,0,0.7,0.3,0.7,0.7v1.1C208,199.5,207.7,199.9,207.3,199.9C207.3,199.9,207.3,199.9,207.3,199.9
			L207.3,199.9z M383,196.4c-0.4,0-0.7-0.3-0.7-0.7c0,0,0,0,0,0v-1.1c0-0.4,0.3-0.7,0.7-0.7c0.4,0,0.7,0.3,0.7,0.7v1.1
			C383.7,196.1,383.4,196.4,383,196.4C383,196.4,383,196.4,383,196.4L383,196.4z M207.3,194.7c-0.4,0-0.7-0.3-0.7-0.7c0,0,0,0,0,0
			v-1.1c0-0.4,0.3-0.7,0.7-0.7c0.4,0,0.7,0.3,0.7,0.7v1.1C208,194.4,207.7,194.7,207.3,194.7C207.3,194.7,207.3,194.7,207.3,194.7
			L207.3,194.7z M383,191.2c-0.4,0-0.7-0.3-0.7-0.7c0,0,0,0,0,0v-1.1c0-0.4,0.3-0.7,0.7-0.7c0.4,0,0.7,0.3,0.7,0.7v1.1
			C383.7,190.9,383.4,191.2,383,191.2C383,191.2,383,191.2,383,191.2L383,191.2z M207.3,189.5c-0.4,0-0.7-0.3-0.7-0.7c0,0,0,0,0,0
			v-1.1c0-0.4,0.3-0.7,0.7-0.7c0.4,0,0.7,0.3,0.7,0.7v1.1C208,189.2,207.7,189.5,207.3,189.5C207.3,189.5,207.3,189.5,207.3,189.5
			L207.3,189.5z M383,186.1c-0.4,0-0.7-0.3-0.7-0.7c0,0,0,0,0,0v-1.1c0-0.4,0.3-0.7,0.7-0.7c0.4,0,0.7,0.3,0.7,0.7v1.1
			C383.7,185.8,383.4,186.1,383,186.1C383,186.1,383,186.1,383,186.1L383,186.1z M207.3,184.4c-0.4,0-0.7-0.3-0.7-0.7c0,0,0,0,0,0
			v-1.1c0-0.4,0.3-0.7,0.7-0.7c0.4,0,0.7,0.3,0.7,0.7v1.1C208,184,207.7,184.4,207.3,184.4C207.3,184.4,207.3,184.4,207.3,184.4
			L207.3,184.4z M383,180.9c-0.4,0-0.7-0.3-0.7-0.7c0,0,0,0,0,0V179c0-0.4,0.3-0.7,0.7-0.7c0.4,0,0.7,0.3,0.7,0.7v1.1
			C383.7,180.6,383.4,180.9,383,180.9C383,180.9,383,180.9,383,180.9L383,180.9z M207.3,179.2c-0.4,0-0.7-0.3-0.7-0.7c0,0,0,0,0,0
			v-1.1c0-0.4,0.3-0.7,0.7-0.7c0.4,0,0.7,0.3,0.7,0.7v1.1C208,178.9,207.7,179.2,207.3,179.2L207.3,179.2z M383,175.7
			c-0.4,0-0.7-0.3-0.7-0.7c0,0,0,0,0,0v-1.1c0-0.4,0.3-0.7,0.7-0.7c0.4,0,0.7,0.3,0.7,0.7v1.1C383.7,175.4,383.4,175.7,383,175.7
			C383,175.7,383,175.7,383,175.7L383,175.7z M207.3,174c-0.4,0-0.7-0.3-0.7-0.7c0,0,0,0,0,0v-1.1c0-0.4,0.3-0.7,0.7-0.7
			c0.4,0,0.7,0.3,0.7,0.7v1.1C208,173.7,207.7,174,207.3,174C207.3,174,207.3,174,207.3,174L207.3,174z M383,170.6
			c-0.4,0-0.7-0.3-0.7-0.7c0,0,0,0,0,0v-1.1c0-0.4,0.3-0.7,0.7-0.7c0.4,0,0.7,0.3,0.7,0.7v1.1C383.7,170.2,383.4,170.6,383,170.6
			C383,170.6,383,170.6,383,170.6L383,170.6z M207.3,168.8c-0.4,0-0.7-0.3-0.7-0.7c0,0,0,0,0,0V167c0-0.4,0.3-0.7,0.7-0.7
			c0.4,0,0.7,0.3,0.7,0.7v1.1C208,168.5,207.7,168.8,207.3,168.8C207.3,168.8,207.3,168.8,207.3,168.8L207.3,168.8z M383,165.4
			c-0.4,0-0.7-0.3-0.7-0.7c0,0,0,0,0,0v-1.1c0-0.4,0.3-0.7,0.7-0.7c0.4,0,0.7,0.3,0.7,0.7v1.1C383.7,165.1,383.4,165.4,383,165.4
			C383,165.4,383,165.4,383,165.4L383,165.4z M207.3,163.7c-0.4,0-0.7-0.3-0.7-0.7c0,0,0,0,0,0v-1.1c0-0.4,0.3-0.7,0.7-0.7
			c0.4,0,0.7,0.3,0.7,0.7v1.1C208,163.4,207.7,163.7,207.3,163.7C207.3,163.7,207.3,163.7,207.3,163.7L207.3,163.7z M383,160.2
			c-0.4,0-0.7-0.3-0.7-0.7c0,0,0,0,0,0v-1.1c0-0.4,0.3-0.7,0.7-0.7c0.4,0,0.7,0.3,0.7,0.7v1.1C383.7,159.9,383.4,160.2,383,160.2
			C383,160.2,383,160.2,383,160.2L383,160.2z M207.3,158.5c-0.4,0-0.7-0.3-0.7-0.7c0,0,0,0,0,0v-1.1c0-0.4,0.3-0.7,0.7-0.7
			c0.4,0,0.7,0.3,0.7,0.7v1.1C208,158.2,207.7,158.5,207.3,158.5C207.3,158.5,207.3,158.5,207.3,158.5L207.3,158.5z M383,155.1
			c-0.4,0-0.7-0.3-0.7-0.7c0,0,0,0,0,0v-1.1c0-0.4,0.3-0.7,0.7-0.7c0.4,0,0.7,0.3,0.7,0.7v1.1C383.7,154.7,383.4,155.1,383,155.1
			C383,155.1,383,155.1,383,155.1L383,155.1z M207.3,153.3c-0.4,0-0.7-0.3-0.7-0.7c0,0,0,0,0,0v-1.1c0-0.4,0.3-0.7,0.7-0.7
			c0.4,0,0.7,0.3,0.7,0.7v1.1C208,153,207.7,153.3,207.3,153.3C207.3,153.3,207.3,153.3,207.3,153.3L207.3,153.3z M383,149.9
			c-0.4,0-0.7-0.3-0.7-0.7c0,0,0,0,0,0V148c0-0.4,0.3-0.7,0.7-0.7c0.4,0,0.7,0.3,0.7,0.7v1.1C383.7,149.6,383.4,149.9,383,149.9
			C383,149.9,383,149.9,383,149.9L383,149.9z M207.3,148.2c-0.4,0-0.7-0.3-0.7-0.7c0,0,0,0,0,0v-1.1c0-0.4,0.3-0.7,0.7-0.7
			c0.4,0,0.7,0.3,0.7,0.7v1.1C208,147.9,207.7,148.2,207.3,148.2C207.3,148.2,207.3,148.2,207.3,148.2z M383,144.7
			c-0.4,0-0.7-0.3-0.7-0.7c0,0,0,0,0,0v-1.1c0-0.4,0.3-0.7,0.7-0.7c0.4,0,0.7,0.3,0.7,0.7v1.1C383.7,144.4,383.4,144.7,383,144.7
			L383,144.7z M207.3,143c-0.4,0-0.7-0.3-0.7-0.7c0,0,0,0,0,0v-1.1c0-0.4,0.3-0.7,0.7-0.7c0.4,0,0.7,0.3,0.7,0.7v1.1
			C208,142.7,207.7,143,207.3,143C207.3,143,207.3,143,207.3,143z M383,139.5c-0.4,0-0.7-0.3-0.7-0.7c0,0,0,0,0,0v-1.1
			c0-0.4,0.3-0.7,0.7-0.7c0.4,0,0.7,0.3,0.7,0.7v1.1C383.7,139.2,383.4,139.5,383,139.5C383,139.5,383,139.5,383,139.5L383,139.5z
			 M207.3,137.8c-0.4,0-0.7-0.3-0.7-0.7c0,0,0,0,0,0V136c0-0.4,0.3-0.7,0.7-0.7c0.4,0,0.7,0.3,0.7,0.7v1.1
			C208,137.5,207.7,137.8,207.3,137.8C207.3,137.8,207.3,137.8,207.3,137.8z M383,134.4c-0.4,0-0.7-0.3-0.7-0.7c0,0,0,0,0,0v-1.1
			c0-0.4,0.3-0.7,0.7-0.7c0.4,0,0.7,0.3,0.7,0.7v1.1C383.7,134.1,383.4,134.4,383,134.4C383,134.4,383,134.4,383,134.4L383,134.4z
			 M207.3,132.7c-0.4,0-0.7-0.3-0.7-0.7c0,0,0,0,0,0v-1.1c0-0.4,0.3-0.7,0.7-0.7c0.4,0,0.7,0.3,0.7,0.7v1.1
			C208,132.3,207.7,132.7,207.3,132.7C207.3,132.7,207.3,132.7,207.3,132.7L207.3,132.7z M383,129.2c-0.4,0-0.7-0.3-0.7-0.7
			c0,0,0,0,0,0v-1.1c0-0.4,0.3-0.7,0.7-0.7c0.4,0,0.7,0.3,0.7,0.7v1.1C383.7,128.9,383.4,129.2,383,129.2
			C383,129.2,383,129.2,383,129.2L383,129.2z M207.3,127.5c-0.4,0-0.7-0.3-0.7-0.7c0,0,0,0,0,0v-1.1c0-0.4,0.3-0.7,0.7-0.7
			c0.4,0,0.7,0.3,0.7,0.7v1.1C208,127.2,207.7,127.5,207.3,127.5C207.3,127.5,207.3,127.5,207.3,127.5L207.3,127.5z M383,124
			c-0.4,0-0.7-0.3-0.7-0.7c0,0,0,0,0,0v-1.1c0-0.4,0.3-0.7,0.7-0.7c0.4,0,0.7,0.3,0.7,0.7v1.1C383.7,123.7,383.4,124,383,124
			C383,124,383,124,383,124z M207.3,122.3c-0.4,0-0.7-0.3-0.7-0.7c0,0,0,0,0,0v-1.1c0-0.4,0.3-0.7,0.7-0.7c0.4,0,0.7,0.3,0.7,0.7
			v1.1C208,122,207.7,122.3,207.3,122.3L207.3,122.3z M383,118.9c-0.4,0-0.7-0.3-0.7-0.7c0,0,0,0,0,0V117c0-0.4,0.3-0.7,0.7-0.7
			c0.4,0,0.7,0.3,0.7,0.7v1.1C383.7,118.6,383.4,118.9,383,118.9C383,118.9,383,118.9,383,118.9z M207.3,117.2
			c-0.4,0-0.7-0.3-0.7-0.7c0,0,0,0,0,0v-1.1c0-0.4,0.3-0.7,0.7-0.7c0.4,0,0.7,0.3,0.7,0.7v1.1C208,116.8,207.7,117.2,207.3,117.2
			C207.3,117.2,207.3,117.2,207.3,117.2L207.3,117.2z M383,113.7c-0.4,0-0.7-0.3-0.7-0.7c0,0,0,0,0,0v-1.1c0-0.4,0.3-0.7,0.7-0.7
			c0.4,0,0.7,0.3,0.7,0.7v1.1C383.7,113.4,383.4,113.7,383,113.7C383,113.7,383,113.7,383,113.7z M207.3,112c-0.4,0-0.7-0.3-0.7-0.7
			c0,0,0,0,0,0v-1.1c0-0.4,0.3-0.7,0.7-0.7c0.4,0,0.7,0.3,0.7,0.7v1.1C208,111.7,207.7,112,207.3,112C207.3,112,207.3,112,207.3,112
			L207.3,112z M383,108.5c-0.4,0-0.7-0.3-0.7-0.7c0,0,0,0,0,0v-1.1c0-0.4,0.3-0.7,0.7-0.7c0.4,0,0.7,0.3,0.7,0.7v1.1
			C383.7,108.2,383.4,108.5,383,108.5C383,108.5,383,108.5,383,108.5L383,108.5z M207.3,106.8c-0.4,0-0.7-0.3-0.7-0.7c0,0,0,0,0,0
			V105c0-0.4,0.3-0.7,0.7-0.7c0.4,0,0.7,0.3,0.7,0.7v1.1C208,106.5,207.7,106.8,207.3,106.8C207.3,106.8,207.3,106.8,207.3,106.8
			L207.3,106.8z M383,103.4c-0.4,0-0.7-0.3-0.7-0.7c0,0,0,0,0,0v-1.1c0-0.4,0.3-0.7,0.7-0.7c0.4,0,0.7,0.3,0.7,0.7v1.1
			C383.7,103,383.4,103.4,383,103.4C383,103.4,383,103.4,383,103.4L383,103.4z M207.3,101.6c-0.4,0-0.7-0.3-0.7-0.7c0,0,0,0,0,0
			v-1.1c0-0.4,0.3-0.7,0.7-0.7c0.4,0,0.7,0.3,0.7,0.7v1.1C208,101.3,207.7,101.6,207.3,101.6C207.3,101.6,207.3,101.6,207.3,101.6
			L207.3,101.6z M383,98.2c-0.4,0-0.7-0.3-0.7-0.7c0,0,0,0,0,0v-1.1c0-0.4,0.3-0.7,0.7-0.7c0.4,0,0.7,0.3,0.7,0.7v1.1
			C383.7,97.9,383.4,98.2,383,98.2C383,98.2,383,98.2,383,98.2L383,98.2z M207.3,96.5c-0.4,0-0.7-0.3-0.7-0.7c0,0,0,0,0,0v-1.1
			c0-0.4,0.3-0.7,0.7-0.7c0.4,0,0.7,0.3,0.7,0.7v1.1C208,96.2,207.7,96.5,207.3,96.5C207.3,96.5,207.3,96.5,207.3,96.5z M383,93
			c-0.4,0-0.7-0.3-0.7-0.7c0,0,0,0,0,0v-1.1c0-0.4,0.3-0.7,0.7-0.7c0.4,0,0.7,0.3,0.7,0.7v1.1C383.7,92.7,383.4,93,383,93
			C383,93,383,93,383,93z M207.3,91.3c-0.4,0-0.7-0.3-0.7-0.7c0,0,0,0,0,0v-1.1c0-0.4,0.3-0.7,0.7-0.7c0.4,0,0.7,0.3,0.7,0.7v1.1
			C208,91,207.7,91.3,207.3,91.3C207.3,91.3,207.3,91.3,207.3,91.3z M383,87.9c-0.4,0-0.7-0.3-0.7-0.7c0,0,0,0,0,0V86
			c0-0.4,0.3-0.7,0.7-0.7c0.4,0,0.7,0.3,0.7,0.7v1.1C383.7,87.5,383.4,87.9,383,87.9C383,87.9,383,87.9,383,87.9z M207.3,86.1
			c-0.4,0-0.7-0.3-0.7-0.7c0,0,0,0,0,0v-1.1c0-0.4,0.3-0.7,0.7-0.7c0.4,0,0.7,0.3,0.7,0.7v1.1C208,85.8,207.7,86.1,207.3,86.1
			C207.3,86.1,207.3,86.1,207.3,86.1z M383,82.7c-0.4,0-0.7-0.3-0.7-0.7c0,0,0,0,0,0v-1.1c0-0.4,0.3-0.7,0.7-0.7
			c0.4,0,0.7,0.3,0.7,0.7V82C383.7,82.4,383.4,82.7,383,82.7C383,82.7,383,82.7,383,82.7z M207.3,81c-0.4,0-0.7-0.3-0.7-0.7
			c0,0,0,0,0,0v-1.1c0-0.4,0.3-0.7,0.7-0.7c0.4,0,0.7,0.3,0.7,0.7v1.1C208,80.6,207.7,81,207.3,81C207.3,81,207.3,81,207.3,81z
			 M383,77.5c-0.4,0-0.7-0.3-0.7-0.7c0,0,0,0,0,0v-1.1c0-0.4,0.3-0.7,0.7-0.7c0.4,0,0.7,0.3,0.7,0.7v1.1
			C383.7,77.2,383.4,77.5,383,77.5C383,77.5,383,77.5,383,77.5z M207.3,75.8c-0.4,0-0.7-0.3-0.7-0.7c0,0,0,0,0,0v-1.1
			c0-0.4,0.3-0.7,0.7-0.7c0.4,0,0.7,0.3,0.7,0.7v1.1C208,75.5,207.7,75.8,207.3,75.8C207.3,75.8,207.3,75.8,207.3,75.8z M383,72.3
			c-0.4,0-0.7-0.3-0.7-0.7c0,0,0,0,0,0v-1.1c0-0.4,0.3-0.7,0.7-0.7c0.4,0,0.7,0.3,0.7,0.7v1.1C383.7,72,383.4,72.3,383,72.3
			C383,72.3,383,72.3,383,72.3z M207.3,70.6c-0.4,0-0.7-0.3-0.7-0.7c0,0,0,0,0,0v-1.1c0-0.4,0.3-0.7,0.7-0.7c0.4,0,0.7,0.3,0.7,0.7
			v1.1C208,70.3,207.7,70.6,207.3,70.6C207.3,70.6,207.3,70.6,207.3,70.6z M383,67.2c-0.4,0-0.7-0.3-0.7-0.7c0,0,0,0,0,0v-1.1
			c0-0.4,0.3-0.7,0.7-0.7c0.4,0,0.7,0.3,0.7,0.7v1.1C383.7,66.9,383.4,67.2,383,67.2C383,67.2,383,67.2,383,67.2z M207.3,65.5
			c-0.4,0-0.7-0.3-0.7-0.7c0,0,0,0,0,0v-1.1c0-0.4,0.3-0.7,0.7-0.7c0.4,0,0.7,0.3,0.7,0.7v1.1C208,65.1,207.7,65.5,207.3,65.5
			C207.3,65.5,207.3,65.5,207.3,65.5z M383,62c-0.4,0-0.7-0.3-0.7-0.7c0,0,0,0,0,0v-1.1c0-0.4,0.3-0.7,0.7-0.7
			c0.4,0,0.7,0.3,0.7,0.7v1.1C383.7,61.7,383.4,62,383,62C383,62,383,62,383,62z M207.3,60.3c-0.4,0-0.7-0.3-0.7-0.7c0,0,0,0,0,0
			v-1.1c0-0.4,0.3-0.7,0.7-0.7c0.4,0,0.7,0.3,0.7,0.7v1.1C208,60,207.7,60.3,207.3,60.3C207.3,60.3,207.3,60.3,207.3,60.3z
			 M383,56.8c-0.4,0-0.7-0.3-0.7-0.7c0,0,0,0,0,0V55c0-0.4,0.3-0.7,0.7-0.7c0.4,0,0.7,0.3,0.7,0.7v1.1
			C383.7,56.5,383.4,56.8,383,56.8C383,56.8,383,56.8,383,56.8z M207.3,55.1c-0.4,0-0.7-0.3-0.7-0.7c0,0,0,0,0,0v-1.1
			c0-0.4,0.3-0.7,0.7-0.7c0.4,0,0.7,0.3,0.7,0.7v1.1C208,54.8,207.7,55.1,207.3,55.1C207.3,55.1,207.3,55.1,207.3,55.1z M383,51.7
			c-0.4,0-0.7-0.3-0.7-0.7c0,0,0,0,0,0v-1.1c0-0.4,0.3-0.7,0.7-0.7c0.4,0,0.7,0.3,0.7,0.7V51C383.7,51.3,383.4,51.7,383,51.7
			C383,51.7,383,51.7,383,51.7z M207.3,49.9c-0.4,0-0.7-0.3-0.7-0.7c0,0,0,0,0,0v-1.1c0-0.4,0.3-0.7,0.7-0.7c0.4,0,0.7,0.3,0.7,0.7
			v1.1C208,49.6,207.7,49.9,207.3,49.9C207.3,49.9,207.3,49.9,207.3,49.9z M383,46.5c-0.4,0-0.7-0.3-0.7-0.7c0,0,0,0,0,0v-1.1
			c0-0.4,0.3-0.7,0.7-0.7c0.4,0,0.7,0.3,0.7,0.7v1.1C383.7,46.2,383.4,46.5,383,46.5C383,46.5,383,46.5,383,46.5z M207.3,44.8
			c-0.4,0-0.7-0.3-0.7-0.7c0,0,0,0,0,0v-1.1c0-0.4,0.3-0.7,0.7-0.7c0.4,0,0.7,0.3,0.7,0.7v1.1C208,44.5,207.7,44.8,207.3,44.8z
			 M383,41.3c-0.4,0-0.7-0.3-0.7-0.7c0,0,0,0,0,0v-1.1c0-0.4,0.3-0.7,0.7-0.7c0.4,0,0.7,0.3,0.7,0.7v1.1
			C383.7,41,383.4,41.3,383,41.3C383,41.3,383,41.3,383,41.3z M207.3,39.6c-0.4,0-0.7-0.3-0.7-0.7c0,0,0,0,0,0v-1.1
			c0-0.4,0.3-0.7,0.7-0.7c0.4,0,0.7,0.3,0.7,0.7v1.1C208,39.3,207.7,39.6,207.3,39.6C207.3,39.6,207.3,39.6,207.3,39.6z M383,36.2
			c-0.4,0-0.7-0.3-0.7-0.7c0,0,0,0,0,0v-1.1c0-0.4,0.3-0.7,0.7-0.7c0.4,0,0.7,0.3,0.7,0.7v1.1C383.7,35.8,383.4,36.2,383,36.2
			C383,36.2,383,36.2,383,36.2z M207.3,34.4c-0.4,0-0.7-0.3-0.7-0.7c0,0,0,0,0,0v-1.1c0-0.4,0.3-0.7,0.7-0.7c0.4,0,0.7,0.3,0.7,0.7
			v1.1C208,34.1,207.7,34.4,207.3,34.4C207.3,34.4,207.3,34.4,207.3,34.4z M383,31c-0.4,0-0.7-0.3-0.7-0.7c0,0,0,0,0,0v-1.1
			c0-0.4,0.3-0.7,0.7-0.7c0.4,0,0.7,0.3,0.7,0.7v1.1C383.7,30.7,383.4,31,383,31C383,31,383,31,383,31z M207.3,29.3
			c-0.4,0-0.7-0.3-0.7-0.7c0,0,0,0,0,0v-1.1c0-0.4,0.3-0.7,0.7-0.7c0.4,0,0.7,0.3,0.7,0.7v1.1C208,29,207.7,29.3,207.3,29.3
			C207.3,29.3,207.3,29.3,207.3,29.3z M383,25.8c-0.4,0-0.7-0.3-0.7-0.7c0,0,0,0,0,0V24c0-0.4,0.3-0.7,0.7-0.7
			c0.4,0,0.7,0.3,0.7,0.7v1.1C383.7,25.5,383.4,25.8,383,25.8z M207.3,24.1c-0.4,0-0.7-0.3-0.7-0.7c0,0,0,0,0,0v-1.1
			c0-0.4,0.3-0.7,0.7-0.7c0.4,0,0.7,0.3,0.7,0.7v1.1C208,23.8,207.7,24.1,207.3,24.1C207.3,24.1,207.3,24.1,207.3,24.1z M383,20.6
			c-0.4,0-0.7-0.3-0.7-0.7c0,0,0,0,0,0v-1.1c0-0.4,0.3-0.7,0.7-0.7c0.4,0,0.7,0.3,0.7,0.7v1.1C383.7,20.3,383.4,20.6,383,20.6
			L383,20.6z M207.3,18.9c-0.4,0-0.7-0.3-0.7-0.7c0,0,0,0,0,0v-1.1c0-0.4,0.3-0.7,0.7-0.7c0.4,0,0.7,0.3,0.7,0.7v1.1
			C208,18.6,207.7,18.9,207.3,18.9z M383,15.5c-0.4,0-0.7-0.3-0.7-0.7c0,0,0,0,0,0v-1.1c0-0.4,0.3-0.7,0.7-0.7
			c0.4,0,0.7,0.3,0.7,0.7v1.1C383.7,15.2,383.4,15.5,383,15.5C383,15.5,383,15.5,383,15.5L383,15.5z M207.3,13.8
			c-0.4,0-0.7-0.3-0.7-0.7c0,0,0,0,0,0v-1.1c0-0.4,0.3-0.7,0.7-0.7c0.4,0,0.7,0.3,0.7,0.7v1.1C208,13.4,207.7,13.8,207.3,13.8
			C207.3,13.8,207.3,13.8,207.3,13.8z M383,10.3c-0.4,0-0.7-0.3-0.7-0.7c0,0,0,0,0,0V8.5c0-0.4,0.3-0.7,0.7-0.7
			c0.4,0,0.7,0.3,0.7,0.7v1.1C383.7,10,383.4,10.3,383,10.3C383,10.3,383,10.3,383,10.3z M207.3,8.6C207.3,8.6,207.3,8.6,207.3,8.6
			c-0.4,0-0.7-0.4-0.7-0.8c0-0.4,0.1-0.8,0.2-1.2c0.1-0.4,0.5-0.6,0.8-0.5c0.4,0.1,0.6,0.5,0.5,0.8c-0.1,0.3-0.1,0.7-0.2,1
			C208,8.3,207.7,8.6,207.3,8.6z M382.7,7.3c-0.3,0-0.6-0.2-0.7-0.5c-0.1-0.3-0.2-0.7-0.3-1c-0.2-0.4,0-0.8,0.4-0.9
			c0.4-0.2,0.8,0,0.9,0.4c0,0,0,0,0,0c0.2,0.4,0.3,0.8,0.4,1.2c0.1,0.4-0.1,0.8-0.5,0.9C382.9,7.3,382.8,7.3,382.7,7.3z M209.3,3.9
			c-0.4,0-0.7-0.3-0.7-0.7c0-0.2,0.1-0.3,0.2-0.5c0.3-0.3,0.6-0.6,0.9-0.9c0.3-0.2,0.8-0.2,1,0.1s0.2,0.8-0.1,1l0,0
			c-0.3,0.2-0.5,0.5-0.8,0.7C209.7,3.9,209.5,3.9,209.3,3.9z M380,3.1c-0.2,0-0.3-0.1-0.4-0.2c-0.3-0.2-0.6-0.4-0.9-0.6
			c-0.3-0.2-0.5-0.6-0.3-1c0.2-0.3,0.6-0.5,1-0.3c0.4,0.2,0.7,0.4,1,0.7c0.3,0.2,0.4,0.7,0.1,1C380.4,3,380.2,3.1,380,3.1L380,3.1z
			 M213.8,1.5c-0.4,0-0.7-0.3-0.7-0.7c0-0.3,0.3-0.6,0.6-0.7c0.4-0.1,0.8-0.1,1.2-0.1c0.4,0,0.7,0.3,0.7,0.7c0,0.4-0.3,0.7-0.7,0.7
			c0,0,0,0,0,0c-0.3,0-0.7,0-1,0.1C213.9,1.5,213.8,1.5,213.8,1.5z M375.2,1.4H374c-0.4,0-0.7-0.3-0.7-0.7S373.6,0,374,0
			c0,0,0,0,0,0h1.1c0.4,0,0.7,0.3,0.7,0.7S375.6,1.4,375.2,1.4C375.2,1.4,375.2,1.4,375.2,1.4z M370,1.4h-1.1
			c-0.4,0-0.7-0.3-0.7-0.7s0.3-0.7,0.7-0.7c0,0,0,0,0,0h1.1c0.4,0,0.7,0.3,0.7,0.7S370.4,1.4,370,1.4C370,1.4,370,1.4,370,1.4z
			 M364.8,1.4h-1.1c-0.4,0-0.7-0.3-0.7-0.7s0.3-0.7,0.7-0.7c0,0,0,0,0,0h1.1c0.4,0,0.7,0.3,0.7,0.7S365.2,1.4,364.8,1.4
			C364.8,1.4,364.8,1.4,364.8,1.4z M359.7,1.4h-1.1c-0.4,0-0.7-0.3-0.7-0.7s0.3-0.7,0.7-0.7c0,0,0,0,0,0h1.1c0.4,0,0.7,0.3,0.7,0.7
			S360.1,1.4,359.7,1.4C359.7,1.4,359.7,1.4,359.7,1.4z M354.5,1.4h-1.1c-0.4,0-0.7-0.3-0.7-0.7S353,0,353.4,0c0,0,0,0,0,0h1.1
			c0.4,0,0.7,0.3,0.7,0.7S354.9,1.4,354.5,1.4C354.5,1.4,354.5,1.4,354.5,1.4L354.5,1.4z M349.3,1.4h-1.1c-0.4,0-0.7-0.3-0.7-0.7
			s0.3-0.7,0.7-0.7c0,0,0,0,0,0h1.1c0.4,0,0.7,0.3,0.7,0.7S349.7,1.4,349.3,1.4C349.3,1.4,349.3,1.4,349.3,1.4z M344.2,1.4H343
			c-0.4,0-0.7-0.3-0.7-0.7S342.6,0,343,0c0,0,0,0,0,0h1.1c0.4,0,0.7,0.3,0.7,0.7S344.6,1.4,344.2,1.4C344.2,1.4,344.2,1.4,344.2,1.4
			z M339,1.4h-1.1c-0.4,0-0.7-0.3-0.7-0.7s0.3-0.7,0.7-0.7c0,0,0,0,0,0h1.1c0.4,0,0.7,0.3,0.7,0.7S339.4,1.4,339,1.4
			C339,1.4,339,1.4,339,1.4z M333.8,1.4h-1.1c-0.4,0-0.7-0.3-0.7-0.7s0.3-0.7,0.7-0.7c0,0,0,0,0,0h1.1c0.4,0,0.7,0.3,0.7,0.7
			S334.2,1.4,333.8,1.4C333.8,1.4,333.8,1.4,333.8,1.4z M328.7,1.4h-1.1c-0.4,0-0.7-0.3-0.7-0.7s0.3-0.7,0.7-0.7c0,0,0,0,0,0h1.1
			c0.4,0,0.7,0.3,0.7,0.7S329,1.4,328.7,1.4C328.7,1.4,328.7,1.4,328.7,1.4z M323.5,1.4h-1.1c-0.4,0-0.7-0.3-0.7-0.7
			s0.3-0.7,0.7-0.7c0,0,0,0,0,0h1.1c0.4,0,0.7,0.3,0.7,0.7S323.9,1.4,323.5,1.4C323.5,1.4,323.5,1.4,323.5,1.4z M318.3,1.4h-1.1
			c-0.4,0-0.7-0.3-0.7-0.7s0.3-0.7,0.7-0.7c0,0,0,0,0,0h1.1c0.4,0,0.7,0.3,0.7,0.7S318.7,1.4,318.3,1.4
			C318.3,1.4,318.3,1.4,318.3,1.4L318.3,1.4z M313.1,1.4H312c-0.4,0-0.7-0.3-0.7-0.7S311.6,0,312,0c0,0,0,0,0,0h1.1
			c0.4,0,0.7,0.3,0.7,0.7S313.5,1.4,313.1,1.4C313.1,1.4,313.1,1.4,313.1,1.4z M308,1.4h-1.1c-0.4,0-0.7-0.3-0.7-0.7
			s0.3-0.7,0.7-0.7c0,0,0,0,0,0h1.1c0.4,0,0.7,0.3,0.7,0.7S308.4,1.4,308,1.4C308,1.4,308,1.4,308,1.4z M302.8,1.4h-1.1
			c-0.4,0-0.7-0.3-0.7-0.7s0.3-0.7,0.7-0.7c0,0,0,0,0,0h1.1c0.4,0,0.7,0.3,0.7,0.7S303.2,1.4,302.8,1.4
			C302.8,1.4,302.8,1.4,302.8,1.4z M297.6,1.4h-1.1c-0.4,0-0.7-0.3-0.7-0.7s0.3-0.7,0.7-0.7c0,0,0,0,0,0h1.1c0.4,0,0.7,0.3,0.7,0.7
			S298,1.4,297.6,1.4C297.6,1.4,297.6,1.4,297.6,1.4z M292.5,1.4h-1.1c-0.4,0-0.7-0.3-0.7-0.7s0.3-0.7,0.7-0.7c0,0,0,0,0,0h1.1
			c0.4,0,0.7,0.3,0.7,0.7S292.9,1.4,292.5,1.4C292.5,1.4,292.5,1.4,292.5,1.4z M287.3,1.4h-1.1c-0.4,0-0.7-0.3-0.7-0.7
			s0.3-0.7,0.7-0.7c0,0,0,0,0,0h1.1c0.4,0,0.7,0.3,0.7,0.7S287.7,1.4,287.3,1.4C287.3,1.4,287.3,1.4,287.3,1.4z M282.1,1.4H281
			c-0.4,0-0.7-0.3-0.7-0.7S280.6,0,281,0c0,0,0,0,0,0h1.1c0.4,0,0.7,0.3,0.7,0.7S282.5,1.4,282.1,1.4C282.1,1.4,282.1,1.4,282.1,1.4
			L282.1,1.4z M277,1.4h-1.1c-0.4,0-0.7-0.3-0.7-0.7s0.3-0.7,0.7-0.7c0,0,0,0,0,0h1.1c0.4,0,0.7,0.3,0.7,0.7S277.3,1.4,277,1.4
			C277,1.4,277,1.4,277,1.4z M271.8,1.4h-1.1c-0.4,0-0.7-0.3-0.7-0.7s0.3-0.7,0.7-0.7c0,0,0,0,0,0h1.1c0.4,0,0.7,0.3,0.7,0.7
			S272.2,1.4,271.8,1.4C271.8,1.4,271.8,1.4,271.8,1.4L271.8,1.4z M266.6,1.4h-1.1c-0.4,0-0.7-0.3-0.7-0.7s0.3-0.7,0.7-0.7
			c0,0,0,0,0,0h1.1c0.4,0,0.7,0.3,0.7,0.7S267,1.4,266.6,1.4C266.6,1.4,266.6,1.4,266.6,1.4L266.6,1.4z M261.4,1.4h-1.1
			c-0.4,0-0.7-0.3-0.7-0.7s0.3-0.7,0.7-0.7c0,0,0,0,0,0h1.1c0.4,0,0.7,0.3,0.7,0.7S261.8,1.4,261.4,1.4
			C261.4,1.4,261.4,1.4,261.4,1.4z M256.3,1.4h-1.1c-0.4,0-0.7-0.3-0.7-0.7s0.3-0.7,0.7-0.7c0,0,0,0,0,0h1.2c0.4,0,0.7,0.3,0.7,0.7
			S256.7,1.4,256.3,1.4C256.3,1.4,256.3,1.4,256.3,1.4L256.3,1.4z M251.1,1.4H250c-0.4,0-0.7-0.3-0.7-0.7S249.6,0,250,0c0,0,0,0,0,0
			h1.2c0.4,0,0.7,0.3,0.7,0.7S251.5,1.4,251.1,1.4C251.1,1.4,251.1,1.4,251.1,1.4L251.1,1.4z M245.9,1.4h-1.1
			c-0.4,0-0.7-0.3-0.7-0.7s0.3-0.7,0.7-0.7c0,0,0,0,0,0h1.1c0.4,0,0.7,0.3,0.7,0.7S246.3,1.4,245.9,1.4
			C245.9,1.4,245.9,1.4,245.9,1.4z M240.8,1.4h-1.1c-0.4,0-0.7-0.3-0.7-0.7s0.3-0.7,0.7-0.7c0,0,0,0,0,0h1.1c0.4,0,0.7,0.3,0.7,0.7
			S241.2,1.4,240.8,1.4C240.8,1.4,240.8,1.4,240.8,1.4z M235.6,1.4h-1.1c-0.4,0-0.7-0.3-0.7-0.7s0.3-0.7,0.7-0.7c0,0,0,0,0,0h1.1
			c0.4,0,0.7,0.3,0.7,0.7S236,1.4,235.6,1.4C235.6,1.4,235.6,1.4,235.6,1.4z M230.4,1.4h-1.1c-0.4,0-0.7-0.3-0.7-0.7
			s0.3-0.7,0.7-0.7c0,0,0,0,0,0h1.1c0.4,0,0.7,0.3,0.7,0.7S230.8,1.4,230.4,1.4C230.4,1.4,230.4,1.4,230.4,1.4z M225.3,1.4h-1.1
			c-0.4,0-0.7-0.3-0.7-0.7s0.3-0.7,0.7-0.7c0,0,0,0,0,0h1.1c0.4,0,0.7,0.3,0.7,0.7S225.6,1.4,225.3,1.4
			C225.3,1.4,225.3,1.4,225.3,1.4z M220.1,1.4h-1.1c-0.4,0-0.7-0.3-0.7-0.7s0.3-0.7,0.7-0.7c0,0,0,0,0,0h1.1c0.4,0,0.7,0.3,0.7,0.7
			S220.5,1.4,220.1,1.4C220.1,1.4,220.1,1.4,220.1,1.4z"/>
		<g id="g278">
			<path id="path256" class="st0" d="M570.3,334.1l5.7-8.1l-5.3-7.5h3.3l2.4,3.6c0.4,0.7,0.8,1.3,1.1,1.7c0.4-0.6,0.8-1.2,1.2-1.7
				l2.6-3.7h3.1l-5.4,7.3l5.8,8.2h-3.2l-3.2-4.8l-0.8-1.3l-4.1,6.1L570.3,334.1z"/>
			<path id="path258" inkscape:label="path258" class="st0" d="M590.4,322.5c-1-0.3-1.8-0.9-2.4-1.7c-0.5-0.8-0.8-1.7-0.8-2.7
				c0-1.5,0.6-2.9,1.7-3.9c2.6-2.1,6.4-2.1,9,0c1.1,1,1.7,2.5,1.7,4c0,0.9-0.3,1.8-0.8,2.6c-0.6,0.8-1.4,1.4-2.4,1.7
				c1.2,0.3,2.3,1.1,3,2.1c0.7,1,1.1,2.2,1,3.4c0,1.7-0.7,3.4-1.9,4.6c-3,2.5-7.3,2.5-10.3,0c-1.3-1.2-2-2.9-1.9-4.7
				c0-1.3,0.3-2.5,1.1-3.5C588.1,323.4,589.2,322.8,590.4,322.5z M589,327.9c0,0.8,0.2,1.5,0.5,2.2c0.3,0.7,0.9,1.3,1.6,1.6
				c0.7,0.4,1.5,0.6,2.3,0.6c1.2,0,2.3-0.4,3.1-1.2c0.8-0.8,1.3-1.9,1.2-3.1c0-1.2-0.4-2.3-1.3-3.1c-0.8-0.8-2-1.3-3.2-1.2
				c-2.3-0.1-4.2,1.8-4.3,4.1C589,327.8,589,327.9,589,327.9L589,327.9z M589.9,318c0,0.9,0.3,1.8,1,2.5c0.7,0.7,1.6,1,2.5,1
				c0.9,0,1.8-0.3,2.5-1c0.6-0.6,1-1.5,1-2.4c0-0.9-0.3-1.8-1-2.4c-1.4-1.3-3.6-1.3-5,0C590.2,316.3,589.9,317.1,589.9,318
				L589.9,318z"/>
			<path id="path262" class="st0" d="M628.8,334.1v-21.5h2.6v7.7c1.1-1.4,2.9-2.2,4.7-2.1c1,0,2.1,0.2,3,0.7
				c0.8,0.4,1.4,1.1,1.8,1.9c0.4,1.1,0.6,2.3,0.5,3.5v9.9h-2.6v-9.9c0.1-1-0.2-2.1-0.9-2.9c-0.6-0.6-1.5-1-2.4-0.9
				c-0.8,0-1.5,0.2-2.2,0.6c-0.7,0.4-1.2,1-1.5,1.6c-0.3,0.9-0.5,1.9-0.4,2.9v8.5L628.8,334.1z"/>
			<path id="path264" class="st0" d="M655.6,332.2c-0.8,0.7-1.8,1.3-2.8,1.8c-0.9,0.3-1.9,0.5-2.9,0.5c-1.4,0.1-2.8-0.4-3.9-1.3
				c-0.9-0.8-1.4-2-1.4-3.2c0-0.7,0.2-1.4,0.5-2.1c0.3-0.6,0.8-1.1,1.4-1.5c0.6-0.4,1.2-0.7,1.9-0.9c0.8-0.2,1.6-0.3,2.3-0.4
				c1.6-0.1,3.2-0.5,4.7-0.9c0-0.4,0-0.6,0-0.7c0.1-0.8-0.2-1.7-0.7-2.3c-0.9-0.7-1.9-1-3-0.9c-1-0.1-1.9,0.2-2.7,0.7
				c-0.7,0.6-1.2,1.4-1.3,2.3L645,323c0.2-1,0.6-1.9,1.2-2.7c0.6-0.7,1.4-1.3,2.3-1.6c1.1-0.4,2.3-0.6,3.5-0.5
				c1.1,0,2.2,0.1,3.2,0.5c0.7,0.2,1.3,0.6,1.8,1.2c0.4,0.5,0.7,1.1,0.8,1.8c0.1,0.8,0.2,1.6,0.1,2.4v3.5c0,1.6,0,3.1,0.2,4.7
				c0.1,0.7,0.3,1.3,0.7,1.9h-2.8C655.9,333.5,655.7,332.9,655.6,332.2z M655.4,326.3c-1.4,0.5-2.8,0.8-4.3,1
				c-0.8,0.1-1.6,0.3-2.3,0.5c-0.4,0.2-0.8,0.5-1,0.9c-0.6,1-0.4,2.3,0.4,3c0.7,0.5,1.5,0.8,2.3,0.7c0.9,0,1.9-0.2,2.7-0.7
				c0.8-0.4,1.4-1,1.7-1.8c0.3-0.8,0.5-1.7,0.4-2.6L655.4,326.3z"/>
			<path id="path266" class="st0" d="M662.1,334.1v-15.6h2.4v2.4c0.4-0.8,1-1.6,1.7-2.2c0.5-0.3,1.1-0.5,1.7-0.5
				c1,0,1.9,0.3,2.7,0.9l-0.9,2.4c-0.6-0.4-1.2-0.6-1.9-0.6c-0.6,0-1.1,0.2-1.6,0.5c-0.5,0.4-0.8,0.9-1,1.4c-0.3,1-0.5,2-0.4,3.1
				v8.1L662.1,334.1z"/>
			<path id="path268" class="st0" d="M682.2,334.1v-2c-0.9,1.5-2.6,2.4-4.4,2.3c-1.2,0-2.4-0.4-3.4-1c-1.1-0.7-1.9-1.7-2.4-2.9
				c-0.6-1.3-0.9-2.8-0.9-4.2c0-1.4,0.2-2.9,0.8-4.2c0.5-1.2,1.3-2.2,2.3-2.9c1-0.7,2.2-1,3.5-1c1.7,0,3.3,0.8,4.3,2.1v-7.7h2.6
				v21.5L682.2,334.1z M673.9,326.4c-0.1,1.6,0.3,3.2,1.3,4.5c0.7,0.9,1.8,1.5,3,1.5c1.1,0,2.2-0.5,2.9-1.4c0.9-1.2,1.3-2.8,1.2-4.3
				c0.1-1.7-0.3-3.3-1.2-4.7c-0.7-0.9-1.8-1.5-3-1.5c-1.2,0-2.2,0.5-2.9,1.4C674.2,323.2,673.8,324.8,673.9,326.4z"/>
			<path id="path270" class="st0" d="M691.7,334.1l-4.8-15.6h2.7l2.5,9l0.9,3.3c0-0.2,0.3-1.2,0.8-3.2l2.5-9.1h2.7l2.3,9l0.8,3
				l0.9-3l2.7-9h2.6l-4.9,15.6h-2.7l-2.5-9.3l-0.6-2.7l-3.1,12H691.7z"/>
			<path id="path274" class="st0" d="M727.1,334.1v-15.6h2.4v2.4c0.4-0.8,1-1.6,1.7-2.2c0.5-0.3,1.1-0.5,1.7-0.5
				c1,0,1.9,0.3,2.7,0.9l-0.9,2.4c-0.6-0.4-1.2-0.6-1.9-0.6c-0.6,0-1.1,0.2-1.6,0.5c-0.5,0.4-0.8,0.9-1,1.4c-0.3,1-0.5,2-0.4,3.1
				v8.1L727.1,334.1z"/>
			<path id="path276" class="st0" d="M747.8,329.1l2.7,0.3c-0.4,1.5-1.2,2.8-2.4,3.7c-3.1,2-7.1,1.7-9.9-0.8c-1.4-1.6-2.1-3.7-2-5.9
				c-0.1-2.2,0.6-4.4,2-6.1c1.4-1.4,3.3-2.2,5.2-2.2c1.9-0.1,3.8,0.7,5.1,2.1c1.4,1.7,2.1,3.8,2,6c0,0.2,0,0.4,0,0.7H739
				c0,1.4,0.5,2.8,1.5,3.9c0.8,0.9,2,1.4,3.3,1.4c0.9,0,1.8-0.2,2.5-0.8C747,330.9,747.5,330.1,747.8,329.1z M739.2,324.9h8.7
				c0-1.1-0.4-2.1-1-2.9c-0.8-1-2-1.6-3.3-1.5c-1.1,0-2.2,0.4-3.1,1.2C739.7,322.5,739.2,323.6,739.2,324.9L739.2,324.9z"/>
			<path id="path448" class="st0" d="M721.1,332.2c-0.8,0.7-1.8,1.3-2.8,1.8c-0.9,0.3-1.9,0.5-2.9,0.5c-1.4,0.1-2.8-0.4-3.9-1.3
				c-0.9-0.8-1.4-2-1.4-3.2c0-0.7,0.2-1.4,0.5-2.1c0.3-0.6,0.8-1.1,1.4-1.5c0.6-0.4,1.2-0.7,1.9-0.9c0.8-0.2,1.6-0.3,2.3-0.4
				c1.6-0.1,3.2-0.5,4.7-0.9c0-0.4,0-0.6,0-0.7c0.1-0.8-0.2-1.7-0.7-2.3c-0.9-0.7-1.9-1-3-0.9c-1-0.1-1.9,0.2-2.7,0.7
				c-0.7,0.6-1.2,1.4-1.3,2.3l-2.6-0.4c0.2-1,0.6-1.9,1.2-2.7c0.6-0.7,1.4-1.3,2.3-1.6c1.1-0.4,2.3-0.6,3.5-0.5
				c1.1,0,2.2,0.1,3.2,0.5c0.7,0.2,1.3,0.6,1.8,1.2c0.4,0.5,0.7,1.1,0.8,1.8c0.1,0.8,0.2,1.6,0.1,2.4v3.5c0,1.6,0,3.1,0.2,4.7
				c0.1,0.7,0.3,1.3,0.7,1.9h-2.8C721.4,333.5,721.2,332.9,721.1,332.2L721.1,332.2z M720.9,326.3c-1.4,0.5-2.8,0.8-4.3,1
				c-0.8,0.1-1.6,0.3-2.3,0.5c-0.4,0.2-0.8,0.5-1,0.9c-0.6,1-0.4,2.3,0.4,3c0.7,0.5,1.5,0.8,2.3,0.7c0.9,0,1.9-0.2,2.7-0.7
				c0.8-0.4,1.4-1,1.7-1.8c0.3-0.8,0.5-1.7,0.4-2.6L720.9,326.3z"/>
		</g>
		<path id="path280" class="st0" d="M388.8,51.9l15.5,5.9c0.7,0.3,1.5-0.1,1.8-0.8c0.1-0.2,0.1-0.3,0.1-0.5V44.7
			c0-0.8-0.6-1.4-1.4-1.4c-0.2,0-0.3,0-0.5,0.1l-15.5,5.9c-0.7,0.3-1.1,1.1-0.8,1.8C388.2,51.5,388.5,51.8,388.8,51.9z"/>
		<path id="path282" class="st0" d="M491,51.5h-95.4c-0.4,0-0.7-0.3-0.7-0.7c0-0.4,0.3-0.7,0.7-0.7c0,0,0,0,0,0H491
			c0.4,0,0.7,0.3,0.7,0.7C491.7,51.2,491.4,51.5,491,51.5C491,51.5,491,51.5,491,51.5L491,51.5z"/>
		<text transform="matrix(1 0 0 1 601.0706 334.0445)" class="st0 st4 st5">6</text>
	</g>
</g>
</svg>
