<?xml version="1.0" encoding="utf-8"?>
<!-- Generator: Adobe Illustrator 27.9.0, SVG Export Plug-In . SVG Version: 6.00 Build 0)  -->
<svg version="1.1" id="Layer_1" xmlns="http://www.w3.org/2000/svg" xmlns:xlink="http://www.w3.org/1999/xlink" x="0px" y="0px"
	 viewBox="0 0 1325.2 331.5" style="enable-background:new 0 0 1325.2 331.5;" xml:space="preserve">
<style type="text/css">
	.st0{fill:#3BC2D7;}
	.st1{fill:#FEC010;}
	.st2{fill:#263852;}
	.st3{fill:#CFDA54;}
	.st4{fill:#263953;}
	.st5{clip-path:url(#SVGID_00000134940206880650974620000006314870864257768848_);}
	.st6{fill:#3CC2D6;}
	.st7{fill:#3DC2D5;}
	.st8{fill:#3FC2D4;}
	.st9{fill:#40C2D3;}
	.st10{fill:#41C1D2;}
	.st11{fill:#42C1D1;}
	.st12{fill:#43C1D0;}
	.st13{fill:#45C1CF;}
	.st14{fill:#46C1CE;}
	.st15{fill:#47C1CD;}
	.st16{fill:#48C1CC;}
	.st17{fill:#49C1CB;}
	.st18{fill:#4BC1CA;}
	.st19{fill:#4CC0C9;}
	.st20{fill:#4DC0C8;}
	.st21{fill:#4EC0C7;}
	.st22{fill:#4FC0C6;}
	.st23{fill:#51C0C5;}
	.st24{fill:#52C0C4;}
	.st25{fill:#53C0C3;}
	.st26{fill:#54C0C3;}
	.st27{fill:#55C0C2;}
	.st28{fill:#57BFC1;}
	.st29{fill:#58BFC0;}
	.st30{fill:#59BFBF;}
	.st31{fill:#5ABFBE;}
	.st32{fill:#5BBFBD;}
	.st33{fill:#5CBFBC;}
	.st34{fill:#5EBFBB;}
	.st35{fill:#5FBFBA;}
	.st36{fill:#60BFB9;}
	.st37{fill:#61BEB8;}
	.st38{fill:#62BEB7;}
	.st39{fill:#63BEB6;}
	.st40{fill:#65BEB5;}
	.st41{fill:#66BEB4;}
	.st42{fill:#67BEB3;}
	.st43{fill:#68BEB2;}
	.st44{fill:#69BEB1;}
	.st45{fill:#6ABEB0;}
	.st46{fill:#6CBDAF;}
	.st47{fill:#6DBDAF;}
	.st48{fill:#6EBDAE;}
	.st49{fill:#6FBDAD;}
	.st50{fill:#70BDAC;}
	.st51{fill:#71BDAB;}
	.st52{fill:#73BDAA;}
	.st53{fill:#74BDA9;}
	.st54{fill:#75BDA8;}
	.st55{fill:#76BCA7;}
	.st56{fill:#77BCA6;}
	.st57{fill:#78BCA5;}
	.st58{fill:#79BCA4;}
	.st59{fill:#7ABCA3;}
	.st60{fill:#7CBCA2;}
	.st61{fill:#7DBCA2;}
	.st62{fill:#7EBCA1;}
	.st63{fill:#7FBCA0;}
	.st64{fill:#80BC9F;}
	.st65{fill:#81BB9E;}
	.st66{fill:#82BB9D;}
	.st67{fill:#84BB9C;}
	.st68{fill:#85BB9B;}
	.st69{fill:#86BB9A;}
	.st70{fill:#87BB99;}
	.st71{fill:#88BB98;}
	.st72{fill:#89BB98;}
	.st73{fill:#8ABB97;}
	.st74{fill:#8BBA96;}
	.st75{fill:#8CBA95;}
	.st76{fill:#8EBA94;}
	.st77{fill:#8FBA93;}
	.st78{fill:#90BA92;}
	.st79{fill:#91BA91;}
	.st80{fill:#92BA90;}
	.st81{fill:#93BA90;}
	.st82{fill:#94BA8F;}
	.st83{fill:#95BA8E;}
	.st84{fill:#96B98D;}
	.st85{fill:#97B98C;}
	.st86{fill:#98B98B;}
	.st87{fill:#9AB98A;}
	.st88{fill:#9BB989;}
	.st89{fill:#9CB988;}
	.st90{fill:#9DB988;}
	.st91{fill:#9EB987;}
	.st92{fill:#9FB986;}
	.st93{fill:#A0B985;}
	.st94{fill:#A1B884;}
	.st95{fill:#A2B883;}
	.st96{fill:#A3B882;}
	.st97{fill:#A4B882;}
	.st98{fill:#A5B881;}
	.st99{fill:#A6B880;}
	.st100{fill:#A7B87F;}
	.st101{fill:#A8B87E;}
	.st102{fill:#A9B87D;}
	.st103{fill:#ABB87C;}
	.st104{fill:#ACB77C;}
	.st105{fill:#ADB77B;}
	.st106{fill:#AEB77A;}
	.st107{fill:#AFB779;}
	.st108{fill:#B0B778;}
	.st109{fill:#B1B777;}
	.st110{fill:#B2B776;}
	.st111{fill:#B3B776;}
	.st112{fill:#B4B775;}
	.st113{fill:#B5B774;}
	.st114{fill:#B6B673;}
	.st115{fill:#B7B672;}
	.st116{fill:#B8B672;}
	.st117{fill:#B9B671;}
	.st118{fill:#BAB670;}
	.st119{fill:#BBB66F;}
	.st120{fill:#BCB66E;}
	.st121{fill:#BDB66D;}
	.st122{fill:#BEB66D;}
	.st123{fill:#BFB66C;}
	.st124{fill:#C0B66B;}
	.st125{fill:#C1B56A;}
	.st126{fill:#C2B569;}
	.st127{fill:#C3B569;}
	.st128{fill:#C4B568;}
	.st129{fill:#C5B567;}
	.st130{fill:#C6B566;}
	.st131{fill:#C7B565;}
	.st132{fill:#C8B565;}
	.st133{fill:#C9B564;}
	.st134{fill:#CAB563;}
	.st135{fill:#CBB562;}
	.st136{fill:#CCB461;}
	.st137{fill:#CDB461;}
	.st138{fill:#CEB460;}
	.st139{fill:#CEB45F;}
	.st140{fill:#CFB45E;}
	.st141{fill:#D0B45E;}
	.st142{fill:#D1B45D;}
	.st143{fill:#D2B45C;}
	.st144{fill:#D3B45B;}
	.st145{fill:#D4B45B;}
	.st146{fill:#D5B45A;}
	.st147{fill:#D6B359;}
	.st148{fill:#D7B358;}
	.st149{fill:#D8B358;}
	.st150{fill:#D9B357;}
	.st151{fill:#DAB356;}
	.st152{fill:#DAB355;}
	.st153{fill:#DBB355;}
	.st154{fill:#DCB354;}
	.st155{fill:#DDB353;}
	.st156{fill:#DEB353;}
	.st157{fill:#DFB352;}
	.st158{fill:#E0B351;}
	.st159{fill:#E1B250;}
	.st160{fill:#E2B24F;}
	.st161{fill:#E3B24E;}
	.st162{fill:#E4B24E;}
	.st163{fill:#E5B24D;}
	.st164{fill:#E6B24C;}
	.st165{fill:#E7B24B;}
	.st166{fill:#E8B24A;}
	.st167{fill:#E9B24A;}
	.st168{fill:#EAB249;}
	.st169{fill:#EBB248;}
	.st170{fill:#EBB148;}
	.st171{fill:#ECB147;}
	.st172{fill:#EDB146;}
	.st173{fill:#EEB146;}
	.st174{fill:#EEB145;}
	.st175{fill:#EFB145;}
	.st176{fill:#F0B144;}
	.st177{fill:#F1B143;}
	.st178{fill:#F2B142;}
	.st179{fill:#F3B142;}
	.st180{fill:#F4B141;}
	.st181{fill:#F5B140;}
	.st182{fill:#F6B13F;}
	.st183{fill:#F6B03F;}
	.st184{fill:#F7B03E;}
	.st185{fill:#F8B03D;}
	.st186{fill:#F9B03D;}
	.st187{fill:#F9B03C;}
	.st188{fill:#FAB03C;}
	.st189{fill:#FBB03B;}
	.st190{fill:#CCCCCC;}
</style>
<g id="Слой_2">
	<g id="Слой_1-2">
		<path class="st0" d="M977.4,241.7L977.4,241.7l-638.6-0.7c-0.4,0-0.7-0.3-0.7-0.7V4.3c0-2.4,1.6-4.3,3.6-4.3h309.2
			c2,0,3.6,1.9,3.6,4.3v145h322.9c0.4,0,0.7,0.3,0.7,0.7c0,0,0,0,0,0v91C978.1,241.4,977.8,241.7,977.4,241.7
			C977.4,241.7,977.4,241.7,977.4,241.7L977.4,241.7z M339.6,239.6l637.2,0.7v-89.5H653.8c-0.4,0-0.7-0.3-0.7-0.7c0,0,0,0,0,0V4.3
			c0-1.6-1-2.9-2.2-2.9H341.7c-1.2,0-2.2,1.3-2.2,2.9L339.6,239.6z"/>
		<path class="st1" d="M992.5,331.5H683.3c-2,0-3.6-1.9-3.6-4.3v-94.2H352.6v-74.2h327.1V4.3c0-2.4,1.6-4.3,3.6-4.3h309.2
			c2,0,3.6,1.9,3.6,4.3v322.9C996.1,329.5,994.4,331.5,992.5,331.5z M354,231.5h327.1v95.7c0,1.6,1,2.9,2.2,2.9h309.2
			c1.2,0,2.2-1.3,2.2-2.9V4.3c0-1.6-1-2.9-2.2-2.9H683.3c-1.2,0-2.2,1.3-2.2,2.9v155.8H354V231.5z"/>
		<g>
			<path class="st2" d="M142,32.8l4.2,1.3c-0.5,2.1-1.6,3.9-3.2,5.2c-4,2.7-9.3,2.2-12.7-1.2c-1.9-2.2-2.9-5.1-2.8-8
				c0-3.6,0.9-6.4,2.8-8.3c1.9-2,4.5-3.1,7.3-3c2.4-0.1,4.7,0.7,6.4,2.3c1.1,1.1,1.8,2.5,2.2,4l-4.3,1c-0.4-2.2-2.3-3.7-4.5-3.6
				c-1.5,0-2.9,0.6-3.9,1.7c-1,1.1-1.5,3-1.5,5.6c0,2.7,0.5,4.6,1.5,5.8c0.9,1.1,2.3,1.8,3.8,1.7c1.1,0,2.2-0.4,3-1.1
				C141.1,35.3,141.8,34.1,142,32.8z"/>
			<path class="st2" d="M149.9,40.7V19.2h7c1.7-0.1,3.5,0,5.2,0.3c1.2,0.3,2.3,1.1,3.1,2.1c0.9,1.2,1.3,2.7,1.2,4.2
				c0,1.2-0.2,2.3-0.7,3.3c-0.4,0.8-1.1,1.6-1.8,2.1c-0.7,0.5-1.4,0.8-2.2,1c-1.5,0.2-3,0.3-4.5,0.3h-2.8v8.1H149.9z M154.3,22.8
				v6.1h2.4c1.2,0.1,2.3,0,3.4-0.3c0.5-0.2,1-0.6,1.4-1.1c0.3-0.5,0.5-1.1,0.5-1.7c0-0.7-0.2-1.4-0.7-1.9c-0.5-0.5-1.1-0.8-1.7-1
				c-1-0.1-2.1-0.2-3.1-0.1L154.3,22.8z"/>
			<path class="st2" d="M169.9,19.2h4.3v11.6c0,1.2,0,2.4,0.2,3.6c0.2,0.8,0.6,1.6,1.3,2.1c0.8,0.6,1.8,0.9,2.9,0.8
				c1,0.1,2-0.2,2.8-0.8c0.6-0.5,1-1.1,1.1-1.9c0.2-1.2,0.2-2.4,0.2-3.6V19.2h4.3v11.3c0.1,1.8-0.1,3.7-0.4,5.5
				c-0.2,1-0.6,1.9-1.3,2.7c-0.7,0.8-1.6,1.4-2.5,1.8c-1.3,0.5-2.7,0.7-4.1,0.7c-1.6,0.1-3.2-0.2-4.7-0.7c-1-0.4-1.8-1-2.5-1.8
				c-0.6-0.7-1-1.5-1.2-2.4c-0.3-1.8-0.5-3.6-0.4-5.4L169.9,19.2z"/>
		</g>
		<g>
			<path class="st2" d="M1087.3,33.7l4.2-0.4c0.1,1.2,0.7,2.3,1.5,3.1c0.9,0.7,2,1.1,3.1,1c1.1,0.1,2.2-0.2,3.2-0.9
				c0.7-0.5,1-1.3,1.1-2.1c0-0.5-0.1-0.9-0.4-1.3c-0.4-0.4-1-0.8-1.6-0.9c-0.5-0.2-1.7-0.5-3.5-0.9c-1.8-0.3-3.4-1.1-4.9-2.1
				c-1.3-1.1-2-2.7-2-4.3c0-1.1,0.3-2.2,0.9-3.1c0.7-1,1.6-1.7,2.7-2.2c1.3-0.5,2.8-0.8,4.2-0.7c2.7,0,4.7,0.6,6.1,1.8
				c1.4,1.2,2.2,2.9,2.1,4.7l-4.3,0.2c-0.1-0.9-0.5-1.8-1.2-2.4c-0.8-0.5-1.8-0.8-2.7-0.7c-1-0.1-2.1,0.2-3,0.8
				c-0.4,0.3-0.7,0.8-0.7,1.3c0,0.5,0.2,1,0.6,1.3c1.2,0.7,2.6,1.2,4,1.4c1.6,0.3,3.2,0.8,4.7,1.5c1,0.5,1.8,1.3,2.4,2.2
				c0.6,1,0.9,2.2,0.9,3.4c0,1.2-0.4,2.4-1,3.5c-0.7,1.1-1.7,1.9-2.9,2.4c-1.5,0.6-3.1,0.8-4.7,0.8c-2.2,0.1-4.5-0.5-6.3-1.9
				C1088.4,37.8,1087.4,35.8,1087.3,33.7z"/>
			<path class="st2" d="M1115.5,25.1v3.3h-2.8v6.3c0,0.7,0,1.5,0.1,2.2c0.1,0.2,0.2,0.4,0.4,0.5c0.2,0.1,0.4,0.2,0.7,0.2
				c0.6,0,1.1-0.2,1.7-0.4l0.4,3.2c-1,0.4-2.1,0.6-3.3,0.6c-0.7,0-1.4-0.1-2-0.4c-0.5-0.2-1-0.5-1.3-1c-0.3-0.5-0.5-1-0.6-1.6
				c-0.1-1-0.2-1.9-0.1-2.9v-6.8h-1.9v-3.3h1.9V22l4.1-2.4v5.5L1115.5,25.1z"/>
			<path class="st2" d="M1117.4,32.7c0-1.4,0.4-2.8,1-4c0.6-1.2,1.6-2.3,2.9-2.9c1.3-0.7,2.7-1,4.1-1c2.2-0.1,4.3,0.8,5.8,2.3
				c1.5,1.5,2.3,3.6,2.3,5.8c0.1,2.2-0.8,4.3-2.3,5.9c-1.5,1.5-3.6,2.4-5.7,2.3c-1.4,0-2.8-0.3-4.1-1c-1.3-0.6-2.3-1.6-3-2.8
				C1117.7,35.8,1117.4,34.3,1117.4,32.7z M1121.6,32.9c-0.1,1.3,0.3,2.5,1.1,3.5c1.3,1.5,3.6,1.6,5.1,0.3c0.1-0.1,0.2-0.2,0.3-0.3
				c0.8-1,1.2-2.3,1.1-3.6c0.1-1.3-0.3-2.5-1.1-3.5c-1.3-1.5-3.6-1.6-5.1-0.3c-0.1,0.1-0.2,0.2-0.3,0.3
				C1121.9,30.4,1121.5,31.6,1121.6,32.9L1121.6,32.9z"/>
			<path class="st2" d="M1140.6,40.7h-4.1V25.1h3.8v2.2c0.4-0.8,1-1.5,1.8-2.1c0.5-0.3,1.2-0.5,1.8-0.5c1,0,1.9,0.3,2.7,0.8
				l-1.3,3.6c-0.6-0.4-1.2-0.6-1.9-0.7c-0.5,0-1,0.2-1.5,0.5c-0.5,0.5-0.8,1.1-0.9,1.7c-0.3,1.7-0.4,3.5-0.3,5.2L1140.6,40.7z"/>
			<path class="st2" d="M1151.4,29.9l-3.7-0.7c0.3-1.3,1.1-2.5,2.2-3.3c1.4-0.8,3-1.2,4.6-1.1c1.4-0.1,2.8,0.1,4.1,0.7
				c0.8,0.3,1.5,0.9,1.9,1.7c0.5,1.2,0.6,2.4,0.5,3.7l0,4.8c0,1,0,2,0.2,3c0.2,0.7,0.4,1.4,0.7,2.1h-4.1c-0.1-0.3-0.2-0.7-0.4-1.2
				c-0.1-0.2-0.1-0.4-0.1-0.5c-0.7,0.6-1.4,1.2-2.3,1.5c-0.8,0.3-1.7,0.5-2.6,0.5c-1.4,0.1-2.7-0.4-3.8-1.3c-0.9-0.8-1.4-2-1.4-3.3
				c0-0.8,0.2-1.6,0.6-2.4c0.4-0.7,1-1.2,1.8-1.6c1-0.5,2.1-0.8,3.3-1c1.4-0.2,2.7-0.6,4-1v-0.4c0.1-0.6-0.2-1.2-0.6-1.7
				c-0.7-0.4-1.4-0.6-2.2-0.5c-0.6,0-1.2,0.1-1.7,0.4C1152,28.8,1151.6,29.3,1151.4,29.9z M1157,33.2c-0.8,0.3-1.7,0.5-2.5,0.6
				c-0.8,0.1-1.5,0.4-2.2,0.7c-0.5,0.3-0.8,0.9-0.8,1.5c0,0.6,0.2,1.1,0.6,1.5c0.4,0.4,1,0.7,1.6,0.6c0.8,0,1.5-0.3,2.1-0.7
				c0.5-0.3,0.8-0.8,1-1.4c0.1-0.7,0.2-1.3,0.2-2L1157,33.2z"/>
			<path class="st2" d="M1164.7,41.7l4.7,0.6c0,0.4,0.2,0.8,0.5,1.1c0.6,0.3,1.2,0.5,1.8,0.4c0.8,0.1,1.7-0.1,2.4-0.5
				c0.4-0.2,0.7-0.6,0.8-1c0.2-0.6,0.2-1.3,0.2-1.9v-2.3c-1,1.6-2.8,2.5-4.7,2.5c-2,0-3.9-1-5-2.7c-1-1.6-1.5-3.4-1.4-5.2
				c-0.1-2.2,0.5-4.3,1.9-6c1.2-1.3,2.9-2.1,4.7-2.1c1.9,0,3.7,0.9,4.8,2.5v-2.2h3.9v14c0.1,1.4-0.1,2.8-0.5,4.1
				c-0.2,0.8-0.7,1.5-1.3,2.1c-0.6,0.6-1.4,1-2.2,1.2c-1.1,0.3-2.3,0.5-3.5,0.4c-2.6,0-4.5-0.5-5.6-1.4c-1.1-0.8-1.7-2.1-1.7-3.4
				C1164.7,42.1,1164.7,41.9,1164.7,41.7z M1168.4,32.6c-0.1,1.3,0.2,2.6,1,3.6c0.6,0.7,1.4,1.2,2.4,1.1c1,0,1.9-0.4,2.5-1.2
				c0.8-1,1.1-2.2,1-3.5c0.1-1.3-0.3-2.5-1-3.6c-0.6-0.8-1.5-1.2-2.5-1.2c-0.9,0-1.8,0.4-2.4,1.1
				C1168.6,30.1,1168.3,31.3,1168.4,32.6L1168.4,32.6z"/>
			<path class="st2" d="M1192.4,35.7l4.1,0.7c-0.4,1.4-1.3,2.6-2.5,3.4c-1.3,0.8-2.8,1.2-4.3,1.2c-2.7,0-4.7-0.9-6-2.7
				c-1.1-1.6-1.6-3.5-1.5-5.4c-0.1-2.2,0.6-4.4,2-6.1c1.3-1.4,3.2-2.2,5.1-2.2c2.1-0.1,4.1,0.7,5.5,2.3c1.3,1.5,2,3.9,1.9,7h-10.3
				c0,1,0.3,2.1,1,2.8c0.6,0.7,1.5,1,2.4,1c0.6,0,1.2-0.2,1.6-0.5C1191.9,37,1192.2,36.4,1192.4,35.7z M1192.6,31.6
				c0-1-0.3-2-0.9-2.7c-1.1-1.2-3-1.2-4.2-0.1c-0.1,0.1-0.1,0.1-0.2,0.2c-0.6,0.7-0.9,1.7-0.9,2.7H1192.6z"/>
			<path class="st2" d="M1208.3,40.7V19.2h4.3v21.5H1208.3z"/>
			<path class="st2" d="M1214.5,41.1l5.3-22.2h3.1l-5.4,22.2H1214.5z"/>
			<path class="st2" d="M1224.2,30.1c-0.1-1.9,0.3-3.8,1-5.5c0.5-1.1,1.2-2.1,2-2.9c0.8-0.8,1.7-1.5,2.8-1.9c1.5-0.6,3-0.9,4.6-0.9
				c2.8-0.1,5.6,0.9,7.6,2.9c1.9,2,2.8,4.7,2.8,8.2c0,3.5-0.9,6.2-2.8,8.1c-4.3,3.9-10.9,3.9-15.2,0
				C1225.2,36.2,1224.2,33.5,1224.2,30.1z M1228.7,29.9c-0.1,2,0.5,4,1.7,5.5c2.2,2.4,5.8,2.5,8.2,0.4c0.1-0.1,0.2-0.2,0.4-0.3
				c1.1-1.2,1.7-3.1,1.7-5.6c0-2.5-0.5-4.3-1.6-5.5c-2.3-2.4-6.1-2.4-8.5-0.1c0,0-0.1,0.1-0.1,0.1
				C1229.2,25.6,1228.7,27.5,1228.7,29.9L1228.7,29.9z"/>
		</g>
		<g>
			<path class="st2" d="M782,40.7V19.2h4.2l8.8,14.3V19.2h4v21.5h-4.4l-8.7-14v14H782z"/>
			<path class="st2" d="M812.6,35.7l4.1,0.7c-0.4,1.4-1.3,2.6-2.5,3.4c-1.3,0.8-2.8,1.2-4.3,1.2c-2.7,0-4.7-0.9-6-2.7
				c-1.1-1.6-1.6-3.5-1.5-5.4c-0.1-2.2,0.6-4.4,2-6.1c1.3-1.4,3.2-2.2,5.1-2.2c2.1-0.1,4.1,0.7,5.5,2.3c1.3,1.5,2,3.9,1.9,7h-10.3
				c0,1,0.3,2.1,1,2.8c0.6,0.7,1.5,1,2.4,1c0.6,0,1.2-0.2,1.6-0.5C812.1,37,812.5,36.4,812.6,35.7z M812.8,31.6c0-1-0.3-2-0.9-2.7
				c-1.1-1.2-3-1.2-4.2-0.1c-0.1,0.1-0.1,0.1-0.2,0.2c-0.6,0.7-0.9,1.7-0.9,2.7H812.8z"/>
			<path class="st2" d="M827.4,25.1v3.3h-2.8v6.3c0,0.7,0,1.5,0.1,2.2c0.1,0.2,0.2,0.4,0.4,0.5c0.2,0.1,0.4,0.2,0.7,0.2
				c0.6,0,1.1-0.2,1.7-0.4l0.4,3.2c-1,0.4-2.1,0.6-3.3,0.6c-0.7,0-1.4-0.1-2-0.4c-0.5-0.2-1-0.5-1.3-1c-0.3-0.5-0.5-1-0.6-1.6
				c-0.1-1-0.2-1.9-0.1-2.9v-6.8h-1.9v-3.3h1.9V22l4.1-2.4v5.5L827.4,25.1z"/>
			<path class="st2" d="M833.2,40.7l-4.9-15.6h4l2.9,10.2l2.7-10.2h4l2.6,10.2l3-10.2h4.1l-5,15.6h-4l-2.7-10l-2.6,10H833.2z"/>
			<path class="st2" d="M852.7,32.7c0-1.4,0.4-2.8,1-4c0.6-1.2,1.6-2.3,2.9-2.9c1.3-0.7,2.7-1,4.1-1c2.2-0.1,4.3,0.8,5.8,2.3
				c1.5,1.5,2.3,3.6,2.3,5.8c0.1,2.2-0.8,4.3-2.3,5.9c-1.5,1.5-3.6,2.4-5.7,2.3c-1.4,0-2.8-0.3-4.1-1c-1.3-0.6-2.3-1.6-3-2.8
				C852.9,35.8,852.6,34.3,852.7,32.7z M856.9,32.9c-0.1,1.3,0.3,2.5,1.1,3.5c1.3,1.5,3.6,1.6,5.1,0.3c0.1-0.1,0.2-0.2,0.3-0.3
				c0.8-1,1.2-2.3,1.1-3.6c0.1-1.3-0.3-2.5-1.1-3.5c-1.3-1.5-3.6-1.6-5.1-0.3c-0.1,0.1-0.2,0.2-0.3,0.3
				C857.2,30.4,856.8,31.6,856.9,32.9L856.9,32.9z"/>
			<path class="st2" d="M875.9,40.7h-4.1V25.1h3.8v2.2c0.4-0.8,1-1.5,1.8-2.1c0.5-0.3,1.2-0.5,1.8-0.5c1,0,1.9,0.3,2.7,0.8l-1.3,3.6
				c-0.6-0.4-1.2-0.6-1.9-0.7c-0.5,0-1,0.2-1.5,0.5c-0.5,0.5-0.8,1.1-0.9,1.7c-0.3,1.7-0.4,3.5-0.3,5.2L875.9,40.7z"/>
			<path class="st2" d="M883.5,40.7V19.2h4.1v11.4l4.8-5.5h5.1l-5.3,5.7l5.7,9.9h-4.4l-3.9-7l-1.9,2v5L883.5,40.7z"/>
		</g>
		<g>
			<path class="st2" d="M440.9,40.7V19.2h6.5l3.9,14.6l3.9-14.6h6.5v21.5h-4V23.8l-4.3,16.9h-4.2l-4.2-16.9v16.9H440.9z"/>
			<path class="st2" d="M474.9,35.7l4.1,0.7c-0.4,1.4-1.3,2.6-2.5,3.4c-1.3,0.8-2.8,1.2-4.3,1.2c-2.7,0-4.7-0.9-6-2.7
				c-1.1-1.6-1.6-3.5-1.5-5.4c-0.1-2.2,0.6-4.4,2-6.1c1.3-1.4,3.2-2.2,5.1-2.2c2.1-0.1,4.1,0.7,5.5,2.3c1.3,1.5,2,3.9,1.9,7h-10.3
				c0,1,0.3,2.1,1,2.8c0.6,0.7,1.5,1,2.4,1c0.6,0,1.2-0.2,1.6-0.5C474.4,37,474.7,36.4,474.9,35.7z M475.1,31.6c0-1-0.3-2-0.9-2.7
				c-1.1-1.2-3-1.2-4.2-0.1c-0.1,0.1-0.1,0.1-0.2,0.2c-0.6,0.7-0.9,1.7-0.9,2.7H475.1z"/>
			<path class="st2" d="M482.3,25.1h3.8v2.1c1.1-1.5,2.9-2.5,4.8-2.5c0.9,0,1.8,0.2,2.6,0.6c0.8,0.4,1.4,1.1,1.8,1.9
				c0.6-0.8,1.4-1.4,2.2-1.9c0.8-0.4,1.7-0.6,2.5-0.6c1,0,2,0.2,2.9,0.7c0.8,0.5,1.4,1.2,1.8,2c0.3,1,0.5,2.1,0.4,3.2v9.9H501v-8.9
				c0.1-1-0.1-2-0.4-3c-0.4-0.6-1.1-0.9-1.8-0.9c-0.6,0-1.2,0.2-1.6,0.5c-0.5,0.4-0.9,0.9-1.1,1.5c-0.3,1-0.4,2.1-0.3,3.2v7.5h-4.1
				v-8.5c0-1,0-2-0.2-2.9c-0.1-0.4-0.4-0.7-0.7-1c-0.4-0.2-0.8-0.3-1.3-0.3c-0.6,0-1.2,0.2-1.7,0.5c-0.5,0.4-0.9,0.9-1.1,1.5
				c-0.3,1-0.4,2.1-0.3,3.2v7.6h-4.1L482.3,25.1z"/>
			<path class="st2" d="M508.3,32.7c0-1.4,0.4-2.8,1-4c0.6-1.2,1.6-2.3,2.9-2.9c1.3-0.7,2.7-1,4.1-1c2.2-0.1,4.3,0.8,5.8,2.3
				c1.5,1.5,2.3,3.6,2.3,5.8c0.1,2.2-0.8,4.3-2.3,5.9c-1.5,1.5-3.6,2.4-5.7,2.3c-1.4,0-2.8-0.3-4.1-1c-1.3-0.6-2.3-1.6-3-2.8
				C508.6,35.8,508.2,34.3,508.3,32.7z M512.5,32.9c-0.1,1.3,0.3,2.5,1.1,3.5c1.3,1.5,3.6,1.6,5.1,0.3c0.1-0.1,0.2-0.2,0.3-0.3
				c0.8-1,1.2-2.3,1.1-3.6c0.1-1.3-0.3-2.5-1.1-3.5c-1.3-1.5-3.6-1.6-5.1-0.3c-0.1,0.1-0.2,0.2-0.3,0.3
				C512.8,30.4,512.4,31.6,512.5,32.9L512.5,32.9z"/>
			<path class="st2" d="M531.5,40.7h-4.1V25.1h3.8v2.2c0.4-0.8,1-1.5,1.8-2.1c0.5-0.3,1.2-0.5,1.8-0.5c1,0,1.9,0.3,2.7,0.8l-1.3,3.6
				c-0.6-0.4-1.2-0.6-1.9-0.7c-0.5,0-1,0.2-1.5,0.5c-0.5,0.5-0.8,1.1-0.9,1.7c-0.3,1.7-0.4,3.5-0.3,5.2L531.5,40.7z"/>
			<path class="st2" d="M537.3,25.1h4.4l3.7,11l3.6-11h4.3l-5.5,15l-1,2.7c-0.3,0.7-0.6,1.4-1,2.1c-0.3,0.5-0.7,0.8-1.1,1.2
				c-0.5,0.3-1,0.6-1.6,0.7c-0.7,0.2-1.4,0.3-2.1,0.2c-0.8,0-1.6-0.1-2.3-0.2l-0.4-3.2c0.6,0.1,1.2,0.2,1.7,0.2
				c0.8,0.1,1.6-0.2,2.1-0.8c0.5-0.6,0.9-1.4,1.1-2.1L537.3,25.1z"/>
		</g>
		<path class="st3" d="M312.5,331.5H3.9c-2.2,0-3.9-1.8-3.9-3.9V3.9C0,1.8,1.8,0,3.9,0h308.5c2.2,0,3.9,1.8,3.9,3.9v323.6
			C316.4,329.7,314.6,331.5,312.5,331.5z M3.9,1.4c-1.4,0-2.5,1.1-2.5,2.5v323.6c0,1.4,1.1,2.5,2.5,2.5h308.5c1.4,0,2.5-1.1,2.5-2.5
			V3.9c0-1.4-1.1-2.5-2.5-2.5H3.9z"/>
		<path class="st4" d="M1320.8,238.5h-308.5c-2.2,0-3.9-1.8-3.9-3.9V3.9c0-2.2,1.8-3.9,3.9-3.9h308.5c2.2,0,3.9,1.8,3.9,3.9v230.6
			C1324.7,236.7,1322.9,238.5,1320.8,238.5z M1012.3,1.4c-1.4,0-2.5,1.1-2.5,2.5v230.6c0,1.4,1.1,2.5,2.5,2.5h308.5
			c1.4,0,2.5-1.1,2.5-2.5V3.9c0-1.4-1.1-2.5-2.5-2.5H1012.3z"/>
		<path class="st3" d="M20.5,84.7H295c3.2,0,5.8,2.6,5.8,5.8v45.2c0,3.2-2.6,5.8-5.8,5.8H20.5c-3.2,0-5.8-2.6-5.8-5.8V90.5
			C14.7,87.3,17.3,84.7,20.5,84.7z"/>
		<path class="st3" d="M20.5,167.7H295c3.2,0,5.8,2.6,5.8,5.8v45.2c0,3.2-2.6,5.8-5.8,5.8H20.5c-3.2,0-5.8-2.6-5.8-5.8v-45.2
			C14.7,170.3,17.3,167.7,20.5,167.7z"/>
		<path class="st3" d="M20.5,247.7H295c3.2,0,5.8,2.6,5.8,5.8v45.2c0,3.2-2.6,5.8-5.8,5.8H20.5c-3.2,0-5.8-2.6-5.8-5.8v-45.2
			C14.7,250.3,17.3,247.7,20.5,247.7z"/>
		<g>
			<path class="st4" d="M99.5,116.9l2.4,0.6c-0.4,1.7-1.3,3.3-2.7,4.4c-1.4,1-3,1.6-4.7,1.5c-1.6,0.1-3.3-0.3-4.7-1.2
				c-1.2-0.8-2.2-2-2.8-3.4c-0.6-1.5-1-3.2-0.9-4.8c0-1.7,0.3-3.4,1.1-4.9c0.7-1.3,1.7-2.4,3-3.2c1.3-0.7,2.8-1.1,4.3-1.1
				c1.6-0.1,3.2,0.4,4.5,1.4c1.3,1,2.2,2.3,2.6,3.8l-2.3,0.5c-0.3-1.1-0.9-2.1-1.8-2.8c-0.9-0.6-1.9-0.9-3-0.9c-1.2,0-2.4,0.3-3.4,1
				c-0.9,0.7-1.6,1.6-1.9,2.7c-0.4,1.1-0.6,2.3-0.6,3.4c0,1.4,0.2,2.7,0.7,4c0.4,1.1,1.1,2,2.1,2.5c0.9,0.6,2,0.8,3,0.8
				c1.2,0,2.4-0.4,3.4-1.1C98.6,119.4,99.3,118.2,99.5,116.9z"/>
			<path class="st4" d="M113.2,116.1V114l7.6,0v6.6c-1.1,0.9-2.3,1.6-3.6,2.1c-1.2,0.5-2.5,0.7-3.8,0.7c-1.7,0-3.3-0.4-4.8-1.1
				c-1.4-0.7-2.5-1.9-3.3-3.3c-0.7-1.5-1.1-3.1-1.1-4.8c0-1.7,0.4-3.4,1.1-4.9c0.7-1.4,1.8-2.6,3.1-3.4c1.5-0.8,3.1-1.1,4.7-1.1
				c1.2,0,2.4,0.2,3.5,0.6c1,0.4,1.8,1,2.5,1.8c0.7,0.9,1.1,1.9,1.4,2.9l-2.1,0.6c-0.2-0.8-0.5-1.5-1-2.1c-0.5-0.6-1-1-1.7-1.3
				c-0.8-0.3-1.6-0.5-2.5-0.5c-1,0-1.9,0.1-2.8,0.5c-0.7,0.3-1.4,0.7-1.9,1.3c-0.5,0.5-0.9,1.1-1.1,1.8c-0.5,1.1-0.7,2.4-0.7,3.6
				c0,1.4,0.2,2.8,0.8,4c0.5,1,1.4,1.9,2.4,2.4c1,0.5,2.2,0.8,3.3,0.8c1,0,2-0.2,3-0.6c0.8-0.3,1.6-0.7,2.2-1.3v-3.3L113.2,116.1z"
				/>
			<path class="st4" d="M124.3,123.2v-17.9h7.9c1.2-0.1,2.5,0.1,3.6,0.5c0.8,0.3,1.5,0.9,2,1.7c0.5,0.8,0.8,1.7,0.7,2.7
				c0,1.2-0.4,2.3-1.2,3.2c-1,1-2.4,1.6-3.8,1.7c0.5,0.2,1,0.5,1.4,0.9c0.8,0.7,1.4,1.5,2,2.4l3.1,4.9h-3l-2.4-3.7
				c-0.7-1.1-1.3-1.9-1.7-2.5c-0.3-0.5-0.7-0.9-1.2-1.2c-0.3-0.2-0.7-0.4-1.1-0.5c-0.4-0.1-0.9-0.1-1.3-0.1h-2.7v7.9L124.3,123.2z
				 M126.6,113.2h5.1c0.9,0,1.7-0.1,2.5-0.3c0.6-0.2,1.1-0.6,1.4-1.1c0.3-0.5,0.5-1,0.5-1.6c0-0.8-0.3-1.6-0.9-2.1
				c-0.8-0.6-1.9-0.9-2.9-0.8h-5.7L126.6,113.2z"/>
			<path class="st4" d="M141.6,114.4c-0.1-2.5,0.7-5.1,2.4-7c1.6-1.7,3.9-2.6,6.2-2.5c1.6,0,3.1,0.4,4.5,1.2c1.3,0.8,2.4,1.9,3,3.3
				c0.7,1.5,1.1,3.1,1,4.8c0,1.7-0.3,3.4-1.1,4.9c-0.7,1.4-1.8,2.5-3.1,3.3c-1.3,0.7-2.8,1.1-4.3,1.1c-1.6,0-3.2-0.4-4.5-1.2
				c-1.3-0.8-2.4-2-3-3.3C141.9,117.5,141.6,116,141.6,114.4z M144,114.5c-0.1,1.9,0.5,3.7,1.7,5.1c2.3,2.4,6.2,2.5,8.6,0.2
				c0.1-0.1,0.1-0.1,0.2-0.2c1.2-1.5,1.9-3.4,1.7-5.3c0-1.3-0.2-2.6-0.7-3.8c-0.5-1-1.2-1.9-2.2-2.5c-1-0.6-2.1-0.9-3.2-0.9
				c-1.6,0-3.2,0.6-4.3,1.7C144.6,109.9,144,111.8,144,114.5L144,114.5z"/>
			<path class="st4" d="M173.5,105.3h2.4v10.3c0.1,1.5-0.2,2.9-0.6,4.3c-0.4,1.1-1.2,2-2.2,2.6c-1.3,0.7-2.7,1.1-4.2,1
				c-1.4,0.1-2.8-0.2-4.1-0.9c-1-0.5-1.8-1.4-2.3-2.5c-0.5-1.4-0.7-3-0.7-4.5v-10.3h2.4v10.3c-0.1,1.2,0.1,2.3,0.4,3.4
				c0.3,0.7,0.8,1.3,1.5,1.7c0.8,0.4,1.7,0.6,2.6,0.6c1.4,0.1,2.7-0.3,3.7-1.2c0.7-0.8,1.1-2.3,1.1-4.6L173.5,105.3z"/>
			<path class="st4" d="M179.8,123.2v-17.9h7.9c1.2-0.1,2.5,0.1,3.6,0.5c0.8,0.3,1.5,0.9,2,1.7c0.5,0.8,0.8,1.7,0.7,2.7
				c0,1.2-0.4,2.3-1.2,3.2c-1,1-2.4,1.6-3.8,1.7c0.5,0.2,1,0.5,1.4,0.9c0.8,0.7,1.4,1.5,2,2.4l3.1,4.9h-3l-2.4-3.7
				c-0.7-1.1-1.3-1.9-1.7-2.5c-0.3-0.5-0.7-0.9-1.2-1.2c-0.3-0.2-0.7-0.4-1.1-0.5c-0.4-0.1-0.9-0.1-1.3-0.1h-2.7v7.9L179.8,123.2z
				 M182.2,113.2h5.1c0.9,0,1.7-0.1,2.5-0.3c0.6-0.2,1.1-0.6,1.4-1.1c0.3-0.5,0.5-1,0.5-1.6c0-0.8-0.3-1.6-0.9-2.1
				c-0.8-0.6-1.9-0.9-2.9-0.8h-5.7L182.2,113.2z"/>
			<path class="st4" d="M204.1,123.5l1.1-5.2h-2.1v-1.8h2.4l0.9-4.4h-3.3v-1.8h3.7l1.1-5.2h1.8l-1.1,5.2h3.8l1.1-5.2h1.8l-1.1,5.2
				h2.1v1.8H214l-0.9,4.4h3.4v1.8h-3.8l-1.1,5.2h-1.8l1.1-5.2H207l-1.1,5.2H204.1z M207.4,116.4h3.8l0.9-4.4h-3.8L207.4,116.4z"/>
			<path class="st4" d="M226.1,123.2h-2.2v-14c-0.6,0.6-1.3,1.1-2.1,1.5c-0.7,0.4-1.5,0.8-2.3,1.1v-2.1c1.2-0.5,2.3-1.2,3.2-2.1
				c0.8-0.7,1.5-1.5,2-2.4h1.4L226.1,123.2z"/>
		</g>
		<g>
			<path class="st4" d="M99.5,199.1l2.4,0.6c-0.4,1.7-1.3,3.3-2.7,4.4c-1.4,1-3,1.6-4.7,1.5c-1.6,0.1-3.3-0.3-4.7-1.2
				c-1.2-0.8-2.2-2-2.8-3.4c-0.6-1.5-1-3.2-0.9-4.8c0-1.7,0.3-3.4,1.1-4.9c0.7-1.3,1.7-2.4,3-3.2c1.3-0.7,2.8-1.1,4.3-1.1
				c1.6-0.1,3.2,0.4,4.5,1.4c1.3,1,2.2,2.3,2.6,3.8l-2.3,0.5c-0.3-1.1-0.9-2.1-1.8-2.8c-0.9-0.6-1.9-0.9-3-0.9c-1.2,0-2.4,0.3-3.4,1
				c-0.9,0.7-1.6,1.6-1.9,2.7c-0.4,1.1-0.6,2.3-0.6,3.4c0,1.4,0.2,2.7,0.7,4c0.4,1.1,1.1,2,2.1,2.5c0.9,0.6,2,0.8,3,0.8
				c1.2,0,2.4-0.4,3.4-1.1C98.6,201.6,99.3,200.4,99.5,199.1z"/>
			<path class="st4" d="M113.2,198.3v-2.1l7.6,0v6.6c-1.1,0.9-2.3,1.6-3.6,2.1c-1.2,0.5-2.5,0.7-3.8,0.7c-1.7,0-3.3-0.4-4.8-1.1
				c-1.4-0.7-2.5-1.9-3.3-3.3c-0.7-1.5-1.1-3.1-1.1-4.8c0-1.7,0.4-3.4,1.1-4.9c0.7-1.4,1.8-2.6,3.1-3.4c1.5-0.8,3.1-1.1,4.7-1.1
				c1.2,0,2.4,0.2,3.5,0.6c1,0.4,1.8,1,2.5,1.8c0.7,0.9,1.1,1.9,1.4,2.9l-2.1,0.6c-0.2-0.8-0.5-1.5-1-2.1c-0.5-0.6-1-1-1.7-1.3
				c-0.8-0.3-1.6-0.5-2.5-0.5c-1,0-1.9,0.1-2.8,0.5c-0.7,0.3-1.4,0.7-1.9,1.3c-0.5,0.5-0.9,1.1-1.1,1.8c-0.5,1.1-0.7,2.4-0.7,3.6
				c0,1.4,0.2,2.8,0.8,4c0.5,1,1.4,1.9,2.4,2.4c1,0.5,2.2,0.8,3.3,0.8c1,0,2-0.2,3-0.6c0.8-0.3,1.6-0.7,2.2-1.3v-3.3L113.2,198.3z"
				/>
			<path class="st4" d="M124.3,205.3v-17.9h7.9c1.2-0.1,2.5,0.1,3.6,0.5c0.8,0.3,1.5,0.9,2,1.7c0.5,0.8,0.8,1.7,0.7,2.7
				c0,1.2-0.4,2.3-1.2,3.2c-1,1-2.4,1.6-3.8,1.7c0.5,0.2,1,0.5,1.4,0.9c0.8,0.7,1.4,1.5,2,2.4l3.1,4.9h-3l-2.4-3.7
				c-0.7-1.1-1.3-1.9-1.7-2.5c-0.3-0.5-0.7-0.9-1.2-1.2c-0.3-0.2-0.7-0.4-1.1-0.5c-0.4-0.1-0.9-0.1-1.3-0.1h-2.7v7.9L124.3,205.3z
				 M126.6,195.3h5.1c0.9,0,1.7-0.1,2.5-0.3c0.6-0.2,1.1-0.6,1.4-1.1c0.3-0.5,0.5-1,0.5-1.6c0-0.8-0.3-1.6-0.9-2.1
				c-0.8-0.6-1.9-0.9-2.9-0.8h-5.7L126.6,195.3z"/>
			<path class="st4" d="M141.6,196.6c-0.1-2.5,0.7-5.1,2.4-7c1.6-1.7,3.9-2.6,6.2-2.5c1.6,0,3.1,0.4,4.5,1.2c1.3,0.8,2.4,1.9,3,3.3
				c0.7,1.5,1.1,3.1,1,4.8c0,1.7-0.3,3.4-1.1,4.9c-0.7,1.4-1.8,2.5-3.1,3.3c-1.3,0.7-2.8,1.1-4.3,1.1c-1.6,0-3.2-0.4-4.5-1.2
				c-1.3-0.8-2.4-2-3-3.3C141.9,199.7,141.6,198.2,141.6,196.6z M144,196.7c-0.1,1.9,0.5,3.7,1.7,5.1c2.3,2.4,6.2,2.5,8.6,0.2
				c0.1-0.1,0.1-0.1,0.2-0.2c1.2-1.5,1.9-3.4,1.7-5.3c0-1.3-0.2-2.6-0.7-3.8c-0.5-1-1.2-1.9-2.2-2.5c-1-0.6-2.1-0.9-3.2-0.9
				c-1.6,0-3.2,0.6-4.3,1.7C144.6,192,144,194,144,196.7L144,196.7z"/>
			<path class="st4" d="M173.5,187.4h2.4v10.3c0.1,1.5-0.2,2.9-0.6,4.3c-0.4,1.1-1.2,2-2.2,2.6c-1.3,0.7-2.7,1.1-4.2,1
				c-1.4,0.1-2.8-0.2-4.1-0.9c-1-0.5-1.8-1.4-2.3-2.5c-0.5-1.4-0.7-3-0.7-4.5v-10.3h2.4v10.3c-0.1,1.2,0.1,2.3,0.4,3.4
				c0.3,0.7,0.8,1.3,1.5,1.7c0.8,0.4,1.7,0.6,2.6,0.6c1.4,0.1,2.7-0.3,3.7-1.2c0.7-0.8,1.1-2.3,1.1-4.6L173.5,187.4z"/>
			<path class="st4" d="M179.8,205.3v-17.9h7.9c1.2-0.1,2.5,0.1,3.6,0.5c0.8,0.3,1.5,0.9,2,1.7c0.5,0.8,0.8,1.7,0.7,2.7
				c0,1.2-0.4,2.3-1.2,3.2c-1,1-2.4,1.6-3.8,1.7c0.5,0.2,1,0.5,1.4,0.9c0.8,0.7,1.4,1.5,2,2.4l3.1,4.9h-3l-2.4-3.7
				c-0.7-1.1-1.3-1.9-1.7-2.5c-0.3-0.5-0.7-0.9-1.2-1.2c-0.3-0.2-0.7-0.4-1.1-0.5c-0.4-0.1-0.9-0.1-1.3-0.1h-2.7v7.9L179.8,205.3z
				 M182.2,195.3h5.1c0.9,0,1.7-0.1,2.5-0.3c0.6-0.2,1.1-0.6,1.4-1.1c0.3-0.5,0.5-1,0.5-1.6c0-0.8-0.3-1.6-0.9-2.1
				c-0.8-0.6-1.9-0.9-2.9-0.8h-5.7L182.2,195.3z"/>
			<path class="st4" d="M204.1,205.6l1.1-5.2h-2.1v-1.8h2.4l0.9-4.4h-3.3v-1.8h3.7l1.1-5.2h1.8l-1.1,5.2h3.8l1.1-5.2h1.8l-1.1,5.2
				h2.1v1.8H214l-0.9,4.4h3.4v1.8h-3.8l-1.1,5.2h-1.8l1.1-5.2H207l-1.1,5.2H204.1z M207.4,198.6h3.8l0.9-4.4h-3.8L207.4,198.6z"/>
			<path class="st4" d="M229.4,203.2v2.1h-11.8c0-0.5,0.1-1,0.3-1.5c0.3-0.9,0.8-1.7,1.4-2.4c0.9-1,1.8-1.9,2.9-2.7
				c1.5-1.1,2.8-2.4,3.9-3.8c0.6-0.7,1-1.7,1-2.6c0-0.8-0.3-1.6-0.9-2.2c-0.7-0.6-1.5-0.9-2.4-0.9c-0.9,0-1.9,0.3-2.5,1
				c-0.7,0.7-1,1.7-1,2.6l-2.3-0.2c0.1-1.5,0.7-2.8,1.7-3.9c1.1-0.9,2.6-1.4,4.1-1.3c1.5-0.1,3,0.4,4.1,1.4c1,0.9,1.5,2.2,1.5,3.5
				c0,0.7-0.2,1.4-0.4,2.1c-0.4,0.8-0.9,1.5-1.5,2.2c-1.1,1.1-2.2,2.2-3.4,3.1c-1.3,1.1-2.2,1.9-2.5,2.3c-0.4,0.4-0.7,0.8-0.9,1.2
				L229.4,203.2z"/>
		</g>
		<g>
			<path class="st4" d="M99.5,280.6l2.4,0.6c-0.4,1.7-1.3,3.3-2.7,4.4c-1.4,1-3,1.6-4.7,1.5c-1.6,0.1-3.3-0.3-4.7-1.2
				c-1.2-0.8-2.2-2-2.8-3.4c-0.6-1.5-1-3.2-0.9-4.8c0-1.7,0.3-3.4,1.1-4.9c0.7-1.3,1.7-2.4,3-3.2c1.3-0.7,2.8-1.1,4.3-1.1
				c1.6-0.1,3.2,0.4,4.5,1.4c1.3,1,2.2,2.3,2.6,3.8l-2.3,0.5c-0.3-1.1-0.9-2.1-1.8-2.8c-0.9-0.6-1.9-0.9-3-0.9c-1.2,0-2.4,0.3-3.4,1
				c-0.9,0.7-1.6,1.6-1.9,2.7c-0.4,1.1-0.6,2.3-0.6,3.4c0,1.4,0.2,2.7,0.7,4c0.4,1.1,1.1,2,2.1,2.5c0.9,0.6,2,0.8,3,0.8
				c1.2,0,2.4-0.4,3.4-1.1C98.6,283.1,99.3,281.9,99.5,280.6z"/>
			<path class="st4" d="M113.2,279.8v-2.1l7.6,0v6.6c-1.1,0.9-2.3,1.6-3.6,2.1c-1.2,0.5-2.5,0.7-3.8,0.7c-1.7,0-3.3-0.4-4.8-1.1
				c-1.4-0.7-2.5-1.9-3.3-3.3c-0.7-1.5-1.1-3.1-1.1-4.8c0-1.7,0.4-3.4,1.1-4.9c0.7-1.4,1.8-2.6,3.1-3.4c1.5-0.8,3.1-1.1,4.7-1.1
				c1.2,0,2.4,0.2,3.5,0.6c1,0.4,1.8,1,2.5,1.8c0.7,0.9,1.1,1.9,1.4,2.9l-2.1,0.6c-0.2-0.8-0.5-1.5-1-2.1c-0.5-0.6-1-1-1.7-1.3
				c-0.8-0.3-1.6-0.5-2.5-0.5c-1,0-1.9,0.1-2.8,0.5c-0.7,0.3-1.4,0.7-1.9,1.3c-0.5,0.5-0.9,1.1-1.1,1.8c-0.5,1.1-0.7,2.4-0.7,3.6
				c0,1.4,0.2,2.8,0.8,4c0.5,1,1.4,1.9,2.4,2.4c1,0.5,2.2,0.8,3.3,0.8c1,0,2-0.2,3-0.6c0.8-0.3,1.6-0.7,2.2-1.3v-3.3L113.2,279.8z"
				/>
			<path class="st4" d="M124.3,286.8V269h7.9c1.2-0.1,2.5,0.1,3.6,0.5c0.8,0.3,1.5,0.9,2,1.7c0.5,0.8,0.8,1.7,0.7,2.7
				c0,1.2-0.4,2.3-1.2,3.2c-1,1-2.4,1.6-3.8,1.7c0.5,0.2,1,0.5,1.4,0.9c0.8,0.7,1.4,1.5,2,2.4l3.1,4.9h-3l-2.4-3.7
				c-0.7-1.1-1.3-1.9-1.7-2.5c-0.3-0.5-0.7-0.9-1.2-1.2c-0.3-0.2-0.7-0.4-1.1-0.5c-0.4-0.1-0.9-0.1-1.3-0.1h-2.7v7.9L124.3,286.8z
				 M126.6,276.8h5.1c0.9,0,1.7-0.1,2.5-0.3c0.6-0.2,1.1-0.6,1.4-1.1c0.3-0.5,0.5-1,0.5-1.6c0-0.8-0.3-1.6-0.9-2.1
				c-0.8-0.6-1.9-0.9-2.9-0.8h-5.7L126.6,276.8z"/>
			<path class="st4" d="M141.6,278.1c-0.1-2.5,0.7-5.1,2.4-7c1.6-1.7,3.9-2.6,6.2-2.5c1.6,0,3.1,0.4,4.5,1.2c1.3,0.8,2.4,1.9,3,3.3
				c0.7,1.5,1.1,3.1,1,4.8c0,1.7-0.3,3.4-1.1,4.9c-0.7,1.4-1.8,2.5-3.1,3.3c-1.3,0.7-2.8,1.1-4.3,1.1c-1.6,0-3.2-0.4-4.5-1.2
				c-1.3-0.8-2.4-2-3-3.3C141.9,281.2,141.6,279.7,141.6,278.1z M144,278.2c-0.1,1.9,0.5,3.7,1.7,5.1c2.3,2.4,6.2,2.5,8.6,0.2
				c0.1-0.1,0.1-0.1,0.2-0.2c1.2-1.5,1.9-3.4,1.7-5.3c0-1.3-0.2-2.6-0.7-3.8c-0.5-1-1.2-1.9-2.2-2.5c-1-0.6-2.1-0.9-3.2-0.9
				c-1.6,0-3.2,0.6-4.3,1.7C144.6,273.6,144,275.5,144,278.2L144,278.2z"/>
			<path class="st4" d="M173.5,269h2.4v10.3c0.1,1.5-0.2,2.9-0.6,4.3c-0.4,1.1-1.2,2-2.2,2.6c-1.3,0.7-2.7,1.1-4.2,1
				c-1.4,0.1-2.8-0.2-4.1-0.9c-1-0.5-1.8-1.4-2.3-2.5c-0.5-1.4-0.7-3-0.7-4.5V269h2.4v10.3c-0.1,1.2,0.1,2.3,0.4,3.4
				c0.3,0.7,0.8,1.3,1.5,1.7c0.8,0.4,1.7,0.6,2.6,0.6c1.4,0.1,2.7-0.3,3.7-1.2c0.7-0.8,1.1-2.3,1.1-4.6L173.5,269z"/>
			<path class="st4" d="M179.8,286.8V269h7.9c1.2-0.1,2.5,0.1,3.6,0.5c0.8,0.3,1.5,0.9,2,1.7c0.5,0.8,0.8,1.7,0.7,2.7
				c0,1.2-0.4,2.3-1.2,3.2c-1,1-2.4,1.6-3.8,1.7c0.5,0.2,1,0.5,1.4,0.9c0.8,0.7,1.4,1.5,2,2.4l3.1,4.9h-3l-2.4-3.7
				c-0.7-1.1-1.3-1.9-1.7-2.5c-0.3-0.5-0.7-0.9-1.2-1.2c-0.3-0.2-0.7-0.4-1.1-0.5c-0.4-0.1-0.9-0.1-1.3-0.1h-2.7v7.9L179.8,286.8z
				 M182.2,276.8h5.1c0.9,0,1.7-0.1,2.5-0.3c0.6-0.2,1.1-0.6,1.4-1.1c0.3-0.5,0.5-1,0.5-1.6c0-0.8-0.3-1.6-0.9-2.1
				c-0.8-0.6-1.9-0.9-2.9-0.8h-5.7L182.2,276.8z"/>
			<path class="st4" d="M204.1,287.2l1.1-5.2h-2.1v-1.8h2.4l0.9-4.4h-3.3v-1.8h3.7l1.1-5.2h1.8l-1.1,5.2h3.8l1.1-5.2h1.8l-1.1,5.2
				h2.1v1.8H214l-0.9,4.4h3.4v1.8h-3.8l-1.1,5.2h-1.8l1.1-5.2H207l-1.1,5.2H204.1z M207.4,280.1h3.8l0.9-4.4h-3.8L207.4,280.1z"/>
			<path class="st4" d="M217.8,282.1l2.2-0.3c0.1,1,0.6,2,1.3,2.7c0.6,0.5,1.4,0.8,2.2,0.8c1,0,1.9-0.4,2.6-1.1
				c0.7-0.7,1.1-1.7,1.1-2.7c0-0.9-0.3-1.8-1-2.5c-0.7-0.7-1.6-1-2.5-1c-0.5,0-1,0.1-1.6,0.2l0.2-1.9c0.1,0,0.2,0,0.4,0
				c0.9,0,1.8-0.2,2.5-0.7c0.8-0.5,1.2-1.4,1.1-2.3c0-0.8-0.3-1.5-0.8-2c-0.6-0.5-1.3-0.8-2.1-0.8c-0.8,0-1.6,0.3-2.1,0.8
				c-0.6,0.7-1,1.5-1.1,2.4l-2.2-0.4c0.2-1.3,0.8-2.5,1.8-3.4c1-0.8,2.3-1.3,3.6-1.2c0.9,0,1.9,0.2,2.7,0.6c0.8,0.4,1.4,1,1.9,1.7
				c0.4,0.7,0.7,1.5,0.7,2.3c0,0.8-0.2,1.5-0.6,2.1c-0.5,0.7-1.1,1.2-1.8,1.5c1,0.2,1.9,0.7,2.5,1.5c0.6,0.8,0.9,1.9,0.9,2.9
				c0,1.5-0.6,3-1.7,4c-1.2,1.1-2.7,1.7-4.3,1.6c-1.4,0-2.8-0.5-3.9-1.4C218.6,284.8,217.9,283.5,217.8,282.1z"/>
		</g>
		<path class="st0" d="M359,84.8h274.6c3.2,0,5.8,2.6,5.8,5.8v45c0,3.2-2.6,5.8-5.8,5.8H359c-3.2,0-5.8-2.6-5.8-5.8v-45
			C353.1,87.4,355.7,84.8,359,84.8z"/>
		<g>
			<defs>
				<path id="SVGID_1_" d="M371.4,167.7h587.7c3.2,0,5.7,2.6,5.7,5.7v45.4c0,3.2-2.6,5.7-5.7,5.7H371.4c-3.2,0-5.7-2.6-5.7-5.7
					v-45.4C365.7,170.3,368.2,167.7,371.4,167.7z"/>
			</defs>
			<clipPath id="SVGID_00000155131419701316738600000018417484221156451213_">
				<use xlink:href="#SVGID_1_"  style="overflow:visible;"/>
			</clipPath>
			<g style="clip-path:url(#SVGID_00000155131419701316738600000018417484221156451213_);">
				<path class="st0" d="M365.7,167.7L365.7,167.7z"/>
				<rect x="365.7" y="167.7" class="st0" width="3.1" height="56.9"/>
				<rect x="368.8" y="167.7" class="st6" width="3.1" height="56.9"/>
				<rect x="371.9" y="167.7" class="st7" width="3.1" height="56.9"/>
				<rect x="375" y="167.7" class="st8" width="3.1" height="56.9"/>
				<rect x="378.1" y="167.7" class="st9" width="3.1" height="56.9"/>
				<rect x="381.3" y="167.7" class="st10" width="3.1" height="56.9"/>
				<rect x="384.4" y="167.7" class="st11" width="3.1" height="56.9"/>
				<rect x="387.5" y="167.7" class="st12" width="3.1" height="56.9"/>
				<rect x="390.6" y="167.7" class="st13" width="3.1" height="56.9"/>
				<rect x="393.8" y="167.7" class="st14" width="3.1" height="56.9"/>
				<rect x="396.9" y="167.7" class="st15" width="3.1" height="56.9"/>
				<rect x="400" y="167.7" class="st16" width="3.1" height="56.9"/>
				<rect x="403.1" y="167.7" class="st17" width="3.1" height="56.9"/>
				<rect x="406.2" y="167.7" class="st18" width="3.1" height="56.9"/>
				<rect x="409.4" y="167.7" class="st19" width="3.1" height="56.9"/>
				<rect x="412.5" y="167.7" class="st20" width="3.1" height="56.9"/>
				<rect x="415.6" y="167.7" class="st21" width="3.1" height="56.9"/>
				<rect x="418.7" y="167.7" class="st22" width="3.1" height="56.9"/>
				<rect x="421.8" y="167.7" class="st23" width="3.1" height="56.9"/>
				<rect x="425" y="167.7" class="st24" width="3.1" height="56.9"/>
				<rect x="428.1" y="167.7" class="st25" width="3.1" height="56.9"/>
				<rect x="431.2" y="167.7" class="st26" width="3.1" height="56.9"/>
				<rect x="434.3" y="167.7" class="st27" width="3.1" height="56.9"/>
				<rect x="437.4" y="167.7" class="st28" width="3.1" height="56.9"/>
				<rect x="440.6" y="167.7" class="st29" width="3.1" height="56.9"/>
				<rect x="443.7" y="167.7" class="st30" width="3.1" height="56.9"/>
				<rect x="446.8" y="167.7" class="st31" width="3.1" height="56.9"/>
				<rect x="449.9" y="167.7" class="st32" width="3.1" height="56.9"/>
				<rect x="453" y="167.7" class="st33" width="3.1" height="56.9"/>
				<rect x="456.2" y="167.7" class="st34" width="3.1" height="56.9"/>
				<rect x="459.3" y="167.7" class="st35" width="3.1" height="56.9"/>
				<rect x="462.4" y="167.7" class="st36" width="3.1" height="56.9"/>
				<rect x="465.5" y="167.7" class="st37" width="3.1" height="56.9"/>
				<rect x="468.7" y="167.7" class="st38" width="3.1" height="56.9"/>
				<rect x="471.8" y="167.7" class="st39" width="3.1" height="56.9"/>
				<rect x="474.9" y="167.7" class="st40" width="3.1" height="56.9"/>
				<rect x="478" y="167.7" class="st41" width="3.1" height="56.9"/>
				<rect x="481.1" y="167.7" class="st42" width="3.1" height="56.9"/>
				<rect x="484.3" y="167.7" class="st43" width="3.1" height="56.9"/>
				<rect x="487.4" y="167.7" class="st44" width="3.1" height="56.9"/>
				<rect x="490.5" y="167.7" class="st45" width="3.1" height="56.9"/>
				<rect x="493.6" y="167.7" class="st46" width="3.1" height="56.9"/>
				<rect x="496.7" y="167.7" class="st47" width="3.1" height="56.9"/>
				<rect x="499.9" y="167.7" class="st48" width="3.1" height="56.9"/>
				<rect x="503" y="167.7" class="st49" width="3.1" height="56.9"/>
				<rect x="506.1" y="167.7" class="st50" width="3.1" height="56.9"/>
				<rect x="509.2" y="167.7" class="st51" width="3.1" height="56.9"/>
				<rect x="512.3" y="167.7" class="st52" width="3.1" height="56.9"/>
				<rect x="515.5" y="167.7" class="st53" width="3.1" height="56.9"/>
				<rect x="518.6" y="167.7" class="st54" width="3.1" height="56.9"/>
				<rect x="521.7" y="167.7" class="st55" width="3.1" height="56.9"/>
				<rect x="524.8" y="167.7" class="st56" width="3.1" height="56.9"/>
				<rect x="527.9" y="167.7" class="st57" width="3.1" height="56.9"/>
				<rect x="531.1" y="167.7" class="st58" width="3.1" height="56.9"/>
				<rect x="534.2" y="167.7" class="st59" width="3.1" height="56.9"/>
				<rect x="537.3" y="167.7" class="st60" width="3.1" height="56.9"/>
				<rect x="540.4" y="167.7" class="st61" width="3.1" height="56.9"/>
				<rect x="543.5" y="167.7" class="st62" width="3.1" height="56.9"/>
				<rect x="546.7" y="167.7" class="st63" width="3.1" height="56.9"/>
				<rect x="549.8" y="167.7" class="st64" width="3.1" height="56.9"/>
				<rect x="552.9" y="167.7" class="st65" width="3.1" height="56.9"/>
				<rect x="556" y="167.7" class="st66" width="3.1" height="56.9"/>
				<rect x="559.2" y="167.7" class="st67" width="3.1" height="56.9"/>
				<rect x="562.3" y="167.7" class="st68" width="3.1" height="56.9"/>
				<rect x="565.4" y="167.7" class="st69" width="3.1" height="56.9"/>
				<rect x="568.5" y="167.7" class="st70" width="3.1" height="56.9"/>
				<rect x="571.6" y="167.7" class="st71" width="3.1" height="56.9"/>
				<rect x="574.8" y="167.7" class="st72" width="3.1" height="56.9"/>
				<rect x="577.9" y="167.7" class="st73" width="3.1" height="56.9"/>
				<rect x="581" y="167.7" class="st74" width="3.1" height="56.9"/>
				<rect x="584.1" y="167.7" class="st75" width="3.1" height="56.9"/>
				<rect x="587.2" y="167.7" class="st76" width="3.1" height="56.9"/>
				<rect x="590.4" y="167.7" class="st77" width="3.1" height="56.9"/>
				<rect x="593.5" y="167.7" class="st78" width="3.1" height="56.9"/>
				<rect x="596.6" y="167.7" class="st79" width="3.1" height="56.9"/>
				<rect x="599.7" y="167.7" class="st80" width="3.1" height="56.9"/>
				<rect x="602.8" y="167.7" class="st81" width="3.1" height="56.9"/>
				<rect x="606" y="167.7" class="st82" width="3.1" height="56.9"/>
				<rect x="609.1" y="167.7" class="st83" width="3.1" height="56.9"/>
				<rect x="612.2" y="167.7" class="st84" width="3.1" height="56.9"/>
				<rect x="615.3" y="167.7" class="st85" width="3.1" height="56.9"/>
				<rect x="618.4" y="167.7" class="st86" width="3.1" height="56.9"/>
				<rect x="621.6" y="167.7" class="st87" width="3.1" height="56.9"/>
				<rect x="624.7" y="167.7" class="st88" width="3.1" height="56.9"/>
				<rect x="627.8" y="167.7" class="st89" width="3.1" height="56.9"/>
				<rect x="630.9" y="167.7" class="st90" width="3.1" height="56.9"/>
				<rect x="634" y="167.7" class="st91" width="3.1" height="56.9"/>
				<rect x="637.2" y="167.7" class="st92" width="3.1" height="56.9"/>
				<rect x="640.3" y="167.7" class="st93" width="3.1" height="56.9"/>
				<rect x="643.4" y="167.7" class="st94" width="3.1" height="56.9"/>
				<rect x="646.5" y="167.7" class="st95" width="3.1" height="56.9"/>
				<rect x="649.7" y="167.7" class="st96" width="3.1" height="56.9"/>
				<rect x="652.8" y="167.7" class="st97" width="3.1" height="56.9"/>
				<rect x="655.9" y="167.7" class="st98" width="3.1" height="56.9"/>
				<rect x="659" y="167.7" class="st99" width="3.1" height="56.9"/>
				<rect x="662.1" y="167.7" class="st100" width="3.1" height="56.9"/>
				<rect x="665.3" y="167.7" class="st101" width="3.1" height="56.9"/>
				<rect x="668.4" y="167.7" class="st102" width="3.1" height="56.9"/>
				<rect x="671.5" y="167.7" class="st103" width="3.1" height="56.9"/>
				<rect x="674.6" y="167.7" class="st104" width="3.1" height="56.9"/>
				<rect x="677.7" y="167.7" class="st105" width="3.1" height="56.9"/>
				<rect x="680.9" y="167.7" class="st106" width="3.1" height="56.9"/>
				<rect x="684" y="167.7" class="st107" width="3.1" height="56.9"/>
				<rect x="687.1" y="167.7" class="st108" width="3.1" height="56.9"/>
				<rect x="690.2" y="167.7" class="st109" width="3.1" height="56.9"/>
				<rect x="693.3" y="167.7" class="st110" width="3.1" height="56.9"/>
				<rect x="696.5" y="167.7" class="st111" width="3.1" height="56.9"/>
				<rect x="699.6" y="167.7" class="st112" width="3.1" height="56.9"/>
				<rect x="702.7" y="167.7" class="st113" width="3.1" height="56.9"/>
				<rect x="705.8" y="167.7" class="st114" width="3.1" height="56.9"/>
				<rect x="708.9" y="167.7" class="st115" width="3.1" height="56.9"/>
				<rect x="712.1" y="167.7" class="st116" width="3.1" height="56.9"/>
				<rect x="715.2" y="167.7" class="st117" width="3.1" height="56.9"/>
				<rect x="718.3" y="167.7" class="st118" width="3.1" height="56.9"/>
				<rect x="721.4" y="167.7" class="st119" width="3.1" height="56.9"/>
				<rect x="724.5" y="167.7" class="st120" width="3.1" height="56.9"/>
				<rect x="727.7" y="167.7" class="st121" width="3.1" height="56.9"/>
				<rect x="730.8" y="167.7" class="st122" width="3.1" height="56.9"/>
				<rect x="733.9" y="167.7" class="st123" width="3.1" height="56.9"/>
				<rect x="737" y="167.7" class="st124" width="3.1" height="56.9"/>
				<rect x="740.2" y="167.7" class="st125" width="3.1" height="56.9"/>
				<rect x="743.3" y="167.7" class="st126" width="3.1" height="56.9"/>
				<rect x="746.4" y="167.7" class="st127" width="3.1" height="56.9"/>
				<rect x="749.5" y="167.7" class="st128" width="3.1" height="56.9"/>
				<rect x="752.6" y="167.7" class="st129" width="3.1" height="56.9"/>
				<rect x="755.8" y="167.7" class="st130" width="3.1" height="56.9"/>
				<rect x="758.9" y="167.7" class="st131" width="3.1" height="56.9"/>
				<rect x="762" y="167.7" class="st132" width="3.1" height="56.9"/>
				<rect x="765.1" y="167.7" class="st133" width="3.1" height="56.9"/>
				<rect x="768.2" y="167.7" class="st134" width="3.1" height="56.9"/>
				<rect x="771.4" y="167.7" class="st135" width="3.1" height="56.9"/>
				<rect x="774.5" y="167.7" class="st136" width="3.1" height="56.9"/>
				<rect x="777.6" y="167.7" class="st137" width="3.1" height="56.9"/>
				<rect x="780.7" y="167.7" class="st138" width="3.1" height="56.9"/>
				<rect x="783.8" y="167.7" class="st139" width="3.1" height="56.9"/>
				<rect x="787" y="167.7" class="st140" width="3.1" height="56.9"/>
				<rect x="790.1" y="167.7" class="st141" width="3.1" height="56.9"/>
				<rect x="793.2" y="167.7" class="st142" width="3.1" height="56.9"/>
				<rect x="796.3" y="167.7" class="st143" width="3.1" height="56.9"/>
				<rect x="799.4" y="167.7" class="st144" width="3.1" height="56.9"/>
				<rect x="802.6" y="167.7" class="st145" width="3.1" height="56.9"/>
				<rect x="805.7" y="167.7" class="st146" width="3.1" height="56.9"/>
				<rect x="808.8" y="167.7" class="st147" width="3.1" height="56.9"/>
				<rect x="811.9" y="167.7" class="st148" width="3.1" height="56.9"/>
				<rect x="815.1" y="167.7" class="st149" width="3.1" height="56.9"/>
				<rect x="818.2" y="167.7" class="st150" width="3.1" height="56.9"/>
				<rect x="821.3" y="167.7" class="st151" width="3.1" height="56.9"/>
				<rect x="824.4" y="167.7" class="st152" width="3.1" height="56.9"/>
				<rect x="827.5" y="167.7" class="st153" width="3.1" height="56.9"/>
				<rect x="830.7" y="167.7" class="st154" width="3.1" height="56.9"/>
				<rect x="833.8" y="167.7" class="st155" width="3.1" height="56.9"/>
				<rect x="836.9" y="167.7" class="st156" width="3.1" height="56.9"/>
				<rect x="840" y="167.7" class="st157" width="3.1" height="56.9"/>
				<rect x="843.1" y="167.7" class="st158" width="3.1" height="56.9"/>
				<rect x="846.3" y="167.7" class="st159" width="3.1" height="56.9"/>
				<rect x="849.4" y="167.7" class="st159" width="3.1" height="56.9"/>
				<rect x="852.5" y="167.7" class="st160" width="3.1" height="56.9"/>
				<rect x="855.6" y="167.7" class="st161" width="3.1" height="56.9"/>
				<rect x="858.7" y="167.7" class="st162" width="3.1" height="56.9"/>
				<rect x="861.9" y="167.7" class="st163" width="3.1" height="56.9"/>
				<rect x="865" y="167.7" class="st164" width="3.1" height="56.9"/>
				<rect x="868.1" y="167.7" class="st164" width="3.1" height="56.9"/>
				<rect x="871.2" y="167.7" class="st165" width="3.1" height="56.9"/>
				<rect x="874.3" y="167.7" class="st166" width="3.1" height="56.9"/>
				<rect x="877.5" y="167.7" class="st167" width="3.1" height="56.9"/>
				<rect x="880.6" y="167.7" class="st168" width="3.1" height="56.9"/>
				<rect x="883.7" y="167.7" class="st169" width="3.1" height="56.9"/>
				<rect x="886.8" y="167.7" class="st170" width="3.1" height="56.9"/>
				<rect x="889.9" y="167.7" class="st171" width="3.1" height="56.9"/>
				<rect x="893.1" y="167.7" class="st172" width="3.1" height="56.9"/>
				<rect x="896.2" y="167.7" class="st173" width="3.1" height="56.9"/>
				<rect x="899.3" y="167.7" class="st174" width="3.1" height="56.9"/>
				<rect x="902.4" y="167.7" class="st175" width="3.1" height="56.9"/>
				<rect x="905.6" y="167.7" class="st176" width="3.1" height="56.9"/>
				<rect x="908.7" y="167.7" class="st177" width="3.1" height="56.9"/>
				<rect x="911.8" y="167.7" class="st177" width="3.1" height="56.9"/>
				<rect x="914.9" y="167.7" class="st178" width="3.1" height="56.9"/>
				<rect x="918" y="167.7" class="st179" width="3.1" height="56.9"/>
				<rect x="921.2" y="167.7" class="st180" width="3.1" height="56.9"/>
				<rect x="924.3" y="167.7" class="st180" width="3.1" height="56.9"/>
				<rect x="927.4" y="167.7" class="st181" width="3.1" height="56.9"/>
				<rect x="930.5" y="167.7" class="st182" width="3.1" height="56.9"/>
				<rect x="933.6" y="167.7" class="st183" width="3.1" height="56.9"/>
				<rect x="936.8" y="167.7" class="st184" width="3.1" height="56.9"/>
				<rect x="939.9" y="167.7" class="st184" width="3.1" height="56.9"/>
				<rect x="943" y="167.7" class="st185" width="3.1" height="56.9"/>
				<rect x="946.1" y="167.7" class="st186" width="3.1" height="56.9"/>
				<rect x="949.2" y="167.7" class="st187" width="3.1" height="56.9"/>
				<rect x="952.4" y="167.7" class="st188" width="3.1" height="56.9"/>
				<rect x="955.5" y="167.7" class="st188" width="3.1" height="56.9"/>
				<rect x="958.6" y="167.7" class="st189" width="3.1" height="56.9"/>
				<rect x="961.7" y="167.7" class="st189" width="3.1" height="56.9"/>
				<path class="st189" d="M964.8,224.6L964.8,224.6z"/>
			</g>
		</g>
		<g>
			<path class="st4" d="M438,116.9l2.4,0.6c-0.4,1.7-1.3,3.3-2.7,4.4c-1.4,1-3,1.6-4.7,1.5c-1.6,0.1-3.3-0.3-4.7-1.2
				c-1.2-0.8-2.2-2-2.8-3.4c-0.6-1.5-1-3.2-0.9-4.8c0-1.7,0.3-3.4,1.1-4.9c0.7-1.3,1.7-2.4,3-3.2c1.3-0.7,2.8-1.1,4.3-1.1
				c1.6-0.1,3.2,0.4,4.5,1.4c1.3,1,2.2,2.3,2.6,3.8l-2.3,0.5c-0.3-1.1-0.9-2.1-1.8-2.8c-0.9-0.6-1.9-0.9-3-0.9c-1.2,0-2.4,0.3-3.4,1
				c-0.9,0.7-1.6,1.6-1.9,2.7c-0.4,1.1-0.6,2.3-0.6,3.4c0,1.4,0.2,2.7,0.7,4c0.4,1.1,1.1,2,2.1,2.5c0.9,0.6,2,0.8,3,0.8
				c1.2,0,2.4-0.4,3.4-1.1C437.1,119.4,437.8,118.2,438,116.9z"/>
			<path class="st4" d="M451.7,116.1V114l7.6,0v6.6c-1.1,0.9-2.3,1.6-3.6,2.1c-1.2,0.5-2.5,0.7-3.8,0.7c-1.7,0-3.3-0.4-4.8-1.1
				c-1.4-0.7-2.5-1.9-3.3-3.3c-0.7-1.5-1.1-3.1-1.1-4.8c0-1.7,0.4-3.4,1.1-4.9c0.7-1.4,1.8-2.6,3.1-3.4c1.5-0.8,3.1-1.1,4.7-1.1
				c1.2,0,2.4,0.2,3.5,0.6c1,0.4,1.8,1,2.5,1.8c0.7,0.9,1.1,1.9,1.4,2.9l-2.1,0.6c-0.2-0.8-0.5-1.5-1-2.1c-0.5-0.6-1-1-1.7-1.3
				c-0.8-0.3-1.6-0.5-2.5-0.5c-1,0-1.9,0.1-2.8,0.5c-0.7,0.3-1.4,0.7-1.9,1.3c-0.5,0.5-0.9,1.1-1.1,1.8c-0.5,1.1-0.7,2.4-0.7,3.6
				c0,1.4,0.2,2.8,0.8,4c0.5,1,1.4,1.9,2.4,2.4c1,0.5,2.2,0.8,3.3,0.8c1,0,2-0.2,3-0.6c0.8-0.3,1.6-0.7,2.2-1.3v-3.3L451.7,116.1z"
				/>
			<path class="st4" d="M462.8,123.2v-17.9h7.9c1.2-0.1,2.5,0.1,3.6,0.5c0.8,0.3,1.5,0.9,2,1.7c0.5,0.8,0.8,1.7,0.7,2.7
				c0,1.2-0.4,2.3-1.2,3.2c-1,1-2.4,1.6-3.8,1.7c0.5,0.2,1,0.5,1.4,0.9c0.8,0.7,1.4,1.5,2,2.4l3.1,4.9h-3l-2.4-3.7
				c-0.7-1.1-1.3-1.9-1.7-2.5c-0.3-0.5-0.7-0.9-1.2-1.2c-0.3-0.2-0.7-0.4-1.1-0.5c-0.4-0.1-0.9-0.1-1.3-0.1h-2.7v7.9L462.8,123.2z
				 M465.2,113.2h5.1c0.9,0,1.7-0.1,2.5-0.3c0.6-0.2,1.1-0.6,1.4-1.1c0.3-0.5,0.5-1,0.5-1.6c0-0.8-0.3-1.6-0.9-2.1
				c-0.8-0.6-1.9-0.9-2.9-0.8h-5.7L465.2,113.2z"/>
			<path class="st4" d="M480.1,114.4c-0.1-2.5,0.7-5.1,2.4-7c1.6-1.7,3.9-2.6,6.2-2.5c1.6,0,3.1,0.4,4.5,1.2c1.3,0.8,2.4,1.9,3,3.3
				c0.7,1.5,1.1,3.1,1,4.8c0,1.7-0.3,3.4-1.1,4.9c-0.7,1.4-1.8,2.5-3.1,3.3c-1.3,0.7-2.8,1.1-4.3,1.1c-1.6,0-3.2-0.4-4.5-1.2
				c-1.3-0.8-2.4-2-3-3.3C480.4,117.5,480.1,116,480.1,114.4z M482.5,114.5c-0.1,1.9,0.5,3.7,1.7,5.1c2.3,2.4,6.2,2.5,8.6,0.2
				c0.1-0.1,0.1-0.1,0.2-0.2c1.2-1.5,1.9-3.4,1.7-5.3c0-1.3-0.2-2.6-0.7-3.8c-0.5-1-1.2-1.9-2.2-2.5c-1-0.6-2.1-0.9-3.2-0.9
				c-1.6,0-3.2,0.6-4.3,1.7C483.1,109.9,482.5,111.8,482.5,114.5L482.5,114.5z"/>
			<path class="st4" d="M512,105.3h2.4v10.3c0.1,1.5-0.2,2.9-0.6,4.3c-0.4,1.1-1.2,2-2.2,2.6c-1.3,0.7-2.7,1.1-4.2,1
				c-1.4,0.1-2.8-0.2-4.1-0.9c-1-0.5-1.8-1.4-2.3-2.5c-0.5-1.4-0.7-3-0.7-4.5v-10.3h2.4v10.3c-0.1,1.2,0.1,2.3,0.4,3.4
				c0.3,0.7,0.8,1.3,1.5,1.7c0.8,0.4,1.7,0.6,2.6,0.6c1.4,0.1,2.7-0.3,3.7-1.2c0.7-0.8,1.1-2.3,1.1-4.6L512,105.3z"/>
			<path class="st4" d="M518.3,123.2v-17.9h7.9c1.2-0.1,2.5,0.1,3.6,0.5c0.8,0.3,1.5,0.9,2,1.7c0.5,0.8,0.8,1.7,0.7,2.7
				c0,1.2-0.4,2.3-1.2,3.2c-1,1-2.4,1.6-3.8,1.7c0.5,0.2,1,0.5,1.4,0.9c0.8,0.7,1.4,1.5,2,2.4l3.1,4.9h-3l-2.4-3.7
				c-0.7-1.1-1.3-1.9-1.7-2.5c-0.3-0.5-0.7-0.9-1.2-1.2c-0.3-0.2-0.7-0.4-1.1-0.5c-0.4-0.1-0.9-0.1-1.3-0.1h-2.7v7.9L518.3,123.2z
				 M520.7,113.2h5.1c0.9,0,1.7-0.1,2.5-0.3c0.6-0.2,1.1-0.6,1.4-1.1c0.3-0.5,0.5-1,0.5-1.6c0-0.8-0.3-1.6-0.9-2.1
				c-0.8-0.6-1.9-0.9-2.9-0.8h-5.7L520.7,113.2z"/>
			<path class="st4" d="M542.6,123.5l1.1-5.2h-2.1v-1.8h2.4l0.9-4.4h-3.3v-1.8h3.7l1.1-5.2h1.8l-1.1,5.2h3.8l1.1-5.2h1.8l-1.1,5.2
				h2.1v1.8h-2.5l-0.9,4.4h3.4v1.8h-3.8l-1.1,5.2h-1.8l1-5.2h-3.8l-1.1,5.2H542.6z M545.9,116.4h3.8l0.9-4.4h-3.8L545.9,116.4z"/>
			<path class="st4" d="M563.4,123.2v-4.3h-7.8v-2l8.2-11.6h1.8v11.6h2.4v2h-2.4v4.3H563.4z M563.4,116.9v-8.1l-5.6,8.1H563.4z"/>
		</g>
		<g>
			<path class="st4" d="M607,199.1l2.4,0.6c-0.4,1.7-1.3,3.3-2.7,4.4c-1.4,1-3,1.6-4.7,1.5c-1.6,0.1-3.3-0.3-4.7-1.2
				c-1.2-0.8-2.2-2-2.8-3.4c-0.6-1.5-1-3.2-0.9-4.8c0-1.7,0.3-3.4,1.1-4.9c0.7-1.3,1.7-2.4,3-3.2c1.3-0.7,2.8-1.1,4.3-1.1
				c1.6-0.1,3.2,0.4,4.5,1.4c1.3,1,2.2,2.3,2.6,3.8l-2.3,0.5c-0.3-1.1-0.9-2.1-1.8-2.8c-0.9-0.6-1.9-0.9-3-0.9c-1.2,0-2.4,0.3-3.4,1
				c-0.9,0.7-1.6,1.6-1.9,2.7c-0.4,1.1-0.6,2.3-0.6,3.4c0,1.4,0.2,2.7,0.7,4c0.4,1.1,1.1,2,2.1,2.5c0.9,0.6,2,0.8,3,0.8
				c1.2,0,2.4-0.4,3.4-1.1C606.1,201.6,606.8,200.4,607,199.1z"/>
			<path class="st4" d="M620.7,198.3v-2.1l7.6,0v6.6c-1.1,0.9-2.3,1.6-3.6,2.1c-1.2,0.5-2.5,0.7-3.8,0.7c-1.7,0-3.3-0.4-4.8-1.1
				c-1.4-0.7-2.5-1.9-3.3-3.3c-0.7-1.5-1.1-3.1-1.1-4.8c0-1.7,0.4-3.4,1.1-4.9c0.7-1.4,1.8-2.6,3.1-3.4c1.5-0.8,3.1-1.1,4.7-1.1
				c1.2,0,2.4,0.2,3.5,0.6c1,0.4,1.8,1,2.5,1.8c0.7,0.9,1.1,1.9,1.4,2.9l-2.1,0.6c-0.2-0.8-0.5-1.5-1-2.1c-0.5-0.6-1-1-1.7-1.3
				c-0.8-0.3-1.6-0.5-2.5-0.5c-1,0-1.9,0.1-2.8,0.5c-0.7,0.3-1.4,0.7-1.9,1.3c-0.5,0.5-0.9,1.1-1.1,1.8c-0.5,1.1-0.7,2.4-0.7,3.6
				c0,1.4,0.2,2.8,0.8,4c0.5,1,1.4,1.9,2.4,2.4c1,0.5,2.2,0.8,3.3,0.8c1,0,2-0.2,3-0.6c0.8-0.3,1.6-0.7,2.2-1.3v-3.3L620.7,198.3z"
				/>
			<path class="st4" d="M631.8,205.3v-17.9h7.9c1.2-0.1,2.5,0.1,3.6,0.5c0.8,0.3,1.5,0.9,2,1.7c0.5,0.8,0.8,1.7,0.7,2.7
				c0,1.2-0.4,2.3-1.2,3.2c-1,1-2.4,1.6-3.8,1.7c0.5,0.2,1,0.5,1.4,0.9c0.8,0.7,1.4,1.5,2,2.4l3.1,4.9h-3l-2.4-3.7
				c-0.7-1.1-1.3-1.9-1.7-2.5c-0.3-0.5-0.7-0.9-1.2-1.2c-0.3-0.2-0.7-0.4-1.1-0.5c-0.4-0.1-0.9-0.1-1.3-0.1h-2.7v7.9L631.8,205.3z
				 M634.2,195.3h5.1c0.9,0,1.7-0.1,2.5-0.3c0.6-0.2,1.1-0.6,1.4-1.1c0.3-0.5,0.5-1,0.5-1.6c0-0.8-0.3-1.6-0.9-2.1
				c-0.8-0.6-1.9-0.9-2.9-0.8h-5.7L634.2,195.3z"/>
			<path class="st4" d="M649.1,196.6c-0.1-2.5,0.7-5.1,2.4-7c1.6-1.7,3.9-2.6,6.2-2.5c1.6,0,3.1,0.4,4.5,1.2c1.3,0.8,2.4,1.9,3,3.3
				c0.7,1.5,1.1,3.1,1,4.8c0,1.7-0.3,3.4-1.1,4.9c-0.7,1.4-1.8,2.5-3.1,3.3c-1.3,0.7-2.8,1.1-4.3,1.1c-1.6,0-3.2-0.4-4.5-1.2
				c-1.3-0.8-2.4-2-3-3.3C649.4,199.7,649.1,198.2,649.1,196.6z M651.5,196.7c-0.1,1.9,0.5,3.7,1.7,5.1c2.3,2.4,6.2,2.5,8.6,0.2
				c0.1-0.1,0.1-0.1,0.2-0.2c1.2-1.5,1.9-3.4,1.7-5.3c0-1.3-0.2-2.6-0.7-3.8c-0.5-1-1.2-1.9-2.2-2.5c-1-0.6-2.1-0.9-3.2-0.9
				c-1.6,0-3.2,0.6-4.3,1.7C652.1,192,651.5,194,651.5,196.7L651.5,196.7z"/>
			<path class="st4" d="M681,187.4h2.4v10.3c0.1,1.5-0.2,2.9-0.6,4.3c-0.4,1.1-1.2,2-2.2,2.6c-1.3,0.7-2.7,1.1-4.2,1
				c-1.4,0.1-2.8-0.2-4.1-0.9c-1-0.5-1.8-1.4-2.3-2.5c-0.5-1.4-0.7-3-0.7-4.5v-10.3h2.4v10.3c-0.1,1.2,0.1,2.3,0.4,3.4
				c0.3,0.7,0.8,1.3,1.5,1.7c0.8,0.4,1.7,0.6,2.6,0.6c1.4,0.1,2.7-0.3,3.7-1.2c0.7-0.8,1.1-2.3,1.1-4.6L681,187.4z"/>
			<path class="st4" d="M687.3,205.3v-17.9h7.9c1.2-0.1,2.5,0.1,3.6,0.5c0.8,0.3,1.5,0.9,2,1.7c0.5,0.8,0.8,1.7,0.7,2.7
				c0,1.2-0.4,2.3-1.2,3.2c-1,1-2.4,1.6-3.8,1.7c0.5,0.2,1,0.5,1.4,0.9c0.8,0.7,1.4,1.5,2,2.4l3.1,4.9h-3l-2.4-3.7
				c-0.7-1.1-1.3-1.9-1.7-2.5c-0.3-0.5-0.7-0.9-1.2-1.2c-0.3-0.2-0.7-0.4-1.1-0.5c-0.4-0.1-0.9-0.1-1.3-0.1h-2.7v7.9L687.3,205.3z
				 M689.7,195.3h5.1c0.9,0,1.7-0.1,2.5-0.3c0.6-0.2,1.1-0.6,1.4-1.1c0.3-0.5,0.5-1,0.5-1.6c0-0.8-0.3-1.6-0.9-2.1
				c-0.8-0.6-1.9-0.9-2.9-0.8h-5.7L689.7,195.3z"/>
			<path class="st4" d="M711.6,205.6l1.1-5.2h-2.1v-1.8h2.4l0.9-4.4h-3.3v-1.8h3.7l1.1-5.2h1.8l-1.1,5.2h3.8l1.1-5.2h1.8l-1.1,5.2
				h2.1v1.8h-2.5l-0.9,4.4h3.4v1.8h-3.8l-1.1,5.2h-1.8l1-5.2h-3.8l-1.1,5.2H711.6z M714.9,198.6h3.8l0.9-4.4h-3.8L714.9,198.6z"/>
			<path class="st4" d="M725.3,200.7l2.3-0.2c0.1,1,0.5,1.9,1.2,2.5c0.6,0.6,1.4,0.9,2.3,0.8c1,0,2-0.4,2.7-1.2
				c0.8-0.9,1.2-2,1.1-3.2c0.1-1.1-0.3-2.2-1.1-3c-0.7-0.7-1.7-1.1-2.8-1.1c-0.7,0-1.3,0.2-1.9,0.5c-0.5,0.3-1,0.7-1.3,1.3l-2.1-0.3
				l1.7-9.2h8.9v2.1h-7.1l-1,4.8c1-0.7,2.2-1.1,3.4-1.1c1.5,0,2.9,0.6,4,1.6c1.1,1.1,1.7,2.6,1.6,4.2c0,1.5-0.5,3-1.4,4.2
				c-1.1,1.4-2.9,2.2-4.7,2.2c-1.5,0.1-2.9-0.4-4-1.4C726,203.3,725.4,202,725.3,200.7z"/>
		</g>
		<path class="st1" d="M700.5,84.7h275c3.2,0,5.8,2.6,5.8,5.8v45.2c0,3.2-2.6,5.8-5.8,5.8h-275c-3.2,0-5.8-2.6-5.8-5.8V90.5
			C694.6,87.3,697.2,84.7,700.5,84.7z"/>
		<path class="st1" d="M700.5,247.7h275c3.2,0,5.8,2.6,5.8,5.8v45.2c0,3.2-2.6,5.8-5.8,5.8h-275c-3.2,0-5.8-2.6-5.8-5.8v-45.2
			C694.6,250.3,697.2,247.7,700.5,247.7z"/>
		<g>
			<path class="st4" d="M779.7,116.9l2.4,0.6c-0.4,1.7-1.3,3.3-2.7,4.4c-1.4,1-3,1.6-4.7,1.5c-1.6,0.1-3.3-0.3-4.7-1.2
				c-1.2-0.8-2.2-2-2.8-3.4c-0.6-1.5-1-3.2-0.9-4.8c0-1.7,0.3-3.4,1.1-4.9c0.7-1.3,1.7-2.4,3-3.2c1.3-0.7,2.8-1.1,4.3-1.1
				c1.6-0.1,3.2,0.4,4.5,1.4c1.3,1,2.2,2.3,2.6,3.8l-2.3,0.5c-0.3-1.1-0.9-2.1-1.8-2.8c-0.9-0.6-1.9-0.9-3-0.9c-1.2,0-2.4,0.3-3.4,1
				c-0.9,0.7-1.6,1.6-1.9,2.7c-0.4,1.1-0.6,2.3-0.6,3.4c0,1.4,0.2,2.7,0.7,4c0.4,1.1,1.1,2,2.1,2.5c0.9,0.6,2,0.8,3,0.8
				c1.2,0,2.4-0.4,3.4-1.1C778.8,119.4,779.5,118.2,779.7,116.9z"/>
			<path class="st4" d="M793.4,116.1V114l7.6,0v6.6c-1.1,0.9-2.3,1.6-3.6,2.1c-1.2,0.5-2.5,0.7-3.8,0.7c-1.7,0-3.3-0.4-4.8-1.1
				c-1.4-0.7-2.5-1.9-3.3-3.3c-0.7-1.5-1.1-3.1-1.1-4.8c0-1.7,0.4-3.4,1.1-4.9c0.7-1.4,1.8-2.6,3.1-3.4c1.5-0.8,3.1-1.1,4.7-1.1
				c1.2,0,2.4,0.2,3.5,0.6c1,0.4,1.8,1,2.5,1.8c0.7,0.9,1.1,1.9,1.4,2.9l-2.1,0.6c-0.2-0.8-0.5-1.5-1-2.1c-0.5-0.6-1-1-1.7-1.3
				c-0.8-0.3-1.6-0.5-2.5-0.5c-1,0-1.9,0.1-2.8,0.5c-0.7,0.3-1.4,0.7-1.9,1.3c-0.5,0.5-0.9,1.1-1.1,1.8c-0.5,1.1-0.7,2.4-0.7,3.6
				c0,1.4,0.2,2.8,0.8,4c0.5,1,1.4,1.9,2.4,2.4c1,0.5,2.2,0.8,3.3,0.8c1,0,2-0.2,3-0.6c0.8-0.3,1.6-0.7,2.2-1.3v-3.3L793.4,116.1z"
				/>
			<path class="st4" d="M804.5,123.2v-17.9h7.9c1.2-0.1,2.5,0.1,3.6,0.5c0.8,0.3,1.5,0.9,2,1.7c0.5,0.8,0.8,1.7,0.7,2.7
				c0,1.2-0.4,2.3-1.2,3.2c-1,1-2.4,1.6-3.8,1.7c0.5,0.2,1,0.5,1.4,0.9c0.8,0.7,1.4,1.5,2,2.4l3.1,4.9h-3l-2.4-3.7
				c-0.7-1.1-1.3-1.9-1.7-2.5c-0.3-0.5-0.7-0.9-1.2-1.2c-0.3-0.2-0.7-0.4-1.1-0.5c-0.4-0.1-0.9-0.1-1.3-0.1h-2.7v7.9L804.5,123.2z
				 M806.9,113.2h5.1c0.9,0,1.7-0.1,2.5-0.3c0.6-0.2,1.1-0.6,1.4-1.1c0.3-0.5,0.5-1,0.5-1.6c0-0.8-0.3-1.6-0.9-2.1
				c-0.8-0.6-1.9-0.9-2.9-0.8h-5.7L806.9,113.2z"/>
			<path class="st4" d="M821.8,114.4c-0.1-2.5,0.7-5.1,2.4-7c1.6-1.7,3.9-2.6,6.2-2.5c1.6,0,3.1,0.4,4.5,1.2c1.3,0.8,2.4,1.9,3,3.3
				c0.7,1.5,1.1,3.1,1,4.8c0,1.7-0.3,3.4-1.1,4.9c-0.7,1.4-1.8,2.5-3.1,3.3c-1.3,0.7-2.8,1.1-4.3,1.1c-1.6,0-3.2-0.4-4.5-1.2
				c-1.3-0.8-2.4-2-3-3.3C822.1,117.5,821.8,116,821.8,114.4z M824.2,114.5c-0.1,1.9,0.5,3.7,1.7,5.1c2.3,2.4,6.2,2.5,8.6,0.2
				c0.1-0.1,0.1-0.1,0.2-0.2c1.2-1.5,1.9-3.4,1.7-5.3c0-1.3-0.2-2.6-0.7-3.8c-0.5-1-1.2-1.9-2.2-2.5c-1-0.6-2.1-0.9-3.2-0.9
				c-1.6,0-3.2,0.6-4.3,1.7C824.8,109.9,824.2,111.8,824.2,114.5z"/>
			<path class="st4" d="M853.7,105.3h2.4v10.3c0.1,1.5-0.2,2.9-0.6,4.3c-0.4,1.1-1.2,2-2.2,2.6c-1.3,0.7-2.7,1.1-4.2,1
				c-1.4,0.1-2.8-0.2-4.1-0.9c-1-0.5-1.8-1.4-2.3-2.5c-0.5-1.4-0.7-3-0.7-4.5v-10.3h2.4v10.3c-0.1,1.2,0.1,2.3,0.4,3.4
				c0.3,0.7,0.8,1.3,1.5,1.7c0.8,0.4,1.7,0.6,2.6,0.6c1.4,0.1,2.7-0.3,3.7-1.2c0.7-0.8,1.1-2.3,1.1-4.6L853.7,105.3z"/>
			<path class="st4" d="M860,123.2v-17.9h7.9c1.2-0.1,2.5,0.1,3.6,0.5c0.8,0.3,1.5,0.9,2,1.7c0.5,0.8,0.8,1.7,0.7,2.7
				c0,1.2-0.4,2.3-1.2,3.2c-1,1-2.4,1.6-3.8,1.7c0.5,0.2,1,0.5,1.4,0.9c0.8,0.7,1.4,1.5,2,2.4l3.1,4.9h-3l-2.4-3.7
				c-0.7-1.1-1.3-1.9-1.7-2.5c-0.3-0.5-0.7-0.9-1.2-1.2c-0.3-0.2-0.7-0.4-1.1-0.5c-0.4-0.1-0.9-0.1-1.3-0.1h-2.7v7.9L860,123.2z
				 M862.4,113.2h5.1c0.9,0,1.7-0.1,2.5-0.3c0.6-0.2,1.1-0.6,1.4-1.1c0.3-0.5,0.5-1,0.5-1.6c0-0.8-0.3-1.6-0.9-2.1
				c-0.8-0.6-1.9-0.9-2.9-0.8h-5.7L862.4,113.2z"/>
			<path class="st4" d="M884.3,123.5l1.1-5.2h-2.1v-1.8h2.4l0.9-4.4h-3.3v-1.8h3.7l1.1-5.2h1.8l-1.1,5.2h3.8l1.1-5.2h1.8l-1.1,5.2
				h2.1v1.8h-2.5l-0.9,4.4h3.4v1.8h-3.8l-1.1,5.2H890l1-5.2h-3.8l-1.1,5.2H884.3z M887.6,116.4h3.8l0.9-4.4h-3.8L887.6,116.4z"/>
			<path class="st4" d="M909.4,109.6l-2.2,0.2c-0.1-0.7-0.4-1.3-0.8-1.9c-0.6-0.6-1.4-1-2.2-0.9c-0.7,0-1.3,0.2-1.8,0.6
				c-0.7,0.6-1.3,1.3-1.6,2.2c-0.5,1.3-0.7,2.7-0.6,4.1c0.5-0.8,1.1-1.4,1.9-1.8c0.7-0.4,1.6-0.6,2.4-0.6c1.4,0,2.8,0.6,3.7,1.6
				c1.1,1.1,1.6,2.6,1.5,4.2c0,1.1-0.2,2.2-0.7,3.1c-0.4,0.9-1.1,1.7-2,2.2c-0.9,0.5-1.9,0.8-2.9,0.8c-1.7,0-3.4-0.7-4.5-2
				c-1.2-1.3-1.7-3.6-1.7-6.7c0-3.5,0.6-6,1.9-7.5c1.1-1.4,2.8-2.1,4.5-2.1C907,105,909.2,107,909.4,109.6z M900.4,117.4
				c0,0.8,0.2,1.5,0.5,2.2c0.3,0.6,0.8,1.2,1.3,1.6c0.5,0.4,1.2,0.5,1.8,0.5c0.9,0,1.8-0.4,2.4-1.1c0.7-0.9,1.1-1.9,1-3.1
				c0.1-1.1-0.3-2.1-1-2.9c-0.6-0.7-1.5-1.1-2.5-1.1c-1,0-1.9,0.4-2.5,1.1C900.8,115.3,900.4,116.3,900.4,117.4L900.4,117.4z"/>
		</g>
		<g>
			<path class="st4" d="M779.7,280.6l2.4,0.6c-0.4,1.7-1.3,3.3-2.7,4.4c-1.4,1-3,1.6-4.7,1.5c-1.6,0.1-3.3-0.3-4.7-1.2
				c-1.2-0.8-2.2-2-2.8-3.4c-0.6-1.5-1-3.2-0.9-4.8c0-1.7,0.3-3.4,1.1-4.9c0.7-1.3,1.7-2.4,3-3.2c1.3-0.7,2.8-1.1,4.3-1.1
				c1.6-0.1,3.2,0.4,4.5,1.4c1.3,1,2.2,2.3,2.6,3.8l-2.3,0.5c-0.3-1.1-0.9-2.1-1.8-2.8c-0.9-0.6-1.9-0.9-3-0.9c-1.2,0-2.4,0.3-3.4,1
				c-0.9,0.7-1.6,1.6-1.9,2.7c-0.4,1.1-0.6,2.3-0.6,3.4c0,1.4,0.2,2.7,0.7,4c0.4,1.1,1.1,2,2.1,2.5c0.9,0.6,2,0.8,3,0.8
				c1.2,0,2.4-0.4,3.4-1.1C778.8,283.1,779.5,281.9,779.7,280.6z"/>
			<path class="st4" d="M793.4,279.8v-2.1l7.6,0v6.6c-1.1,0.9-2.3,1.6-3.6,2.1c-1.2,0.5-2.5,0.7-3.8,0.7c-1.7,0-3.3-0.4-4.8-1.1
				c-1.4-0.7-2.5-1.9-3.3-3.3c-0.7-1.5-1.1-3.1-1.1-4.8c0-1.7,0.4-3.4,1.1-4.9c0.7-1.4,1.8-2.6,3.1-3.4c1.5-0.8,3.1-1.1,4.7-1.1
				c1.2,0,2.4,0.2,3.5,0.6c1,0.4,1.8,1,2.5,1.8c0.7,0.9,1.1,1.9,1.4,2.9l-2.1,0.6c-0.2-0.8-0.5-1.5-1-2.1c-0.5-0.6-1-1-1.7-1.3
				c-0.8-0.3-1.6-0.5-2.5-0.5c-1,0-1.9,0.1-2.8,0.5c-0.7,0.3-1.4,0.7-1.9,1.3c-0.5,0.5-0.9,1.1-1.1,1.8c-0.5,1.1-0.7,2.4-0.7,3.6
				c0,1.4,0.2,2.8,0.8,4c0.5,1,1.4,1.9,2.4,2.4c1,0.5,2.2,0.8,3.3,0.8c1,0,2-0.2,3-0.6c0.8-0.3,1.6-0.7,2.2-1.3v-3.3L793.4,279.8z"
				/>
			<path class="st4" d="M804.5,286.8V269h7.9c1.2-0.1,2.5,0.1,3.6,0.5c0.8,0.3,1.5,0.9,2,1.7c0.5,0.8,0.8,1.7,0.7,2.7
				c0,1.2-0.4,2.3-1.2,3.2c-1,1-2.4,1.6-3.8,1.7c0.5,0.2,1,0.5,1.4,0.9c0.8,0.7,1.4,1.5,2,2.4l3.1,4.9h-3l-2.4-3.7
				c-0.7-1.1-1.3-1.9-1.7-2.5c-0.3-0.5-0.7-0.9-1.2-1.2c-0.3-0.2-0.7-0.4-1.1-0.5c-0.4-0.1-0.9-0.1-1.3-0.1h-2.7v7.9L804.5,286.8z
				 M806.9,276.8h5.1c0.9,0,1.7-0.1,2.5-0.3c0.6-0.2,1.1-0.6,1.4-1.1c0.3-0.5,0.5-1,0.5-1.6c0-0.8-0.3-1.6-0.9-2.1
				c-0.8-0.6-1.9-0.9-2.9-0.8h-5.7L806.9,276.8z"/>
			<path class="st4" d="M821.8,278.1c-0.1-2.5,0.7-5.1,2.4-7c1.6-1.7,3.9-2.6,6.2-2.5c1.6,0,3.1,0.4,4.5,1.2c1.3,0.8,2.4,1.9,3,3.3
				c0.7,1.5,1.1,3.1,1,4.8c0,1.7-0.3,3.4-1.1,4.9c-0.7,1.4-1.8,2.5-3.1,3.3c-1.3,0.7-2.8,1.1-4.3,1.1c-1.6,0-3.2-0.4-4.5-1.2
				c-1.3-0.8-2.4-2-3-3.3C822.1,281.2,821.8,279.7,821.8,278.1z M824.2,278.2c-0.1,1.9,0.5,3.7,1.7,5.1c2.3,2.4,6.2,2.5,8.6,0.2
				c0.1-0.1,0.1-0.1,0.2-0.2c1.2-1.5,1.9-3.4,1.7-5.3c0-1.3-0.2-2.6-0.7-3.8c-0.5-1-1.2-1.9-2.2-2.5c-1-0.6-2.1-0.9-3.2-0.9
				c-1.6,0-3.2,0.6-4.3,1.7C824.8,273.6,824.2,275.5,824.2,278.2z"/>
			<path class="st4" d="M853.7,269h2.4v10.3c0.1,1.5-0.2,2.9-0.6,4.3c-0.4,1.1-1.2,2-2.2,2.6c-1.3,0.7-2.7,1.1-4.2,1
				c-1.4,0.1-2.8-0.2-4.1-0.9c-1-0.5-1.8-1.4-2.3-2.5c-0.5-1.4-0.7-3-0.7-4.5V269h2.4v10.3c-0.1,1.2,0.1,2.3,0.4,3.4
				c0.3,0.7,0.8,1.3,1.5,1.7c0.8,0.4,1.7,0.6,2.6,0.6c1.4,0.1,2.7-0.3,3.7-1.2c0.7-0.8,1.1-2.3,1.1-4.6L853.7,269z"/>
			<path class="st4" d="M860,286.8V269h7.9c1.2-0.1,2.5,0.1,3.6,0.5c0.8,0.3,1.5,0.9,2,1.7c0.5,0.8,0.8,1.7,0.7,2.7
				c0,1.2-0.4,2.3-1.2,3.2c-1,1-2.4,1.6-3.8,1.7c0.5,0.2,1,0.5,1.4,0.9c0.8,0.7,1.4,1.5,2,2.4l3.1,4.9h-3l-2.4-3.7
				c-0.7-1.1-1.3-1.9-1.7-2.5c-0.3-0.5-0.7-0.9-1.2-1.2c-0.3-0.2-0.7-0.4-1.1-0.5c-0.4-0.1-0.9-0.1-1.3-0.1h-2.7v7.9L860,286.8z
				 M862.4,276.8h5.1c0.9,0,1.7-0.1,2.5-0.3c0.6-0.2,1.1-0.6,1.4-1.1c0.3-0.5,0.5-1,0.5-1.6c0-0.8-0.3-1.6-0.9-2.1
				c-0.8-0.6-1.9-0.9-2.9-0.8h-5.7L862.4,276.8z"/>
			<path class="st4" d="M884.3,287.2l1.1-5.2h-2.1v-1.8h2.4l0.9-4.4h-3.3v-1.8h3.7l1.1-5.2h1.8l-1.1,5.2h3.8l1.1-5.2h1.8l-1.1,5.2
				h2.1v1.8h-2.5l-0.9,4.4h3.4v1.8h-3.8l-1.1,5.2H890l1-5.2h-3.8l-1.1,5.2H884.3z M887.6,280.1h3.8l0.9-4.4h-3.8L887.6,280.1z"/>
			<path class="st4" d="M898.2,271.3v-2.1h11.6v1.7c-1.3,1.5-2.5,3.1-3.4,4.8c-1.1,2-2,4-2.6,6.2c-0.5,1.6-0.7,3.3-0.8,4.9h-2.3
				c0.1-1.7,0.4-3.4,0.8-5.1c0.5-2,1.3-3.9,2.3-5.8c0.9-1.7,1.9-3.2,3.2-4.7L898.2,271.3z"/>
		</g>
		<path class="st190" d="M1028.7,84.7h275.1c3.2,0,5.8,2.6,5.8,5.8v45.2c0,3.2-2.6,5.8-5.8,5.8h-275.1c-3.2,0-5.8-2.6-5.8-5.8V90.5
			C1022.8,87.3,1025.5,84.7,1028.7,84.7z"/>
		<path class="st190" d="M1028.7,164.7h275.1c3.2,0,5.8,2.6,5.8,5.8v45.2c0,3.2-2.6,5.8-5.8,5.8h-275.1c-3.2,0-5.8-2.6-5.8-5.8
			v-45.2C1022.8,167.3,1025.5,164.7,1028.7,164.7z"/>
		<g>
			<path class="st4" d="M1108,116.1l2.4,0.6c-0.4,1.7-1.3,3.3-2.7,4.4c-1.4,1-3,1.6-4.7,1.5c-1.6,0.1-3.3-0.3-4.7-1.2
				c-1.2-0.8-2.2-2-2.8-3.4c-0.6-1.5-1-3.2-0.9-4.8c0-1.7,0.3-3.4,1.1-4.9c0.7-1.3,1.7-2.4,3-3.2c1.3-0.7,2.8-1.1,4.3-1.1
				c1.6-0.1,3.2,0.4,4.5,1.4c1.3,1,2.2,2.3,2.6,3.8l-2.3,0.5c-0.3-1.1-0.9-2.1-1.8-2.8c-0.9-0.6-1.9-0.9-3-0.9c-1.2,0-2.4,0.3-3.4,1
				c-0.9,0.7-1.6,1.6-1.9,2.7c-0.4,1.1-0.6,2.3-0.6,3.4c0,1.4,0.2,2.7,0.7,4c0.4,1.1,1.1,2,2.1,2.5c0.9,0.6,2,0.8,3,0.8
				c1.2,0,2.4-0.4,3.4-1.1C1107.1,118.6,1107.8,117.4,1108,116.1z"/>
			<path class="st4" d="M1121.7,115.3v-2.1l7.6,0v6.6c-1.1,0.9-2.3,1.6-3.6,2.1c-1.2,0.5-2.5,0.7-3.8,0.7c-1.7,0-3.3-0.4-4.8-1.1
				c-1.4-0.7-2.5-1.9-3.3-3.3c-0.7-1.5-1.1-3.1-1.1-4.8c0-1.7,0.4-3.4,1.1-4.9c0.7-1.4,1.8-2.6,3.1-3.4c1.5-0.8,3.1-1.1,4.7-1.1
				c1.2,0,2.4,0.2,3.5,0.6c1,0.4,1.8,1,2.5,1.8c0.7,0.9,1.1,1.9,1.4,2.9l-2.1,0.6c-0.2-0.8-0.5-1.5-1-2.1c-0.5-0.6-1-1-1.7-1.3
				c-0.8-0.3-1.6-0.5-2.5-0.5c-1,0-1.9,0.1-2.8,0.5c-0.7,0.3-1.4,0.7-1.9,1.3c-0.5,0.5-0.9,1.1-1.1,1.8c-0.5,1.1-0.7,2.4-0.7,3.6
				c0,1.4,0.2,2.8,0.8,4c0.5,1,1.4,1.9,2.4,2.4c1,0.5,2.2,0.8,3.3,0.8c1,0,2-0.2,3-0.6c0.8-0.3,1.6-0.7,2.2-1.3v-3.3L1121.7,115.3z"
				/>
			<path class="st4" d="M1132.8,122.3v-17.9h7.9c1.2-0.1,2.5,0.1,3.6,0.5c0.8,0.3,1.5,0.9,2,1.7c0.5,0.8,0.8,1.7,0.7,2.7
				c0,1.2-0.4,2.3-1.2,3.2c-1,1-2.4,1.6-3.8,1.7c0.5,0.2,1,0.5,1.4,0.9c0.8,0.7,1.4,1.5,2,2.4l3.1,4.9h-3l-2.4-3.7
				c-0.7-1.1-1.3-1.9-1.7-2.5c-0.3-0.5-0.7-0.9-1.2-1.2c-0.3-0.2-0.7-0.4-1.1-0.5c-0.4-0.1-0.9-0.1-1.3-0.1h-2.7v7.9L1132.8,122.3z
				 M1135.1,112.3h5.1c0.9,0,1.7-0.1,2.5-0.3c0.6-0.2,1.1-0.6,1.4-1.1c0.3-0.5,0.5-1,0.5-1.6c0-0.8-0.3-1.6-0.9-2.1
				c-0.8-0.6-1.9-0.9-2.9-0.8h-5.7L1135.1,112.3z"/>
			<path class="st4" d="M1150.1,113.6c-0.1-2.5,0.7-5.1,2.4-7c1.6-1.7,3.9-2.6,6.2-2.5c1.6,0,3.1,0.4,4.5,1.2c1.3,0.8,2.4,1.9,3,3.3
				c0.7,1.5,1.1,3.1,1,4.8c0,1.7-0.3,3.4-1.1,4.9c-0.7,1.4-1.8,2.5-3.1,3.3c-1.3,0.7-2.8,1.1-4.3,1.1c-1.6,0-3.2-0.4-4.5-1.2
				c-1.3-0.8-2.4-2-3-3.3C1150.4,116.7,1150.1,115.2,1150.1,113.6z M1152.5,113.7c-0.1,1.9,0.5,3.7,1.7,5.1c2.3,2.4,6.2,2.5,8.6,0.2
				c0.1-0.1,0.1-0.1,0.2-0.2c1.2-1.5,1.9-3.4,1.7-5.3c0-1.3-0.2-2.6-0.7-3.8c-0.5-1-1.2-1.9-2.2-2.5c-1-0.6-2.1-0.9-3.2-0.9
				c-1.6,0-3.2,0.6-4.3,1.7C1153.1,109,1152.5,111,1152.5,113.7z"/>
			<path class="st4" d="M1182,104.4h2.4v10.3c0.1,1.5-0.2,2.9-0.6,4.3c-0.4,1.1-1.2,2-2.2,2.6c-1.3,0.7-2.7,1.1-4.2,1
				c-1.4,0.1-2.8-0.2-4.1-0.9c-1-0.5-1.8-1.4-2.3-2.5c-0.5-1.4-0.7-3-0.7-4.5v-10.3h2.4v10.3c-0.1,1.2,0.1,2.3,0.4,3.4
				c0.3,0.7,0.8,1.3,1.5,1.7c0.8,0.4,1.7,0.6,2.6,0.6c1.4,0.1,2.7-0.3,3.7-1.2c0.7-0.8,1.1-2.3,1.1-4.6L1182,104.4z"/>
			<path class="st4" d="M1188.3,122.3v-17.9h7.9c1.2-0.1,2.5,0.1,3.6,0.5c0.8,0.3,1.5,0.9,2,1.7c0.5,0.8,0.8,1.7,0.7,2.7
				c0,1.2-0.4,2.3-1.2,3.2c-1,1-2.4,1.6-3.8,1.7c0.5,0.2,1,0.5,1.4,0.9c0.8,0.7,1.4,1.5,2,2.4l3.1,4.9h-3l-2.4-3.7
				c-0.7-1.1-1.3-1.9-1.7-2.5c-0.3-0.5-0.7-0.9-1.2-1.2c-0.3-0.2-0.7-0.4-1.1-0.5c-0.4-0.1-0.9-0.1-1.3-0.1h-2.7v7.9L1188.3,122.3z
				 M1190.7,112.3h5.1c0.9,0,1.7-0.1,2.5-0.3c0.6-0.2,1.1-0.6,1.4-1.1c0.3-0.5,0.5-1,0.5-1.6c0-0.8-0.3-1.6-0.9-2.1
				c-0.8-0.6-1.9-0.9-2.9-0.8h-5.7L1190.7,112.3z"/>
			<path class="st4" d="M1212.6,122.6l1.1-5.2h-2.1v-1.8h2.4l0.9-4.4h-3.3v-1.8h3.7l1.1-5.2h1.8l-1.1,5.2h3.8l1.1-5.2h1.8l-1.1,5.2
				h2.1v1.8h-2.5l-0.9,4.4h3.4v1.8h-3.8l-1.1,5.2h-1.8l1.1-5.2h-3.8l-1.1,5.2H1212.6z M1215.9,115.6h3.8l0.9-4.4h-3.8L1215.9,115.6z
				"/>
			<path class="st4" d="M1226.6,118.2l2.1-0.2c0.1,0.8,0.5,1.6,1,2.2c0.5,0.5,1.2,0.7,1.9,0.7c0.6,0,1.2-0.1,1.8-0.5
				c0.5-0.3,0.9-0.7,1.3-1.2c0.4-0.7,0.7-1.4,0.8-2.1c0.2-0.9,0.3-1.8,0.3-2.7c0-0.1,0-0.2,0-0.4c-0.4,0.7-1.1,1.3-1.8,1.7
				c-0.8,0.4-1.6,0.7-2.5,0.7c-1.4,0-2.8-0.6-3.8-1.6c-1.1-1.2-1.6-2.7-1.5-4.2c-0.1-1.6,0.5-3.2,1.6-4.4c1-1.1,2.5-1.7,4-1.7
				c1.1,0,2.2,0.3,3.2,0.9c1,0.7,1.8,1.6,2.2,2.7c0.6,1.6,0.8,3.3,0.8,5c0.1,1.9-0.2,3.7-0.7,5.5c-0.4,1.2-1.2,2.3-2.2,3.1
				c-1,0.7-2.2,1.1-3.4,1.1C1229.1,122.8,1226.8,120.8,1226.6,118.2C1226.6,118.2,1226.6,118.2,1226.6,118.2L1226.6,118.2z
				 M1235.6,110.3c0.1-1.1-0.3-2.2-1-3c-0.6-0.7-1.5-1.1-2.4-1.1c-1,0-1.9,0.4-2.6,1.2c-0.7,0.9-1.1,2-1.1,3.1c0,1,0.3,2,1,2.8
				c0.7,0.7,1.6,1.1,2.5,1.1c1,0,1.9-0.4,2.5-1.1C1235.3,112.4,1235.7,111.4,1235.6,110.3L1235.6,110.3z"/>
		</g>
		<g>
			<path class="st4" d="M1101,197.6l2.4,0.6c-0.4,1.7-1.3,3.3-2.7,4.4c-1.4,1-3,1.6-4.7,1.5c-1.6,0.1-3.3-0.3-4.7-1.2
				c-1.2-0.8-2.2-2-2.8-3.4c-0.6-1.5-1-3.2-0.9-4.8c0-1.7,0.3-3.4,1.1-4.9c0.7-1.3,1.7-2.4,3-3.2c1.3-0.7,2.8-1.1,4.3-1.1
				c1.6-0.1,3.2,0.4,4.5,1.4c1.3,1,2.2,2.3,2.6,3.8l-2.3,0.5c-0.3-1.1-0.9-2.1-1.8-2.8c-0.9-0.6-1.9-0.9-3-0.9c-1.2,0-2.4,0.3-3.4,1
				c-0.9,0.7-1.6,1.6-1.9,2.7c-0.4,1.1-0.6,2.3-0.6,3.4c0,1.4,0.2,2.7,0.7,4c0.4,1.1,1.1,2,2.1,2.5c0.9,0.6,2,0.8,3,0.8
				c1.2,0,2.4-0.4,3.4-1.1C1100.2,200.1,1100.8,198.9,1101,197.6z"/>
			<path class="st4" d="M1114.7,196.8v-2.1l7.6,0v6.6c-1.1,0.9-2.3,1.6-3.6,2.1c-1.2,0.5-2.5,0.7-3.8,0.7c-1.7,0-3.3-0.4-4.8-1.1
				c-1.4-0.7-2.5-1.9-3.3-3.3c-0.7-1.5-1.1-3.1-1.1-4.8c0-1.7,0.4-3.4,1.1-4.9c0.7-1.4,1.8-2.6,3.1-3.4c1.5-0.8,3.1-1.1,4.7-1.1
				c1.2,0,2.4,0.2,3.5,0.6c1,0.4,1.8,1,2.5,1.8c0.7,0.9,1.1,1.9,1.4,2.9l-2.1,0.6c-0.2-0.8-0.5-1.5-1-2.1c-0.5-0.6-1-1-1.7-1.3
				c-0.8-0.3-1.6-0.5-2.5-0.5c-1,0-1.9,0.1-2.8,0.5c-0.7,0.3-1.4,0.7-1.9,1.3c-0.5,0.5-0.9,1.1-1.1,1.8c-0.5,1.1-0.7,2.4-0.7,3.6
				c0,1.4,0.2,2.8,0.8,4c0.5,1,1.4,1.9,2.4,2.4c1,0.5,2.2,0.8,3.3,0.8c1,0,2-0.2,3-0.6c0.8-0.3,1.6-0.7,2.2-1.3v-3.3L1114.7,196.8z"
				/>
			<path class="st4" d="M1125.8,203.8V186h7.9c1.2-0.1,2.5,0.1,3.6,0.5c0.8,0.3,1.5,0.9,2,1.7c0.5,0.8,0.8,1.7,0.7,2.7
				c0,1.2-0.4,2.3-1.2,3.2c-1,1-2.4,1.6-3.8,1.7c0.5,0.2,1,0.5,1.4,0.9c0.8,0.7,1.4,1.5,2,2.4l3.1,4.9h-3l-2.4-3.7
				c-0.7-1.1-1.3-1.9-1.7-2.5c-0.3-0.5-0.7-0.9-1.2-1.2c-0.3-0.2-0.7-0.4-1.1-0.5c-0.4-0.1-0.9-0.1-1.3-0.1h-2.7v7.9L1125.8,203.8z
				 M1128.2,193.8h5.1c0.9,0,1.7-0.1,2.5-0.3c0.6-0.2,1.1-0.6,1.4-1.1c0.3-0.5,0.5-1,0.5-1.6c0-0.8-0.3-1.6-0.9-2.1
				c-0.8-0.6-1.9-0.9-2.9-0.8h-5.7L1128.2,193.8z"/>
			<path class="st4" d="M1143.1,195.1c-0.1-2.5,0.7-5.1,2.4-7c1.6-1.7,3.9-2.6,6.2-2.5c1.6,0,3.1,0.4,4.5,1.2c1.3,0.8,2.4,1.9,3,3.3
				c0.7,1.5,1.1,3.1,1,4.8c0,1.7-0.3,3.4-1.1,4.9c-0.7,1.4-1.8,2.5-3.1,3.3c-1.3,0.7-2.8,1.1-4.3,1.1c-1.6,0-3.2-0.4-4.5-1.2
				c-1.3-0.8-2.4-2-3-3.3C1143.5,198.2,1143.1,196.7,1143.1,195.1z M1145.6,195.2c-0.1,1.9,0.5,3.7,1.7,5.1c2.3,2.4,6.2,2.5,8.6,0.2
				c0.1-0.1,0.1-0.1,0.2-0.2c1.2-1.5,1.9-3.4,1.7-5.3c0-1.3-0.2-2.6-0.7-3.8c-0.5-1-1.2-1.9-2.2-2.5c-1-0.6-2.1-0.9-3.2-0.9
				c-1.6,0-3.2,0.6-4.3,1.7C1146.2,190.6,1145.6,192.5,1145.6,195.2z"/>
			<path class="st4" d="M1175,186h2.4v10.3c0.1,1.5-0.2,2.9-0.6,4.3c-0.4,1.1-1.2,2-2.2,2.6c-1.3,0.7-2.7,1.1-4.2,1
				c-1.4,0.1-2.8-0.2-4.1-0.9c-1-0.5-1.8-1.4-2.3-2.5c-0.5-1.4-0.7-3-0.7-4.5V186h2.4v10.3c-0.1,1.2,0.1,2.3,0.4,3.4
				c0.3,0.7,0.8,1.3,1.5,1.7c0.8,0.4,1.7,0.6,2.6,0.6c1.4,0.1,2.7-0.3,3.7-1.2c0.7-0.8,1.1-2.3,1.1-4.6L1175,186z"/>
			<path class="st4" d="M1181.4,203.8V186h7.9c1.2-0.1,2.5,0.1,3.6,0.5c0.8,0.3,1.5,0.9,2,1.7c0.5,0.8,0.8,1.7,0.7,2.7
				c0,1.2-0.4,2.3-1.2,3.2c-1,1-2.4,1.6-3.8,1.7c0.5,0.2,1,0.5,1.4,0.9c0.8,0.7,1.4,1.5,2,2.4l3.1,4.9h-3l-2.4-3.7
				c-0.7-1.1-1.3-1.9-1.7-2.5c-0.3-0.5-0.7-0.9-1.2-1.2c-0.3-0.2-0.7-0.4-1.1-0.5c-0.4-0.1-0.9-0.1-1.3-0.1h-2.7v7.9L1181.4,203.8z
				 M1183.7,193.8h5.1c0.9,0,1.7-0.1,2.5-0.3c0.6-0.2,1.1-0.6,1.4-1.1c0.3-0.5,0.5-1,0.5-1.6c0-0.8-0.3-1.6-0.9-2.1
				c-0.8-0.6-1.9-0.9-2.9-0.8h-5.7L1183.7,193.8z"/>
			<path class="st4" d="M1205.7,204.2l1.1-5.2h-2.1v-1.8h2.4l0.9-4.4h-3.3v-1.8h3.7l1.1-5.2h1.8l-1.1,5.2h3.8l1.1-5.2h1.8l-1.1,5.2
				h2.1v1.8h-2.5l-0.9,4.4h3.4v1.8h-3.8l-1.1,5.2h-1.8l1.1-5.2h-3.8l-1.1,5.2H1205.7z M1208.9,197.1h3.8l0.9-4.4h-3.8L1208.9,197.1z
				"/>
			<path class="st4" d="M1227.6,203.8h-2.2v-14c-0.6,0.6-1.3,1.1-2.1,1.5c-0.7,0.4-1.5,0.8-2.3,1.1v-2.1c1.2-0.5,2.3-1.2,3.2-2.1
				c0.8-0.7,1.5-1.5,2-2.4h1.4V203.8z"/>
			<path class="st4" d="M1233.2,195c-0.1-1.7,0.2-3.5,0.7-5.1c0.3-1.2,1-2.2,1.9-3c0.9-0.7,2.1-1.1,3.2-1.1c0.9,0,1.7,0.2,2.5,0.6
				c0.7,0.4,1.3,1,1.8,1.7c0.5,0.8,0.9,1.7,1.1,2.7c0.3,1.4,0.4,2.8,0.4,4.2c0.1,1.7-0.2,3.4-0.6,5.1c-0.3,1.2-1,2.2-1.9,3
				c-0.9,0.7-2.1,1.1-3.3,1.1c-1.6,0.1-3.1-0.6-4.1-1.9C1233.8,200.8,1233.2,198.4,1233.2,195z M1235.5,195c0,2.9,0.3,4.9,1,5.9
				c0.8,1.4,2.6,1.9,4,1.1c0.4-0.3,0.8-0.6,1.1-1.1c0.7-1,1-2.9,1-5.9c0-2.9-0.3-4.9-1-5.9c-0.6-0.9-1.5-1.4-2.6-1.5
				c-1,0-1.9,0.5-2.4,1.3C1235.9,190.1,1235.5,192.1,1235.5,195L1235.5,195z"/>
		</g>
	</g>
</g>
</svg>
