<?xml version="1.0" encoding="utf-8"?>
<!-- Generator: Adobe Illustrator 27.9.0, SVG Export Plug-In . SVG Version: 6.00 Build 0)  -->
<svg version="1.1" id="Layer_1" xmlns="http://www.w3.org/2000/svg" xmlns:xlink="http://www.w3.org/1999/xlink" x="0px" y="0px"
	 viewBox="0 0 1325.2 570.2" style="enable-background:new 0 0 1325.2 570.2;" xml:space="preserve">
<style type="text/css">
	.st0{fill:#263953;}
	.st1{opacity:0.5;}
	.st2{fill:#CEDB56;}
	.st3{fill:#263852;}
	.st4{fill:#CCCCCC;}
	.st5{fill:#CCCCCB;}
	.st6{opacity:0.2;}
	.st7{fill:#FEC010;}
	.st8{fill:#FFFFFF;}
	.st9{fill:#39C2D7;}
	.st10{fill:#3BC2D7;}
	.st11{fill:#CFDA54;}
</style>
<g id="Слой_2">
	<g id="Слой_1-2">
		<path class="st0" d="M286.2,529.3h-37c-0.3,0-0.5-0.2-0.7-0.4c-1.4-3.3-0.2-327.8-0.1-364.7c0-0.4,0.3-0.7,0.7-0.7h37
			c0.4,0,0.7,0.3,0.7,0.7c0,0.4-0.3,0.7-0.7,0.7H250c-0.5,121.8-1,350.1-0.1,363h36.4c0.4,0,0.7,0.3,0.7,0.7
			C287,529,286.6,529.3,286.2,529.3C286.2,529.3,286.2,529.3,286.2,529.3z"/>
		<path class="st0" d="M286.2,285.4h-37c-0.4,0-0.7-0.3-0.7-0.7c0-0.4,0.3-0.7,0.7-0.7c0,0,0,0,0,0h37c0.4,0,0.7,0.3,0.7,0.7
			C287,285.1,286.6,285.4,286.2,285.4C286.2,285.4,286.2,285.4,286.2,285.4z"/>
		<path class="st0" d="M248.3,350.6h-84.6c-0.4,0-0.7-0.3-0.7-0.7c0-0.4,0.3-0.7,0.7-0.7c0,0,0,0,0,0h84.6c0.4,0,0.7,0.3,0.7,0.7
			C249,350.3,248.7,350.6,248.3,350.6C248.3,350.6,248.3,350.6,248.3,350.6z"/>
		<path class="st0" d="M286.2,407.1h-37c-0.4,0-0.7-0.3-0.7-0.7c0-0.4,0.3-0.7,0.7-0.7c0,0,0,0,0,0h37c0.4,0,0.7,0.3,0.7,0.7
			C287,406.8,286.6,407.1,286.2,407.1C286.2,407.1,286.2,407.1,286.2,407.1z"/>
		<path class="st0" d="M561.6,284.5h-32.3c-0.4,0-0.7-0.3-0.7-0.7c0,0,0,0,0,0V36.4c0-0.4,0.3-0.7,0.7-0.7c0,0,0,0,0,0h32.3
			c0.4,0,0.7,0.3,0.7,0.7c0,0.4-0.3,0.7-0.7,0.7c0,0,0,0,0,0H530v246h31.5c0.4,0,0.7,0.3,0.7,0.7C562.3,284.2,562,284.5,561.6,284.5
			L561.6,284.5z"/>
		<path class="st0" d="M1137.4,170.1h-127.9c-0.4,0-0.7-0.3-0.7-0.7c0-0.4,0.3-0.7,0.7-0.7h127.9c0.4,0,0.7,0.3,0.7,0.7
			C1138.1,169.7,1137.8,170.1,1137.4,170.1z"/>
		<path class="st0" d="M1111.3,286.4h-32.6c-0.4,0-0.7-0.3-0.7-0.7c0,0,0,0,0,0V39.3c0-0.4,0.3-0.7,0.7-0.7c0,0,0,0,0,0h32.6
			c0.4,0,0.7,0.3,0.7,0.7c0,0.4-0.3,0.7-0.7,0.7h-31.9v245h31.9c0.4,0,0.7,0.3,0.7,0.7C1112,286.1,1111.7,286.4,1111.3,286.4
			L1111.3,286.4z"/>
		<path class="st0" d="M834.9,527.5h-30.3c-0.4,0-0.7-0.3-0.7-0.7c0,0,0,0,0,0v-360c0-0.4,0.3-0.7,0.7-0.7c0,0,0,0,0,0h30.3
			c0.4,0,0.7,0.3,0.7,0.7c0,0.4-0.3,0.7-0.7,0.7h-29.6v358.6h29.6c0.4,0,0.7,0.3,0.7,0.7C835.6,527.2,835.3,527.5,834.9,527.5
			C834.9,527.5,834.9,527.5,834.9,527.5z"/>
		<path class="st0" d="M835.9,287.7H731.5c-0.4,0-0.7-0.3-0.7-0.7c0-0.4,0.3-0.7,0.7-0.7h104.4c0.4,0,0.7,0.3,0.7,0.7
			C836.6,287.4,836.3,287.7,835.9,287.7C835.9,287.7,835.9,287.7,835.9,287.7z"/>
		<path class="st0" d="M834.9,407.5h-30.3c-0.4,0-0.7-0.3-0.7-0.7c0-0.4,0.3-0.7,0.7-0.7c0,0,0,0,0,0h30.3c0.4,0,0.7,0.3,0.7,0.7
			C835.6,407.2,835.3,407.5,834.9,407.5L834.9,407.5z"/>
		<g class="st1">
			<path class="st2" d="M494.6,439.9H291.4c-2.6,0-4.7-2.1-4.7-4.7v-62c0-2.6,2.1-4.7,4.7-4.7h203.2c2.6,0,4.7,2.1,4.7,4.7v62
				C499.8,437.8,497.6,439.9,494.6,439.9z"/>
		</g>
		<path class="st3" d="M382.7,415.6V413c-1.2,2-3.4,3.1-5.8,3.1c-1,0-2.1-0.2-3-0.6c-0.8-0.3-1.5-0.9-2.1-1.5
			c-0.5-0.7-0.8-1.5-0.9-2.3c-0.2-0.9-0.2-1.9-0.2-2.9v-11.2h3.1v10.1c0,1.1,0,2.2,0.2,3.2c0.2,0.8,0.6,1.4,1.2,1.9
			c0.7,0.5,1.5,0.7,2.3,0.7c0.9,0,1.8-0.2,2.6-0.7c0.8-0.4,1.4-1.1,1.7-1.9c0.4-1.1,0.6-2.3,0.5-3.5v-9.7h3.1v18.1L382.7,415.6z"/>
		<path class="st3" d="M389.1,410.2l3-0.5c0.1,1.1,0.6,2.1,1.4,2.8c0.9,0.7,2.1,1,3.3,1c1.1,0.1,2.2-0.2,3.1-0.9c0.6-0.5,1-1.2,1-2
			c0-0.7-0.3-1.3-0.9-1.6c-1-0.5-2.1-0.8-3.1-1c-1.6-0.4-3.2-0.9-4.7-1.5c-1.6-0.7-2.7-2.4-2.7-4.2c0-0.8,0.2-1.6,0.6-2.2
			c0.4-0.7,0.9-1.3,1.5-1.7c0.6-0.4,1.3-0.7,2-0.9c0.9-0.2,1.8-0.4,2.7-0.4c1.3,0,2.5,0.2,3.8,0.6c0.9,0.3,1.8,0.9,2.4,1.7
			c0.6,0.8,0.9,1.8,1.1,2.8l-3,0.4c-0.1-0.9-0.5-1.6-1.2-2.2c-0.8-0.6-1.8-0.8-2.8-0.8c-1.1-0.1-2.1,0.2-3,0.7
			c-0.5,0.4-0.9,1-0.9,1.6c0,0.4,0.1,0.8,0.4,1.1c0.3,0.4,0.7,0.7,1.2,0.8c0.3,0.1,1.2,0.4,2.7,0.8c1.5,0.4,3.1,0.9,4.6,1.4
			c0.8,0.3,1.5,0.9,2,1.6c0.5,0.8,0.8,1.7,0.7,2.6c0,1-0.3,2-0.9,2.9c-0.6,0.9-1.5,1.7-2.6,2.1c-1.2,0.5-2.5,0.8-3.8,0.7
			c-1.9,0.1-3.8-0.4-5.4-1.5C390.1,413.5,389.3,411.9,389.1,410.2z"/>
		<path class="st3" d="M407.8,415.6v-18.1h2.8v2.8c0.5-1,1.1-1.8,2-2.5c0.6-0.4,1.3-0.6,2-0.6c1.1,0,2.2,0.4,3.2,1l-1.1,2.9
			c-0.7-0.4-1.5-0.7-2.3-0.7c-0.7,0-1.3,0.2-1.8,0.6c-0.6,0.4-1,1-1.1,1.7c-0.4,1.2-0.5,2.4-0.5,3.6v9.5L407.8,415.6z"/>
		<g class="st1">
			<path class="st2" d="M494.6,319.5H291.4c-2.6,0-4.7-2.1-4.7-4.7v-62c0-2.6,2.1-4.7,4.7-4.7h203.2c2.6,0,4.7,2.1,4.7,4.7v62
				C499.8,317.4,497.6,319.5,494.6,319.5z"/>
		</g>
		<path class="st3" d="M375.9,295.2l-6.9-18.1h3.2l3.9,10.9c0.4,1.2,0.8,2.4,1.2,3.7c0.3-1,0.7-2.1,1.1-3.5l4-11.1h3.2l-6.9,18.1
			H375.9z"/>
		<path class="st3" d="M400.2,293c-1,0.9-2.1,1.6-3.3,2.1c-1.1,0.4-2.2,0.6-3.4,0.6c-1.7,0.1-3.3-0.4-4.6-1.5
			c-1.1-0.9-1.6-2.3-1.6-3.7c0-1.7,0.8-3.3,2.2-4.2c0.7-0.5,1.4-0.8,2.2-1c0.9-0.2,1.8-0.4,2.7-0.5c1.9-0.2,3.7-0.5,5.5-1.1
			c0-0.4,0-0.7,0-0.8c0.1-1-0.2-1.9-0.9-2.6c-1-0.8-2.2-1.1-3.5-1c-1.1-0.1-2.2,0.2-3.2,0.8c-0.8,0.7-1.3,1.6-1.5,2.7l-3-0.4
			c0.2-1.1,0.7-2.2,1.4-3.1c0.7-0.9,1.7-1.5,2.7-1.8c1.3-0.4,2.7-0.7,4.1-0.6c1.3,0,2.6,0.1,3.8,0.5c0.8,0.3,1.6,0.7,2.1,1.4
			c0.5,0.6,0.8,1.3,1,2.1c0.1,0.9,0.2,1.9,0.2,2.8v4.1c0,1.8,0,3.6,0.2,5.4c0.1,0.8,0.4,1.5,0.8,2.2h-3.2
			C400.5,294.5,400.3,293.8,400.2,293z M399.9,286.1c-1.6,0.6-3.3,1-5,1.2c-0.9,0.1-1.8,0.3-2.7,0.6c-0.5,0.2-0.9,0.6-1.2,1
			c-0.7,1.1-0.5,2.6,0.5,3.5c0.8,0.6,1.7,0.9,2.7,0.8c1.1,0,2.2-0.2,3.2-0.8c0.9-0.5,1.6-1.2,2-2.1c0.4-1,0.5-2,0.5-3.1V286.1z"/>
		<path class="st3" d="M407.8,295.2v-18.1h2.8v2.8c0.5-1,1.1-1.8,2-2.5c0.6-0.4,1.3-0.6,2-0.6c1.1,0,2.2,0.4,3.2,1l-1.1,2.9
			c-0.7-0.4-1.5-0.7-2.3-0.7c-0.7,0-1.3,0.2-1.8,0.6c-0.6,0.4-1,1-1.1,1.7c-0.4,1.2-0.5,2.4-0.5,3.6v9.5L407.8,295.2z"/>
		<path class="st4" d="M1319.7,198.2h-203.2c-2.6,0-4.7-2.1-4.7-4.7v-62c0-2.6,2.1-4.7,4.7-4.7h203.2c2.6,0,4.7,2.1,4.7,4.7v62
			C1324.8,196,1322.7,198.2,1319.7,198.2z"/>
		<path class="st0" d="M1319.7,198.9h-203.2c-3,0-5.4-2.5-5.4-5.4v-62c0-3,2.5-5.4,5.4-5.4h203.2c3,0,5.4,2.5,5.4,5.4v61.9
			c0.2,1.3-0.2,2.6-1,3.6C1323,198.2,1321.4,198.9,1319.7,198.9z M1116.5,127.4c-2.2,0-4,1.8-4,4v62c0,2.2,1.8,4,4,4h203.2
			c1.3,0,2.5-0.5,3.3-1.4c0.6-0.7,0.8-1.6,0.7-2.5c0,0,0-0.1,0-0.1v-62c0-2.2-1.8-4-4-4L1116.5,127.4z"/>
		<path class="st3" d="M1188.3,175.9v-2.7c-1.2,2-3.4,3.1-5.8,3.1c-1,0-2.1-0.2-3-0.6c-0.8-0.3-1.5-0.9-2.1-1.5
			c-0.5-0.7-0.8-1.5-0.9-2.3c-0.2-0.9-0.2-1.9-0.2-2.9v-11.2h3.1v10.1c0,1.1,0,2.2,0.2,3.2c0.2,0.8,0.6,1.4,1.2,1.9
			c0.7,0.5,1.5,0.7,2.3,0.7c0.9,0,1.8-0.2,2.6-0.7c0.8-0.4,1.4-1.1,1.7-1.9c0.4-1.1,0.6-2.3,0.5-3.5v-9.7h3.1v18.1L1188.3,175.9z"/>
		<path class="st3" d="M1194.6,170.5l3-0.5c0.1,1.1,0.6,2.1,1.4,2.8c0.9,0.7,2.1,1,3.3,1c1.1,0.1,2.2-0.2,3.1-0.9c0.6-0.5,1-1.2,1-2
			c0-0.7-0.3-1.3-0.9-1.6c-1-0.5-2.1-0.8-3.1-1c-1.6-0.4-3.2-0.9-4.7-1.5c-1.6-0.7-2.7-2.4-2.7-4.2c0-0.8,0.2-1.6,0.6-2.2
			c0.4-0.7,0.9-1.3,1.5-1.7c0.6-0.4,1.3-0.7,2-0.9c0.9-0.2,1.8-0.4,2.7-0.4c1.3,0,2.5,0.2,3.8,0.6c0.9,0.3,1.8,0.9,2.4,1.7
			c0.6,0.8,0.9,1.8,1.1,2.8l-3,0.4c-0.1-0.9-0.5-1.6-1.2-2.2c-0.8-0.6-1.8-0.8-2.8-0.8c-1.1-0.1-2.1,0.2-3,0.7
			c-0.5,0.4-0.9,1-0.9,1.6c0,0.4,0.1,0.8,0.4,1.1c0.3,0.4,0.7,0.7,1.2,0.8c0.3,0.1,1.2,0.4,2.7,0.8c1.5,0.4,3.1,0.9,4.6,1.4
			c0.8,0.3,1.5,0.9,2,1.6c0.5,0.8,0.8,1.7,0.7,2.6c0,1-0.3,2-0.9,2.9c-0.6,0.9-1.5,1.7-2.6,2.1c-1.2,0.5-2.5,0.8-3.8,0.7
			c-1.9,0.1-3.8-0.4-5.4-1.5C1195.7,173.7,1194.9,172.2,1194.6,170.5z"/>
		<path class="st3" d="M1225.8,170l3.2,0.4c-0.4,1.7-1.4,3.2-2.8,4.3c-3.6,2.4-8.3,2-11.5-0.9c-1.6-1.9-2.5-4.4-2.3-6.9
			c0-3.1,0.8-5.4,2.4-7.1c1.6-1.7,3.8-2.6,6.1-2.5c2.2-0.1,4.4,0.8,5.9,2.5c1.6,1.9,2.5,4.4,2.3,7c0,0.2,0,0.5,0,0.8h-13.5
			c0,1.7,0.6,3.3,1.7,4.6c1,1,2.4,1.6,3.8,1.6c1,0,2-0.3,2.9-0.9C1224.8,172.1,1225.5,171.1,1225.8,170z M1215.7,165.1h10.1
			c0-1.2-0.4-2.4-1.2-3.4c-0.9-1.2-2.3-1.8-3.8-1.8c-1.3,0-2.6,0.5-3.6,1.4C1216.3,162.3,1215.7,163.6,1215.7,165.1L1215.7,165.1z"
			/>
		<path class="st3" d="M1232.8,175.9v-18.1h2.8v2.8c0.5-1,1.1-1.8,2-2.5c0.6-0.4,1.3-0.6,2-0.6c1.1,0,2.2,0.4,3.2,1l-1.1,2.9
			c-0.7-0.4-1.5-0.7-2.3-0.7c-0.7,0-1.3,0.2-1.8,0.6c-0.6,0.4-1,1-1.1,1.7c-0.4,1.2-0.5,2.4-0.5,3.6v9.5H1232.8z"/>
		<path class="st3" d="M1259.8,172.9v3h-16.6c0-0.7,0.1-1.5,0.4-2.1c0.5-1.2,1.2-2.3,2-3.3c1.2-1.4,2.6-2.6,4-3.8
			c2-1.6,3.9-3.3,5.5-5.3c0.9-1,1.4-2.3,1.4-3.7c0-1.2-0.5-2.3-1.3-3.1c-0.9-0.9-2.2-1.3-3.4-1.3c-1.3-0.1-2.6,0.4-3.6,1.3
			c-0.9,1-1.4,2.3-1.3,3.7l-3.2-0.3c0.1-2,1-4,2.4-5.4c1.6-1.3,3.6-2,5.7-1.9c2.1-0.1,4.1,0.6,5.7,2c1.4,1.3,2.1,3.1,2.1,5
			c0,1-0.2,2-0.6,3c-0.5,1.1-1.2,2.2-2,3.1c-1.5,1.6-3.1,3-4.7,4.4c-1.8,1.5-3,2.6-3.6,3.2c-0.5,0.5-0.9,1.1-1.3,1.7L1259.8,172.9z"
			/>
		<g class="st1">
			<path class="st5" d="M1319.7,71.5h-203.2c-2.6,0-4.7-2.1-4.7-4.7v-62c0-2.6,2.1-4.7,4.7-4.7h203.2c2.6,0,4.7,2.1,4.7,4.7v62
				C1324.8,69.3,1322.7,71.5,1319.7,71.5z"/>
		</g>
		<path class="st3" d="M1188.3,47.2v-2.7c-1.2,2-3.4,3.1-5.8,3.1c-1,0-2.1-0.2-3-0.6c-0.8-0.3-1.5-0.9-2.1-1.5
			c-0.5-0.7-0.8-1.5-0.9-2.3c-0.2-0.9-0.2-1.9-0.2-2.9V29h3.1v10.1c0,1.1,0,2.2,0.2,3.2c0.2,0.8,0.6,1.4,1.2,1.9
			c0.7,0.5,1.5,0.7,2.3,0.7c0.9,0,1.8-0.2,2.6-0.7c0.8-0.4,1.4-1.1,1.7-1.9c0.4-1.1,0.6-2.3,0.5-3.5V29h3.1v18.1L1188.3,47.2z"/>
		<path class="st3" d="M1194.6,41.8l3-0.5c0.1,1.1,0.6,2.1,1.4,2.8c0.9,0.7,2.1,1,3.3,1c1.1,0.1,2.2-0.2,3.1-0.9c0.6-0.5,1-1.2,1-2
			c0-0.7-0.3-1.3-0.9-1.6c-1-0.5-2.1-0.8-3.1-1c-1.6-0.4-3.2-0.9-4.7-1.5c-1.6-0.7-2.7-2.4-2.7-4.2c0-0.8,0.2-1.6,0.6-2.2
			c0.4-0.7,0.9-1.3,1.5-1.7c0.6-0.4,1.3-0.7,2-0.9c0.9-0.2,1.8-0.4,2.7-0.4c1.3,0,2.5,0.2,3.8,0.6c0.9,0.3,1.8,0.9,2.4,1.7
			c0.6,0.8,0.9,1.8,1.1,2.8l-3,0.4c-0.1-0.9-0.5-1.6-1.2-2.2c-0.8-0.6-1.8-0.8-2.8-0.8c-1.1-0.1-2.1,0.2-3,0.7
			c-0.5,0.4-0.9,1-0.9,1.6c0,0.4,0.1,0.8,0.4,1.1c0.3,0.4,0.7,0.7,1.2,0.8c0.3,0.1,1.2,0.4,2.7,0.8c1.5,0.4,3.1,0.9,4.6,1.4
			c0.8,0.3,1.5,0.9,2,1.6c0.5,0.8,0.8,1.7,0.7,2.6c0,1-0.3,2-0.9,2.9c-0.6,0.9-1.5,1.7-2.6,2.1c-1.2,0.5-2.5,0.8-3.8,0.7
			c-1.9,0.1-3.8-0.4-5.4-1.5C1195.7,45,1194.9,43.5,1194.6,41.8z"/>
		<path class="st3" d="M1225.8,41.3l3.2,0.4c-0.4,1.7-1.4,3.2-2.8,4.3c-3.6,2.4-8.3,2-11.5-0.9c-1.6-1.9-2.5-4.4-2.3-6.9
			c0-3.1,0.8-5.4,2.4-7.1c1.6-1.7,3.8-2.6,6.1-2.5c2.2-0.1,4.4,0.8,5.9,2.5c1.6,1.9,2.5,4.4,2.3,7c0,0.2,0,0.5,0,0.8h-13.5
			c0,1.7,0.6,3.3,1.7,4.6c1,1,2.4,1.6,3.8,1.6c1,0,2-0.3,2.9-0.9C1224.8,43.4,1225.5,42.4,1225.8,41.3z M1215.7,36.4h10.1
			c0-1.2-0.4-2.4-1.2-3.4c-0.9-1.2-2.3-1.8-3.8-1.8c-1.3,0-2.6,0.5-3.6,1.4C1216.3,33.6,1215.7,34.9,1215.7,36.4L1215.7,36.4z"/>
		<path class="st3" d="M1232.8,47.2V29h2.8v2.8c0.5-1,1.1-1.8,2-2.5c0.6-0.4,1.3-0.6,2-0.6c1.1,0,2.2,0.4,3.2,1l-1.1,2.9
			c-0.7-0.4-1.5-0.7-2.3-0.7c-0.7,0-1.3,0.2-1.8,0.6c-0.6,0.4-1,1-1.1,1.7c-0.4,1.2-0.5,2.4-0.5,3.6v9.5L1232.8,47.2z"/>
		<path class="st3" d="M1255.2,47.2h-3.1V27.6c-0.9,0.8-1.9,1.5-2.9,2.1c-1,0.6-2.1,1.2-3.2,1.6v-3c1.6-0.8,3.2-1.7,4.5-2.9
			c1.1-0.9,2-2.1,2.7-3.4h2L1255.2,47.2z"/>
		<g class="st1">
			<path class="st5" d="M1319.7,318.9h-203.2c-2.6,0-4.7-2.1-4.7-4.7v-62c0-2.6,2.1-4.7,4.7-4.7h203.2c2.6,0,4.7,2.1,4.7,4.7v62
				C1324.8,316.7,1322.7,318.9,1319.7,318.9z"/>
		</g>
		<path class="st3" d="M1188.3,294.6v-2.7c-1.2,2-3.4,3.1-5.8,3.1c-1,0-2.1-0.2-3-0.6c-0.8-0.3-1.5-0.9-2.1-1.5
			c-0.5-0.7-0.8-1.5-0.9-2.3c-0.2-0.9-0.2-1.9-0.2-2.9v-11.2h3.1v10.1c0,1.1,0,2.2,0.2,3.2c0.2,0.8,0.6,1.4,1.2,1.9
			c0.7,0.5,1.5,0.7,2.3,0.7c0.9,0,1.8-0.2,2.6-0.7c0.8-0.4,1.4-1.1,1.7-1.9c0.4-1.1,0.6-2.3,0.5-3.5v-9.7h3.1v18.1L1188.3,294.6z"/>
		<path class="st3" d="M1194.6,289.2l3-0.5c0.1,1.1,0.6,2.1,1.4,2.8c0.9,0.7,2.1,1,3.3,1c1.1,0.1,2.2-0.2,3.1-0.9c0.6-0.5,1-1.2,1-2
			c0-0.7-0.3-1.3-0.9-1.6c-1-0.5-2.1-0.8-3.1-1c-1.6-0.4-3.2-0.9-4.7-1.5c-1.6-0.7-2.7-2.4-2.7-4.2c0-0.8,0.2-1.6,0.6-2.2
			c0.4-0.7,0.9-1.3,1.5-1.7c0.6-0.4,1.3-0.7,2-0.9c0.9-0.2,1.8-0.4,2.7-0.4c1.3,0,2.5,0.2,3.8,0.6c0.9,0.3,1.8,0.9,2.4,1.7
			c0.6,0.8,0.9,1.8,1.1,2.8l-3,0.4c-0.1-0.9-0.5-1.6-1.2-2.2c-0.8-0.6-1.8-0.8-2.8-0.8c-1.1-0.1-2.1,0.2-3,0.7
			c-0.5,0.4-0.9,1-0.9,1.6c0,0.4,0.1,0.8,0.4,1.1c0.3,0.4,0.7,0.7,1.2,0.8c0.3,0.1,1.2,0.4,2.7,0.8c1.5,0.4,3.1,0.9,4.6,1.4
			c0.8,0.3,1.5,0.9,2,1.6c0.5,0.8,0.8,1.7,0.7,2.6c0,1-0.3,2-0.9,2.9c-0.6,0.9-1.5,1.7-2.6,2.1c-1.2,0.5-2.5,0.8-3.8,0.7
			c-1.9,0.1-3.8-0.4-5.4-1.5C1195.7,292.4,1194.9,290.9,1194.6,289.2z"/>
		<path class="st3" d="M1225.8,288.7l3.2,0.4c-0.4,1.7-1.4,3.2-2.8,4.3c-3.6,2.4-8.3,2-11.5-0.9c-1.6-1.9-2.5-4.4-2.3-6.9
			c0-3.1,0.8-5.4,2.4-7.1c1.6-1.7,3.8-2.6,6.1-2.5c2.2-0.1,4.4,0.8,5.9,2.5c1.6,1.9,2.5,4.4,2.3,7c0,0.2,0,0.5,0,0.8h-13.5
			c0,1.7,0.6,3.3,1.7,4.6c1,1,2.4,1.6,3.8,1.6c1,0,2-0.3,2.9-0.9C1224.8,290.8,1225.5,289.8,1225.8,288.7z M1215.7,283.8h10.1
			c0-1.2-0.4-2.4-1.2-3.4c-0.9-1.2-2.3-1.8-3.8-1.8c-1.3,0-2.6,0.5-3.6,1.4C1216.3,281,1215.7,282.3,1215.7,283.8L1215.7,283.8z"/>
		<path class="st3" d="M1232.8,294.6v-18.1h2.8v2.8c0.5-1,1.1-1.8,2-2.5c0.6-0.4,1.3-0.6,2-0.6c1.1,0,2.2,0.4,3.2,1l-1.1,2.9
			c-0.7-0.4-1.5-0.7-2.3-0.7c-0.7,0-1.3,0.2-1.8,0.6c-0.6,0.4-1,1-1.1,1.7c-0.4,1.2-0.5,2.4-0.5,3.6v9.5H1232.8z"/>
		<path class="st3" d="M1243.7,288l3.1-0.4c0.2,1.4,0.8,2.7,1.8,3.8c0.8,0.8,2,1.2,3.1,1.2c1.4,0,2.7-0.5,3.7-1.5
			c1-1,1.5-2.3,1.5-3.7c0-1.3-0.5-2.6-1.4-3.5c-0.9-0.9-2.2-1.4-3.5-1.4c-0.7,0-1.5,0.1-2.2,0.3l0.3-2.7c0.2,0,0.3,0,0.5,0
			c1.3,0,2.5-0.3,3.5-1c1.1-0.7,1.7-1.9,1.6-3.2c0-1.1-0.4-2.1-1.1-2.8c-0.8-0.8-1.9-1.2-3-1.1c-1.1,0-2.2,0.4-3,1.1
			c-0.9,0.9-1.4,2.1-1.5,3.4l-3.1-0.5c0.3-1.9,1.2-3.5,2.6-4.8c1.4-1.2,3.2-1.8,5-1.7c1.3,0,2.6,0.3,3.8,0.9c1.1,0.5,2,1.4,2.6,2.4
			c0.6,1,0.9,2.1,0.9,3.2c0,1.1-0.3,2.1-0.9,3c-0.6,0.9-1.5,1.7-2.6,2.1c1.4,0.3,2.6,1,3.5,2.1c0.9,1.2,1.3,2.6,1.2,4
			c0,2.1-0.8,4.1-2.4,5.6c-1.6,1.5-3.8,2.4-6.1,2.3c-2,0.1-4-0.6-5.5-2C1244.7,291.7,1243.8,289.9,1243.7,288z"/>
		<g class="st6">
			<path class="st7" d="M1043.2,321.7H840c-2.6,0-4.7-2.1-4.7-4.7v-62c0-2.6,2.1-4.7,4.7-4.7h203.2c2.6,0,4.7,2.1,4.7,4.7v62
				C1048.4,319.6,1046.2,321.7,1043.2,321.7z"/>
		</g>
		<path class="st3" d="M924.5,297.4l-6.9-18.1h3.2l3.9,10.9c0.4,1.2,0.8,2.4,1.2,3.7c0.3-1,0.7-2.1,1.1-3.5l4-11.1h3.2l-6.9,18.1
			L924.5,297.4z"/>
		<path class="st3" d="M948.8,295.2c-1,0.9-2.1,1.6-3.3,2.1c-1.1,0.4-2.2,0.6-3.4,0.6c-1.7,0.1-3.3-0.4-4.6-1.5
			c-1.1-0.9-1.6-2.3-1.6-3.7c0-0.9,0.2-1.7,0.6-2.4c0.4-0.7,0.9-1.3,1.6-1.8c0.7-0.5,1.4-0.8,2.2-1c0.9-0.2,1.8-0.4,2.7-0.5
			c1.9-0.2,3.7-0.5,5.5-1.1c0-0.4,0-0.7,0-0.8c0.1-1-0.2-1.9-0.9-2.6c-1-0.8-2.2-1.1-3.5-1c-1.1-0.1-2.2,0.2-3.2,0.8
			c-0.8,0.7-1.3,1.6-1.5,2.7l-3-0.4c0.2-1.1,0.7-2.2,1.3-3.1c0.7-0.9,1.7-1.5,2.7-1.8c1.3-0.4,2.7-0.7,4.1-0.6
			c1.3,0,2.6,0.1,3.8,0.5c0.8,0.3,1.6,0.7,2.1,1.4c0.5,0.6,0.8,1.3,1,2.1c0.1,0.9,0.2,1.9,0.2,2.8v4.1c0,1.8,0,3.6,0.2,5.4
			c0.1,0.8,0.4,1.5,0.8,2.2h-3.2C949,296.7,948.8,296,948.8,295.2z M948.5,288.3c-1.6,0.6-3.3,1-5,1.2c-0.9,0.1-1.8,0.3-2.7,0.6
			c-0.5,0.2-0.9,0.6-1.2,1c-0.7,1.1-0.5,2.6,0.5,3.5c0.8,0.6,1.7,0.9,2.7,0.8c1.1,0,2.2-0.2,3.2-0.8c0.9-0.5,1.6-1.2,2-2.1
			c0.4-1,0.5-2,0.5-3.1V288.3z"/>
		<path class="st3" d="M956.3,297.4v-18.1h2.8v2.8c0.5-1,1.1-1.8,2-2.5c0.6-0.4,1.3-0.6,2-0.6c1.1,0,2.2,0.4,3.2,1l-1.1,2.9
			c-0.7-0.4-1.5-0.7-2.3-0.7c-0.7,0-1.3,0.2-1.8,0.6c-0.6,0.4-1,1-1.1,1.7c-0.4,1.2-0.5,2.4-0.5,3.6v9.5L956.3,297.4z"/>
		<path class="st7" d="M1043.2,198.2H840c-2.6,0-4.7-2.1-4.7-4.7v-62c0-2.6,2.1-4.7,4.7-4.7h203.2c2.6,0,4.7,2.1,4.7,4.7v62
			C1048.4,196,1046.2,198.2,1043.2,198.2z"/>
		<path class="st3" d="M1043.2,198.9H840c-3,0-5.4-2.5-5.4-5.4v-62c0-3,2.5-5.4,5.4-5.4h203.2c3,0,5.4,2.5,5.4,5.4v61.9
			c0.2,1.3-0.2,2.6-1,3.6C1046.5,198.2,1044.9,198.9,1043.2,198.9z M840,127.4c-2.2,0-4,1.8-4,4v62c0,2.2,1.8,4,4,4h203.2
			c1.3,0,2.5-0.5,3.3-1.4c0.6-0.7,0.8-1.6,0.7-2.5c0,0,0-0.1,0-0.1v-62c0-2.2-1.8-4-4-4H840z"/>
		<path class="st3" d="M899.9,175.9v-25.1h3.1v9c1.3-1.6,3.3-2.5,5.4-2.5c1.2,0,2.4,0.2,3.5,0.8c0.9,0.5,1.7,1.2,2.1,2.2
			c0.5,1.3,0.7,2.7,0.6,4.1v11.5h-3.1v-11.5c0.1-1.2-0.3-2.4-1-3.4c-0.8-0.7-1.8-1.1-2.8-1.1c-0.9,0-1.8,0.2-2.6,0.7
			c-0.8,0.4-1.4,1.1-1.7,1.9c-0.4,1.1-0.6,2.2-0.5,3.4v9.9L899.9,175.9z"/>
		<path class="st3" d="M918.3,166.8c0-3.4,0.9-5.9,2.8-7.5c1.6-1.4,3.6-2.1,5.7-2c2.3-0.1,4.5,0.8,6.1,2.5c1.7,1.9,2.5,4.3,2.4,6.8
			c0.1,1.9-0.3,3.8-1.1,5.5c-0.7,1.3-1.7,2.4-3.1,3.1c-1.3,0.7-2.9,1.1-4.4,1.1c-2.3,0.1-4.5-0.8-6.2-2.4
			C919.1,172.2,918.3,169.9,918.3,166.8z M921.4,166.8c-0.1,1.9,0.4,3.7,1.5,5.2c1.8,2.1,5,2.3,7.1,0.5c0.2-0.2,0.3-0.3,0.5-0.5
			c1-1.2,1.5-2.9,1.5-5.3c0.1-1.8-0.4-3.6-1.5-5.1c-1.8-2.1-5-2.3-7.2-0.5c-0.2,0.1-0.3,0.3-0.5,0.5
			C921.8,163.1,921.3,164.9,921.4,166.8z"/>
		<path class="st3" d="M938.9,175.9v-18.1h2.8v2.5c0.6-0.9,1.4-1.6,2.3-2.1c1-0.6,2.1-0.8,3.2-0.8c1.2,0,2.3,0.2,3.3,0.8
			c0.9,0.6,1.5,1.4,1.8,2.3c1.2-2,3.3-3.2,5.6-3.2c1.5-0.1,3,0.4,4.2,1.5c1.1,1.3,1.6,2.9,1.5,4.6v12.5h-3.1v-11.4
			c0-0.9-0.1-1.8-0.3-2.7c-0.2-0.5-0.6-1-1.1-1.3c-0.6-0.3-1.2-0.5-1.8-0.5c-1.2,0-2.3,0.4-3.2,1.3c-0.9,1.1-1.4,2.6-1.3,4.1v10.5
			h-3.1v-11.8c0.1-1.1-0.2-2.2-0.8-3.1c-0.6-0.7-1.5-1.1-2.5-1c-0.8,0-1.7,0.2-2.4,0.7c-0.7,0.5-1.3,1.2-1.6,2
			c-0.4,1.2-0.5,2.5-0.5,3.8v9.4H938.9z"/>
		<path class="st3" d="M980.5,170l3.2,0.4c-0.4,1.7-1.4,3.2-2.8,4.3c-3.6,2.4-8.3,2-11.5-0.9c-1.6-1.9-2.5-4.4-2.3-6.9
			c0-3.1,0.8-5.4,2.4-7.1c1.6-1.7,3.8-2.6,6.1-2.5c2.2-0.1,4.4,0.8,5.9,2.5c1.6,1.9,2.5,4.4,2.3,7c0,0.2,0,0.5,0,0.8h-13.5
			c0,1.7,0.6,3.3,1.7,4.6c1,1,2.4,1.6,3.8,1.6c1,0,2-0.3,2.9-0.9C979.5,172.1,980.1,171.1,980.5,170z M970.4,165.1h10.1
			c0-1.2-0.4-2.4-1.2-3.4c-0.9-1.2-2.3-1.8-3.8-1.8c-1.3,0-2.6,0.5-3.6,1.4C971,162.3,970.4,163.6,970.4,165.1L970.4,165.1z"/>
		<g class="st6">
			<path class="st7" d="M1043.2,563.1H840c-2.6,0-4.7-2.1-4.7-4.7v-62c0-2.6,2.1-4.7,4.7-4.7h203.2c2.6,0,4.7,2.1,4.7,4.7v62
				C1048.4,561,1046.2,563.1,1043.2,563.1z"/>
		</g>
		<path class="st3" d="M923.2,538.8h-2.9v-25.1h3.1v8.9c1.2-1.6,3-2.5,5-2.4c1.1,0,2.2,0.2,3.2,0.7c1,0.4,1.8,1.1,2.5,1.9
			c0.7,0.9,1.2,1.9,1.5,2.9c0.4,1.2,0.6,2.4,0.5,3.7c0,3.1-0.8,5.5-2.3,7.2c-1.4,1.6-3.4,2.6-5.5,2.5c-2,0.1-4-1-5-2.7L923.2,538.8z
			 M923.2,529.6c-0.1,1.6,0.2,3.2,0.9,4.7c1.1,2.2,3.8,3,5.9,1.9c0.6-0.3,1.1-0.7,1.5-1.3c1.1-1.5,1.6-3.4,1.5-5.2
			c0-2.4-0.5-4.1-1.4-5.2c-0.8-1.1-2.1-1.7-3.4-1.7c-1.4,0-2.7,0.7-3.5,1.8C923.6,526,923,527.8,923.2,529.6L923.2,529.6z"/>
		<path class="st3" d="M939.9,517.3v-3.5h3.1v3.5H939.9z M939.9,538.8v-18.1h3.1v18.1L939.9,538.8z"/>
		<path class="st3" d="M947.6,538.8v-18.1h2.8v2.6c1.3-2,3.5-3.1,5.8-3c1,0,2.1,0.2,3,0.6c0.8,0.3,1.5,0.9,2.1,1.5
			c0.5,0.7,0.8,1.5,1,2.3c0.1,1,0.2,2,0.2,3v11.2h-3.1v-11c0-1-0.1-1.9-0.4-2.8c-0.2-0.6-0.7-1.1-1.3-1.5c-0.6-0.4-1.4-0.6-2.1-0.6
			c-1.2,0-2.5,0.4-3.4,1.2c-1,0.8-1.4,2.4-1.4,4.7v9.9L947.6,538.8z"/>
		<g class="st6">
			<path class="st7" d="M1043.2,442.4H840c-2.6,0-4.7-2.1-4.7-4.7v-62c0-2.6,2.1-4.7,4.7-4.7h203.2c2.6,0,4.7,2.1,4.7,4.7v62
				C1048.4,440.3,1046.2,442.4,1043.2,442.4z"/>
		</g>
		<path class="st3" d="M931.3,418.1v-2.7c-1.2,2-3.4,3.1-5.8,3.1c-1,0-2.1-0.2-3-0.6c-0.8-0.3-1.5-0.9-2.1-1.5
			c-0.5-0.7-0.8-1.5-0.9-2.3c-0.2-0.9-0.2-1.9-0.2-2.9V400h3.1v10.1c0,1.1,0,2.2,0.2,3.2c0.2,0.8,0.6,1.4,1.2,1.9
			c0.7,0.5,1.5,0.7,2.3,0.7c0.9,0,1.8-0.2,2.6-0.7c0.8-0.4,1.4-1.1,1.7-1.9c0.4-1.1,0.6-2.3,0.5-3.5V400h3.1v18.1L931.3,418.1z"/>
		<path class="st3" d="M937.6,412.7l3-0.5c0.1,1.1,0.6,2.1,1.4,2.8c0.9,0.7,2.1,1,3.3,1c1.1,0.1,2.2-0.2,3.1-0.9c0.6-0.5,1-1.2,1-2
			c0-0.7-0.3-1.3-0.9-1.6c-1-0.5-2.1-0.8-3.1-1c-1.6-0.4-3.2-0.9-4.7-1.5c-1.6-0.7-2.7-2.4-2.7-4.2c0-0.8,0.2-1.6,0.6-2.2
			c0.4-0.7,0.9-1.3,1.5-1.7c0.6-0.4,1.3-0.7,2-0.9c0.9-0.2,1.8-0.4,2.7-0.4c1.3,0,2.5,0.2,3.8,0.6c0.9,0.3,1.8,0.9,2.4,1.7
			c0.6,0.8,0.9,1.8,1.1,2.8l-3,0.4c-0.1-0.9-0.5-1.6-1.2-2.2c-0.8-0.6-1.8-0.8-2.8-0.8c-1.1-0.1-2.1,0.2-3,0.7
			c-0.5,0.4-0.9,1-0.9,1.6c0,0.4,0.1,0.8,0.4,1.1c0.3,0.4,0.7,0.7,1.2,0.8c0.3,0.1,1.2,0.4,2.7,0.8c1.5,0.4,3.1,0.9,4.6,1.4
			c0.8,0.3,1.5,0.9,2,1.6c0.5,0.8,0.8,1.7,0.7,2.6c0,1-0.3,2-0.9,2.9c-0.6,0.9-1.5,1.7-2.6,2.1c-1.2,0.5-2.5,0.8-3.8,0.7
			c-1.9,0.1-3.8-0.4-5.4-1.5C938.7,416,937.9,414.4,937.6,412.7z"/>
		<path class="st3" d="M956.3,418.1V400h2.8v2.8c0.5-1,1.1-1.8,2-2.5c0.6-0.4,1.3-0.6,2-0.6c1.1,0,2.2,0.4,3.2,1l-1.1,2.9
			c-0.7-0.4-1.5-0.7-2.3-0.7c-0.7,0-1.3,0.2-1.8,0.6c-0.6,0.4-1,1-1.1,1.7c-0.4,1.2-0.5,2.4-0.5,3.6v9.5L956.3,418.1z"/>
		<g class="st1">
			<path class="st2" d="M494.6,563.3H291.4c-2.6,0-4.7-2.1-4.7-4.7v-62c0-2.6,2.1-4.7,4.7-4.7h203.2c2.6,0,4.7,2.1,4.7,4.7v62
				C499.8,561.1,497.6,563.3,494.6,563.3z"/>
		</g>
		<path class="st3" d="M374.6,539h-2.9v-25.1h3.1v8.9c1.2-1.6,3-2.5,5-2.4c1.1,0,2.2,0.2,3.2,0.7c1,0.4,1.8,1.1,2.5,1.9
			c0.7,0.9,1.2,1.9,1.5,2.9c0.4,1.2,0.6,2.4,0.5,3.7c0,3.1-0.8,5.5-2.3,7.2c-1.4,1.6-3.4,2.6-5.5,2.5c-2,0.1-4-1-5-2.7L374.6,539z
			 M374.6,529.8c-0.1,1.6,0.2,3.2,0.9,4.7c1.1,2.2,3.8,3,5.9,1.9c0.6-0.3,1.1-0.7,1.5-1.3c1.1-1.5,1.6-3.4,1.5-5.2
			c0-2.4-0.5-4.1-1.4-5.2c-0.8-1.1-2.1-1.7-3.4-1.7c-1.4,0-2.7,0.7-3.5,1.8C375,526.2,374.5,528,374.6,529.8L374.6,529.8z"/>
		<path class="st3" d="M391.3,517.5v-3.5h3.1v3.5H391.3z M391.3,539v-18.1h3.1V539H391.3z"/>
		<path class="st3" d="M399,539v-18.1h2.8v2.6c1.3-2,3.5-3.1,5.8-3c1,0,2.1,0.2,3,0.6c0.8,0.3,1.5,0.9,2.1,1.5
			c0.5,0.7,0.8,1.5,1,2.3c0.1,1,0.2,2,0.2,3V539h-3.1v-11c0-1-0.1-1.9-0.4-2.8c-0.2-0.6-0.7-1.1-1.3-1.5c-0.6-0.4-1.4-0.6-2.1-0.6
			c-1.2,0-2.5,0.4-3.4,1.2c-1,0.8-1.4,2.4-1.4,4.7v9.9L399,539z"/>
		<path class="st8" d="M208.7,383.7H5.4c-2.6,0-4.7-2.1-4.7-4.7v-62c0-2.6,2.1-4.7,4.7-4.7h203.2c2.6,0,4.7,2.1,4.7,4.7v62
			C213.8,381.6,211.7,383.7,208.7,383.7z"/>
		<path class="st3" d="M208.7,384.4H5.4c-3,0-5.4-2.5-5.4-5.4v-62c0-3,2.5-5.4,5.4-5.4h203.2c3,0,5.4,2.5,5.4,5.4v61.9
			c0.2,1.3-0.2,2.6-1,3.6C212,383.8,210.3,384.5,208.7,384.4z M5.4,313c-2.2,0-4,1.8-4,4v62c0,2.2,1.8,4,4,4h203.2
			c1.3,0,2.5-0.5,3.3-1.4c0.6-0.7,0.8-1.6,0.7-2.5c0,0,0-0.1,0-0.1v-62c0-2.2-1.8-4-4-4L5.4,313z"/>
		<path class="st3" d="M102,359.8l7.3-25.9h2.5l-7.2,25.9H102z"/>
		<path class="st0" d="M562.6,165H455.2c-0.4,0-0.7-0.3-0.7-0.7c0-0.4,0.3-0.7,0.7-0.7h107.4c0.4,0,0.7,0.3,0.7,0.7
			C563.3,164.7,563,165,562.6,165z"/>
		<g class="st6">
			<path class="st9" d="M770.1,71.5H566.8c-2.6,0-4.7-2.1-4.7-4.7v-62c0-2.6,2.1-4.7,4.7-4.7h203.2c2.6,0,4.7,2.1,4.7,4.7v62
				C775.2,69.3,773.1,71.5,770.1,71.5z"/>
		</g>
		<path class="st3" d="M638.7,47.2v-2.7c-1.2,2-3.4,3.1-5.8,3.1c-1,0-2.1-0.2-3-0.6c-0.8-0.3-1.5-0.9-2.1-1.5
			c-0.5-0.7-0.8-1.5-0.9-2.3c-0.2-0.9-0.2-1.9-0.2-2.9V29h3.1v10.1c0,1.1,0,2.2,0.2,3.2c0.2,0.8,0.6,1.4,1.2,1.9
			c0.7,0.5,1.5,0.7,2.3,0.7c0.9,0,1.8-0.2,2.6-0.7c0.8-0.4,1.4-1.1,1.7-1.9c0.4-1.1,0.6-2.3,0.5-3.5V29h3.1v18.1L638.7,47.2z"/>
		<path class="st3" d="M645,41.8l3-0.5c0.1,1.1,0.6,2.1,1.4,2.8c0.9,0.7,2.1,1,3.3,1c1.1,0.1,2.2-0.2,3.1-0.9c0.6-0.5,1-1.2,1-2
			c0-0.7-0.3-1.3-0.9-1.6c-1-0.5-2.1-0.8-3.1-1c-1.6-0.4-3.2-0.9-4.7-1.5c-1.6-0.7-2.7-2.4-2.7-4.2c0-0.8,0.2-1.6,0.6-2.2
			c0.4-0.7,0.9-1.3,1.5-1.7c0.6-0.4,1.3-0.7,2-0.9c0.9-0.2,1.8-0.4,2.7-0.4c1.3,0,2.5,0.2,3.8,0.6c0.9,0.3,1.8,0.9,2.4,1.7
			c0.6,0.8,0.9,1.8,1.1,2.8l-3,0.4c-0.1-0.9-0.5-1.6-1.2-2.2c-0.8-0.6-1.8-0.8-2.8-0.8c-1.1-0.1-2.1,0.2-3,0.7
			c-0.5,0.4-0.9,1-0.9,1.6c0,0.4,0.1,0.8,0.4,1.1c0.3,0.4,0.7,0.7,1.2,0.8c0.3,0.1,1.2,0.4,2.7,0.8c1.5,0.4,3.1,0.9,4.6,1.4
			c0.8,0.3,1.5,0.9,2,1.6c0.5,0.8,0.8,1.7,0.7,2.6c0,1-0.3,2-0.9,2.9c-0.6,0.9-1.5,1.7-2.6,2.1c-1.2,0.5-2.5,0.8-3.8,0.7
			c-1.9,0.1-3.8-0.4-5.4-1.5C646.1,45,645.2,43.5,645,41.8z"/>
		<path class="st3" d="M676.2,41.3l3.2,0.4c-0.4,1.7-1.4,3.2-2.8,4.3c-3.6,2.4-8.3,2-11.5-0.9c-1.6-1.9-2.5-4.4-2.3-6.9
			c0-3.1,0.8-5.4,2.4-7.1c1.6-1.7,3.8-2.6,6.1-2.5c2.2-0.1,4.4,0.8,5.9,2.5c1.6,1.9,2.5,4.4,2.3,7c0,0.2,0,0.5,0,0.8h-13.5
			c0,1.7,0.6,3.3,1.7,4.6c1,1,2.4,1.6,3.8,1.6c1,0,2-0.3,2.9-0.9C675.2,43.4,675.8,42.4,676.2,41.3z M666.1,36.4h10.1
			c0-1.2-0.4-2.4-1.2-3.4c-0.9-1.2-2.3-1.8-3.8-1.8c-1.3,0-2.6,0.5-3.6,1.4C666.7,33.6,666.1,34.9,666.1,36.4L666.1,36.4z"/>
		<path class="st3" d="M683.2,47.2V29h2.8v2.8c0.5-1,1.1-1.8,2-2.5c0.6-0.4,1.3-0.6,2-0.6c1.1,0,2.2,0.4,3.2,1l-1.1,2.9
			c-0.7-0.4-1.5-0.7-2.3-0.7c-0.7,0-1.3,0.2-1.8,0.6c-0.6,0.4-1,1-1.1,1.7c-0.4,1.2-0.5,2.4-0.5,3.6v9.5L683.2,47.2z"/>
		<path class="st3" d="M705.6,47.2h-3.1V27.6c-0.9,0.8-1.9,1.5-2.9,2.1c-1,0.6-2.1,1.2-3.2,1.6v-3c1.6-0.8,3.2-1.7,4.5-2.9
			c1.1-0.9,2-2.1,2.7-3.4h2L705.6,47.2z"/>
		<path class="st10" d="M770.1,318.9H566.8c-2.6,0-4.7-2.1-4.7-4.7v-62c0-2.6,2.1-4.7,4.7-4.7h203.2c2.6,0,4.7,2.1,4.7,4.7v62
			C775.2,316.7,773.1,318.9,770.1,318.9z"/>
		<path class="st0" d="M770.1,319.6H566.8c-3,0-5.4-2.5-5.4-5.4v-62c0-3,2.5-5.4,5.4-5.4h203.2c3,0,5.4,2.5,5.4,5.4v61.9
			c0.2,1.3-0.2,2.6-1,3.6C773.4,318.9,771.7,319.6,770.1,319.6z M566.8,248.1c-2.2,0-4,1.8-4,4v62c0,2.2,1.8,4,4,4h203.2
			c1.3,0,2.5-0.5,3.3-1.4c0.6-0.7,0.8-1.6,0.7-2.5c0,0,0-0.1,0-0.1v-62c0-2.2-1.8-4-4-4H566.8z"/>
		<path class="st3" d="M633.8,287.9l3,0.4c-0.2,1.9-1.1,3.6-2.5,4.9c-1.4,1.2-3.2,1.8-5,1.8c-2.3,0.1-4.4-0.8-6-2.4
			c-1.5-1.6-2.3-3.9-2.3-7c0-1.8,0.3-3.5,1-5.1c0.6-1.4,1.6-2.6,3-3.3c1.3-0.7,2.8-1.1,4.3-1.1c1.7-0.1,3.4,0.5,4.8,1.5
			c1.3,1.1,2.2,2.6,2.4,4.2l-3,0.5c-0.2-1.1-0.7-2-1.5-2.8c-0.7-0.6-1.7-0.9-2.6-0.9c-1.4,0-2.8,0.6-3.8,1.7c-1,1.1-1.5,2.9-1.5,5.3
			c0,2.4,0.5,4.2,1.4,5.3c0.9,1.1,2.2,1.7,3.7,1.7c1.1,0,2.2-0.4,3-1.1C633.1,290.4,633.7,289.2,633.8,287.9z"/>
		<path class="st3" d="M639.4,294.6v-25.1h3.1v9c1.3-1.6,3.3-2.5,5.4-2.5c1.2,0,2.4,0.2,3.5,0.8c0.9,0.5,1.7,1.2,2.1,2.2
			c0.5,1.3,0.7,2.7,0.6,4.1v11.5h-3.1v-11.5c0.1-1.2-0.3-2.4-1-3.4c-0.8-0.7-1.8-1.1-2.8-1.1c-0.9,0-1.8,0.2-2.6,0.7
			c-0.8,0.4-1.4,1.1-1.7,1.9c-0.4,1.1-0.6,2.2-0.5,3.4v9.9L639.4,294.6z"/>
		<path class="st3" d="M658.9,294.6v-18.1h2.8v2.8c0.5-1,1.1-1.8,2-2.5c0.6-0.4,1.3-0.6,2-0.6c1.1,0,2.2,0.4,3.2,1l-1.1,2.9
			c-0.7-0.4-1.5-0.7-2.3-0.7c-0.7,0-1.3,0.2-1.8,0.6c-0.6,0.4-1,1-1.1,1.7c-0.4,1.2-0.5,2.4-0.5,3.6v9.5H658.9z"/>
		<path class="st3" d="M669.4,285.5c0-3.4,0.9-5.9,2.8-7.5c1.6-1.4,3.6-2.1,5.7-2c2.3-0.1,4.5,0.8,6.1,2.5c1.7,1.9,2.5,4.3,2.4,6.8
			c0.1,1.9-0.3,3.8-1.1,5.5c-0.7,1.3-1.7,2.4-3.1,3.1c-1.3,0.7-2.9,1.1-4.4,1.1c-2.3,0.1-4.5-0.8-6.2-2.4
			C670.2,290.9,669.4,288.6,669.4,285.5z M672.6,285.5c-0.1,1.9,0.4,3.7,1.5,5.2c1.8,2.1,5,2.3,7.1,0.5c0.2-0.2,0.3-0.3,0.5-0.5
			c1-1.2,1.5-2.9,1.5-5.3c0.1-1.8-0.4-3.6-1.5-5.1c-1.8-2.1-5-2.3-7.2-0.5c-0.2,0.1-0.3,0.3-0.5,0.5
			C673,281.8,672.4,283.6,672.6,285.5L672.6,285.5z"/>
		<path class="st3" d="M688.9,285.5c0-3.4,0.9-5.9,2.8-7.5c1.6-1.4,3.6-2.1,5.7-2c2.3-0.1,4.5,0.8,6.1,2.5c1.7,1.9,2.5,4.3,2.4,6.8
			c0.1,1.9-0.3,3.8-1.1,5.5c-0.7,1.3-1.7,2.4-3.1,3.1c-1.3,0.7-2.9,1.1-4.4,1.1c-2.3,0.1-4.5-0.8-6.2-2.4
			C689.6,290.9,688.9,288.6,688.9,285.5z M692,285.5c-0.1,1.9,0.4,3.7,1.5,5.2c1.8,2.1,5,2.3,7.1,0.5c0.2-0.2,0.3-0.3,0.5-0.5
			c1-1.2,1.5-2.9,1.5-5.3c0.1-1.8-0.4-3.6-1.5-5.1c-1.8-2.1-5-2.3-7.2-0.5c-0.2,0.1-0.3,0.3-0.5,0.5
			C692.4,281.8,691.9,283.6,692,285.5z"/>
		<path class="st3" d="M716.2,291.8l0.4,2.7c-0.8,0.2-1.5,0.3-2.3,0.3c-0.9,0-1.8-0.1-2.6-0.5c-0.6-0.3-1-0.8-1.3-1.4
			c-0.3-1.2-0.5-2.4-0.4-3.6v-10.4h-2.3v-2.4h2.3v-4.5l3.1-1.8v6.3h3.1v2.4h-3.1v10.6c0,0.6,0,1.1,0.2,1.7c0.1,0.3,0.3,0.5,0.5,0.6
			c0.3,0.2,0.7,0.2,1.1,0.2C715.3,291.9,715.7,291.9,716.2,291.8z"/>
		<g class="st6">
			<path class="st9" d="M770.1,198.2H566.8c-2.6,0-4.7-2.1-4.7-4.7v-62c0-2.6,2.1-4.7,4.7-4.7h203.2c2.6,0,4.7,2.1,4.7,4.7v62
				C775.2,196,773.1,198.2,770.1,198.2z"/>
		</g>
		<path class="st3" d="M638.7,175.9v-2.7c-1.2,2-3.4,3.1-5.8,3.1c-1,0-2.1-0.2-3-0.6c-0.8-0.3-1.5-0.9-2.1-1.5
			c-0.5-0.7-0.8-1.5-0.9-2.3c-0.2-0.9-0.2-1.9-0.2-2.9v-11.2h3.1v10.1c0,1.1,0,2.2,0.2,3.2c0.2,0.8,0.6,1.4,1.2,1.9
			c0.7,0.5,1.5,0.7,2.3,0.7c0.9,0,1.8-0.2,2.6-0.7c0.8-0.4,1.4-1.1,1.7-1.9c0.4-1.1,0.6-2.3,0.5-3.5v-9.7h3.1v18.1L638.7,175.9z"/>
		<path class="st3" d="M645,170.5l3-0.5c0.1,1.1,0.6,2.1,1.4,2.8c0.9,0.7,2.1,1,3.3,1c1.1,0.1,2.2-0.2,3.1-0.9c0.6-0.5,1-1.2,1-2
			c0-0.7-0.3-1.3-0.9-1.6c-1-0.5-2.1-0.8-3.1-1c-1.6-0.4-3.2-0.9-4.7-1.5c-1.6-0.7-2.7-2.4-2.7-4.2c0-0.8,0.2-1.6,0.6-2.2
			c0.4-0.7,0.9-1.3,1.5-1.7c0.6-0.4,1.3-0.7,2-0.9c0.9-0.2,1.8-0.4,2.7-0.4c1.3,0,2.5,0.2,3.8,0.6c0.9,0.3,1.8,0.9,2.4,1.7
			c0.6,0.8,0.9,1.8,1.1,2.8l-3,0.4c-0.1-0.9-0.5-1.6-1.2-2.2c-0.8-0.6-1.8-0.8-2.8-0.8c-1.1-0.1-2.1,0.2-3,0.7
			c-0.5,0.4-0.9,1-0.9,1.6c0,0.4,0.1,0.8,0.4,1.1c0.3,0.4,0.7,0.7,1.2,0.8c0.3,0.1,1.2,0.4,2.7,0.8c1.5,0.4,3.1,0.9,4.6,1.4
			c0.8,0.3,1.5,0.9,2,1.6c0.5,0.8,0.8,1.7,0.7,2.6c0,1-0.3,2-0.9,2.9c-0.6,0.9-1.5,1.7-2.6,2.1c-1.2,0.5-2.5,0.8-3.8,0.7
			c-1.9,0.1-3.8-0.4-5.4-1.5C646.1,173.7,645.2,172.2,645,170.5z"/>
		<path class="st3" d="M676.2,170l3.2,0.4c-0.4,1.7-1.4,3.2-2.8,4.3c-3.6,2.4-8.3,2-11.5-0.9c-1.6-1.9-2.5-4.4-2.3-6.9
			c0-3.1,0.8-5.4,2.4-7.1c1.6-1.7,3.8-2.6,6.1-2.5c2.2-0.1,4.4,0.8,5.9,2.5c1.6,1.9,2.5,4.4,2.3,7c0,0.2,0,0.5,0,0.8h-13.5
			c0,1.7,0.6,3.3,1.7,4.6c1,1,2.4,1.6,3.8,1.6c1,0,2-0.3,2.9-0.9C675.2,172.1,675.8,171.1,676.2,170z M666.1,165.1h10.1
			c0-1.2-0.4-2.4-1.2-3.4c-0.9-1.2-2.3-1.8-3.8-1.8c-1.3,0-2.6,0.5-3.6,1.4C666.7,162.3,666.1,163.6,666.1,165.1L666.1,165.1z"/>
		<path class="st3" d="M683.2,175.9v-18.1h2.8v2.8c0.5-1,1.1-1.8,2-2.5c0.6-0.4,1.3-0.6,2-0.6c1.1,0,2.2,0.4,3.2,1l-1.1,2.9
			c-0.7-0.4-1.5-0.7-2.3-0.7c-0.7,0-1.3,0.2-1.8,0.6c-0.6,0.4-1,1-1.1,1.7c-0.4,1.2-0.5,2.4-0.5,3.6v9.5H683.2z"/>
		<path class="st3" d="M710.2,172.9v3h-16.6c0-0.7,0.1-1.5,0.4-2.1c0.5-1.2,1.2-2.3,2-3.3c1.2-1.4,2.6-2.6,4-3.8
			c2-1.6,3.9-3.3,5.5-5.3c0.9-1,1.4-2.3,1.4-3.7c0-1.2-0.5-2.3-1.3-3.1c-0.9-0.9-2.2-1.3-3.4-1.3c-1.3-0.1-2.6,0.4-3.6,1.3
			c-0.9,1-1.4,2.3-1.3,3.7l-3.2-0.3c0.1-2,1-4,2.4-5.4c1.6-1.3,3.6-2,5.7-1.9c2.1-0.1,4.1,0.6,5.7,2c1.4,1.3,2.1,3.1,2.1,5
			c0,1-0.2,2-0.6,3c-0.5,1.1-1.2,2.2-2,3.1c-1.5,1.6-3.1,3-4.7,4.4c-1.8,1.5-3,2.6-3.6,3.2c-0.5,0.5-0.9,1.1-1.3,1.7L710.2,172.9z"
			/>
		<path class="st11" d="M494.6,198.2H291.4c-2.6,0-4.7-2.1-4.7-4.7v-62c0-2.6,2.1-4.7,4.7-4.7h203.2c2.6,0,4.7,2.1,4.7,4.7v62
			C499.8,196,497.6,198.2,494.6,198.2z"/>
		<path class="st0" d="M494.6,198.9H291.4c-3,0-5.4-2.5-5.4-5.4v-62c0-3,2.5-5.4,5.4-5.4h203.2c3,0,5.4,2.5,5.4,5.4v61.9
			c0.2,1.3-0.2,2.6-1,3.6C497.9,198.2,496.3,198.9,494.6,198.9z M291.4,127.4c-2.2,0-4,1.8-4,4v62c0,2.2,1.8,4,4,4h203.2
			c1.3,0,2.5-0.5,3.3-1.4c0.6-0.7,0.8-1.6,0.7-2.5c0,0,0-0.1,0-0.1v-62c0-2.2-1.8-4-4-4H291.4z"/>
		<path class="st3" d="M351.4,175.9v-25.1h3.1v9c1.3-1.6,3.3-2.5,5.4-2.5c1.2,0,2.4,0.2,3.5,0.8c0.9,0.5,1.7,1.2,2.1,2.2
			c0.5,1.3,0.7,2.7,0.6,4.1v11.5h-3.1v-11.5c0.1-1.2-0.3-2.4-1-3.4c-0.8-0.7-1.8-1.1-2.8-1.1c-0.9,0-1.8,0.2-2.6,0.7
			c-0.8,0.4-1.4,1.1-1.7,1.9c-0.4,1.1-0.6,2.2-0.5,3.4v9.9L351.4,175.9z"/>
		<path class="st3" d="M369.7,166.8c0-3.4,0.9-5.9,2.8-7.5c1.6-1.4,3.6-2.1,5.7-2c2.3-0.1,4.5,0.8,6.1,2.5c1.7,1.9,2.5,4.3,2.4,6.8
			c0.1,1.9-0.3,3.8-1.1,5.5c-0.7,1.3-1.7,2.4-3.1,3.1c-1.3,0.7-2.9,1.1-4.4,1.1c-2.3,0.1-4.5-0.8-6.2-2.4
			C370.5,172.2,369.7,169.9,369.7,166.8z M372.9,166.8c-0.1,1.9,0.4,3.7,1.5,5.2c1.8,2.1,5,2.3,7.1,0.5c0.2-0.2,0.3-0.3,0.5-0.5
			c1-1.2,1.5-2.9,1.5-5.3c0.1-1.8-0.4-3.6-1.5-5.1c-1.8-2.1-5-2.3-7.2-0.5c-0.2,0.1-0.3,0.3-0.5,0.5
			C373.3,163.1,372.7,164.9,372.9,166.8z"/>
		<path class="st3" d="M390.3,175.9v-18.1h2.8v2.5c0.6-0.9,1.4-1.6,2.3-2.1c1-0.6,2.1-0.8,3.2-0.8c1.2,0,2.3,0.2,3.3,0.8
			c0.9,0.6,1.5,1.4,1.8,2.3c1.2-2,3.3-3.2,5.6-3.2c1.5-0.1,3,0.4,4.2,1.5c1.1,1.3,1.6,2.9,1.5,4.6v12.5h-3.1v-11.4
			c0-0.9-0.1-1.8-0.3-2.7c-0.2-0.5-0.6-1-1.1-1.3c-0.6-0.3-1.2-0.5-1.8-0.5c-1.2,0-2.3,0.4-3.2,1.3c-0.9,1.1-1.4,2.6-1.3,4.1v10.5
			h-3.1v-11.8c0.1-1.1-0.2-2.2-0.8-3.1c-0.6-0.7-1.5-1.1-2.5-1c-0.8,0-1.7,0.2-2.4,0.7c-0.7,0.5-1.3,1.2-1.6,2
			c-0.4,1.2-0.5,2.5-0.5,3.8v9.4H390.3z"/>
		<path class="st3" d="M431.9,170l3.2,0.4c-0.4,1.7-1.4,3.2-2.8,4.3c-3.6,2.4-8.3,2-11.5-0.9c-1.6-1.9-2.5-4.4-2.3-6.9
			c0-3.1,0.8-5.4,2.4-7.1c1.6-1.7,3.8-2.6,6.1-2.5c2.2-0.1,4.4,0.8,5.9,2.5c1.6,1.9,2.5,4.4,2.3,7c0,0.2,0,0.5,0,0.8h-13.5
			c0,1.7,0.6,3.3,1.7,4.6c1,1,2.4,1.6,3.8,1.6c1,0,2-0.3,2.9-0.9C430.9,172.1,431.5,171.1,431.9,170z M421.8,165.1h10.1
			c0-1.2-0.4-2.4-1.2-3.4c-0.9-1.2-2.3-1.8-3.8-1.8c-1.3,0-2.6,0.5-3.6,1.4C422.4,162.3,421.8,163.6,421.8,165.1L421.8,165.1z"/>
	</g>
</g>
</svg>
