<svg xmlns="http://www.w3.org/2000/svg" viewBox="0 0 917.8133 679.2712"><defs><style>.cls-1{opacity:0.2;}.cls-2{fill:#39c2d7;}.cls-3{fill:#3bc2d7;}.cls-4{opacity:0.5;isolation:isolate;}.cls-5{fill:#cccccb;}.cls-6{font-size:30px;fill:#263852;font-family:ArialMT, Arial;}.cls-7{fill:#066da5;}.cls-8{letter-spacing:-0.0181em;}</style></defs><g id="Слой_2" data-name="Слой 2"><g id="Слой_1-2" data-name="Слой 1"><g class="cls-1"><rect class="cls-2" y="61.41" width="917.8133" height="415.1515" rx="9.5643"/></g><rect class="cls-3" x="386.4127" y="80.0323" width="107.7433" height="41.9002" rx="5.3505"/><rect class="cls-3" x="112.3521" y="340.0793" width="196.5629" height="41.9002" rx="7.2269"/><g class="cls-4"><rect class="cls-5" y="485.7228" width="917.8133" height="90.4324" rx="5.6437"/></g><text class="cls-6" transform="translate(26.8094 520.7958)"># docker build -t myapp .<tspan x="0" y="43">...</tspan></text><g class="cls-4"><rect class="cls-5" y="588.8388" width="917.8133" height="90.4324" rx="8.0588"/></g><text class="cls-6" transform="translate(26.8094 625.2137)"># docker build -t myapp --target builder .<tspan x="0" y="43">...</tspan></text><path class="cls-7" d="M46.0377,21.6684h7.0005V15.3346H46.0377Zm-8.334,0h7.0005V15.3346H37.7037Zm-8.1674,0h7.0006V15.3346H29.5363Zm-8.1673,0h6.8339V15.3346H21.369Zm-8.334,0h7.0006V15.3346H13.035Zm8.334-7.6673h6.8339V7.6673H21.369Zm8.1673,0h7.0006V7.6673H29.5363Zm8.1674,0h7.0005V7.6673H37.7037Zm0-7.6673h7.0005V0H37.7037Zm37.67,12.5011s-3-2.8336-9.1674-1.8335c-.6667-4.8337-5.8338-7.6673-5.8338-7.6673s-4.8337,5.8338-1.3335,12.3343a11.1759,11.1759,0,0,1-5.1671,1.1668H8.0346c-.8334,3.1669-.8334,24.1686,22.1685,24.1686,16.5013,0,28.8356-7.6673,34.6694-21.6684C73.54,26.0021,75.3734,18.8349,75.3734,18.8349Z"/><text class="cls-6" transform="translate(24.6088 110.8232)">FROM maven: 3.3-jdk-8 as builder<tspan x="0" y="43">COP</tspan><tspan class="cls-8" x="65.0098" y="43">Y</tspan><tspan x="84.4775" y="43" xml:space="preserve"> . /build/</tspan><tspan x="0" y="86">WORKDIR /build/</tspan><tspan x="0" y="129">RUN mvn clean install</tspan><tspan x="0" y="215">FROM openjdk: 8-jre</tspan><tspan x="0" y="258">COP</tspan><tspan class="cls-8" x="65.0098" y="258">Y</tspan><tspan x="84.4775" y="258" xml:space="preserve"> --from=builder /build/target/demoapp.jar/opt/</tspan><tspan x="0" y="301">EXPOSE 8080</tspan><tspan x="0" y="344">ENT</tspan><tspan class="cls-8" x="60" y="344">R</tspan><tspan x="81.123" y="344">YPOIN</tspan><tspan class="cls-8" x="174.4775" y="344">T</tspan><tspan x="192.2607" y="344" xml:space="preserve"> [“java”, “-jar”, “/opt/demoapp.jar”] </tspan></text></g></g></svg>