<svg xmlns="http://www.w3.org/2000/svg" viewBox="0 0 917.8133 654.4241"><defs><style>.cls-1{opacity:0.2;}.cls-2{fill:#39c2d7;}.cls-3{opacity:0.5;isolation:isolate;}.cls-4{fill:#cccccb;}.cls-5{font-size:30px;}.cls-10,.cls-5,.cls-7{fill:#263852;}.cls-10,.cls-5{font-family:ArialMT, Arial;}.cls-6{fill:#fff;}.cls-8{fill:#066da5;}.cls-9{letter-spacing:-0.0181em;}.cls-10{font-size:18px;}.cls-11{font-family:MyriadPro-Regular, Myriad Pro;}</style></defs><g id="Слой_2" data-name="Слой 2"><g id="Слой_1-2" data-name="Слой 1"><g class="cls-1"><rect class="cls-2" y="61.41" width="917.8133" height="150.9658" rx="5.7675"/></g><g class="cls-3"><rect class="cls-4" y="221.0296" width="917.8133" height="77.5756" rx="5.2271"/></g><text class="cls-5" transform="translate(26.81 272.0644)"># docker build -t ping:1.0 .</text><g class="cls-3"><rect class="cls-4" y="309.4856" width="917.8133" height="77.5756" rx="7.464"/></g><rect class="cls-6" x="487.1726" y="276.5289" width="411.6858" height="51.7075" rx="4.0812"/><path class="cls-7" d="M894.7768,328.9453H491.2534a4.7959,4.7959,0,0,1-4.79-4.79V280.61a4.7957,4.7957,0,0,1,4.79-4.79H894.7768a4.796,4.796,0,0,1,4.7911,4.79v43.5451A4.7962,4.7962,0,0,1,894.7768,328.9453ZM491.2534,277.2378a3.3759,3.3759,0,0,0-3.3721,3.3723v43.5451a3.3761,3.3761,0,0,0,3.3721,3.3726H894.7768a3.3763,3.3763,0,0,0,3.3731-3.3726V280.61a3.3762,3.3762,0,0,0-3.3731-3.3723Z"/><text class="cls-5" transform="translate(26.81 360.5204)"># docker run ping:1.0</text><g class="cls-3"><rect class="cls-4" y="398.6066" width="917.8133" height="77.5756" rx="5.2271"/></g><text class="cls-5" transform="translate(26.81 449.6414)"># docker run ping:1.0 --help</text><g class="cls-3"><rect class="cls-4" y="487.0625" width="917.8133" height="77.5756" rx="7.464"/></g><text class="cls-5" transform="translate(26.81 538.0973)"># docker run ping:1.0 google.com</text><g class="cls-3"><rect class="cls-4" y="576.8486" width="917.8133" height="77.5756" rx="7.464"/></g><text class="cls-5" transform="translate(26.81 627.8834)"># docker run ping:1.0</text><path class="cls-8" d="M46.0377,21.6684h7.0005V15.3346H46.0377Zm-8.334,0h7.0005V15.3346H37.7037Zm-8.1674,0h7.0006V15.3346H29.5363Zm-8.1673,0h6.8339V15.3346H21.369Zm-8.334,0h7.0006V15.3346H13.035Zm8.334-7.6673h6.8339V7.6673H21.369Zm8.1673,0h7.0006V7.6673H29.5363Zm8.1674,0h7.0005V7.6673H37.7037Zm0-7.6673h7.0005V0H37.7037Zm37.67,12.5011s-3-2.8336-9.1674-1.8335c-.6667-4.8337-5.8338-7.6673-5.8338-7.6673s-4.8337,5.8338-1.3335,12.3343a11.1759,11.1759,0,0,1-5.1671,1.1668H8.0346c-.8334,3.1669-.8334,24.1686,22.1685,24.1686,16.5013,0,28.8356-7.6673,34.6694-21.6684C73.54,26.0021,75.3734,18.8349,75.3734,18.8349Z"/><text class="cls-5" transform="translate(24.6078 110.8232)">FROM busybox<tspan x="0" y="43">ENT</tspan><tspan class="cls-9" x="60" y="43">R</tspan><tspan x="81.123" y="43">YPOIN</tspan><tspan class="cls-9" x="174.4775" y="43">T</tspan><tspan x="192.2607" y="43" xml:space="preserve"> [“ping”]</tspan><tspan x="0" y="86">CMD [“-c1, “epam.com”] </tspan></text><text class="cls-10" transform="translate(497.3762 310.4088)">will send 1 ICM<tspan class="cls-9" x="122.0361" y="0">P</tspan><tspan x="133.7168" y="0" xml:space="preserve"> package to epam.com (default)</tspan></text><rect class="cls-6" x="487.1726" y="364.3198" width="411.6858" height="51.7075" rx="4.0812"/><path class="cls-7" d="M894.7768,416.7361H491.2534a4.796,4.796,0,0,1-4.79-4.79V368.4011a4.7959,4.7959,0,0,1,4.79-4.79H894.7768a4.7962,4.7962,0,0,1,4.7911,4.79V411.946A4.7963,4.7963,0,0,1,894.7768,416.7361ZM491.2534,365.0285a3.3762,3.3762,0,0,0-3.3721,3.3726V411.946a3.3762,3.3762,0,0,0,3.3721,3.3726H894.7768a3.3764,3.3764,0,0,0,3.3731-3.3726V368.4011a3.3764,3.3764,0,0,0-3.3731-3.3726Z"/><text class="cls-10" transform="translate(725.136 398.1996)">will print help output</text><rect class="cls-6" x="487.1726" y="454.1058" width="411.6858" height="51.7075" rx="4.0812"/><path class="cls-7" d="M894.7768,506.5222H491.2534a4.7959,4.7959,0,0,1-4.79-4.79V458.187a4.7957,4.7957,0,0,1,4.79-4.79H894.7768a4.796,4.796,0,0,1,4.7911,4.79v43.5451A4.7962,4.7962,0,0,1,894.7768,506.5222ZM491.2534,454.8147a3.3759,3.3759,0,0,0-3.3721,3.3723v43.5451a3.3761,3.3761,0,0,0,3.3721,3.3726H894.7768a3.3763,3.3763,0,0,0,3.3731-3.3726V458.187a3.3762,3.3762,0,0,0-3.3731-3.3723Z"/><text class="cls-10" transform="translate(502.9006 487.9857)">will print “google.com” unless interrupted with<tspan class="cls-11" x="360.1582" y="0">^C</tspan></text><rect class="cls-6" x="487.1726" y="543.8919" width="411.6858" height="51.7075" rx="4.0812"/><path class="cls-7" d="M894.7768,596.3081H491.2534a4.7957,4.7957,0,0,1-4.79-4.79V547.9731a4.7959,4.7959,0,0,1,4.79-4.79H894.7768a4.7962,4.7962,0,0,1,4.7911,4.79v43.5452A4.796,4.796,0,0,1,894.7768,596.3081ZM491.2534,544.6006a3.3761,3.3761,0,0,0-3.3721,3.3725v43.5452a3.3759,3.3759,0,0,0,3.3721,3.3723H894.7768a3.3762,3.3762,0,0,0,3.3731-3.3723V547.9731a3.3763,3.3763,0,0,0-3.3731-3.3725Z"/><text class="cls-10" transform="translate(629.1418 577.7718)">will print “google.com” for 1 time</text></g></g></svg>