<?xml version="1.0" encoding="utf-8"?>
<!-- Generator: Adobe Illustrator 27.9.0, SVG Export Plug-In . SVG Version: 6.00 Build 0)  -->
<svg version="1.1" id="Layer_1" xmlns="http://www.w3.org/2000/svg" xmlns:xlink="http://www.w3.org/1999/xlink" x="0px" y="0px"
	 viewBox="0 0 1462.7 269.7" style="enable-background:new 0 0 1462.7 269.7;" xml:space="preserve">
<style type="text/css">
	.st0{fill:#E5E5E3;}
	.st1{fill:#263852;}
	.st2{font-family:'ArialMT';}
	.st3{font-size:25px;}
	.st4{font-family:'Arial-BoldMT';}
	.st5{font-size:40px;}
	.st6{fill:none;}
</style>
<g id="Слой_2">
	<g id="Слой_1-2">
		<path class="st0" d="M298.6,84.2H2.4c-1.1,0-1.9-0.9-1.9-1.9V2.5c0-1.1,0.9-1.9,1.9-1.9h296.2c1.1,0,1.9,0.9,1.9,1.9v79.9
			C300.5,83.4,299.7,84.2,298.6,84.2z"/>
		<path class="st1" d="M298.6,84.8H2.4c-1.4,0-2.4-1.1-2.4-2.4V2.5C0,1.1,1.1,0,2.4,0h296.2c1.4,0,2.4,1.1,2.5,2.5v79.9
			C301.1,83.7,300,84.8,298.6,84.8z M2.4,1.1c-0.8,0-1.4,0.6-1.4,1.4v79.9c0,0.8,0.6,1.4,1.4,1.4h296.2c0.8,0,1.4-0.6,1.4-1.4V2.5
			c0-0.8-0.6-1.4-1.4-1.4H2.4z"/>
		<g>
			<text transform="matrix(1 0 0 1 47.498 53.1011)" class="st1 st2 st3">Scratch</text>
		</g>
		<g>
			<text transform="matrix(1 0 0 1 583.1074 54.7637)" class="st1 st4 st5">Building a base</text>
			<text transform="matrix(1 0 0 1 673.1074 102.7637)" class="st1 st4 st5">image</text>
		</g>
		<path class="st0" d="M1460.2,84.2H1164c-1.1,0-1.9-0.9-1.9-1.9V2.5c0-1.1,0.9-1.9,1.9-1.9h296.2c1.1,0,1.9,0.9,1.9,1.9v79.9
			C1462.1,83.4,1461.3,84.2,1460.2,84.2z"/>
		<path class="st1" d="M1460.2,84.8H1164c-1.4,0-2.4-1.1-2.4-2.4V2.5c0-1.4,1.1-2.4,2.4-2.5h296.2c1.4,0,2.4,1.1,2.4,2.5v79.9
			C1462.6,83.7,1461.6,84.8,1460.2,84.8z M1164,1.1c-0.8,0-1.4,0.6-1.4,1.4v79.9c0,0.8,0.6,1.4,1.4,1.4h296.2c0.8,0,1.4-0.6,1.4-1.4
			V2.5c0-0.8-0.6-1.4-1.4-1.4H1164z"/>
		<g>
			<text transform="matrix(1 0 0 1 1194.5 53.1016)" class="st1 st2 st3">Debian:jessie</text>
		</g>
		<line class="st6" x1="323" y1="45.7" x2="561" y2="45.7"/>
		<path class="st1" d="M561,46.4H323c-0.4,0-0.7-0.3-0.7-0.7c0-0.4,0.3-0.7,0.7-0.7c0,0,0,0,0,0h238c0.4,0,0.7,0.3,0.7,0.7
			C561.8,46.1,561.4,46.4,561,46.4C561,46.4,561,46.4,561,46.4z"/>
		<path class="st1" d="M305.9,47l15.5,5.9c0.7,0.3,1.5-0.1,1.8-0.8c0.1-0.2,0.1-0.3,0.1-0.5V39.8c0-0.8-0.6-1.4-1.4-1.4
			c-0.2,0-0.3,0-0.5,0.1l-15.5,5.9c-0.7,0.3-1.1,1.1-0.8,1.8C305.2,46.6,305.5,46.9,305.9,47z"/>
		<line class="st6" x1="1142.2" y1="45.7" x2="904.1" y2="45.7"/>
		<path class="st1" d="M1142.2,46.4h-238c-0.4,0-0.7-0.3-0.7-0.7c0-0.4,0.3-0.7,0.7-0.7c0,0,0,0,0,0h238c0.4,0,0.7,0.3,0.7,0.7
			C1142.9,46.1,1142.6,46.4,1142.2,46.4C1142.2,46.4,1142.2,46.4,1142.2,46.4z"/>
		<path class="st1" d="M1157.1,44.4l-15.5-5.9c-0.7-0.3-1.5,0.1-1.8,0.8c-0.1,0.2-0.1,0.3-0.1,0.5v11.8c0,0.8,0.6,1.4,1.4,1.4
			c0.2,0,0.3,0,0.5-0.1l15.5-5.9c0.7-0.3,1.1-1.1,0.8-1.8C1157.8,44.9,1157.5,44.6,1157.1,44.4z"/>
		<path class="st0" d="M1379.8,269.1h-296.2c-1.1,0-1.9-0.9-1.9-1.9v-79.9c0-1.1,0.9-1.9,1.9-1.9h296.2c1.1,0,1.9,0.9,1.9,1.9v79.9
			C1381.7,268.3,1380.8,269.1,1379.8,269.1z"/>
		<path class="st1" d="M1379.8,269.7h-296.2c-1.4,0-2.4-1.1-2.4-2.5v-79.9c0-1.4,1.1-2.4,2.4-2.4h296.2c1.4,0,2.4,1.1,2.4,2.4v79.9
			C1382.2,268.6,1381.1,269.7,1379.8,269.7z M1083.6,186c-0.8,0-1.4,0.6-1.4,1.4v79.9c0,0.8,0.6,1.4,1.4,1.4h296.2
			c0.8,0,1.4-0.6,1.4-1.4v-79.9c0-0.8-0.6-1.4-1.4-1.4L1083.6,186z"/>
		<g>
			<text transform="matrix(1 0 0 1 1117.5376 237.9941)" class="st1 st2 st3">Alpine:latest</text>
		</g>
		<path class="st0" d="M378.2,269.1H82c-1.1,0-1.9-0.9-1.9-1.9v-79.9c0-1.1,0.9-1.9,1.9-1.9h296.2c1.1,0,1.9,0.9,1.9,1.9v79.9
			C380.1,268.3,379.3,269.1,378.2,269.1z"/>
		<path class="st1" d="M378.2,269.7H82c-1.4,0-2.4-1.1-2.4-2.5v-79.9c0-1.4,1.1-2.4,2.4-2.4h296.2c1.4,0,2.4,1.1,2.5,2.4v79.9
			C380.6,268.6,379.6,269.7,378.2,269.7z M82,186c-0.8,0-1.4,0.6-1.4,1.4v79.9c0,0.8,0.6,1.4,1.4,1.4h296.2c0.8,0,1.4-0.6,1.4-1.4
			v-79.9c0-0.8-0.6-1.4-1.4-1.4H82z"/>
		<g>
			<text transform="matrix(1 0 0 1 128.959 237.9941)" class="st1 st2 st3">Busybox</text>
		</g>
		<path class="st1" d="M385.5,232.6l15.5,5.9c0.7,0.3,1.5-0.1,1.8-0.8c0.1-0.2,0.1-0.3,0.1-0.5v-11.8c0-0.8-0.6-1.4-1.4-1.4
			c-0.2,0-0.3,0-0.5,0.1l-15.5,5.9c-0.7,0.3-1.1,1.1-0.8,1.8C384.8,232.2,385.1,232.4,385.5,232.6z"/>
		<path class="st1" d="M673.4,232.1H387c-0.4,0-0.7-0.3-0.7-0.7s0.3-0.7,0.7-0.7c0,0,0,0,0,0h286.3c5.3,0,9.6-4.3,9.6-9.6v-94.1
			c0-0.4,0.3-0.7,0.7-0.7c0.4,0,0.7,0.3,0.7,0.7l0,0v94.1C684.4,227.1,679.5,232,673.4,232.1z"/>
		<path class="st1" d="M1076.7,232.6l-15.5,5.9c-0.7,0.3-1.5-0.1-1.8-0.8c-0.1-0.2-0.1-0.3-0.1-0.5v-11.8c0-0.8,0.6-1.4,1.4-1.4
			c0.2,0,0.3,0,0.5,0.1l15.5,5.9c0.7,0.3,1.1,1.1,0.8,1.8C1077.3,232.2,1077,232.4,1076.7,232.6z"/>
		<path class="st1" d="M1075.1,232.1H788.8c-6.1,0-11-4.9-11-11v-94.1c0-0.4,0.3-0.7,0.7-0.7c0.4,0,0.7,0.3,0.7,0.7l0,0v94.1
			c0,5.3,4.3,9.6,9.6,9.6h286.3c0.4,0,0.7,0.3,0.7,0.7C1075.8,231.7,1075.5,232,1075.1,232.1
			C1075.1,232.1,1075.1,232.1,1075.1,232.1L1075.1,232.1z"/>
	</g>
</g>
</svg>
