<?xml version="1.0" encoding="utf-8"?>
<!-- Generator: Adobe Illustrator 27.9.0, SVG Export Plug-In . SVG Version: 6.00 Build 0)  -->
<svg version="1.1" id="Layer_1" xmlns="http://www.w3.org/2000/svg" xmlns:xlink="http://www.w3.org/1999/xlink" x="0px" y="0px"
	 viewBox="0 0 1551.3 220.3" style="enable-background:new 0 0 1551.3 220.3;" xml:space="preserve">
<style type="text/css">
	.st0{opacity:0.5;}
	.st1{fill:#3BC2D7;}
	.st2{fill:#263852;}
	.st3{fill:none;}
	.st4{fill:#FFFFFF;}
	.st5{fill:#F9BD17;}
	.st6{fill:#263953;}
</style>
<g id="Слой_2">
	<g id="Слой_1-2">
		<g class="st0">
			<path class="st1" d="M1543.2,155.8h-493.5c-4.5,0-8.2-3.7-8.2-8.2V94.3c0-4.5,3.7-8.2,8.2-8.2h493.5c4.5,0,8.2,3.7,8.2,8.2v53.3
				C1551.3,152.1,1547.7,155.8,1543.2,155.8z"/>
		</g>
		<g class="st0">
			<path class="st1" d="M501.7,155.8H8.2c-4.5,0-8.2-3.7-8.2-8.2V94.3c0-4.5,3.7-8.2,8.2-8.2h493.5c4.5,0,8.2,3.7,8.2,8.2v53.3
				C509.9,152.1,506.2,155.8,501.7,155.8z"/>
		</g>
		<g>
			<path class="st2" d="M1065,110h4.3v11.6c0,1.2,0,2.4,0.2,3.6c0.2,0.8,0.6,1.6,1.3,2.1c0.8,0.6,1.8,0.9,2.9,0.8
				c1,0.1,2-0.2,2.8-0.8c0.6-0.5,1-1.1,1.1-1.9c0.2-1.2,0.2-2.4,0.2-3.6V110h4.3v11.3c0.1,1.8-0.1,3.7-0.4,5.5
				c-0.2,1-0.6,1.9-1.3,2.7c-0.7,0.8-1.6,1.4-2.5,1.8c-1.3,0.5-2.7,0.7-4.1,0.7c-1.6,0.1-3.2-0.2-4.7-0.7c-1-0.4-1.8-1-2.5-1.8
				c-0.6-0.7-1-1.5-1.2-2.4c-0.3-1.8-0.5-3.6-0.4-5.4L1065,110z"/>
			<path class="st2" d="M1085.3,127l4.1-0.6c0.1,0.7,0.5,1.4,1.1,1.8c0.7,0.5,1.5,0.7,2.3,0.6c0.8,0.1,1.7-0.1,2.4-0.6
				c0.4-0.3,0.6-0.7,0.5-1.1c0-0.3-0.1-0.6-0.3-0.8c-0.4-0.3-0.9-0.5-1.4-0.5c-3.3-0.7-5.4-1.4-6.3-2c-1.2-0.8-1.9-2.1-1.8-3.5
				c0-1.3,0.6-2.6,1.6-3.4c1.4-1,3.2-1.5,5-1.4c1.6-0.1,3.3,0.2,4.7,1c1.1,0.7,1.8,1.8,2.1,3.1l-3.9,0.7c-0.1-0.6-0.5-1.1-0.9-1.4
				c-0.6-0.4-1.3-0.5-2-0.5c-0.8-0.1-1.6,0.1-2.3,0.5c-0.3,0.2-0.5,0.5-0.5,0.8c0,0.3,0.2,0.6,0.4,0.7c1.2,0.6,2.5,0.9,3.8,1.2
				c1.6,0.3,3.2,0.9,4.6,1.8c0.9,0.8,1.4,1.9,1.3,3.1c0,1.4-0.7,2.8-1.8,3.7c-1.5,1.1-3.4,1.7-5.3,1.5c-1.8,0.1-3.5-0.4-5-1.3
				C1086.5,129.7,1085.6,128.5,1085.3,127z"/>
			<path class="st2" d="M1112.4,126.5l4.1,0.7c-0.4,1.4-1.3,2.6-2.5,3.4c-1.3,0.8-2.8,1.2-4.3,1.2c-2.7,0-4.7-0.9-6-2.7
				c-1.1-1.6-1.6-3.5-1.5-5.4c-0.1-2.2,0.6-4.4,2-6.1c1.3-1.4,3.2-2.2,5.1-2.2c2.1-0.1,4.1,0.7,5.5,2.3c1.3,1.5,2,3.9,1.9,7h-10.3
				c0,1,0.3,2.1,1,2.8c0.6,0.7,1.5,1,2.4,1c0.6,0,1.2-0.2,1.6-0.5C1111.9,127.8,1112.3,127.2,1112.4,126.5z M1112.6,122.4
				c0-1-0.3-2-0.9-2.7c-1.1-1.2-3-1.2-4.2-0.1c-0.1,0.1-0.1,0.1-0.2,0.2c-0.6,0.7-0.9,1.7-0.9,2.7H1112.6z"/>
			<path class="st2" d="M1126.6,115.9h2.3v-1.2c0-1,0.1-2,0.4-2.9c0.3-0.7,0.9-1.2,1.5-1.6c0.9-0.4,1.9-0.6,2.8-0.6
				c1.2,0,2.3,0.2,3.4,0.5l-0.6,2.9c-0.6-0.2-1.3-0.2-1.9-0.2c-0.5,0-0.9,0.1-1.3,0.4c-0.3,0.5-0.5,1-0.4,1.6v1.1h3.1v3.2h-3.1v12.3
				h-4.1v-12.3h-2.3L1126.6,115.9z"/>
			<path class="st2" d="M1138.4,131.5V110h4.1v21.5H1138.4z"/>
			<path class="st2" d="M1149.8,120.7l-3.7-0.7c0.3-1.3,1.1-2.5,2.2-3.3c1.4-0.8,3-1.2,4.6-1.1c1.4-0.1,2.8,0.1,4.1,0.7
				c0.8,0.3,1.5,0.9,1.9,1.7c0.5,1.2,0.6,2.4,0.6,3.7l0,4.8c0,1,0,2,0.2,3c0.2,0.7,0.4,1.4,0.7,2.1h-4.1c-0.1-0.3-0.2-0.7-0.4-1.2
				c-0.1-0.2-0.1-0.4-0.1-0.5c-0.7,0.6-1.4,1.2-2.3,1.5c-0.8,0.3-1.7,0.5-2.6,0.5c-1.4,0.1-2.7-0.4-3.8-1.3c-0.9-0.8-1.4-2-1.4-3.3
				c0-0.8,0.2-1.6,0.6-2.4c0.4-0.7,1-1.2,1.8-1.6c1-0.5,2.1-0.8,3.3-1c1.4-0.2,2.7-0.6,4-1v-0.4c0.1-0.6-0.2-1.2-0.6-1.7
				c-0.7-0.4-1.4-0.6-2.2-0.5c-0.6,0-1.2,0.1-1.7,0.4C1150.3,119.5,1150,120.1,1149.8,120.7z M1155.3,124c-0.8,0.3-1.7,0.5-2.5,0.6
				c-0.8,0.1-1.5,0.4-2.2,0.7c-0.5,0.3-0.8,0.9-0.8,1.4c0,0.6,0.2,1.1,0.6,1.5c0.4,0.4,1,0.7,1.6,0.6c0.8,0,1.5-0.3,2.1-0.7
				c0.5-0.3,0.8-0.8,1-1.4c0.1-0.7,0.2-1.3,0.2-2L1155.3,124z"/>
			<path class="st2" d="M1163,132.5l4.7,0.6c0,0.4,0.2,0.8,0.5,1.1c0.6,0.3,1.2,0.5,1.8,0.4c0.8,0.1,1.7-0.1,2.4-0.5
				c0.4-0.2,0.7-0.6,0.8-1c0.2-0.6,0.2-1.3,0.2-1.9V129c-1,1.6-2.8,2.5-4.7,2.5c-2,0-3.9-1-5-2.7c-1-1.6-1.5-3.4-1.4-5.2
				c-0.1-2.2,0.5-4.3,1.9-6c1.2-1.3,2.9-2.1,4.7-2.1c1.9,0,3.7,0.9,4.8,2.5v-2.2h3.9v14c0.1,1.4-0.1,2.8-0.5,4.1
				c-0.2,0.8-0.7,1.5-1.3,2.1c-0.6,0.6-1.4,1-2.2,1.2c-1.1,0.3-2.3,0.5-3.5,0.4c-2.6,0-4.5-0.5-5.6-1.4c-1.1-0.8-1.7-2.1-1.7-3.4
				C1163,132.9,1163,132.7,1163,132.5z M1166.7,123.4c-0.1,1.3,0.2,2.6,1,3.6c0.6,0.7,1.4,1.2,2.4,1.1c1,0,1.9-0.4,2.5-1.2
				c0.8-1,1.1-2.2,1-3.5c0.1-1.3-0.3-2.5-1-3.6c-0.6-0.8-1.5-1.2-2.5-1.2c-0.9,0-1.8,0.4-2.4,1.1
				C1167,120.9,1166.6,122.1,1166.7,123.4z"/>
			<path class="st2" d="M1180.3,127l4.1-0.6c0.1,0.7,0.5,1.4,1.1,1.8c0.7,0.5,1.5,0.7,2.3,0.6c0.8,0.1,1.7-0.1,2.4-0.6
				c0.4-0.3,0.6-0.7,0.5-1.1c0-0.3-0.1-0.6-0.3-0.8c-0.4-0.3-0.9-0.5-1.4-0.5c-3.3-0.7-5.4-1.4-6.3-2c-1.2-0.8-1.9-2.1-1.8-3.5
				c0-1.3,0.6-2.6,1.6-3.4c1.4-1,3.2-1.5,5-1.4c1.6-0.1,3.3,0.2,4.7,1c1.1,0.7,1.8,1.8,2.1,3.1l-3.9,0.7c-0.1-0.6-0.5-1.1-0.9-1.4
				c-0.6-0.4-1.3-0.5-2-0.5c-0.8-0.1-1.6,0.1-2.3,0.5c-0.3,0.2-0.5,0.5-0.5,0.8c0,0.3,0.2,0.6,0.4,0.7c1.2,0.6,2.5,0.9,3.8,1.2
				c1.6,0.3,3.2,0.9,4.6,1.8c0.9,0.8,1.4,1.9,1.3,3.1c0,1.4-0.7,2.8-1.8,3.7c-1.5,1.1-3.4,1.7-5.3,1.5c-1.8,0.1-3.5-0.4-5-1.3
				C1181.5,129.7,1180.6,128.5,1180.3,127z"/>
			<path class="st2" d="M1209.7,131.5l-4.9-15.6h4l2.9,10.2l2.7-10.2h4l2.6,10.2l3-10.2h4.1l-5,15.6h-4l-2.7-10l-2.6,10H1209.7z"/>
			<path class="st2" d="M1234.2,110v7.9c1.7-2.2,4.8-2.9,7.3-1.8c0.7,0.3,1.3,0.8,1.7,1.3c0.4,0.5,0.7,1.2,0.8,1.8
				c0.2,1,0.2,2.1,0.2,3.1v9.1h-4.1v-8.2c0.1-1,0-2.1-0.2-3.1c-0.2-0.4-0.4-0.8-0.8-1c-0.4-0.3-1-0.4-1.5-0.4
				c-0.6,0-1.3,0.2-1.8,0.5c-0.6,0.4-1,0.9-1.2,1.5c-0.3,1-0.4,2-0.4,3v7.8h-4.1V110H1234.2z"/>
			<path class="st2" d="M1257.4,126.5l4.1,0.7c-0.4,1.4-1.3,2.6-2.5,3.4c-1.3,0.8-2.8,1.2-4.3,1.2c-2.7,0-4.7-0.9-6-2.7
				c-1.1-1.6-1.6-3.5-1.5-5.4c-0.1-2.2,0.6-4.4,2-6.1c1.3-1.4,3.2-2.2,5.1-2.2c2.1-0.1,4.1,0.7,5.5,2.3c1.3,1.5,2,3.9,1.9,7h-10.3
				c0,1,0.3,2.1,1,2.8c0.6,0.7,1.5,1,2.4,1c0.6,0,1.2-0.2,1.6-0.5C1256.9,127.8,1257.3,127.2,1257.4,126.5z M1257.7,122.4
				c0-1-0.3-2-0.9-2.7c-1.1-1.2-3-1.2-4.2-0.1c-0.1,0.1-0.1,0.1-0.2,0.2c-0.6,0.7-0.9,1.7-0.9,2.7H1257.7z"/>
			<path class="st2" d="M1279.3,131.5h-4.1v-7.9c0.1-1.1,0-2.2-0.3-3.3c-0.2-0.5-0.5-0.9-0.9-1.1c-0.4-0.3-0.9-0.4-1.4-0.4
				c-0.7,0-1.4,0.2-1.9,0.6c-0.6,0.4-1,0.9-1.2,1.6c-0.3,1.2-0.4,2.4-0.3,3.6v7h-4.1v-15.6h3.8v2.3c1.7-2.4,4.9-3.3,7.6-2.1
				c0.7,0.3,1.3,0.7,1.7,1.3c0.4,0.5,0.7,1.1,0.8,1.7c0.2,0.9,0.3,1.8,0.2,2.8V131.5z"/>
			<path class="st2" d="M1290.3,127l4.1-0.6c0.1,0.7,0.5,1.4,1.1,1.8c0.7,0.5,1.5,0.7,2.3,0.6c0.8,0.1,1.7-0.1,2.4-0.6
				c0.4-0.3,0.6-0.7,0.5-1.1c0-0.3-0.1-0.6-0.3-0.8c-0.4-0.3-0.9-0.5-1.4-0.5c-3.3-0.7-5.4-1.4-6.3-2c-1.2-0.8-1.9-2.1-1.8-3.5
				c0-1.3,0.6-2.6,1.6-3.4c1.4-1,3.2-1.5,5-1.4c1.6-0.1,3.3,0.2,4.7,1c1.1,0.7,1.8,1.8,2.1,3.1l-3.9,0.7c-0.1-0.6-0.5-1.1-0.9-1.4
				c-0.6-0.4-1.3-0.5-2-0.5c-0.8-0.1-1.6,0.1-2.3,0.5c-0.3,0.2-0.5,0.5-0.5,0.8c0,0.3,0.2,0.6,0.4,0.7c1.2,0.6,2.5,0.9,3.8,1.2
				c1.6,0.3,3.2,0.9,4.6,1.8c0.9,0.8,1.4,1.9,1.3,3.1c0,1.4-0.7,2.8-1.8,3.7c-1.5,1.1-3.4,1.7-5.3,1.5c-1.8,0.1-3.5-0.4-5-1.3
				C1291.5,129.7,1290.7,128.5,1290.3,127z"/>
			<path class="st2" d="M1315.6,115.9v3.3h-2.8v6.3c0,0.7,0,1.5,0.1,2.2c0.1,0.2,0.2,0.4,0.4,0.5c0.2,0.1,0.4,0.2,0.7,0.2
				c0.6,0,1.1-0.2,1.7-0.4l0.4,3.2c-1,0.4-2.1,0.6-3.3,0.6c-0.7,0-1.4-0.1-2-0.4c-0.5-0.2-1-0.5-1.3-1c-0.3-0.5-0.5-1-0.6-1.6
				c-0.1-1-0.2-1.9-0.1-2.9v-6.8h-1.9v-3.3h1.9v-3.1l4.1-2.4v5.5L1315.6,115.9z"/>
			<path class="st2" d="M1321.5,120.7l-3.7-0.7c0.3-1.3,1.1-2.5,2.2-3.3c1.4-0.8,3-1.2,4.6-1.1c1.4-0.1,2.8,0.1,4.1,0.7
				c0.8,0.3,1.5,0.9,1.9,1.7c0.5,1.2,0.6,2.4,0.6,3.7l0,4.8c0,1,0,2,0.2,3c0.2,0.7,0.4,1.4,0.7,2.1h-4.1c-0.1-0.3-0.2-0.7-0.4-1.2
				c-0.1-0.2-0.1-0.4-0.1-0.5c-0.7,0.6-1.4,1.2-2.3,1.5c-0.8,0.3-1.7,0.5-2.6,0.5c-1.4,0.1-2.7-0.4-3.8-1.3c-0.9-0.8-1.4-2-1.4-3.3
				c0-0.8,0.2-1.6,0.6-2.4c0.4-0.7,1-1.2,1.8-1.6c1-0.5,2.1-0.8,3.3-1c1.4-0.2,2.7-0.6,4-1v-0.4c0.1-0.6-0.2-1.2-0.6-1.7
				c-0.7-0.4-1.4-0.6-2.2-0.5c-0.6,0-1.2,0.1-1.7,0.4C1322,119.5,1321.7,120.1,1321.5,120.7z M1327,124c-0.8,0.3-1.7,0.5-2.5,0.6
				c-0.8,0.1-1.5,0.4-2.2,0.7c-0.5,0.3-0.8,0.9-0.8,1.4c0,0.6,0.2,1.1,0.6,1.5c0.4,0.4,1,0.7,1.6,0.6c0.8,0,1.5-0.3,2.1-0.7
				c0.5-0.3,0.8-0.8,1-1.4c0.1-0.7,0.2-1.3,0.2-2L1327,124z"/>
			<path class="st2" d="M1339.1,131.5h-4.1v-15.6h3.8v2.2c0.4-0.8,1-1.5,1.8-2.1c0.5-0.3,1.2-0.5,1.8-0.5c1,0,1.9,0.3,2.7,0.8
				l-1.3,3.6c-0.6-0.4-1.2-0.6-1.9-0.7c-0.5,0-1,0.2-1.5,0.5c-0.5,0.5-0.8,1.1-0.9,1.7c-0.3,1.7-0.4,3.5-0.3,5.2L1339.1,131.5z"/>
			<path class="st2" d="M1353.9,115.9v3.3h-2.8v6.3c0,0.7,0,1.5,0.1,2.2c0.1,0.2,0.2,0.4,0.4,0.5c0.2,0.1,0.4,0.2,0.7,0.2
				c0.6,0,1.1-0.2,1.7-0.4l0.4,3.2c-1,0.4-2.1,0.6-3.3,0.6c-0.7,0-1.4-0.1-2-0.4c-0.5-0.2-1-0.5-1.3-1c-0.3-0.5-0.5-1-0.6-1.6
				c-0.1-1-0.2-1.9-0.1-2.9v-6.8h-1.9v-3.3h1.9v-3.1l4.1-2.4v5.5L1353.9,115.9z"/>
			<path class="st2" d="M1356.8,113.8V110h4.1v3.8H1356.8z M1356.8,131.5v-15.6h4.1v15.6H1356.8z"/>
			<path class="st2" d="M1379.3,131.5h-4.1v-7.9c0.1-1.1,0-2.2-0.3-3.3c-0.2-0.5-0.5-0.9-0.9-1.1c-0.4-0.3-0.9-0.4-1.4-0.4
				c-0.7,0-1.4,0.2-1.9,0.6c-0.6,0.4-1,0.9-1.2,1.6c-0.3,1.2-0.4,2.4-0.3,3.6v7h-4.1v-15.6h3.8v2.3c1.7-2.4,4.9-3.3,7.6-2.1
				c0.7,0.3,1.3,0.7,1.7,1.3c0.4,0.5,0.7,1.1,0.8,1.7c0.2,0.9,0.3,1.8,0.2,2.8L1379.3,131.5z"/>
			<path class="st2" d="M1383.1,132.5l4.7,0.6c0,0.4,0.2,0.8,0.5,1.1c0.6,0.3,1.2,0.5,1.8,0.4c0.8,0.1,1.7-0.1,2.4-0.5
				c0.4-0.2,0.7-0.6,0.8-1c0.2-0.6,0.2-1.3,0.2-1.9V129c-1,1.6-2.8,2.5-4.7,2.5c-2,0-3.9-1-5-2.7c-1-1.6-1.5-3.4-1.4-5.2
				c-0.1-2.2,0.5-4.3,1.9-6c1.2-1.3,2.9-2.1,4.7-2.1c1.9,0,3.7,0.9,4.8,2.5v-2.2h3.9v14c0.1,1.4-0.1,2.8-0.5,4.1
				c-0.2,0.8-0.7,1.5-1.3,2.1c-0.6,0.6-1.4,1-2.2,1.2c-1.1,0.3-2.3,0.5-3.5,0.4c-2.6,0-4.5-0.5-5.6-1.4c-1.1-0.8-1.7-2.1-1.7-3.4
				C1383.1,132.9,1383.1,132.7,1383.1,132.5z M1386.8,123.4c-0.1,1.3,0.2,2.6,1,3.6c0.6,0.7,1.4,1.2,2.4,1.1c1,0,1.9-0.4,2.5-1.2
				c0.8-1,1.1-2.2,1-3.5c0.1-1.3-0.3-2.5-1-3.6c-0.6-0.8-1.5-1.2-2.5-1.2c-0.9,0-1.8,0.4-2.4,1.1
				C1387,120.9,1386.7,122.1,1386.8,123.4z"/>
			<path class="st2" d="M1424.4,131.5h-3.8v-2.3c-0.6,0.8-1.3,1.5-2.2,2c-0.8,0.4-1.7,0.6-2.6,0.7c-1.8,0-3.5-0.8-4.6-2.2
				c-1.4-1.7-2-3.9-1.9-6c-0.2-2.2,0.5-4.3,1.9-6c1.2-1.3,2.9-2.1,4.7-2.1c1.8,0,3.4,0.8,4.5,2.2V110h4.1L1424.4,131.5z
				 M1413.4,123.4c-0.1,1.2,0.1,2.5,0.7,3.6c0.6,1,1.6,1.6,2.8,1.6c1,0,1.8-0.4,2.4-1.2c0.7-1.1,1.1-2.3,1-3.6
				c0.1-1.4-0.2-2.7-1-3.9c-1.1-1.4-3.1-1.6-4.5-0.5c-0.2,0.1-0.3,0.3-0.5,0.5C1413.7,120.9,1413.3,122.1,1413.4,123.4L1413.4,123.4
				z"/>
			<path class="st2" d="M1427.5,123.5c0-1.4,0.4-2.8,1-4c0.6-1.2,1.6-2.3,2.9-2.9c1.3-0.7,2.7-1,4.1-1c2.2-0.1,4.3,0.8,5.8,2.3
				c1.5,1.5,2.3,3.6,2.3,5.8c0.1,2.2-0.8,4.3-2.3,5.9c-1.5,1.5-3.6,2.4-5.7,2.3c-1.4,0-2.8-0.3-4.1-1c-1.3-0.6-2.3-1.6-3-2.8
				C1427.8,126.6,1427.4,125.1,1427.5,123.5z M1431.7,123.7c-0.1,1.3,0.3,2.5,1.1,3.5c1.3,1.5,3.6,1.6,5.1,0.3
				c0.1-0.1,0.2-0.2,0.3-0.3c0.8-1,1.2-2.3,1.1-3.6c0.1-1.3-0.3-2.5-1.1-3.5c-1.3-1.5-3.6-1.6-5.1-0.3c-0.1,0.1-0.2,0.2-0.3,0.3
				C1432,121.2,1431.6,122.4,1431.7,123.7L1431.7,123.7z"/>
			<path class="st2" d="M1460.3,120.5l-4.1,0.7c-0.1-0.7-0.4-1.4-0.9-1.8c-0.5-0.4-1.2-0.6-1.9-0.6c-0.9,0-1.8,0.4-2.5,1.1
				c-0.7,1-1,2.3-0.9,3.6c-0.1,1.4,0.2,2.7,0.9,3.9c0.6,0.8,1.5,1.2,2.5,1.1c0.7,0,1.4-0.2,1.9-0.7c0.6-0.6,1-1.4,1.1-2.3l4,0.7
				c-0.3,1.6-1.1,3.1-2.4,4.2c-1.4,1-3.1,1.5-4.8,1.4c-2,0.1-4-0.7-5.4-2.2c-2.7-3.5-2.7-8.4,0-12c1.4-1.5,3.4-2.2,5.5-2.1
				c1.6-0.1,3.2,0.3,4.5,1.2C1459.1,117.7,1460,119,1460.3,120.5z"/>
			<path class="st2" d="M1463.3,131.5V110h4.1v11.4l4.8-5.5h5.1l-5.3,5.7l5.7,9.9h-4.4l-3.9-7l-1.9,2v5H1463.3z"/>
			<path class="st2" d="M1489.1,126.5l4.1,0.7c-0.4,1.4-1.3,2.6-2.5,3.4c-1.3,0.8-2.8,1.2-4.3,1.2c-2.7,0-4.7-0.9-6-2.7
				c-1.1-1.6-1.6-3.5-1.5-5.4c-0.1-2.2,0.6-4.4,2-6.1c1.3-1.4,3.2-2.2,5.1-2.2c2.1-0.1,4.1,0.7,5.5,2.3c1.3,1.5,2,3.9,1.9,7h-10.3
				c0,1,0.3,2.1,1,2.8c0.6,0.7,1.5,1,2.4,1c0.6,0,1.2-0.2,1.6-0.5C1488.7,127.8,1489,127.2,1489.1,126.5z M1489.4,122.4
				c0-1-0.3-2-0.9-2.7c-1.1-1.2-3-1.2-4.2-0.1c-0.1,0.1-0.1,0.1-0.2,0.2c-0.6,0.7-0.9,1.7-0.9,2.7H1489.4z"/>
			<path class="st2" d="M1500.8,131.5h-4.1v-15.6h3.8v2.2c0.4-0.8,1-1.5,1.8-2.1c0.5-0.3,1.2-0.5,1.8-0.5c1,0,1.9,0.3,2.7,0.8
				l-1.3,3.6c-0.6-0.4-1.2-0.6-1.9-0.7c-0.5,0-1,0.2-1.5,0.5c-0.5,0.5-0.8,1.1-0.9,1.7c-0.3,1.7-0.4,3.5-0.3,5.2L1500.8,131.5z"/>
			<path class="st2" d="M1522.8,131.5h-3.8v-2.3c-0.6,0.8-1.3,1.5-2.2,2c-0.8,0.4-1.7,0.6-2.6,0.7c-1.8,0-3.5-0.8-4.6-2.2
				c-1.4-1.7-2-3.9-1.9-6c-0.2-2.2,0.5-4.3,1.9-6c1.2-1.3,2.9-2.1,4.7-2.1c1.8,0,3.4,0.8,4.5,2.2V110h4.1L1522.8,131.5z
				 M1511.8,123.4c-0.1,1.2,0.1,2.5,0.7,3.6c0.6,1,1.6,1.6,2.8,1.6c1,0,1.8-0.4,2.4-1.2c0.7-1.1,1.1-2.3,1-3.6
				c0.1-1.4-0.2-2.7-1-3.9c-1.1-1.4-3.1-1.6-4.5-0.5c-0.2,0.1-0.3,0.3-0.5,0.5C1512,120.9,1511.7,122.1,1511.8,123.4z"/>
			<path class="st2" d="M1526.8,131.5v-4.1h4.1v4.1H1526.8z"/>
		</g>
		<line class="st3" x1="533.2" y1="125.5" x2="645.7" y2="125.5"/>
		<path class="st2" d="M645.7,126.2H533.2c-0.4,0-0.7-0.3-0.7-0.7c0-0.4,0.3-0.7,0.7-0.7h112.5c0.4,0,0.7,0.3,0.7,0.7
			C646.4,125.9,646.1,126.2,645.7,126.2C645.7,126.2,645.7,126.2,645.7,126.2z"/>
		<path class="st2" d="M521.3,126.8l15.5,5.9c0.7,0.3,1.5-0.1,1.8-0.8c0.1-0.2,0.1-0.3,0.1-0.5v-11.8c0-0.8-0.6-1.4-1.4-1.4
			c-0.2,0-0.3,0-0.5,0.1l-15.5,5.9c-0.7,0.3-1.1,1.1-0.8,1.8C520.6,126.4,520.9,126.7,521.3,126.8z"/>
		<line class="st3" x1="1019.7" y1="125.5" x2="907.3" y2="125.5"/>
		<path class="st2" d="M1019.7,126.2H907.3c-0.4,0-0.7-0.3-0.7-0.7c0-0.4,0.3-0.7,0.7-0.7c0,0,0,0,0,0h112.5c0.4,0,0.7,0.3,0.7,0.7
			C1020.4,125.9,1020.1,126.2,1019.7,126.2C1019.7,126.2,1019.7,126.2,1019.7,126.2L1019.7,126.2z"/>
		<path class="st2" d="M1031.6,124.2l-15.5-5.9c-0.7-0.3-1.5,0.1-1.8,0.8c-0.1,0.2-0.1,0.3-0.1,0.5v11.8c0,0.8,0.6,1.4,1.4,1.4
			c0.2,0,0.3,0,0.5-0.1l15.5-5.9c0.7-0.3,1.1-1.1,0.8-1.8C1032.3,124.6,1032,124.4,1031.6,124.2z"/>
		<path class="st2" d="M46.3,112.6h4.3v11.6c0,1.2,0,2.4,0.2,3.6c0.2,0.8,0.6,1.6,1.3,2.1c0.8,0.6,1.8,0.9,2.9,0.8
			c1,0.1,2-0.2,2.8-0.8c0.6-0.5,1-1.1,1.1-1.9c0.2-1.2,0.2-2.4,0.2-3.6v-11.9h4.3v11.3c0.1,1.8-0.1,3.7-0.4,5.5
			c-0.2,1-0.6,1.9-1.3,2.7c-0.7,0.8-1.6,1.4-2.5,1.8c-1.3,0.5-2.7,0.7-4.1,0.7c-1.6,0.1-3.2-0.2-4.7-0.7c-1-0.4-1.8-1-2.5-1.8
			c-0.6-0.7-1-1.5-1.2-2.4c-0.3-1.8-0.5-3.6-0.4-5.4L46.3,112.6z"/>
		<path class="st2" d="M66.5,129.6l4.1-0.6c0.1,0.7,0.5,1.4,1.1,1.8c0.7,0.5,1.5,0.7,2.3,0.6c0.8,0.1,1.7-0.1,2.4-0.6
			c0.4-0.3,0.6-0.7,0.5-1.1c0-0.3-0.1-0.6-0.3-0.8c-0.4-0.3-0.9-0.5-1.4-0.5c-3.3-0.7-5.4-1.4-6.3-2c-1.2-0.8-1.9-2.1-1.8-3.5
			c0-1.3,0.6-2.6,1.6-3.4c1.4-1,3.2-1.5,5-1.4c1.6-0.1,3.3,0.2,4.7,1c1.1,0.7,1.8,1.8,2.1,3.1l-3.9,0.7c-0.1-0.6-0.5-1.1-0.9-1.4
			c-0.6-0.4-1.3-0.5-2-0.5c-0.8-0.1-1.6,0.1-2.3,0.5c-0.3,0.2-0.5,0.5-0.5,0.8c0,0.3,0.2,0.6,0.4,0.7c1.2,0.6,2.5,0.9,3.8,1.2
			c1.6,0.3,3.2,0.9,4.6,1.8c0.9,0.8,1.4,1.9,1.3,3.1c0,1.4-0.7,2.8-1.8,3.7c-1.5,1.1-3.4,1.7-5.3,1.5c-1.8,0.1-3.5-0.4-5-1.3
			C67.7,132.3,66.8,131.1,66.5,129.6z"/>
		<path class="st2" d="M93.6,129.1l4.1,0.7c-0.4,1.4-1.3,2.6-2.5,3.4c-1.3,0.8-2.8,1.2-4.3,1.2c-2.7,0-4.7-0.9-6-2.7
			c-1.1-1.6-1.6-3.5-1.5-5.4c-0.1-2.2,0.6-4.4,2-6.1c1.3-1.4,3.2-2.2,5.1-2.2c2.1-0.1,4.1,0.7,5.5,2.3c1.3,1.5,2,3.9,1.9,7H87.6
			c0,1,0.3,2.1,1,2.9c0.6,0.7,1.5,1,2.4,1c0.6,0,1.2-0.2,1.6-0.5C93.1,130.4,93.5,129.8,93.6,129.1z M93.8,125c0-1-0.3-2-0.9-2.7
			c-1.1-1.2-3-1.2-4.2-0.1c-0.1,0.1-0.1,0.1-0.2,0.2c-0.6,0.7-0.9,1.7-0.9,2.7H93.8z"/>
		<path class="st2" d="M112.7,123.3l-3.7-0.7c0.3-1.3,1.1-2.5,2.2-3.3c1.4-0.8,3-1.2,4.6-1.1c1.4-0.1,2.8,0.1,4.1,0.7
			c0.8,0.3,1.5,0.9,1.9,1.7c0.5,1.2,0.6,2.4,0.5,3.7l0,4.8c0,1,0,2,0.2,3c0.2,0.7,0.4,1.4,0.7,2.1h-4.1c-0.1-0.3-0.2-0.7-0.4-1.2
			c-0.1-0.2-0.1-0.4-0.1-0.5c-0.7,0.6-1.4,1.2-2.3,1.5c-0.8,0.3-1.7,0.5-2.6,0.5c-1.4,0.1-2.7-0.4-3.8-1.3c-0.9-0.8-1.4-2-1.4-3.3
			c0-0.8,0.2-1.6,0.6-2.4c0.4-0.7,1-1.2,1.8-1.6c1-0.5,2.1-0.8,3.3-1c1.4-0.2,2.7-0.6,4-1v-0.4c0.1-0.6-0.2-1.2-0.6-1.7
			c-0.7-0.4-1.4-0.6-2.2-0.5c-0.6,0-1.2,0.1-1.7,0.4C113.2,122.1,112.9,122.7,112.7,123.3z M118.2,126.6c-0.8,0.3-1.7,0.5-2.5,0.6
			c-0.8,0.1-1.5,0.4-2.2,0.7c-0.5,0.3-0.8,0.9-0.8,1.5c0,0.6,0.2,1.1,0.6,1.5c0.4,0.4,1,0.7,1.6,0.6c0.8,0,1.5-0.3,2.1-0.7
			c0.5-0.3,0.8-0.8,1-1.4c0.1-0.7,0.2-1.3,0.2-2V126.6z"/>
		<path class="st2" d="M142.4,112.6h4.3v13.6c0,1.4-0.1,2.8-0.5,4.1c-0.4,1.2-1.2,2.3-2.3,3c-1.3,0.8-2.8,1.2-4.4,1.1
			c-1.8,0.1-3.6-0.5-4.9-1.8c-1.2-1.4-1.9-3.3-1.7-5.2l4.1-0.5c0,0.9,0.2,1.8,0.5,2.6c0.4,0.8,1.3,1.2,2.1,1.2
			c0.8,0.1,1.5-0.2,2.1-0.8c0.5-1.1,0.7-2.3,0.6-3.4L142.4,112.6z"/>
		<path class="st2" d="M150.3,127.1l4.2-0.4c0.1,1.2,0.7,2.3,1.5,3.1c0.9,0.7,2,1.1,3.1,1c1.1,0.1,2.2-0.2,3.2-0.9
			c0.7-0.5,1-1.3,1.1-2.1c0-0.5-0.1-0.9-0.4-1.3c-0.4-0.4-1-0.8-1.6-0.9c-0.5-0.2-1.7-0.5-3.5-0.9c-1.8-0.3-3.4-1.1-4.9-2.1
			c-1.3-1.1-2-2.7-2-4.3c0-1.1,0.3-2.2,0.9-3.1c0.7-1,1.6-1.7,2.7-2.2c1.3-0.5,2.8-0.8,4.2-0.7c2.7,0,4.7,0.6,6.1,1.8
			c1.4,1.2,2.2,2.9,2.1,4.7l-4.3,0.2c-0.1-0.9-0.5-1.8-1.2-2.4c-0.8-0.5-1.8-0.8-2.7-0.7c-1-0.1-2.1,0.2-3,0.8
			c-0.4,0.3-0.7,0.8-0.7,1.3c0,0.5,0.2,1,0.6,1.3c1.2,0.7,2.6,1.2,4,1.4c1.6,0.3,3.2,0.8,4.7,1.5c1,0.5,1.8,1.3,2.4,2.2
			c1.2,2.2,1.1,4.8-0.2,6.9c-0.7,1.1-1.7,1.9-2.9,2.4c-1.5,0.6-3.1,0.8-4.7,0.8c-2.2,0.1-4.5-0.5-6.3-1.9
			C151.3,131.1,150.4,129.2,150.3,127.1z"/>
		<path class="st2" d="M170.5,123.5c-0.1-1.9,0.3-3.8,1-5.5c0.5-1.1,1.2-2.1,2-2.9c0.8-0.8,1.7-1.5,2.8-1.9c1.5-0.6,3-0.9,4.6-0.8
			c2.8-0.1,5.6,0.9,7.6,2.9c1.9,2,2.8,4.7,2.8,8.2c0,3.5-0.9,6.2-2.8,8.1c-4.3,3.9-10.9,3.9-15.2,0
			C171.4,129.6,170.5,126.9,170.5,123.5z M175,123.3c-0.1,2,0.5,4,1.7,5.5c2.2,2.4,5.8,2.5,8.2,0.4c0.1-0.1,0.2-0.2,0.4-0.3
			c1.1-1.2,1.7-3.1,1.7-5.6c0-2.5-0.5-4.3-1.6-5.5c-2.3-2.4-6.1-2.4-8.5-0.1c0,0-0.1,0.1-0.1,0.1C175.5,119,175,120.8,175,123.3
			L175,123.3z"/>
		<path class="st2" d="M194.7,134.1v-21.5h4.2l8.8,14.3v-14.3h4v21.5h-4.4l-8.7-14v14H194.7z"/>
		<path class="st2" d="M238.2,123.1l-4.1,0.7c-0.1-0.7-0.4-1.4-0.9-1.8c-0.5-0.4-1.2-0.6-1.9-0.6c-0.9,0-1.8,0.4-2.5,1.1
			c-0.7,1-1,2.3-0.9,3.6c-0.1,1.4,0.2,2.7,0.9,3.9c0.6,0.8,1.5,1.2,2.5,1.1c0.7,0,1.4-0.2,1.9-0.7c0.6-0.6,1-1.4,1.1-2.3l4,0.7
			c-0.3,1.6-1.1,3.1-2.4,4.2c-1.4,1-3.1,1.5-4.8,1.4c-2,0.1-4-0.7-5.4-2.2c-2.7-3.5-2.7-8.4,0-12c1.4-1.5,3.4-2.2,5.5-2.1
			c1.6-0.1,3.2,0.3,4.5,1.2C237,120.3,237.9,121.6,238.2,123.1z"/>
		<path class="st2" d="M240.4,126.1c0-1.4,0.4-2.8,1-4c0.6-1.2,1.6-2.3,2.9-2.9c1.3-0.7,2.7-1,4.1-1c2.2-0.1,4.3,0.8,5.8,2.3
			c1.5,1.5,2.3,3.6,2.3,5.8c0.1,2.2-0.8,4.3-2.3,5.9c-1.5,1.5-3.6,2.4-5.7,2.3c-1.4,0-2.8-0.3-4.1-1c-1.3-0.6-2.3-1.6-3-2.8
			C240.7,129.2,240.4,127.6,240.4,126.1z M244.6,126.3c-0.1,1.3,0.3,2.5,1.1,3.5c1.3,1.5,3.6,1.6,5.1,0.3c0.1-0.1,0.2-0.2,0.3-0.3
			c0.8-1,1.2-2.3,1.1-3.6c0.1-1.3-0.3-2.5-1.1-3.5c-1.3-1.5-3.6-1.6-5.1-0.3c-0.1,0.1-0.2,0.2-0.3,0.3
			C244.9,123.7,244.5,125,244.6,126.3L244.6,126.3z"/>
		<path class="st2" d="M273.8,134.1h-4.1v-7.9c0.1-1.1,0-2.2-0.3-3.3c-0.2-0.5-0.5-0.9-0.9-1.1c-0.4-0.3-0.9-0.4-1.4-0.4
			c-0.7,0-1.4,0.2-1.9,0.6c-0.6,0.4-1,0.9-1.2,1.6c-0.3,1.2-0.4,2.4-0.3,3.6v7h-4.1v-15.6h3.8v2.3c1.7-2.4,4.9-3.3,7.6-2.1
			c0.7,0.3,1.3,0.7,1.7,1.3c0.4,0.5,0.7,1.1,0.8,1.7c0.2,0.9,0.3,1.8,0.2,2.8L273.8,134.1z"/>
		<path class="st2" d="M276.2,118.5h2.3v-1.2c0-1,0.1-2,0.4-2.9c0.3-0.7,0.9-1.2,1.5-1.6c0.9-0.4,1.9-0.6,2.8-0.6
			c1.2,0,2.3,0.2,3.4,0.5l-0.6,2.9c-0.6-0.2-1.3-0.2-1.9-0.2c-0.5,0-0.9,0.1-1.3,0.4c-0.3,0.5-0.5,1-0.4,1.6v1.1h3.1v3.2h-3.1v12.3
			h-4.1v-12.3h-2.3L276.2,118.5z"/>
		<path class="st2" d="M288,116.4v-3.8h4.1v3.8H288z M288,134.1v-15.6h4.1v15.6L288,134.1z"/>
		<path class="st2" d="M295.9,135.1l4.7,0.6c0,0.4,0.2,0.8,0.5,1.1c0.6,0.3,1.2,0.5,1.8,0.4c0.8,0.1,1.7-0.1,2.4-0.5
			c0.4-0.2,0.7-0.6,0.8-1c0.2-0.6,0.2-1.3,0.2-1.9v-2.3c-1,1.6-2.8,2.5-4.7,2.5c-2,0-3.9-1-5-2.7c-1-1.6-1.5-3.4-1.4-5.2
			c-0.1-2.2,0.5-4.3,1.9-6c1.2-1.3,2.9-2.1,4.7-2.1c1.9,0,3.7,0.9,4.8,2.5v-2.2h3.9v14c0.1,1.4-0.1,2.8-0.5,4.1
			c-0.2,0.8-0.7,1.5-1.3,2.1c-0.6,0.6-1.4,1-2.2,1.2c-1.1,0.3-2.3,0.5-3.5,0.4c-2.6,0-4.5-0.5-5.6-1.4c-1.1-0.8-1.7-2.1-1.7-3.4
			C295.9,135.5,295.9,135.3,295.9,135.1z M299.6,126c-0.1,1.3,0.2,2.6,1,3.6c0.6,0.7,1.4,1.2,2.4,1.1c1,0,1.9-0.4,2.5-1.2
			c0.8-1,1.1-2.2,1-3.5c0.1-1.3-0.3-2.5-1-3.6c-0.6-0.8-1.5-1.2-2.5-1.2c-0.9,0-1.8,0.4-2.4,1.1C299.9,123.5,299.5,124.7,299.6,126
			L299.6,126z"/>
		<path class="st2" d="M324.9,134.1v-2.3c-0.6,0.8-1.3,1.5-2.2,2c-0.9,0.5-1.9,0.7-2.9,0.7c-1,0-1.9-0.2-2.8-0.7
			c-0.8-0.4-1.4-1.1-1.8-1.9c-0.4-1.1-0.6-2.3-0.6-3.4v-9.8h4.1v7.1c-0.1,1.3,0,2.7,0.2,4c0.1,0.5,0.4,0.9,0.8,1.2
			c0.4,0.3,1,0.5,1.5,0.4c0.7,0,1.3-0.2,1.9-0.6c0.5-0.3,0.9-0.8,1.1-1.4c0.3-1.4,0.4-2.8,0.3-4.2v-6.6h4.1v15.6L324.9,134.1z"/>
		<path class="st2" d="M336.9,134.1h-4.1v-15.6h3.8v2.2c0.4-0.8,1-1.5,1.8-2.1c0.5-0.3,1.2-0.5,1.8-0.5c1,0,1.9,0.3,2.7,0.8
			l-1.3,3.6c-0.6-0.4-1.2-0.6-1.9-0.7c-0.5,0-1,0.2-1.5,0.5c-0.5,0.5-0.8,1.1-0.9,1.7c-0.3,1.7-0.4,3.5-0.3,5.2L336.9,134.1z"/>
		<path class="st2" d="M347.7,123.3l-3.7-0.7c0.3-1.3,1.1-2.5,2.2-3.3c1.4-0.8,3-1.2,4.6-1.1c1.4-0.1,2.8,0.1,4.1,0.7
			c0.8,0.3,1.5,0.9,1.9,1.7c0.5,1.2,0.6,2.4,0.5,3.7l0,4.8c0,1,0,2,0.2,3c0.2,0.7,0.4,1.4,0.7,2.1h-4.1c-0.1-0.3-0.2-0.7-0.4-1.2
			c-0.1-0.2-0.1-0.4-0.1-0.5c-0.7,0.6-1.4,1.2-2.3,1.5c-0.8,0.3-1.7,0.5-2.6,0.5c-1.4,0.1-2.7-0.4-3.8-1.3c-0.9-0.8-1.4-2-1.4-3.3
			c0-0.8,0.2-1.6,0.6-2.4c0.4-0.7,1-1.2,1.8-1.6c1-0.5,2.1-0.8,3.3-1c1.4-0.2,2.7-0.6,4-1v-0.4c0.1-0.6-0.2-1.2-0.6-1.7
			c-0.7-0.4-1.4-0.6-2.2-0.5c-0.6,0-1.2,0.1-1.7,0.4C348.2,122.1,347.9,122.7,347.7,123.3z M353.2,126.6c-0.8,0.3-1.7,0.5-2.5,0.6
			c-0.8,0.1-1.5,0.4-2.2,0.7c-0.5,0.3-0.8,0.9-0.8,1.5c0,0.6,0.2,1.1,0.6,1.5c0.4,0.4,1,0.7,1.6,0.6c0.8,0,1.5-0.3,2.1-0.7
			c0.5-0.3,0.8-0.8,1-1.4c0.1-0.7,0.2-1.3,0.2-2L353.2,126.6z"/>
		<path class="st2" d="M368.5,118.5v3.3h-2.8v6.3c0,0.7,0,1.5,0.1,2.2c0.1,0.2,0.2,0.4,0.4,0.5c0.2,0.1,0.4,0.2,0.7,0.2
			c0.6,0,1.1-0.2,1.7-0.4l0.4,3.2c-1,0.4-2.1,0.6-3.3,0.6c-0.7,0-1.4-0.1-2-0.4c-0.5-0.2-1-0.5-1.3-1c-0.3-0.5-0.5-1-0.6-1.6
			c-0.1-1-0.2-1.9-0.1-2.9v-6.8h-1.9v-3.3h1.9v-3.1l4.1-2.4v5.5H368.5z"/>
		<path class="st2" d="M371.3,116.4v-3.8h4.1v3.8H371.3z M371.3,134.1v-15.6h4.1v15.6L371.3,134.1z"/>
		<path class="st2" d="M378.7,126.1c0-1.4,0.4-2.8,1-4c0.6-1.2,1.6-2.3,2.9-2.9c1.3-0.7,2.7-1,4.1-1c2.2-0.1,4.3,0.8,5.8,2.3
			c1.5,1.5,2.3,3.6,2.3,5.8c0.1,2.2-0.8,4.3-2.3,5.9c-1.5,1.5-3.6,2.4-5.7,2.3c-1.4,0-2.8-0.3-4.1-1c-1.3-0.6-2.3-1.6-3-2.8
			C379,129.2,378.7,127.6,378.7,126.1z M382.9,126.3c-0.1,1.3,0.3,2.5,1.1,3.5c1.3,1.5,3.6,1.6,5.1,0.3c0.1-0.1,0.2-0.2,0.3-0.3
			c0.8-1,1.2-2.3,1.1-3.6c0.1-1.3-0.3-2.5-1.1-3.5c-1.3-1.5-3.6-1.6-5.1-0.3c-0.1,0.1-0.2,0.2-0.3,0.3
			C383.2,123.7,382.8,125,382.9,126.3L382.9,126.3z"/>
		<path class="st2" d="M412.1,134.1H408v-7.9c0.1-1.1,0-2.2-0.3-3.3c-0.2-0.5-0.5-0.9-0.9-1.1c-0.4-0.3-0.9-0.4-1.4-0.4
			c-0.7,0-1.4,0.2-1.9,0.6c-0.6,0.4-1,0.9-1.2,1.6c-0.3,1.2-0.4,2.4-0.3,3.6v7H398v-15.6h3.8v2.3c1.7-2.4,4.9-3.3,7.6-2.1
			c0.7,0.3,1.3,0.7,1.7,1.3c0.4,0.5,0.7,1.1,0.8,1.7c0.2,0.9,0.3,1.8,0.2,2.8L412.1,134.1z"/>
		<path class="st2" d="M422.8,118.5h2.3v-1.2c0-1,0.1-2,0.4-2.9c0.3-0.7,0.9-1.2,1.5-1.6c0.9-0.4,1.9-0.6,2.8-0.6
			c1.2,0,2.3,0.2,3.4,0.5l-0.6,2.9c-0.6-0.2-1.3-0.2-1.9-0.2c-0.5,0-0.9,0.1-1.3,0.4c-0.3,0.5-0.5,1-0.4,1.6v1.1h3.1v3.2h-3.1v12.3
			h-4.1v-12.3h-2.3V118.5z"/>
		<path class="st2" d="M434.6,116.4v-3.8h4.1v3.8H434.6z M434.6,134.1v-15.6h4.1v15.6L434.6,134.1z"/>
		<path class="st2" d="M443,134.1v-21.5h4.1v21.5H443z"/>
		<path class="st2" d="M460.3,129.1l4.1,0.7c-0.4,1.4-1.3,2.6-2.5,3.4c-1.3,0.8-2.8,1.2-4.3,1.2c-2.7,0-4.7-0.9-6-2.7
			c-1.1-1.6-1.6-3.5-1.5-5.4c-0.1-2.2,0.6-4.4,2-6.1c1.3-1.4,3.2-2.2,5.1-2.2c2.1-0.1,4.1,0.7,5.5,2.3c1.3,1.5,2,3.9,1.9,7h-10.3
			c0,1,0.3,2.1,1,2.8c0.6,0.7,1.5,1,2.4,1c0.6,0,1.2-0.2,1.6-0.5C459.8,130.4,460.2,129.8,460.3,129.1z M460.6,125
			c0-1-0.3-2-0.9-2.7c-1.1-1.2-3-1.2-4.2-0.1c-0.1,0.1-0.1,0.1-0.2,0.2c-0.6,0.7-0.9,1.7-0.9,2.7H460.6z"/>
		<path class="st2" d="M468,134.1v-4.1h4.1v4.1H468z"/>
		<path class="st2" d="M50.6,180.1v-15.8h-5.9v-2.1h14.2v2.1h-5.9v15.8L50.6,180.1z"/>
		<path class="st2" d="M61,180.1v-17.9h2.2v6.4c1-1.2,2.4-1.8,3.9-1.8c0.9,0,1.7,0.2,2.5,0.6c0.7,0.3,1.2,0.9,1.5,1.6
			c0.4,0.9,0.5,1.9,0.5,2.9v8.2h-2.2v-8.2c0.1-0.9-0.2-1.7-0.7-2.4c-0.5-0.5-1.3-0.8-2-0.8c-0.6,0-1.3,0.2-1.8,0.5
			c-0.5,0.3-1,0.8-1.2,1.4c-0.3,0.8-0.4,1.6-0.4,2.4v7.1L61,180.1z"/>
		<path class="st2" d="M74.9,164.7v-2.5h2.2v2.5H74.9z M74.9,180.1v-13h2.2v13H74.9z"/>
		<path class="st2" d="M79.6,176.2l2.2-0.3c0.1,0.8,0.4,1.5,1,2c0.7,0.5,1.5,0.7,2.3,0.7c0.8,0.1,1.6-0.2,2.2-0.6
			c0.5-0.3,0.7-0.9,0.7-1.4c0-0.5-0.2-0.9-0.6-1.2c-0.7-0.3-1.5-0.6-2.2-0.7c-1.1-0.3-2.3-0.6-3.4-1.1c-1.2-0.5-1.9-1.7-1.9-3
			c0-0.6,0.1-1.1,0.4-1.6c0.3-0.5,0.6-0.9,1.1-1.2c0.4-0.3,0.9-0.5,1.4-0.6c0.6-0.2,1.3-0.3,1.9-0.3c0.9,0,1.8,0.1,2.7,0.4
			c0.7,0.2,1.3,0.6,1.7,1.2c0.4,0.6,0.7,1.3,0.8,2l-2.1,0.3c-0.1-0.6-0.4-1.2-0.8-1.6c-0.6-0.4-1.3-0.6-2-0.6
			c-0.8-0.1-1.5,0.1-2.2,0.5c-0.4,0.3-0.6,0.7-0.6,1.2c0,0.3,0.1,0.6,0.3,0.8c0.2,0.3,0.5,0.5,0.8,0.6c0.2,0.1,0.9,0.3,1.9,0.6
			c1.1,0.3,2.2,0.6,3.3,1c0.6,0.2,1.1,0.6,1.4,1.2c0.4,0.6,0.5,1.2,0.5,1.9c0,0.7-0.2,1.5-0.6,2.1c-0.5,0.7-1.1,1.2-1.8,1.5
			c-0.9,0.4-1.8,0.5-2.7,0.5c-1.4,0.1-2.7-0.3-3.9-1.1C80.4,178.5,79.8,177.4,79.6,176.2z"/>
		<path class="st2" d="M99.9,164.7v-2.5h2.2v2.5H99.9z M99.9,180.1v-13h2.2v13H99.9z"/>
		<path class="st2" d="M104.6,176.2l2.2-0.3c0.1,0.8,0.4,1.5,1,2c0.7,0.5,1.5,0.7,2.3,0.7c0.8,0.1,1.6-0.2,2.2-0.6
			c0.5-0.3,0.7-0.9,0.7-1.4c0-0.5-0.2-0.9-0.6-1.2c-0.7-0.3-1.5-0.6-2.2-0.7c-1.1-0.3-2.3-0.6-3.4-1.1c-1.2-0.5-1.9-1.7-1.9-3
			c0-0.6,0.1-1.1,0.4-1.6c0.3-0.5,0.6-0.9,1.1-1.2c0.4-0.3,0.9-0.5,1.4-0.6c0.6-0.2,1.3-0.3,1.9-0.3c0.9,0,1.8,0.1,2.7,0.4
			c0.7,0.2,1.3,0.6,1.7,1.2c0.4,0.6,0.7,1.3,0.8,2l-2.1,0.3c-0.1-0.6-0.4-1.2-0.8-1.6c-0.6-0.4-1.3-0.6-2-0.6
			c-0.8-0.1-1.5,0.1-2.2,0.5c-0.4,0.3-0.6,0.7-0.6,1.2c0,0.3,0.1,0.6,0.3,0.8c0.2,0.3,0.5,0.5,0.8,0.6c0.2,0.1,0.9,0.3,1.9,0.6
			c1.1,0.3,2.2,0.6,3.3,1c0.6,0.2,1.1,0.6,1.4,1.2c0.4,0.6,0.5,1.2,0.5,1.9c0,0.7-0.2,1.5-0.6,2.1c-0.5,0.7-1.1,1.2-1.8,1.5
			c-0.9,0.4-1.8,0.5-2.7,0.5c-1.4,0.1-2.7-0.3-3.9-1.1C105.4,178.5,104.8,177.4,104.6,176.2z"/>
		<path class="st2" d="M129.7,178.1l0.3,1.9c-0.5,0.1-1.1,0.2-1.7,0.2c-0.6,0-1.3-0.1-1.9-0.4c-0.4-0.2-0.7-0.6-0.9-1
			c-0.2-0.8-0.3-1.7-0.3-2.6v-7.5h-1.6v-1.7h1.6v-3.2l2.2-1.3v4.5h2.2v1.7h-2.2v7.6c0,0.4,0,0.8,0.1,1.2c0.1,0.2,0.2,0.3,0.4,0.4
			c0.2,0.1,0.5,0.2,0.8,0.2C129.1,178.2,129.4,178.2,129.7,178.1z"/>
		<path class="st2" d="M131.9,180.1v-17.9h2.2v6.4c1-1.2,2.4-1.8,3.9-1.8c0.9,0,1.7,0.2,2.5,0.6c0.7,0.3,1.2,0.9,1.5,1.6
			c0.4,0.9,0.5,1.9,0.5,2.9v8.2h-2.2v-8.2c0.1-0.9-0.2-1.7-0.7-2.4c-0.5-0.5-1.3-0.8-2-0.8c-0.6,0-1.3,0.2-1.8,0.5
			c-0.5,0.3-1,0.8-1.2,1.4c-0.3,0.8-0.4,1.6-0.4,2.4v7.1L131.9,180.1z"/>
		<path class="st2" d="M154.6,175.9l2.3,0.3c-0.3,1.2-1,2.3-2,3.1c-2.6,1.7-5.9,1.4-8.2-0.7c-1.2-1.4-1.8-3.1-1.7-4.9
			c-0.1-1.8,0.5-3.7,1.7-5.1c1.1-1.2,2.7-1.9,4.4-1.8c1.6-0.1,3.2,0.6,4.2,1.8c1.2,1.4,1.8,3.2,1.6,5c0,0.1,0,0.3,0,0.6h-9.7
			c0,1.2,0.4,2.4,1.2,3.3c0.7,0.7,1.7,1.2,2.7,1.1c0.7,0,1.5-0.2,2.1-0.6C153.9,177.4,154.4,176.7,154.6,175.9z M147.4,172.3h7.2
			c0-0.9-0.3-1.7-0.8-2.5c-0.7-0.8-1.7-1.3-2.7-1.3c-1,0-1.9,0.3-2.5,1C147.9,170.4,147.5,171.3,147.4,172.3L147.4,172.3z"/>
		<path class="st2" d="M166.6,185v-17.9h2v1.7c0.4-0.6,1-1.1,1.6-1.5c0.7-0.3,1.4-0.5,2.2-0.5c1,0,2.1,0.3,2.9,0.9
			c0.9,0.6,1.5,1.4,1.9,2.4c0.4,1.1,0.7,2.2,0.6,3.4c0,1.2-0.2,2.5-0.7,3.6c-0.8,2-2.8,3.3-4.9,3.3c-0.7,0-1.4-0.1-2-0.5
			c-0.6-0.3-1-0.7-1.4-1.2v6.3L166.6,185z M168.6,173.7c-0.1,1.3,0.3,2.6,1,3.7c0.6,0.8,1.5,1.2,2.5,1.2c1,0,1.9-0.5,2.5-1.2
			c0.8-1.1,1.2-2.5,1-3.8c0.1-1.3-0.3-2.6-1-3.7c-0.6-0.8-1.5-1.2-2.4-1.2c-1,0-1.9,0.5-2.5,1.3C168.9,171,168.5,172.3,168.6,173.7
			L168.6,173.7z"/>
		<path class="st2" d="M180.5,180.1v-13h2v2c0.3-0.7,0.8-1.3,1.4-1.8c0.4-0.3,0.9-0.4,1.4-0.4c0.8,0,1.6,0.3,2.3,0.7l-0.8,2
			c-0.5-0.3-1-0.5-1.6-0.5c-0.5,0-0.9,0.1-1.3,0.4c-0.4,0.3-0.7,0.7-0.8,1.2c-0.3,0.8-0.4,1.7-0.4,2.6v6.8L180.5,180.1z"/>
		<path class="st2" d="M197.7,175.9l2.3,0.3c-0.3,1.2-1,2.3-2,3.1c-2.6,1.7-5.9,1.4-8.2-0.7c-1.2-1.4-1.8-3.1-1.7-4.9
			c-0.1-1.8,0.5-3.7,1.7-5.1c1.1-1.2,2.7-1.9,4.4-1.8c1.6-0.1,3.2,0.6,4.2,1.8c1.2,1.4,1.8,3.2,1.6,5c0,0.1,0,0.3,0,0.6h-9.7
			c0,1.2,0.4,2.4,1.2,3.3c0.7,0.7,1.7,1.2,2.7,1.1c0.7,0,1.5-0.2,2.1-0.6C197,177.4,197.5,176.7,197.7,175.9z M190.5,172.3h7.2
			c0-0.9-0.3-1.7-0.8-2.5c-0.7-0.8-1.7-1.3-2.7-1.3c-1,0-1.9,0.3-2.5,1C190.9,170.4,190.5,171.3,190.5,172.3z"/>
		<path class="st2" d="M203.3,180.1v-11.3h-1.9v-1.7h1.9v-1.4c0-0.7,0-1.3,0.2-1.9c0.2-0.6,0.6-1.1,1.1-1.4c0.7-0.4,1.5-0.6,2.2-0.5
			c0.7,0,1.4,0.1,2.1,0.2l-0.3,1.9c-0.4-0.1-0.9-0.1-1.3-0.1c-0.5-0.1-1,0.1-1.4,0.4c-0.3,0.5-0.5,1-0.4,1.6v1.2h2.5v1.7h-2.5v11.3
			L203.3,180.1z"/>
		<path class="st2" d="M218.6,175.9l2.3,0.3c-0.3,1.2-1,2.3-2,3.1c-2.6,1.7-5.9,1.4-8.2-0.7c-1.2-1.4-1.8-3.1-1.7-4.9
			c-0.1-1.8,0.5-3.7,1.7-5.1c1.1-1.2,2.7-1.9,4.4-1.8c1.6-0.1,3.2,0.6,4.2,1.8c1.2,1.4,1.8,3.2,1.6,5c0,0.1,0,0.3,0,0.6h-9.7
			c0,1.2,0.4,2.4,1.2,3.3c0.7,0.7,1.7,1.2,2.7,1.1c0.7,0,1.5-0.2,2.1-0.6C217.9,177.4,218.3,176.7,218.6,175.9z M211.4,172.3h7.2
			c0-0.9-0.3-1.7-0.8-2.5c-0.7-0.8-1.7-1.3-2.7-1.3c-1,0-1.9,0.3-2.5,1C211.8,170.4,211.4,171.3,211.4,172.3L211.4,172.3z"/>
		<path class="st2" d="M223.6,180.1v-13h2v2c0.3-0.7,0.8-1.3,1.4-1.8c0.4-0.3,0.9-0.4,1.4-0.4c0.8,0,1.6,0.3,2.3,0.7l-0.8,2
			c-0.5-0.3-1-0.5-1.6-0.5c-0.5,0-0.9,0.1-1.3,0.4c-0.4,0.3-0.7,0.7-0.8,1.2c-0.3,0.8-0.4,1.7-0.4,2.6v6.8L223.6,180.1z"/>
		<path class="st2" d="M231.9,180.1v-13h2v2c0.3-0.7,0.8-1.3,1.4-1.8c0.4-0.3,0.9-0.4,1.4-0.4c0.8,0,1.6,0.3,2.3,0.7l-0.8,2
			c-0.5-0.3-1-0.5-1.6-0.5c-0.5,0-0.9,0.1-1.3,0.4c-0.4,0.3-0.7,0.7-0.8,1.2c-0.3,0.8-0.4,1.7-0.4,2.6v6.8L231.9,180.1z"/>
		<path class="st2" d="M249.1,175.9l2.3,0.3c-0.3,1.2-1,2.3-2,3.1c-2.6,1.7-5.9,1.4-8.2-0.7c-1.2-1.4-1.8-3.1-1.7-4.9
			c-0.1-1.8,0.5-3.7,1.7-5.1c1.1-1.2,2.7-1.9,4.4-1.8c1.6-0.1,3.2,0.6,4.2,1.8c1.2,1.4,1.8,3.2,1.6,5c0,0.1,0,0.3,0,0.6h-9.7
			c0,1.2,0.4,2.4,1.2,3.3c0.7,0.7,1.7,1.2,2.7,1.1c0.7,0,1.5-0.2,2.1-0.6C248.4,177.4,248.9,176.7,249.1,175.9z M241.9,172.3h7.2
			c0-0.9-0.3-1.7-0.8-2.5c-0.7-0.8-1.7-1.3-2.7-1.3c-1,0-1.9,0.3-2.5,1C242.3,170.4,241.9,171.3,241.9,172.3L241.9,172.3z"/>
		<path class="st2" d="M262.6,180.1v-1.6c-0.8,1.3-2.2,2-3.6,1.9c-1,0-2-0.3-2.9-0.9c-0.9-0.6-1.6-1.4-2-2.4
			c-0.5-1.1-0.7-2.3-0.7-3.5c0-1.2,0.2-2.4,0.6-3.5c0.4-1,1.1-1.8,1.9-2.4c0.9-0.6,1.9-0.9,2.9-0.8c1.4,0,2.7,0.6,3.6,1.8v-6.4h2.2
			v17.9H262.6z M255.6,173.6c-0.1,1.3,0.3,2.6,1.1,3.7c0.6,0.8,1.5,1.2,2.5,1.2c1,0,1.9-0.4,2.4-1.2c0.8-1,1.1-2.3,1-3.6
			c0.1-1.4-0.2-2.8-1-3.9c-0.6-0.8-1.5-1.2-2.5-1.2c-1,0-1.9,0.4-2.4,1.2C255.9,170.9,255.5,172.3,255.6,173.6L255.6,173.6z"/>
		<path class="st2" d="M274.2,173.6c0-2.4,0.7-4.2,2-5.3c1.1-1,2.6-1.5,4.1-1.4c1.6-0.1,3.2,0.6,4.4,1.8c1.2,1.3,1.8,3.1,1.7,4.8
			c0.1,1.4-0.2,2.7-0.8,3.9c-0.5,0.9-1.3,1.7-2.2,2.2c-1,0.5-2,0.8-3.1,0.8c-1.6,0.1-3.2-0.6-4.4-1.7
			C274.7,177.2,274.1,175.4,274.2,173.6z M276.4,173.6c-0.1,1.3,0.3,2.7,1.1,3.7c1.3,1.5,3.6,1.7,5.1,0.3c0.1-0.1,0.2-0.2,0.4-0.4
			c0.8-1.1,1.2-2.4,1.1-3.8c0.1-1.3-0.3-2.6-1.1-3.6c-1.3-1.5-3.6-1.7-5.1-0.3c-0.1,0.1-0.2,0.2-0.3,0.3
			C276.7,170.9,276.3,172.3,276.4,173.6z"/>
		<path class="st2" d="M288.9,185v-17.9h2v1.7c0.4-0.6,1-1.1,1.6-1.5c0.7-0.3,1.4-0.5,2.2-0.5c1,0,2.1,0.3,2.9,0.9
			c0.9,0.6,1.5,1.4,1.9,2.4c0.4,1.1,0.7,2.2,0.6,3.4c0,1.2-0.2,2.5-0.7,3.6c-0.8,2-2.8,3.3-4.9,3.3c-0.7,0-1.4-0.1-2-0.5
			c-0.6-0.3-1-0.7-1.4-1.2v6.3L288.9,185z M290.9,173.7c-0.1,1.3,0.3,2.6,1,3.7c0.6,0.8,1.5,1.2,2.5,1.2c1,0,1.9-0.5,2.5-1.2
			c0.8-1.1,1.2-2.5,1-3.8c0.1-1.3-0.3-2.6-1-3.7c-0.6-0.8-1.5-1.2-2.4-1.2c-1,0-1.9,0.5-2.5,1.3C291.2,171,290.8,172.3,290.9,173.7z
			"/>
		<path class="st2" d="M307.6,178.1l0.3,1.9c-0.5,0.1-1.1,0.2-1.7,0.2c-0.6,0-1.3-0.1-1.9-0.4c-0.4-0.2-0.7-0.6-0.9-1
			c-0.2-0.8-0.3-1.7-0.3-2.6v-7.5h-1.6v-1.7h1.6v-3.2l2.2-1.3v4.5h2.2v1.7h-2.2v7.6c0,0.4,0,0.8,0.1,1.2c0.1,0.2,0.2,0.3,0.4,0.4
			c0.2,0.1,0.5,0.2,0.8,0.2C307,178.2,307.3,178.2,307.6,178.1z"/>
		<path class="st2" d="M309.8,164.7v-2.5h2.2v2.5H309.8z M309.8,180.1v-13h2.2v13H309.8z"/>
		<path class="st2" d="M314.5,173.6c0-2.4,0.7-4.2,2-5.3c1.1-1,2.6-1.5,4.1-1.4c1.6-0.1,3.2,0.6,4.4,1.8c1.2,1.3,1.8,3.1,1.7,4.8
			c0.1,1.4-0.2,2.7-0.8,3.9c-0.5,0.9-1.3,1.7-2.2,2.2c-1,0.5-2,0.8-3.1,0.8c-1.6,0.1-3.2-0.6-4.4-1.7
			C315,177.2,314.4,175.4,314.5,173.6z M316.8,173.6c-0.1,1.3,0.3,2.7,1.1,3.7c1.3,1.5,3.6,1.7,5.1,0.3c0.1-0.1,0.2-0.2,0.4-0.4
			c0.8-1.1,1.2-2.4,1.1-3.8c0.1-1.3-0.3-2.6-1.1-3.6c-1.3-1.5-3.6-1.7-5.1-0.3c-0.1,0.1-0.2,0.2-0.3,0.3
			C317,170.9,316.7,172.3,316.8,173.6L316.8,173.6z"/>
		<path class="st2" d="M329.2,180.1v-13h2v1.8c0.9-1.4,2.5-2.2,4.1-2.1c0.7,0,1.5,0.1,2.2,0.4c0.6,0.2,1.1,0.6,1.5,1.1
			c0.3,0.5,0.6,1,0.7,1.6c0.1,0.7,0.1,1.4,0.1,2.1v8h-2.2v-7.9c0-0.7-0.1-1.4-0.3-2c-0.2-0.4-0.5-0.8-0.9-1.1
			c-0.5-0.3-1-0.4-1.5-0.4c-0.9,0-1.8,0.3-2.4,0.9c-0.7,0.6-1,1.7-1,3.4v7.1L329.2,180.1z"/>
		<path class="st2" d="M343.7,180.1v-2.5h2.5v2.5c0,0.8-0.1,1.5-0.5,2.2c-0.4,0.6-0.9,1.1-1.5,1.3l-0.6-0.9c0.4-0.2,0.8-0.5,1-0.9
			c0.3-0.5,0.4-1.1,0.4-1.7L343.7,180.1z"/>
		<path class="st2" d="M356.1,176.2l2.2-0.3c0.1,0.8,0.4,1.5,1,2c0.7,0.5,1.5,0.7,2.3,0.7c0.8,0.1,1.6-0.2,2.2-0.6
			c0.5-0.3,0.7-0.9,0.7-1.4c0-0.5-0.2-0.9-0.6-1.2c-0.7-0.3-1.5-0.6-2.2-0.7c-1.1-0.3-2.3-0.6-3.4-1.1c-1.2-0.5-1.9-1.7-1.9-3
			c0-0.6,0.1-1.1,0.4-1.6c0.3-0.5,0.6-0.9,1.1-1.2c0.4-0.3,0.9-0.5,1.4-0.6c0.6-0.2,1.3-0.3,1.9-0.3c0.9,0,1.8,0.1,2.7,0.4
			c0.7,0.2,1.3,0.6,1.7,1.2c0.4,0.6,0.7,1.3,0.8,2l-2.1,0.3c-0.1-0.6-0.4-1.2-0.8-1.6c-0.6-0.4-1.3-0.6-2-0.6
			c-0.8-0.1-1.5,0.1-2.2,0.5c-0.4,0.3-0.6,0.7-0.6,1.2c0,0.3,0.1,0.6,0.3,0.8c0.2,0.3,0.5,0.5,0.8,0.6c0.2,0.1,0.9,0.3,1.9,0.6
			c1.1,0.3,2.2,0.6,3.3,1c0.6,0.2,1.1,0.6,1.4,1.2c0.4,0.6,0.5,1.2,0.5,1.9c0,0.7-0.2,1.5-0.6,2.1c-0.5,0.7-1.1,1.2-1.9,1.5
			c-0.9,0.4-1.8,0.5-2.7,0.5c-1.4,0.1-2.7-0.3-3.9-1.1C356.9,178.5,356.3,177.4,356.1,176.2z"/>
		<path class="st2" d="M369.5,164.7v-2.5h2.2v2.5H369.5z M369.5,180.1v-13h2.2v13H369.5z"/>
		<path class="st2" d="M375.1,180.1v-13h2v1.8c0.9-1.4,2.5-2.2,4.1-2.1c0.7,0,1.5,0.1,2.2,0.4c0.6,0.2,1.1,0.6,1.5,1.1
			c0.3,0.5,0.6,1,0.7,1.6c0.1,0.7,0.1,1.4,0.1,2.1v8h-2.2v-7.9c0-0.7-0.1-1.4-0.3-2c-0.2-0.4-0.5-0.8-0.9-1.1
			c-0.5-0.3-1-0.4-1.5-0.4c-0.9,0-1.8,0.3-2.4,0.9c-0.7,0.6-1,1.7-1,3.4v7.1L375.1,180.1z"/>
		<path class="st2" d="M397.4,175.3l2.2,0.3c-0.2,1.3-0.8,2.6-1.8,3.5c-1,0.9-2.3,1.3-3.6,1.3c-1.6,0.1-3.2-0.6-4.3-1.7
			c-1.2-1.4-1.7-3.2-1.6-5c0-1.3,0.2-2.5,0.7-3.7c0.4-1,1.2-1.8,2.1-2.4c0.9-0.5,2-0.8,3.1-0.8c1.2-0.1,2.5,0.3,3.5,1.1
			c0.9,0.8,1.5,1.8,1.7,3l-2.1,0.3c-0.1-0.8-0.5-1.4-1.1-2c-0.5-0.4-1.2-0.7-1.9-0.7c-1,0-2,0.4-2.7,1.2c-0.8,1.1-1.2,2.4-1,3.8
			c-0.1,1.3,0.2,2.7,1,3.8c0.6,0.8,1.6,1.2,2.6,1.2c0.8,0,1.6-0.3,2.2-0.8C397,177.1,397.4,176.2,397.4,175.3z"/>
		<path class="st2" d="M410.3,175.9l2.3,0.3c-0.3,1.2-1,2.3-2,3.1c-2.6,1.7-5.9,1.4-8.2-0.7c-1.2-1.4-1.8-3.1-1.7-4.9
			c-0.1-1.8,0.5-3.7,1.7-5.1c1.1-1.2,2.7-1.9,4.4-1.8c1.6-0.1,3.2,0.6,4.2,1.8c1.2,1.4,1.8,3.2,1.6,5c0,0.1,0,0.3,0,0.6H403
			c0,1.2,0.4,2.4,1.2,3.3c0.7,0.7,1.7,1.2,2.7,1.1c0.7,0,1.5-0.2,2.1-0.6C409.6,177.4,410.1,176.7,410.3,175.9z M403.1,172.3h7.2
			c0-0.9-0.3-1.7-0.8-2.5c-0.7-0.8-1.7-1.3-2.7-1.3c-1,0-1.9,0.3-2.5,1C403.6,170.4,403.2,171.3,403.1,172.3L403.1,172.3z"/>
		<path class="st2" d="M422.3,164.7v-2.5h2.2v2.5H422.3z M422.3,180.1v-13h2.2v13H422.3z"/>
		<path class="st2" d="M432.7,178.1l0.3,1.9c-0.5,0.1-1.1,0.2-1.7,0.2c-0.6,0-1.3-0.1-1.9-0.4c-0.4-0.2-0.7-0.6-0.9-1
			c-0.2-0.8-0.3-1.7-0.3-2.6v-7.5h-1.6v-1.7h1.6v-3.2l2.2-1.3v4.5h2.2v1.7h-2.2v7.6c0,0.4,0,0.8,0.1,1.2c0.1,0.2,0.2,0.3,0.4,0.4
			c0.2,0.1,0.5,0.2,0.8,0.2C432,178.2,432.4,178.2,432.7,178.1z"/>
		<path class="st2" d="M45.8,215.1v-17.9H48v10.2l5.2-5.3H56l-5,4.8l5.5,8.2h-2.7l-4.3-6.6l-1.6,1.5v5.1L45.8,215.1z"/>
		<path class="st2" d="M67.1,210.9l2.3,0.3c-0.3,1.2-1,2.3-2,3.1c-2.6,1.7-5.9,1.4-8.2-0.7c-1.2-1.4-1.8-3.1-1.7-4.9
			c-0.1-1.8,0.5-3.7,1.7-5.1c1.1-1.2,2.7-1.9,4.4-1.8c1.6-0.1,3.2,0.6,4.2,1.8c1.2,1.4,1.8,3.2,1.6,5c0,0.1,0,0.3,0,0.6h-9.7
			c0,1.2,0.4,2.4,1.2,3.3c0.7,0.7,1.7,1.2,2.7,1.1c0.7,0,1.5-0.2,2.1-0.6C66.4,212.4,66.9,211.7,67.1,210.9z M59.9,207.3h7.2
			c0-0.9-0.3-1.7-0.8-2.5c-0.7-0.8-1.7-1.3-2.7-1.3c-1,0-1.9,0.3-2.5,1C60.3,205.4,59.9,206.3,59.9,207.3z"/>
		<path class="st2" d="M81,210.9l2.3,0.3c-0.3,1.2-1,2.3-2,3.1c-2.6,1.7-5.9,1.4-8.2-0.7c-1.2-1.4-1.8-3.1-1.7-4.9
			c-0.1-1.8,0.5-3.7,1.7-5.1c1.1-1.2,2.7-1.9,4.4-1.8c1.6-0.1,3.2,0.6,4.2,1.8c1.2,1.4,1.8,3.2,1.6,5c0,0.1,0,0.3,0,0.6h-9.7
			c0,1.2,0.4,2.4,1.2,3.3c0.7,0.7,1.7,1.2,2.7,1.1c0.7,0,1.5-0.2,2.1-0.6C80.3,212.4,80.8,211.7,81,210.9z M73.8,207.3H81
			c0-0.9-0.3-1.7-0.8-2.5c-0.7-0.8-1.7-1.3-2.7-1.3c-1,0-1.9,0.3-2.5,1C74.2,205.4,73.8,206.3,73.8,207.3z"/>
		<path class="st2" d="M86.1,220v-17.9h2v1.7c0.4-0.6,1-1.1,1.6-1.5c0.7-0.3,1.4-0.5,2.2-0.5c1,0,2.1,0.3,2.9,0.9
			c0.9,0.6,1.5,1.4,1.9,2.4c0.4,1.1,0.7,2.2,0.6,3.4c0,1.2-0.2,2.5-0.7,3.6c-0.8,2-2.8,3.3-4.9,3.3c-0.7,0-1.4-0.1-2-0.5
			c-0.6-0.3-1-0.7-1.4-1.2v6.3L86.1,220z M88,208.7c-0.1,1.3,0.3,2.6,1,3.7c0.6,0.8,1.5,1.2,2.5,1.2c1,0,1.9-0.5,2.5-1.2
			c0.8-1.1,1.2-2.5,1-3.8c0.1-1.3-0.3-2.6-1-3.7c-0.6-0.8-1.5-1.2-2.4-1.2c-1,0-1.9,0.5-2.5,1.3C88.3,206,88,207.3,88,208.7z"/>
		<path class="st2" d="M99.1,211.2l2.2-0.3c0.1,0.8,0.4,1.5,1,2c0.7,0.5,1.5,0.7,2.3,0.7c0.8,0.1,1.6-0.2,2.2-0.6
			c0.5-0.3,0.7-0.9,0.7-1.4c0-0.5-0.2-0.9-0.6-1.2c-0.7-0.3-1.5-0.6-2.2-0.7c-1.1-0.3-2.3-0.6-3.4-1.1c-1.2-0.5-1.9-1.7-1.9-3
			c0-0.6,0.1-1.1,0.4-1.6c0.3-0.5,0.6-0.9,1.1-1.2c0.4-0.3,0.9-0.5,1.4-0.6c0.6-0.2,1.3-0.3,1.9-0.3c0.9,0,1.8,0.1,2.7,0.4
			c0.7,0.2,1.3,0.6,1.7,1.2c0.4,0.6,0.7,1.3,0.8,2l-2.1,0.3c-0.1-0.6-0.4-1.2-0.8-1.6c-0.6-0.4-1.3-0.6-2-0.6
			c-0.8-0.1-1.5,0.1-2.2,0.5c-0.4,0.3-0.6,0.7-0.6,1.2c0,0.3,0.1,0.6,0.3,0.8c0.2,0.3,0.5,0.5,0.8,0.6c0.2,0.1,0.9,0.3,1.9,0.6
			c1.1,0.3,2.2,0.6,3.3,1c0.6,0.2,1.1,0.6,1.4,1.2c0.4,0.6,0.5,1.2,0.5,1.9c0,0.7-0.2,1.5-0.6,2.1c-0.5,0.7-1.1,1.2-1.8,1.5
			c-0.9,0.4-1.8,0.5-2.7,0.5c-1.4,0.1-2.7-0.3-3.8-1.1C99.8,213.5,99.2,212.4,99.1,211.2z"/>
		<path class="st2" d="M127.9,213.5c-0.7,0.6-1.5,1.1-2.3,1.5c-0.8,0.3-1.6,0.4-2.4,0.4c-1.2,0.1-2.4-0.3-3.3-1
			c-0.8-0.7-1.2-1.7-1.1-2.7c0-0.6,0.1-1.2,0.4-1.7c0.3-0.5,0.7-0.9,1.1-1.3c0.5-0.3,1-0.6,1.6-0.7c0.6-0.2,1.3-0.3,2-0.3
			c1.3-0.1,2.6-0.4,3.9-0.8c0-0.3,0-0.5,0-0.6c0.1-0.7-0.2-1.4-0.6-1.9c-0.7-0.5-1.6-0.8-2.5-0.7c-0.8-0.1-1.6,0.1-2.3,0.5
			c-0.6,0.5-1,1.2-1.1,1.9l-2.1-0.3c0.1-0.8,0.5-1.6,1-2.2c0.5-0.6,1.2-1.1,1.9-1.3c0.9-0.3,1.9-0.5,2.9-0.5c0.9,0,1.8,0.1,2.7,0.4
			c0.6,0.2,1.1,0.5,1.5,1c0.3,0.4,0.6,0.9,0.7,1.5c0.1,0.7,0.1,1.3,0.1,2v2.9c0,1.3,0,2.6,0.1,3.9c0.1,0.5,0.3,1.1,0.6,1.6h-2.3
			C128.1,214.6,127.9,214,127.9,213.5z M127.7,208.6c-1.2,0.4-2.4,0.7-3.6,0.8c-0.7,0.1-1.3,0.2-1.9,0.4c-0.4,0.1-0.7,0.4-0.9,0.7
			c-0.5,0.8-0.4,1.9,0.4,2.5c0.6,0.4,1.2,0.6,1.9,0.6c0.8,0,1.6-0.2,2.3-0.6c0.6-0.3,1.1-0.9,1.5-1.5c0.3-0.7,0.4-1.4,0.4-2.2
			L127.7,208.6z"/>
		<path class="st2" d="M133.3,215.1v-17.9h2.2v17.9H133.3z"/>
		<path class="st2" d="M138.8,215.1v-17.9h2.2v17.9H138.8z"/>
		<path class="st2" d="M159.8,210.3l2.2,0.3c-0.2,1.3-0.8,2.6-1.8,3.5c-1,0.9-2.3,1.3-3.6,1.3c-1.6,0.1-3.2-0.6-4.3-1.7
			c-1.2-1.4-1.7-3.2-1.6-5c0-1.3,0.2-2.5,0.7-3.7c0.4-1,1.2-1.8,2.1-2.4c0.9-0.5,2-0.8,3.1-0.8c1.2-0.1,2.5,0.3,3.5,1.1
			c0.9,0.8,1.5,1.8,1.7,3l-2.1,0.3c-0.1-0.8-0.5-1.4-1.1-2c-0.5-0.4-1.2-0.7-1.9-0.7c-1,0-2,0.4-2.7,1.2c-0.8,1.1-1.1,2.4-1,3.8
			c-0.1,1.3,0.2,2.7,1,3.8c0.6,0.8,1.6,1.2,2.6,1.2c0.8,0,1.6-0.3,2.2-0.8C159.4,212.1,159.8,211.2,159.8,210.3z"/>
		<path class="st2" d="M163,208.6c0-2.4,0.7-4.2,2-5.3c1.1-1,2.6-1.5,4.1-1.4c1.6-0.1,3.2,0.6,4.4,1.8c1.2,1.3,1.8,3.1,1.7,4.8
			c0.1,1.4-0.2,2.7-0.8,3.9c-0.5,0.9-1.3,1.7-2.2,2.2c-1,0.5-2,0.8-3.1,0.8c-1.6,0.1-3.2-0.6-4.4-1.7
			C163.5,212.2,162.9,210.4,163,208.6z M165.3,208.6c-0.1,1.3,0.3,2.7,1.1,3.7c1.3,1.5,3.6,1.7,5.1,0.3c0.1-0.1,0.2-0.2,0.4-0.4
			c0.8-1.1,1.2-2.4,1.1-3.8c0.1-1.3-0.3-2.6-1.1-3.6c-1.3-1.5-3.6-1.7-5.1-0.3c-0.1,0.1-0.2,0.2-0.3,0.3
			C165.6,205.9,165.2,207.3,165.3,208.6z"/>
		<path class="st2" d="M177.8,215.1v-13h2v1.8c0.9-1.4,2.5-2.2,4.1-2.1c0.7,0,1.5,0.1,2.2,0.4c0.6,0.2,1.1,0.6,1.5,1.1
			c0.3,0.5,0.6,1,0.7,1.6c0.1,0.7,0.1,1.4,0.1,2.1v8h-2.2v-7.9c0-0.7-0.1-1.4-0.3-2c-0.2-0.4-0.5-0.8-0.9-1.1
			c-0.5-0.3-1-0.4-1.5-0.4c-0.9,0-1.8,0.3-2.4,0.9c-0.7,0.6-1,1.7-1,3.4v7.1L177.8,215.1z"/>
		<path class="st2" d="M192.2,215.1v-11.3h-1.9v-1.7h1.9v-1.4c0-0.7,0-1.3,0.2-1.9c0.2-0.6,0.6-1.1,1.1-1.4c0.7-0.4,1.5-0.6,2.2-0.5
			c0.7,0,1.4,0.1,2.1,0.2l-0.3,1.9c-0.4-0.1-0.9-0.1-1.3-0.1c-0.5-0.1-1,0.1-1.4,0.4c-0.3,0.5-0.5,1-0.4,1.6v1.2h2.5v1.7h-2.5v11.3
			L192.2,215.1z"/>
		<path class="st2" d="M198.6,199.7v-2.5h2.2v2.5H198.6z M198.6,215.1v-13h2.2v13H198.6z"/>
		<path class="st2" d="M203.8,216.1l2.1,0.3c0,0.6,0.3,1.1,0.7,1.4c0.7,0.4,1.4,0.7,2.2,0.6c0.8,0.1,1.7-0.2,2.4-0.6
			c0.6-0.4,1-1,1.1-1.7c0.1-0.9,0.2-1.9,0.2-2.8c-0.9,1.1-2.2,1.7-3.6,1.7c-1.6,0.1-3.2-0.6-4.1-1.9c-1-1.3-1.5-3-1.5-4.6
			c0-1.2,0.2-2.3,0.7-3.4c0.4-1,1.1-1.8,1.9-2.4c0.9-0.6,1.9-0.9,3-0.9c1.5,0,2.9,0.7,3.8,1.9v-1.6h2v11.2c0.1,1.5-0.1,2.9-0.6,4.3
			c-0.4,0.9-1.1,1.6-2,2c-1,0.5-2.1,0.8-3.3,0.7c-1.3,0.1-2.6-0.3-3.7-1C204.2,218.5,203.7,217.4,203.8,216.1z M205.6,208.4
			c-0.1,1.3,0.2,2.6,1,3.7c1.2,1.4,3.3,1.6,4.7,0.4c0.1-0.1,0.3-0.2,0.4-0.4c0.8-1.1,1.1-2.4,1-3.7c0.1-1.3-0.3-2.6-1.1-3.6
			c-0.6-0.8-1.6-1.2-2.5-1.2c-1,0-1.9,0.4-2.5,1.2C205.9,205.8,205.5,207.1,205.6,208.4L205.6,208.4z"/>
		<path class="st2" d="M226.6,215.1v-1.9c-0.9,1.4-2.5,2.2-4.1,2.2c-0.7,0-1.5-0.1-2.1-0.4c-0.6-0.2-1.1-0.6-1.5-1.1
			c-0.3-0.5-0.6-1-0.7-1.6c-0.1-0.7-0.2-1.4-0.1-2.1v-8h2.2v7.2c0,0.8,0,1.6,0.1,2.3c0.1,0.5,0.4,1,0.9,1.4c0.5,0.3,1.1,0.5,1.7,0.5
			c0.7,0,1.3-0.2,1.9-0.5c0.6-0.3,1-0.8,1.2-1.4c0.3-0.8,0.4-1.7,0.4-2.5v-6.9h2.2v13L226.6,215.1z"/>
		<path class="st2" d="M232,215.1v-13h2v2c0.3-0.7,0.8-1.3,1.4-1.8c0.4-0.3,0.9-0.4,1.4-0.4c0.8,0,1.6,0.3,2.3,0.7l-0.8,2
			c-0.5-0.3-1-0.5-1.6-0.5c-0.5,0-0.9,0.1-1.3,0.4c-0.4,0.3-0.7,0.7-0.8,1.2c-0.3,0.8-0.4,1.7-0.4,2.6v6.8L232,215.1z"/>
		<path class="st2" d="M248.8,213.5c-0.7,0.6-1.5,1.1-2.4,1.5c-0.8,0.3-1.6,0.4-2.4,0.4c-1.2,0.1-2.4-0.3-3.3-1
			c-0.8-0.7-1.2-1.7-1.1-2.7c0-0.6,0.1-1.2,0.4-1.7c0.3-0.5,0.7-0.9,1.1-1.3c0.5-0.3,1-0.6,1.6-0.7c0.6-0.2,1.3-0.3,2-0.3
			c1.3-0.1,2.6-0.4,3.9-0.8c0-0.3,0-0.5,0-0.6c0.1-0.7-0.2-1.4-0.6-1.9c-0.7-0.5-1.6-0.8-2.5-0.7c-0.8-0.1-1.6,0.1-2.3,0.5
			c-0.6,0.5-1,1.2-1.1,1.9l-2.1-0.3c0.1-0.8,0.5-1.6,1-2.2c0.5-0.6,1.2-1.1,1.9-1.3c0.9-0.3,1.9-0.5,2.9-0.5c0.9,0,1.8,0.1,2.7,0.4
			c0.6,0.2,1.1,0.5,1.5,1c0.3,0.4,0.6,0.9,0.7,1.5c0.1,0.7,0.1,1.3,0.1,2v2.9c0,1.3,0,2.6,0.1,3.9c0.1,0.5,0.3,1.1,0.6,1.6h-2.3
			C249,214.6,248.8,214,248.8,213.5z M248.6,208.6c-1.2,0.4-2.4,0.7-3.6,0.8c-0.7,0.1-1.3,0.2-1.9,0.4c-0.4,0.1-0.7,0.4-0.9,0.7
			c-0.5,0.8-0.4,1.9,0.4,2.5c0.6,0.4,1.2,0.6,1.9,0.6c0.8,0,1.6-0.2,2.3-0.6c0.6-0.3,1.1-0.9,1.5-1.5c0.3-0.7,0.4-1.4,0.4-2.2
			L248.6,208.6z"/>
		<path class="st2" d="M259,213.1l0.3,1.9c-0.5,0.1-1.1,0.2-1.7,0.2c-0.6,0-1.3-0.1-1.9-0.4c-0.4-0.2-0.7-0.6-0.9-1
			c-0.2-0.8-0.3-1.7-0.3-2.6v-7.5H253v-1.7h1.6v-3.2l2.2-1.3v4.5h2.2v1.7h-2.2v7.6c0,0.4,0,0.8,0.1,1.2c0.1,0.2,0.2,0.3,0.4,0.4
			c0.2,0.1,0.5,0.2,0.8,0.2C258.4,213.2,258.7,213.2,259,213.1z"/>
		<path class="st2" d="M261.2,199.7v-2.5h2.2v2.5H261.2z M261.2,215.1v-13h2.2v13H261.2z"/>
		<path class="st2" d="M265.9,208.6c0-2.4,0.7-4.2,2-5.3c1.1-1,2.6-1.5,4.1-1.4c1.6-0.1,3.2,0.6,4.4,1.8c1.2,1.3,1.8,3.1,1.7,4.8
			c0.1,1.4-0.2,2.7-0.8,3.9c-0.5,0.9-1.3,1.7-2.2,2.2c-1,0.5-2,0.8-3.1,0.8c-1.6,0.1-3.2-0.6-4.4-1.7
			C266.4,212.2,265.8,210.4,265.9,208.6z M268.1,208.6c-0.1,1.3,0.3,2.7,1.1,3.7c1.3,1.5,3.6,1.7,5.1,0.3c0.1-0.1,0.2-0.2,0.4-0.4
			c0.8-1.1,1.2-2.4,1.1-3.8c0.1-1.3-0.3-2.6-1.1-3.6c-1.3-1.5-3.6-1.7-5.1-0.3c-0.1,0.1-0.2,0.2-0.3,0.3
			C268.4,205.9,268,207.3,268.1,208.6L268.1,208.6z"/>
		<path class="st2" d="M280.6,215.1v-13h2v1.8c0.9-1.4,2.5-2.2,4.1-2.1c0.7,0,1.5,0.1,2.2,0.4c0.6,0.2,1.1,0.6,1.5,1.1
			c0.3,0.5,0.6,1,0.7,1.6c0.1,0.7,0.1,1.4,0.1,2.1v8h-2.2v-7.9c0-0.7-0.1-1.4-0.3-2c-0.2-0.4-0.5-0.8-0.9-1.1
			c-0.5-0.3-1-0.4-1.5-0.4c-0.9,0-1.8,0.3-2.4,0.9c-0.7,0.6-1,1.7-1,3.4v7.1L280.6,215.1z"/>
		<path class="st2" d="M293.6,211.2l2.2-0.3c0.1,0.8,0.4,1.5,1,2c0.7,0.5,1.5,0.7,2.3,0.7c0.8,0.1,1.6-0.2,2.2-0.6
			c0.5-0.3,0.7-0.9,0.7-1.4c0-0.5-0.2-0.9-0.6-1.2c-0.7-0.3-1.5-0.6-2.2-0.7c-1.1-0.3-2.3-0.6-3.4-1.1c-1.2-0.5-1.9-1.7-1.9-3
			c0-0.6,0.1-1.1,0.4-1.6c0.3-0.5,0.6-0.9,1.1-1.2c0.4-0.3,0.9-0.5,1.4-0.6c0.6-0.2,1.3-0.3,1.9-0.3c0.9,0,1.8,0.1,2.7,0.4
			c0.7,0.2,1.3,0.6,1.7,1.2c0.4,0.6,0.7,1.3,0.8,2l-2.1,0.3c-0.1-0.6-0.4-1.2-0.8-1.6c-0.6-0.4-1.3-0.6-2-0.6
			c-0.8-0.1-1.5,0.1-2.2,0.5c-0.4,0.3-0.6,0.7-0.6,1.2c0,0.3,0.1,0.6,0.3,0.8c0.2,0.3,0.5,0.5,0.8,0.6c0.2,0.1,0.9,0.3,1.9,0.6
			c1.1,0.3,2.2,0.6,3.3,1c0.6,0.2,1.1,0.6,1.4,1.2c0.4,0.6,0.5,1.2,0.5,1.9c0,0.7-0.2,1.5-0.6,2.1c-0.5,0.7-1.1,1.2-1.9,1.5
			c-0.9,0.4-1.8,0.5-2.7,0.5c-1.4,0.1-2.7-0.3-3.9-1.1C294.4,213.5,293.8,212.4,293.6,211.2z"/>
		<path class="st2" d="M314,199.7v-2.5h2.2v2.5H314z M314,215.1v-13h2.2v13H314z"/>
		<path class="st2" d="M319.5,215.1v-13h2v1.8c0.9-1.4,2.5-2.2,4.1-2.1c0.7,0,1.5,0.1,2.2,0.4c0.6,0.2,1.1,0.6,1.5,1.1
			c0.3,0.5,0.6,1,0.7,1.6c0.1,0.7,0.1,1.4,0.1,2.1v8h-2.2v-7.9c0-0.7-0.1-1.4-0.3-2c-0.2-0.4-0.5-0.8-0.9-1.1
			c-0.5-0.3-1-0.4-1.5-0.4c-0.9,0-1.8,0.3-2.4,0.9c-0.7,0.6-1,1.7-1,3.4v7.1L319.5,215.1z"/>
		<path class="st2" d="M348.8,213.5c-0.7,0.6-1.5,1.1-2.4,1.5c-0.8,0.3-1.6,0.4-2.4,0.4c-1.2,0.1-2.4-0.3-3.3-1
			c-0.8-0.7-1.2-1.7-1.1-2.7c0-1.2,0.6-2.3,1.6-3c0.5-0.3,1-0.6,1.6-0.7c0.6-0.2,1.3-0.3,2-0.3c1.3-0.1,2.6-0.4,3.9-0.8
			c0-0.3,0-0.5,0-0.6c0.1-0.7-0.2-1.4-0.6-1.9c-0.7-0.5-1.6-0.8-2.5-0.7c-0.8-0.1-1.6,0.1-2.3,0.5c-0.6,0.5-1,1.2-1.1,1.9l-2.1-0.3
			c0.1-0.8,0.5-1.6,1-2.2c0.5-0.6,1.2-1.1,1.9-1.3c0.9-0.3,1.9-0.5,2.9-0.5c0.9,0,1.8,0.1,2.7,0.4c0.6,0.2,1.1,0.5,1.5,1
			c0.3,0.4,0.6,0.9,0.7,1.5c0.1,0.7,0.1,1.3,0.1,2v2.9c0,1.3,0,2.6,0.1,3.9c0.1,0.5,0.3,1.1,0.6,1.6h-2.3
			C349,214.6,348.9,214,348.8,213.5z M348.6,208.6c-1.2,0.4-2.4,0.7-3.6,0.8c-0.7,0.1-1.3,0.2-1.9,0.4c-0.4,0.1-0.7,0.4-0.9,0.7
			c-0.5,0.8-0.4,1.9,0.4,2.5c0.6,0.4,1.2,0.6,1.9,0.6c0.8,0,1.6-0.2,2.3-0.6c0.6-0.3,1.1-0.9,1.5-1.5c0.3-0.7,0.4-1.4,0.4-2.2
			L348.6,208.6z"/>
		<path class="st2" d="M360.3,211.2l2.2-0.3c0.1,0.8,0.4,1.5,1,2c0.7,0.5,1.5,0.7,2.3,0.7c0.8,0.1,1.6-0.2,2.2-0.6
			c0.5-0.3,0.7-0.9,0.7-1.4c0-0.5-0.2-0.9-0.6-1.2c-0.7-0.3-1.5-0.6-2.2-0.7c-1.1-0.3-2.3-0.6-3.4-1.1c-1.2-0.5-1.9-1.7-1.9-3
			c0-0.6,0.1-1.1,0.4-1.6c0.3-0.5,0.6-0.9,1.1-1.2c0.4-0.3,0.9-0.5,1.4-0.6c0.6-0.2,1.3-0.3,1.9-0.3c0.9,0,1.8,0.1,2.7,0.4
			c0.7,0.2,1.3,0.6,1.7,1.2c0.4,0.6,0.7,1.3,0.8,2l-2.1,0.3c-0.1-0.6-0.4-1.2-0.8-1.6c-0.6-0.4-1.3-0.6-2-0.6
			c-0.8-0.1-1.5,0.1-2.2,0.5c-0.4,0.3-0.6,0.7-0.6,1.2c0,0.3,0.1,0.6,0.3,0.8c0.2,0.3,0.5,0.5,0.8,0.6c0.2,0.1,0.9,0.3,1.9,0.6
			c1.1,0.3,2.2,0.6,3.3,1c0.6,0.2,1.1,0.6,1.4,1.2c0.4,0.6,0.5,1.2,0.5,1.9c0,0.7-0.2,1.5-0.6,2.1c-0.5,0.7-1.1,1.2-1.9,1.5
			c-0.9,0.4-1.8,0.5-2.7,0.5c-1.4,0.1-2.7-0.3-3.9-1.1C361.1,213.5,360.5,212.4,360.3,211.2z"/>
		<path class="st2" d="M373.7,199.7v-2.5h2.2v2.5H373.7z M373.7,215.1v-13h2.2v13H373.7z"/>
		<path class="st2" d="M379.3,215.1v-13h2v1.8c0.9-1.4,2.5-2.2,4.1-2.1c0.7,0,1.5,0.1,2.2,0.4c0.6,0.2,1.1,0.6,1.5,1.1
			c0.3,0.5,0.6,1,0.7,1.6c0.1,0.7,0.1,1.4,0.1,2.1v8h-2.2v-7.9c0-0.7-0.1-1.4-0.3-2c-0.2-0.4-0.5-0.8-0.9-1.1
			c-0.5-0.3-1-0.4-1.5-0.4c-0.9,0-1.8,0.3-2.4,0.9c-0.7,0.6-1,1.7-1,3.4v7.1L379.3,215.1z"/>
		<path class="st2" d="M392.8,216.1l2.1,0.3c0,0.6,0.3,1.1,0.7,1.4c0.7,0.4,1.4,0.7,2.2,0.6c0.8,0.1,1.7-0.2,2.4-0.6
			c0.6-0.4,1-1,1.1-1.7c0.1-0.9,0.2-1.9,0.2-2.8c-0.9,1.1-2.2,1.7-3.6,1.7c-1.6,0.1-3.2-0.6-4.1-1.9c-1-1.3-1.5-3-1.5-4.6
			c0-1.2,0.2-2.3,0.7-3.4c0.4-1,1.1-1.8,1.9-2.4c0.9-0.6,1.9-0.9,3-0.9c1.5,0,2.9,0.7,3.8,1.9v-1.6h2v11.2c0.1,1.5-0.1,2.9-0.6,4.3
			c-0.4,0.9-1.1,1.6-2,2c-1,0.5-2.1,0.8-3.3,0.7c-1.3,0.1-2.6-0.3-3.7-1C393.2,218.5,392.7,217.4,392.8,216.1z M394.6,208.4
			c-0.1,1.3,0.2,2.6,1,3.7c1.2,1.4,3.3,1.6,4.7,0.4c0.1-0.1,0.3-0.2,0.4-0.4c0.8-1.1,1.1-2.4,1-3.7c0.1-1.3-0.3-2.6-1.1-3.6
			c-0.6-0.8-1.6-1.2-2.5-1.2c-1,0-1.9,0.4-2.5,1.2C394.9,205.8,394.5,207.1,394.6,208.4L394.6,208.4z"/>
		<path class="st2" d="M407,215.1v-17.9h2.2v17.9H407z"/>
		<path class="st2" d="M421.5,210.9l2.3,0.3c-0.3,1.2-1,2.3-2,3.1c-2.6,1.7-5.9,1.4-8.2-0.7c-1.2-1.4-1.8-3.1-1.7-4.9
			c-0.1-1.8,0.5-3.7,1.7-5.1c1.1-1.2,2.7-1.9,4.4-1.8c1.6-0.1,3.2,0.6,4.2,1.8c1.2,1.4,1.8,3.2,1.6,5c0,0.1,0,0.3,0,0.6h-9.7
			c0,1.2,0.4,2.4,1.2,3.3c0.7,0.7,1.7,1.2,2.7,1.1c0.7,0,1.5-0.2,2.1-0.6C420.8,212.4,421.3,211.7,421.5,210.9z M414.3,207.3h7.2
			c0-0.9-0.3-1.7-0.8-2.5c-0.7-0.8-1.7-1.3-2.7-1.3c-1,0-1.9,0.3-2.5,1C414.7,205.4,414.3,206.3,414.3,207.3L414.3,207.3z"/>
		<path class="st2" d="M433.5,220v-17.9h2v1.7c0.4-0.6,1-1.1,1.6-1.5c0.7-0.3,1.4-0.5,2.2-0.5c1,0,2.1,0.3,2.9,0.9
			c0.9,0.6,1.5,1.4,1.9,2.4c0.4,1.1,0.7,2.2,0.6,3.4c0,1.2-0.2,2.5-0.7,3.6c-0.8,2-2.8,3.3-4.9,3.3c-0.7,0-1.4-0.1-2-0.5
			c-0.6-0.3-1-0.7-1.4-1.2v6.3L433.5,220z M435.5,208.7c-0.1,1.3,0.3,2.6,1,3.7c0.6,0.8,1.5,1.2,2.5,1.2c1,0,1.9-0.5,2.5-1.2
			c0.8-1.1,1.2-2.5,1-3.8c0.1-1.3-0.3-2.6-1-3.7c-0.6-0.8-1.5-1.2-2.4-1.2c-1,0-1.9,0.5-2.5,1.3C435.8,206,435.4,207.3,435.5,208.7
			L435.5,208.7z"/>
		<path class="st2" d="M447.3,215.1v-17.9h2.2v17.9H447.3z"/>
		<path class="st2" d="M461.4,213.5c-0.7,0.6-1.5,1.1-2.4,1.5c-0.8,0.3-1.6,0.4-2.4,0.4c-1.2,0.1-2.4-0.3-3.3-1
			c-0.8-0.7-1.2-1.7-1.1-2.7c0-1.2,0.6-2.3,1.6-3c0.5-0.3,1-0.6,1.6-0.7c0.6-0.2,1.3-0.3,2-0.3c1.3-0.1,2.6-0.4,3.9-0.8
			c0-0.3,0-0.5,0-0.6c0.1-0.7-0.2-1.4-0.6-1.9c-0.7-0.5-1.6-0.8-2.5-0.7c-0.8-0.1-1.6,0.1-2.3,0.5c-0.6,0.5-1,1.2-1.1,1.9l-2.1-0.3
			c0.1-0.8,0.5-1.6,1-2.2c0.5-0.6,1.2-1.1,1.9-1.3c0.9-0.3,1.9-0.5,2.9-0.5c0.9,0,1.8,0.1,2.7,0.4c0.6,0.2,1.1,0.5,1.5,1
			c0.3,0.4,0.6,0.9,0.7,1.5c0.1,0.7,0.1,1.3,0.1,2v2.9c0,1.3,0,2.6,0.1,3.9c0.1,0.5,0.3,1.1,0.6,1.6h-2.3
			C461.6,214.6,461.4,214,461.4,213.5z M461.2,208.6c-1.2,0.4-2.4,0.7-3.6,0.8c-0.7,0.1-1.3,0.2-1.9,0.4c-0.4,0.1-0.7,0.4-0.9,0.7
			c-0.5,0.8-0.4,1.9,0.4,2.5c0.6,0.4,1.2,0.6,1.9,0.6c0.8,0,1.6-0.2,2.3-0.6c0.6-0.3,1.1-0.9,1.5-1.5c0.3-0.7,0.4-1.4,0.4-2.2
			L461.2,208.6z"/>
		<path class="st2" d="M475.3,210.3l2.2,0.3c-0.2,1.3-0.8,2.6-1.8,3.5c-1,0.9-2.3,1.3-3.6,1.3c-1.6,0.1-3.2-0.6-4.3-1.7
			c-1.2-1.4-1.7-3.2-1.6-5c0-1.3,0.2-2.5,0.7-3.7c0.4-1,1.2-1.8,2.1-2.4c0.9-0.5,2-0.8,3.1-0.8c1.2-0.1,2.5,0.3,3.5,1.1
			c0.9,0.8,1.5,1.8,1.7,3l-2.1,0.3c-0.1-0.8-0.5-1.4-1.1-2c-0.5-0.4-1.2-0.7-1.9-0.7c-1,0-2,0.4-2.7,1.2c-0.8,1.1-1.1,2.4-1,3.8
			c-0.1,1.3,0.2,2.7,1,3.8c0.6,0.8,1.6,1.2,2.6,1.2c0.8,0,1.6-0.3,2.2-0.8C474.8,212.1,475.2,211.2,475.3,210.3z"/>
		<path class="st2" d="M488.2,210.9l2.3,0.3c-0.3,1.2-1,2.3-2,3.1c-2.6,1.7-5.9,1.4-8.2-0.7c-1.2-1.4-1.8-3.1-1.7-4.9
			c-0.1-1.8,0.5-3.7,1.7-5.1c1.1-1.2,2.7-1.9,4.4-1.8c1.6-0.1,3.2,0.6,4.2,1.8c1.2,1.4,1.8,3.2,1.6,5c0,0.1,0,0.3,0,0.6h-9.7
			c0,1.2,0.4,2.4,1.2,3.3c0.7,0.7,1.7,1.2,2.7,1.1c0.7,0,1.5-0.2,2.1-0.6C487.5,212.4,488,211.7,488.2,210.9z M481,207.3h7.2
			c0-0.9-0.3-1.7-0.8-2.5c-0.7-0.8-1.7-1.3-2.7-1.3c-1,0-1.9,0.3-2.5,1C481.4,205.4,481,206.3,481,207.3z"/>
		<path class="st2" d="M493.9,215.1v-2.5h2.5v2.5H493.9z"/>
		<path class="st2" d="M654.4,108.5V87h4.3v8.5h8.5V87h4.3v21.5h-4.3v-9.4h-8.5v9.4H654.4z"/>
		<path class="st2" d="M675.1,100.5c0-1.4,0.4-2.8,1-4c0.6-1.2,1.6-2.3,2.9-2.9c1.3-0.7,2.7-1,4.1-1c2.2-0.1,4.3,0.8,5.8,2.3
			c1.5,1.5,2.3,3.6,2.3,5.8c0.1,2.2-0.8,4.3-2.3,5.9c-1.5,1.5-3.6,2.4-5.7,2.3c-1.4,0-2.8-0.3-4.1-1c-1.3-0.6-2.3-1.6-3-2.8
			C675.4,103.6,675,102,675.1,100.5z M679.3,100.7c-0.1,1.3,0.3,2.5,1.1,3.5c1.3,1.5,3.6,1.6,5.1,0.3c0.1-0.1,0.2-0.2,0.3-0.3
			c0.8-1,1.2-2.3,1.1-3.6c0.1-1.3-0.3-2.5-1.1-3.5c-1.3-1.5-3.6-1.6-5.1-0.3c-0.1,0.1-0.2,0.2-0.3,0.3
			C679.6,98.1,679.2,99.4,679.3,100.7z"/>
		<path class="st2" d="M697.2,108.5l-4.9-15.6h4l2.9,10.2l2.7-10.2h4l2.6,10.2l3-10.2h4.1l-5,15.6h-4l-2.7-10l-2.6,10H697.2z"/>
		<path class="st2" d="M733.1,92.9v3.3h-2.8v6.3c0,0.7,0,1.5,0.1,2.2c0.1,0.2,0.2,0.4,0.4,0.5c0.2,0.1,0.4,0.2,0.7,0.2
			c0.6,0,1.1-0.2,1.7-0.4l0.4,3.2c-1,0.4-2.1,0.6-3.3,0.6c-0.7,0-1.4-0.1-2-0.4c-0.5-0.2-1-0.5-1.3-1c-0.3-0.5-0.5-1-0.6-1.6
			c-0.1-1-0.2-1.9-0.1-2.9v-6.8h-1.9v-3.3h1.9v-3.1l4.1-2.4v5.5L733.1,92.9z"/>
		<path class="st2" d="M735.1,100.5c0-1.4,0.4-2.8,1-4c0.6-1.2,1.6-2.3,2.9-2.9c1.3-0.7,2.7-1,4.1-1c2.2-0.1,4.3,0.8,5.8,2.3
			c1.5,1.5,2.3,3.6,2.3,5.8c0.1,2.2-0.8,4.3-2.3,5.9c-1.5,1.5-3.6,2.4-5.7,2.3c-1.4,0-2.8-0.3-4.1-1c-1.3-0.6-2.3-1.6-3-2.8
			C735.4,103.6,735,102,735.1,100.5z M739.3,100.7c-0.1,1.3,0.3,2.5,1.1,3.5c1.3,1.5,3.6,1.6,5.1,0.3c0.1-0.1,0.2-0.2,0.3-0.3
			c0.8-1,1.2-2.3,1.1-3.6c0.1-1.3-0.3-2.5-1.1-3.5c-1.3-1.5-3.6-1.6-5.1-0.3c-0.1,0.1-0.2,0.2-0.3,0.3
			C739.6,98.1,739.2,99.4,739.3,100.7z"/>
		<path class="st2" d="M776.2,97.5l-4.1,0.7c-0.1-0.7-0.4-1.4-0.9-1.8c-0.5-0.4-1.2-0.6-1.9-0.6c-0.9,0-1.8,0.4-2.5,1.1
			c-0.7,1-1,2.3-0.9,3.6c-0.1,1.4,0.2,2.7,0.9,3.9c0.6,0.8,1.5,1.2,2.5,1.1c0.7,0,1.4-0.2,1.9-0.7c0.6-0.6,1-1.4,1.1-2.3l4,0.7
			c-0.3,1.6-1.1,3.1-2.4,4.2c-1.4,1-3.1,1.5-4.8,1.4c-2,0.1-4-0.7-5.4-2.2c-2.7-3.5-2.7-8.4,0-12c1.4-1.5,3.4-2.2,5.5-2.1
			c1.6-0.1,3.2,0.3,4.5,1.2C775,94.7,775.9,96,776.2,97.5z"/>
		<path class="st2" d="M778.4,100.5c0-1.4,0.4-2.8,1-4c0.6-1.2,1.6-2.3,2.9-2.9c1.3-0.7,2.7-1,4.1-1c2.2-0.1,4.3,0.8,5.8,2.3
			c1.5,1.5,2.3,3.6,2.3,5.8c0.1,2.2-0.8,4.3-2.3,5.9c-1.5,1.5-3.6,2.4-5.7,2.3c-1.4,0-2.8-0.3-4.1-1c-1.3-0.6-2.3-1.6-3-2.8
			C778.7,103.6,778.3,102,778.4,100.5z M782.6,100.7c-0.1,1.3,0.3,2.5,1.1,3.5c1.3,1.5,3.6,1.6,5.1,0.3c0.1-0.1,0.2-0.2,0.3-0.3
			c0.8-1,1.2-2.3,1.1-3.6c0.1-1.3-0.3-2.5-1.1-3.5c-1.3-1.5-3.6-1.6-5.1-0.3c-0.1,0.1-0.2,0.2-0.3,0.3
			C782.9,98.1,782.5,99.4,782.6,100.7L782.6,100.7z"/>
		<path class="st2" d="M811.8,108.5h-4.1v-7.9c0.1-1.1,0-2.2-0.3-3.3c-0.2-0.5-0.5-0.9-0.9-1.1c-0.4-0.3-0.9-0.4-1.4-0.4
			c-0.7,0-1.4,0.2-1.9,0.6c-0.6,0.4-1,0.9-1.2,1.6c-0.3,1.2-0.4,2.4-0.3,3.6v7h-4.1V92.9h3.8v2.3c1.7-2.4,4.9-3.3,7.6-2.1
			c0.7,0.3,1.3,0.7,1.7,1.3c0.4,0.5,0.7,1.1,0.8,1.7c0.2,0.9,0.3,1.8,0.2,2.8V108.5z"/>
		<path class="st2" d="M814.2,92.9h2.3v-1.2c0-1,0.1-2,0.4-2.9c0.3-0.7,0.9-1.2,1.5-1.6c0.9-0.4,1.9-0.6,2.8-0.6
			c1.2,0,2.3,0.2,3.4,0.5l-0.6,2.9c-0.6-0.2-1.3-0.2-1.9-0.2c-0.5,0-0.9,0.1-1.3,0.4c-0.3,0.5-0.5,1-0.4,1.6v1.1h3.1v3.2h-3.1v12.3
			h-4.1V96.1h-2.3L814.2,92.9z"/>
		<path class="st2" d="M826,90.8V87h4.1v3.8H826z M826,108.5V92.9h4.1v15.6H826z"/>
		<path class="st2" d="M833.9,109.5l4.7,0.6c0,0.4,0.2,0.8,0.5,1.1c0.6,0.3,1.2,0.5,1.8,0.4c0.8,0.1,1.7-0.1,2.4-0.5
			c0.4-0.2,0.7-0.6,0.8-1c0.2-0.6,0.2-1.3,0.2-1.9v-2.3c-1,1.6-2.8,2.5-4.7,2.5c-2,0-3.9-1-5-2.7c-1-1.6-1.5-3.4-1.4-5.2
			c-0.1-2.2,0.5-4.3,1.9-6c1.2-1.3,2.9-2.1,4.7-2.1c1.9,0,3.7,0.9,4.8,2.5v-2.2h3.9v14c0.1,1.4-0.1,2.8-0.5,4.1
			c-0.2,0.8-0.7,1.5-1.3,2.1c-0.6,0.6-1.4,1-2.2,1.2c-1.1,0.3-2.3,0.5-3.5,0.4c-2.6,0-4.5-0.5-5.6-1.4c-1.1-0.8-1.7-2.1-1.7-3.4
			C833.9,109.8,833.9,109.7,833.9,109.5z M837.6,100.4c-0.1,1.3,0.2,2.6,1,3.6c0.6,0.7,1.4,1.2,2.4,1.1c1,0,1.9-0.4,2.5-1.2
			c0.8-1,1.1-2.2,1-3.5c0.1-1.3-0.3-2.5-1-3.6c-0.6-0.8-1.5-1.2-2.5-1.2c-0.9,0-1.9,0.4-2.4,1.1C837.9,97.9,837.5,99.1,837.6,100.4
			L837.6,100.4z"/>
		<path class="st2" d="M862.9,108.5v-2.3c-0.6,0.8-1.3,1.5-2.2,2c-0.9,0.5-1.9,0.7-2.9,0.7c-1,0-1.9-0.2-2.8-0.7
			c-0.8-0.4-1.4-1.1-1.8-1.9c-0.4-1.1-0.6-2.3-0.6-3.4v-9.8h4.1v7.1c-0.1,1.3,0,2.7,0.2,4c0.1,0.5,0.4,0.9,0.8,1.2
			c0.4,0.3,1,0.5,1.5,0.4c0.7,0,1.3-0.2,1.9-0.6c0.5-0.3,0.9-0.8,1.1-1.4c0.3-1.4,0.4-2.8,0.3-4.2v-6.6h4.1v15.6H862.9z"/>
		<path class="st2" d="M874.9,108.5h-4.1V92.9h3.8v2.2c0.4-0.8,1-1.5,1.8-2.1c0.5-0.3,1.2-0.5,1.8-0.5c1,0,1.9,0.3,2.7,0.8l-1.3,3.6
			c-0.6-0.4-1.2-0.6-1.9-0.7c-0.5,0-1,0.2-1.5,0.5c-0.5,0.5-0.8,1.1-0.9,1.7c-0.3,1.7-0.4,3.5-0.3,5.2L874.9,108.5z"/>
		<path class="st2" d="M891.7,103.5l4.1,0.7c-0.4,1.4-1.3,2.6-2.5,3.4c-1.3,0.8-2.8,1.2-4.3,1.2c-2.7,0-4.7-0.9-6-2.7
			c-1.1-1.6-1.6-3.5-1.5-5.4c-0.1-2.2,0.6-4.4,2-6.1c1.3-1.4,3.2-2.2,5.1-2.2c2.1-0.1,4.1,0.7,5.5,2.3c1.3,1.5,2,3.9,1.9,7h-10.3
			c0,1,0.3,2.1,1,2.8c0.6,0.7,1.5,1,2.4,1c0.6,0,1.2-0.2,1.6-0.5C891.2,104.8,891.5,104.2,891.7,103.5z M891.9,99.3
			c0-1-0.3-2-0.9-2.7c-1.1-1.2-3-1.2-4.2-0.1c-0.1,0.1-0.1,0.1-0.2,0.2c-0.6,0.7-0.9,1.7-0.9,2.7L891.9,99.3z"/>
		<path class="st2" d="M659.3,137h7.9c1.4,0,2.7,0.1,4.1,0.4c1.2,0.4,2.4,1,3.2,2c0.9,1,1.6,2.2,2.1,3.5c0.5,1.6,0.7,3.4,0.7,5.1
			c0,1.5-0.2,3.1-0.7,4.6c-0.5,1.4-1.2,2.7-2.3,3.8c-0.9,0.8-1.9,1.4-3,1.7c-1.2,0.3-2.5,0.5-3.8,0.5h-8.2L659.3,137z M663.7,140.6
			v14.2h3.2c0.9,0,1.8,0,2.6-0.2c0.6-0.1,1.3-0.5,1.8-0.9c0.6-0.6,0.9-1.3,1.1-2.1c0.3-1.3,0.5-2.6,0.4-3.9c0-1.3-0.1-2.6-0.4-3.8
			c-0.2-0.8-0.7-1.5-1.2-2.1c-0.6-0.5-1.3-0.9-2-1c-1.2-0.2-2.4-0.2-3.6-0.2L663.7,140.6z"/>
		<path class="st2" d="M680,150.5c0-1.4,0.4-2.8,1-4c0.6-1.2,1.6-2.3,2.9-2.9c1.3-0.7,2.7-1,4.1-1c2.2-0.1,4.3,0.8,5.8,2.3
			c1.5,1.5,2.3,3.6,2.3,5.8c0.1,2.2-0.8,4.3-2.3,5.9c-1.5,1.5-3.6,2.4-5.7,2.3c-1.4,0-2.8-0.3-4.1-1c-1.3-0.6-2.3-1.6-3-2.8
			C680.3,153.6,680,152,680,150.5z M684.2,150.7c-0.1,1.3,0.3,2.5,1.1,3.5c1.3,1.5,3.6,1.6,5.1,0.3c0.1-0.1,0.2-0.2,0.3-0.3
			c0.8-1,1.2-2.3,1.1-3.6c0.1-1.3-0.3-2.5-1.1-3.5c-1.3-1.5-3.6-1.6-5.1-0.3c-0.1,0.1-0.2,0.2-0.3,0.3
			C684.5,148.1,684.2,149.4,684.2,150.7L684.2,150.7z"/>
		<path class="st2" d="M712.9,147.5l-4.1,0.7c-0.1-0.7-0.4-1.4-0.9-1.8c-0.5-0.4-1.2-0.6-1.9-0.6c-0.9,0-1.8,0.4-2.5,1.1
			c-0.7,1-1,2.3-0.9,3.6c-0.1,1.4,0.2,2.7,0.9,3.9c0.6,0.8,1.5,1.2,2.5,1.1c0.7,0,1.4-0.2,1.9-0.7c0.6-0.6,1-1.4,1.1-2.3l4,0.7
			c-0.3,1.6-1.1,3.1-2.4,4.2c-1.4,1-3.1,1.5-4.8,1.4c-2,0.1-4-0.7-5.4-2.2c-2.7-3.5-2.7-8.4,0-12c1.4-1.5,3.4-2.2,5.5-2.1
			c1.6-0.1,3.2,0.3,4.5,1.2C711.7,144.7,712.5,146,712.9,147.5z"/>
		<path class="st2" d="M715.8,158.5V137h4.1v11.4l4.8-5.5h5.1l-5.3,5.7l5.7,9.9h-4.4l-3.9-7l-1.9,2v5L715.8,158.5z"/>
		<path class="st2" d="M741.7,153.5l4.1,0.7c-0.4,1.4-1.3,2.6-2.5,3.4c-1.3,0.8-2.8,1.2-4.3,1.2c-2.7,0-4.7-0.9-6-2.7
			c-1.1-1.6-1.6-3.5-1.5-5.4c-0.1-2.2,0.6-4.4,2-6.1c1.3-1.4,3.2-2.2,5.1-2.2c2.1-0.1,4.1,0.7,5.5,2.3c1.3,1.5,2,3.9,1.9,7h-10.3
			c0,1,0.3,2.1,1,2.9c0.6,0.7,1.5,1,2.4,1c0.6,0,1.2-0.2,1.6-0.5C741.2,154.8,741.5,154.2,741.7,153.5z M741.9,149.3
			c0-1-0.3-2-0.9-2.7c-1.1-1.2-3-1.2-4.2-0.1c-0.1,0.1-0.1,0.1-0.2,0.2c-0.6,0.7-0.9,1.7-0.9,2.7H741.9z"/>
		<path class="st2" d="M753.3,158.5h-4.1v-15.6h3.8v2.2c0.4-0.8,1-1.5,1.8-2.1c0.5-0.3,1.2-0.5,1.8-0.5c1,0,1.9,0.3,2.7,0.8
			l-1.3,3.6c-0.6-0.4-1.2-0.6-1.9-0.7c-0.5,0-1,0.2-1.5,0.5c-0.5,0.5-0.8,1.1-0.9,1.7c-0.3,1.7-0.4,3.5-0.3,5.2L753.3,158.5z"/>
		<path class="st2" d="M775.3,158.5h-3.8v-2.3c-0.6,0.8-1.3,1.5-2.2,2c-0.8,0.4-1.7,0.6-2.6,0.7c-1.8,0-3.5-0.8-4.6-2.2
			c-1.4-1.7-2-3.9-1.9-6c-0.2-2.2,0.5-4.3,1.9-6c1.2-1.3,2.9-2.1,4.7-2.1c1.8,0,3.4,0.8,4.5,2.2V137h4.1L775.3,158.5z M764.3,150.3
			c-0.1,1.2,0.1,2.5,0.7,3.6c0.6,1,1.6,1.6,2.8,1.6c1,0,1.8-0.4,2.4-1.2c0.7-1.1,1.1-2.3,1-3.6c0.1-1.4-0.2-2.7-1-3.9
			c-1.1-1.4-3.1-1.6-4.5-0.5c-0.2,0.1-0.3,0.3-0.5,0.5C764.6,147.9,764.2,149.1,764.3,150.3L764.3,150.3z"/>
		<path class="st2" d="M782.4,147.6l-3.7-0.7c0.3-1.3,1.1-2.5,2.2-3.3c1.4-0.8,3-1.2,4.6-1.1c1.4-0.1,2.8,0.1,4.1,0.7
			c0.8,0.3,1.5,0.9,1.9,1.7c0.5,1.2,0.6,2.4,0.5,3.7l0,4.8c0,1,0,2,0.2,3c0.2,0.7,0.4,1.4,0.7,2.1h-4.1c-0.1-0.3-0.2-0.7-0.4-1.2
			c-0.1-0.2-0.1-0.4-0.1-0.5c-0.7,0.6-1.4,1.2-2.3,1.5c-0.8,0.3-1.7,0.5-2.6,0.5c-1.4,0.1-2.7-0.4-3.8-1.3c-0.9-0.8-1.4-2-1.4-3.3
			c0-0.8,0.2-1.6,0.6-2.4c0.4-0.7,1-1.2,1.8-1.6c1-0.5,2.1-0.8,3.3-1c1.4-0.2,2.7-0.6,4-1v-0.4c0.1-0.6-0.2-1.2-0.6-1.7
			c-0.7-0.4-1.4-0.6-2.2-0.5c-0.6,0-1.2,0.1-1.7,0.4C782.9,146.5,782.6,147.1,782.4,147.6z M787.9,151c-0.8,0.3-1.7,0.5-2.5,0.6
			c-0.8,0.1-1.5,0.4-2.2,0.7c-0.5,0.3-0.8,0.9-0.8,1.4c0,0.6,0.2,1.1,0.6,1.5c0.4,0.4,1,0.7,1.6,0.6c0.8,0,1.5-0.3,2.1-0.7
			c0.5-0.3,0.8-0.8,1-1.4c0.1-0.7,0.2-1.3,0.2-2V151z"/>
		<path class="st2" d="M805,153.5l4.1,0.7c-0.4,1.4-1.3,2.6-2.5,3.4c-1.3,0.8-2.8,1.2-4.3,1.2c-2.7,0-4.7-0.9-6-2.7
			c-1.1-1.6-1.6-3.5-1.5-5.4c-0.1-2.2,0.6-4.4,2-6.1c1.3-1.4,3.2-2.2,5.1-2.2c2.1-0.1,4.1,0.7,5.5,2.3c1.3,1.5,2,3.9,1.9,7h-10.3
			c0,1,0.3,2.1,1,2.9c0.6,0.7,1.5,1,2.4,1c0.6,0,1.2-0.2,1.6-0.5C804.6,154.8,804.9,154.2,805,153.5z M805.3,149.3
			c0-1-0.3-2-0.9-2.7c-1.1-1.2-3-1.2-4.2-0.1c-0.1,0.1-0.1,0.1-0.2,0.2c-0.6,0.7-0.9,1.7-0.9,2.7H805.3z"/>
		<path class="st2" d="M812.4,142.9h3.8v2.1c1.1-1.5,2.9-2.5,4.8-2.5c0.9,0,1.8,0.2,2.6,0.6c0.8,0.4,1.4,1.1,1.8,1.9
			c0.6-0.8,1.4-1.4,2.2-1.9c0.8-0.4,1.7-0.6,2.5-0.6c1,0,2,0.2,2.9,0.7c0.8,0.5,1.4,1.2,1.8,2c0.3,1,0.5,2.1,0.4,3.2v9.9h-4.1v-8.9
			c0.1-1-0.1-2-0.4-3c-0.4-0.6-1.1-0.9-1.8-0.9c-0.6,0-1.2,0.2-1.6,0.5c-0.5,0.4-0.9,0.9-1.1,1.5c-0.3,1-0.4,2.1-0.3,3.2v7.5h-4.1
			v-8.5c0-1,0-2-0.2-2.9c-0.1-0.4-0.4-0.7-0.7-1c-0.4-0.2-0.8-0.3-1.3-0.3c-0.6,0-1.2,0.2-1.7,0.5c-0.5,0.4-0.9,0.9-1.1,1.5
			c-0.3,1-0.4,2.1-0.3,3.2v7.6h-4.1L812.4,142.9z"/>
		<path class="st2" d="M838.4,150.5c0-1.4,0.4-2.8,1-4c0.6-1.2,1.6-2.3,2.9-2.9c1.3-0.7,2.7-1,4.1-1c2.2-0.1,4.3,0.8,5.8,2.3
			c1.5,1.5,2.3,3.6,2.3,5.8c0.1,2.2-0.8,4.3-2.3,5.9c-1.5,1.5-3.6,2.4-5.7,2.3c-1.4,0-2.8-0.3-4.1-1c-1.3-0.6-2.3-1.6-3-2.8
			C838.7,153.6,838.4,152,838.4,150.5z M842.7,150.7c-0.1,1.3,0.3,2.5,1.1,3.5c1.3,1.5,3.6,1.6,5.1,0.3c0.1-0.1,0.2-0.2,0.3-0.3
			c0.8-1,1.2-2.3,1.1-3.6c0.1-1.3-0.3-2.5-1.1-3.5c-1.3-1.5-3.6-1.6-5.1-0.3c-0.1,0.1-0.2,0.2-0.3,0.3
			C843,148.1,842.6,149.4,842.7,150.7L842.7,150.7z"/>
		<path class="st2" d="M871.9,158.5h-4.1v-7.9c0.1-1.1,0-2.2-0.3-3.3c-0.2-0.5-0.5-0.9-0.9-1.1c-0.4-0.3-0.9-0.4-1.4-0.4
			c-0.7,0-1.4,0.2-1.9,0.6c-0.6,0.4-1,0.9-1.2,1.6c-0.3,1.2-0.4,2.4-0.3,3.6v7h-4.1v-15.6h3.8v2.3c1.7-2.4,4.9-3.3,7.6-2.1
			c0.7,0.3,1.3,0.7,1.7,1.3c0.4,0.5,0.7,1.1,0.8,1.7c0.2,0.9,0.3,1.8,0.2,2.8V158.5z"/>
		<path class="st2" d="M884.9,152.9h-3.7c0-0.5,0-0.9,0-1c0-1,0.2-2.1,0.6-3c0.6-1,1.4-1.9,2.4-2.6c0.8-0.6,1.5-1.2,2.2-1.9
			c0.4-0.5,0.5-1,0.5-1.6c0-0.8-0.3-1.5-1-2.1c-0.7-0.6-1.6-0.9-2.6-0.9c-1,0-1.9,0.3-2.6,0.9c-0.8,0.7-1.3,1.7-1.5,2.7l-3.8-0.5
			c0.1-1.7,0.9-3.3,2.2-4.5c1.5-1.3,3.5-1.9,5.4-1.8c2-0.1,4.1,0.6,5.6,1.9c1.3,1.1,2.1,2.6,2.1,4.3c0,0.9-0.3,1.8-0.8,2.6
			c-0.9,1.3-2,2.4-3.3,3.3c-0.6,0.5-1.2,1.1-1.6,1.7C884.9,151.3,884.8,152.1,884.9,152.9z M881.2,158.5v-4.1h4.1v4.1H881.2z"/>
		<circle class="st4" cx="750.4" cy="32.1" r="26.5"/>
		<path class="st5" d="M755.1,1c-17.1-2.4-32.9,9.6-35.3,26.7c-1.9,13.6,5.3,26.9,17.8,32.7c14,6.6,30.8,1.9,39.3-11.1
			c0.9-1.5,1.7-2.8,2.4-4.2c0.7-1.5,1.2-3,1.7-4.6c0.2-0.7,0.4-1.7,0.6-2.4c0.2-1.1,0.4-2.2,0.6-3.3c1.1-13.2-6.1-25.6-18.1-31.2
			c-1.7-0.8-3.5-1.5-5.3-1.8C757.4,1.4,756.2,1.2,755.1,1z M769.3,15.4c0.6,0.6,1.1,1.5,1.7,2l0.2,0.2c0.6,0.8,1.1,1.7,1.5,2.6l0,0
			c0.4,0.7,0.7,1.5,1.1,2.4c0.1,0.1,0.2,0.4,0.2,0.6c0.3,0.7,0.5,1.3,0.6,2c0,0.2,0.2,0.4,0.2,0.6c0.2,0.9,0.4,1.8,0.6,2.6
			c1.4,9.1-2.4,18.3-9.8,23.8c-7.3,5.7-17.2,6.7-25.5,2.6c-8.2-3.7-13.8-11.5-14.6-20.5c-1.3-13.7,8.7-26,22.5-27.3
			c4.4-0.4,8.9,0.3,13,2.2c0.4,0.2,0.9,0.4,1.3,0.6c0.8,0.4,1.6,0.9,2.4,1.5c0.2,0.2,0.4,0.2,0.6,0.4c0.6,0.6,1.3,0.9,1.8,1.5
			l0.4,0.4C768,14,768.6,14.7,769.3,15.4L769.3,15.4z"/>
		<path class="st6" d="M750.7,64.1c-4.7,0-9.3-1-13.5-3c-14.4-6.6-21.7-22.9-17.2-38.1c4.4-15.3,19.4-25,35.1-22.6l0,0l0.4,0.1
			c1.1,0.1,2.1,0.4,3.1,0.7c1.9,0.4,3.7,1,5.5,1.9c12.2,5.7,19.6,18.4,18.5,31.9l-0.6,3.4c-0.1,0.4-0.2,0.8-0.3,1.3
			c-0.1,0.4-0.2,0.8-0.3,1.2c-0.3,1.2-0.7,2.3-1.2,3.4c-0.2,0.4-0.4,0.9-0.5,1.3c-0.7,1.5-1.6,3-2.5,4.4
			C771.5,58.7,761.5,64.1,750.7,64.1z M750.5,1.4c-13.5,0-25.4,9-29.1,22c-4.8,16.2,4.4,33.2,20.6,38c12.9,3.8,26.8-1.2,34.2-12.4
			c0.9-1.5,1.7-2.8,2.4-4.2c0.1-0.4,0.3-0.8,0.5-1.3c0.5-1,0.8-2.1,1.1-3.2c0.1-0.4,0.2-0.8,0.3-1.2c0.1-0.4,0.2-0.9,0.3-1.2
			l0.5-3.3c1.1-12.8-6-25-17.7-30.4c-1.6-0.8-3.4-1.4-5.2-1.8c0,0-0.1,0-0.1,0c-1-0.3-2-0.5-3-0.6L755,1.7
			C753.5,1.5,752,1.4,750.5,1.4z M750.6,57.9c-3.8,0-7.6-0.9-11-2.6c-13-5.9-18.7-21.2-12.7-34.2c1.9-4.2,4.9-7.7,8.6-10.4
			c7.5-5.4,17.3-6.2,25.6-2.3c0.2,0.1,0.4,0.2,0.6,0.3c0.3,0.1,0.5,0.2,0.7,0.3c0.9,0.4,1.7,1,2.5,1.5c0,0,0.1,0,0.1,0.1
			c0,0,0.1,0,0.1,0.1c0.2,0.1,0.3,0.2,0.5,0.3c0.3,0.2,0.5,0.5,0.8,0.7c0.4,0.2,0.7,0.5,1,0.8l0.4,0.4c0.5,0.4,1,0.9,1.4,1.3
			c0.2,0.2,0.4,0.4,0.6,0.7c0.3,0.3,0.6,0.7,0.9,1.1c0.2,0.3,0.5,0.6,0.8,0.9l0.2,0.2c0,0,0,0,0.1,0.1c0.6,0.8,1.2,1.8,1.6,2.7
			c0.3,0.7,0.7,1.4,1.1,2.3c0.2,0.2,0.3,0.5,0.3,0.8l0.1,0.2c0.2,0.6,0.4,1.2,0.5,1.8c0.1,0.2,0.2,0.4,0.2,0.5
			c0.2,0.9,0.4,1.8,0.5,2.5c1.4,9.4-2.4,18.8-10,24.5C761.5,56.1,756.1,57.9,750.6,57.9z M750.3,7.5c-5,0-9.9,1.6-14.1,4.5
			c-11,7.8-13.6,23-5.9,34c2.5,3.5,5.9,6.3,9.8,8.1c8,4,17.7,3,24.7-2.5c7.2-5.4,10.8-14.3,9.5-23.1c-0.2-0.7-0.4-1.6-0.5-2.5
			c0,0,0-0.1,0-0.1c-0.1-0.2-0.2-0.4-0.2-0.6c-0.1-0.5-0.2-1-0.4-1.5l-0.1-0.4c0-0.1,0-0.1,0-0.2c0,0,0-0.1,0-0.1
			c-0.1,0-0.1-0.1-0.1-0.2c-0.4-0.9-0.7-1.6-1.1-2.3c-0.4-0.9-0.8-1.7-1.4-2.4l-0.1-0.1c-0.3-0.3-0.6-0.7-0.9-1.1
			c-0.2-0.3-0.5-0.6-0.8-0.9c-0.3-0.3-0.5-0.5-0.7-0.7c-0.4-0.5-0.8-0.9-1.3-1.2l-0.4-0.4c-0.3-0.2-0.5-0.5-0.8-0.7
			c-0.4-0.2-0.7-0.5-1-0.8c0,0-0.1,0-0.1-0.1c-0.2-0.1-0.3-0.2-0.4-0.3c-0.7-0.5-1.5-1-2.3-1.4c-0.2-0.1-0.4-0.2-0.6-0.3
			c-0.2-0.1-0.5-0.2-0.7-0.3C757.3,8.3,753.8,7.5,750.3,7.5L750.3,7.5z M773.9,25.8C773.9,25.8,773.9,25.8,773.9,25.8
			C773.9,25.8,773.9,25.8,773.9,25.8L773.9,25.8z"/>
		<path class="st4" d="M769.5,56.9l12.9,11.6v-0.2l7.7,7.2c2.3,2.1,6,2,8.1-0.4c2.1-2.3,2-6-0.4-8.1l0,0l-13.3-11.8l-4.2-3.9l-3.1-3
			c-1.1,1.7-2.2,3-3.5,4.6C772.4,54.4,771,55.7,769.5,56.9z"/>
		<path class="st2" d="M794,77.8c-1.6,0-3.2-0.6-4.4-1.8l-6.5-6.1v0.2l-14.7-13.2l0.6-0.5c0.4-0.3,0.8-0.7,1.2-1
			c1.1-0.9,2.1-1.8,3-2.8c0.3-0.4,0.7-0.8,1-1.2c0.9-1.1,1.7-2.1,2.5-3.3l0.5-0.7l3.7,3.5l4.2,3.9l13.3,11.8
			c1.3,1.2,2.1,2.9,2.2,4.7c0,1.7-0.6,3.3-1.8,4.4c-0.8,0.9-1.8,1.5-2.9,1.9C795.2,77.7,794.6,77.8,794,77.8z M781.7,66.7l8.9,8.3
			c2,1.9,5.1,1.8,7-0.2c0,0,0.1-0.1,0.1-0.1c0.9-0.9,1.4-2.1,1.3-3.4c0-1.4-0.6-2.7-1.7-3.7l-13.3-11.8l-4.2-3.9l-2.5-2.4
			c-0.7,0.9-1.3,1.8-2.1,2.7c-0.3,0.4-0.7,0.8-1,1.3c-1,1.1-2.1,2.1-3.2,3c-0.2,0.2-0.4,0.3-0.5,0.5l11.1,10V66.7z"/>
		<path class="st1" d="M750.8,44.4H765c1.4,0,2.5-1.1,2.5-2.5c0-0.4-0.1-0.9-0.3-1.2L760,28.4L752.9,16c-0.7-1.2-2.2-1.6-3.4-0.9
			c-0.4,0.2-0.7,0.5-0.9,0.9l-7.1,12.3l-7.1,12.3c-0.7,1.2-0.3,2.7,0.9,3.4c0.4,0.2,0.8,0.3,1.2,0.3L750.8,44.4z"/>
		<path class="st2" d="M765,45.1l-14.3,0l-14.3,0c-1.8,0-3.2-1.4-3.2-3.2c0-0.6,0.1-1.1,0.4-1.6L748,15.7c0.9-1.5,2.8-2,4.3-1.2
			c0.5,0.3,0.9,0.7,1.2,1.2l14.3,24.7c0.9,1.5,0.4,3.5-1.2,4.3C766.1,45,765.6,45.1,765,45.1z M750.8,43.7l14.3,0
			c1,0,1.7-0.8,1.7-1.8c0-0.3-0.1-0.6-0.2-0.9l-14.3-24.7c-0.5-0.8-1.6-1.1-2.4-0.6c-0.3,0.2-0.5,0.4-0.6,0.6L735,41.1
			c-0.5,0.8-0.2,1.9,0.6,2.4c0.3,0.2,0.6,0.2,0.9,0.2L750.8,43.7z"/>
		<path class="st2" d="M751.4,35.7h-2.5c0-0.4,0-0.6,0-0.7c0-0.7,0.1-1.4,0.4-2c0.4-0.7,1-1.3,1.6-1.8c0.5-0.4,1-0.8,1.5-1.3
			c0.2-0.3,0.4-0.7,0.4-1.1c0-0.5-0.2-1.1-0.7-1.4c-0.5-0.4-1.1-0.6-1.8-0.6c-0.7,0-1.3,0.2-1.8,0.6c-0.5,0.5-0.9,1.1-1,1.9
			l-2.6-0.3c0.1-1.2,0.6-2.3,1.5-3c1-0.9,2.4-1.3,3.7-1.2c1.4-0.1,2.8,0.4,3.8,1.3c0.9,0.7,1.4,1.8,1.4,2.9c0,0.6-0.2,1.2-0.5,1.8
			c-0.6,0.9-1.4,1.6-2.2,2.3c-0.4,0.3-0.8,0.7-1.1,1.2C751.4,34.6,751.3,35.1,751.4,35.7z M748.8,39.5v-2.8h2.8v2.8H748.8z"/>
	</g>
</g>
</svg>
