<?xml version="1.0" encoding="utf-8"?>
<!-- Generator: Adobe Illustrator 27.9.0, SVG Export Plug-In . SVG Version: 6.00 Build 0)  -->
<svg version="1.1" id="Layer_1" xmlns="http://www.w3.org/2000/svg" xmlns:xlink="http://www.w3.org/1999/xlink" x="0px" y="0px"
	 viewBox="0 0 2135.8 763.5" style="enable-background:new 0 0 2135.8 763.5;" xml:space="preserve">
<style type="text/css">
	.st0{fill:#263953;}
	.st1{opacity:0.2;}
	.st2{fill:#39C2D7;}
	.st3{fill:#263852;}
	.st4{fill:#FFFFFF;}
</style>
<g id="Слой_2">
	<g id="Слой_1-2">
		<path class="st0" d="M847.2,584.2H615.5c-7.8,0-14.3-6.2-14.4-14.1c-1.4-56.4,0.2-272.6,0.7-337.5c0.1-7.9,6.5-14.3,14.4-14.3h231
			c0.4,0,0.7,0.3,0.7,0.7s-0.3,0.7-0.7,0.7c0,0,0,0,0,0h-231c-7.1,0-12.9,5.8-13,12.9c-0.5,64.9-2.1,281-0.7,337.5
			c0.1,7.1,5.9,12.7,13,12.7h231.7c0.4,0,0.7,0.3,0.7,0.7C848,583.8,847.6,584.2,847.2,584.2L847.2,584.2z"/>
		<path class="st0" d="M601.1,405.5h-84.6c-0.4,0-0.7-0.3-0.7-0.7s0.3-0.7,0.7-0.7c0,0,0,0,0,0h84.6c0.4,0,0.7,0.3,0.7,0.7
			S601.5,405.5,601.1,405.5C601.1,405.5,601.1,405.5,601.1,405.5z"/>
		<path class="st0" d="M1613.8,583.7h-247c-0.4,0-0.7-0.3-0.7-0.7c0-0.4,0.3-0.7,0.7-0.7l0,0h247c0.4,0,0.7,0.3,0.7,0.7
			C1614.5,583.4,1614.2,583.7,1613.8,583.7z"/>
		<g class="st1">
			<path class="st2" d="M858.9,41.2h501.5c4.3,0,7.8,3.5,7.8,7.8v302.4c0,4.3-3.5,7.8-7.8,7.8H858.9c-4.3,0-7.8-3.5-7.8-7.8V49
				C851.1,44.7,854.5,41.2,858.9,41.2z"/>
		</g>
		<g>
			<path class="st3" d="M1090.1,207.1v-6h6v6H1090.1z"/>
			<path class="st3" d="M1106.7,207.1v-6h6v6H1106.7z"/>
			<path class="st3" d="M1123.4,207.1v-6h6v6H1123.4z"/>
		</g>
		<path class="st4" d="M948.7,71.9h321.8c3.3,0,6,2.7,6,6v58.2c0,3.3-2.7,6-6,6H948.7c-3.3,0-6-2.7-6-6V77.9
			C942.7,74.6,945.4,71.9,948.7,71.9z"/>
		<path class="st0" d="M1270.5,142.9H948.7c-3.7,0-6.7-3-6.7-6.7V77.9c0-3.7,3-6.7,6.7-6.7h321.8c3.7,0,6.7,3,6.7,6.7v58.2
			C1277.2,139.8,1274.2,142.9,1270.5,142.9z M948.7,72.6c-2.9,0-5.3,2.4-5.3,5.3v58.2c0,2.9,2.4,5.3,5.3,5.3h321.8
			c2.9,0,5.3-2.4,5.3-5.3V77.9c0-2.9-2.4-5.3-5.3-5.3L948.7,72.6z"/>
		<g>
			<path class="st3" d="M1010,114.2l4-0.4c0,0.7,0.3,1.3,0.8,1.8c0.4,0.4,1,0.6,1.6,0.6c0.9,0,1.7-0.4,2.2-1.2
				c0.6-0.8,1-2.4,1.1-4.9c-1,1.2-2.4,1.8-3.9,1.8c-1.7,0-3.3-0.7-4.4-2c-1.3-1.4-1.9-3.2-1.8-5.1c-0.1-1.9,0.6-3.8,1.9-5.3
				c2.8-2.7,7.2-2.7,9.9,0.1c0.1,0.1,0.3,0.3,0.4,0.4c1.4,1.7,2.1,4.5,2.1,8.3c0,3.9-0.7,6.8-2.2,8.5c-1.4,1.7-3.5,2.7-5.7,2.6
				c-1.5,0.1-2.9-0.4-4.1-1.3C1010.9,117.1,1010.2,115.7,1010,114.2z M1019.4,105.2c0.1-1.1-0.3-2.2-0.9-3.1
				c-0.5-0.7-1.3-1.1-2.1-1.1c-0.7,0-1.4,0.3-1.9,0.9c-0.6,0.9-0.8,1.9-0.8,3c-0.1,1.1,0.2,2.2,0.8,3.1c0.5,0.6,1.3,1,2.1,1
				c0.8,0,1.5-0.3,2-0.9C1019.1,107.2,1019.4,106.2,1019.4,105.2L1019.4,105.2z"/>
			<path class="st3" d="M1030.6,108.3l-3.7-0.7c0.3-1.3,1.1-2.5,2.2-3.3c1.4-0.8,3-1.2,4.6-1.1c1.4-0.1,2.8,0.1,4.1,0.7
				c0.8,0.3,1.5,0.9,1.9,1.7c0.5,1.2,0.6,2.4,0.5,3.7l0,4.8c0,1,0,2,0.2,3c0.2,0.7,0.4,1.4,0.7,2.1h-4.1c-0.1-0.3-0.2-0.7-0.4-1.2
				c-0.1-0.2-0.1-0.4-0.1-0.5c-0.7,0.6-1.4,1.2-2.3,1.5c-0.8,0.3-1.7,0.5-2.6,0.5c-1.4,0.1-2.7-0.4-3.8-1.3c-0.9-0.8-1.4-2-1.4-3.3
				c0-0.8,0.2-1.6,0.6-2.4c0.4-0.7,1-1.2,1.8-1.6c1-0.5,2.1-0.8,3.3-1c1.4-0.2,2.7-0.6,4-1v-0.4c0.1-0.6-0.2-1.2-0.6-1.7
				c-0.7-0.4-1.4-0.6-2.2-0.5c-0.6,0-1.2,0.1-1.7,0.4C1031.1,107.2,1030.8,107.7,1030.6,108.3z M1036.1,111.7
				c-0.8,0.3-1.7,0.5-2.5,0.6c-0.8,0.1-1.5,0.4-2.2,0.7c-0.5,0.3-0.8,0.9-0.8,1.4c0,0.6,0.2,1.1,0.6,1.5c0.4,0.4,1,0.7,1.6,0.6
				c0.8,0,1.5-0.3,2.1-0.7c0.5-0.3,0.8-0.8,1-1.4c0.1-0.7,0.2-1.3,0.2-2L1036.1,111.7z"/>
			<path class="st3" d="M1057.3,102.9l-4,0.4c0-0.7-0.3-1.3-0.8-1.8c-0.4-0.4-1-0.6-1.6-0.6c-0.9,0-1.7,0.4-2.2,1.2
				c-0.6,0.8-1,2.4-1.1,4.9c0.9-1.2,2.3-1.8,3.8-1.8c1.7,0,3.3,0.7,4.4,2c1.3,1.4,1.9,3.2,1.8,5.1c0.1,2-0.6,3.9-1.9,5.3
				c-2.8,2.7-7.2,2.6-10-0.1c-0.1-0.1-0.2-0.3-0.4-0.4c-1.4-1.7-2.1-4.4-2.1-8.3c0-3.9,0.7-6.8,2.2-8.5c1.4-1.7,3.5-2.7,5.7-2.6
				c1.5-0.1,2.9,0.4,4.1,1.4C1056.4,100,1057.1,101.4,1057.3,102.9z M1047.9,111.9c-0.1,1.1,0.3,2.2,0.9,3.1
				c0.5,0.7,1.3,1.1,2.1,1.1c0.7,0,1.4-0.3,1.9-0.9c0.6-0.9,0.9-1.9,0.8-2.9c0.1-1.1-0.2-2.2-0.8-3.1c-0.9-1.1-2.6-1.3-3.7-0.4
				c-0.1,0.1-0.2,0.2-0.3,0.3C1048.2,110,1047.9,110.9,1047.9,111.9L1047.9,111.9z"/>
			<path class="st3" d="M1060,101.8V98h14.1v3c-1.4,1.5-2.6,3.1-3.5,4.9c-1.2,2.1-2.1,4.4-2.7,6.8c-0.6,2.1-0.9,4.3-0.9,6.5h-4
				c0.1-3.1,0.7-6.2,1.8-9.1c1.1-3,2.7-5.8,4.6-8.3H1060z"/>
			<path class="st3" d="M1090.6,115.3v3.8h-14.4c0.2-1.5,0.6-2.9,1.4-4.1c1.3-1.9,2.9-3.6,4.6-5.1c1.2-1.1,2.4-2.3,3.4-3.5
				c0.5-0.7,0.8-1.6,0.8-2.5c0.1-0.8-0.2-1.5-0.7-2.1c-1.2-1-2.9-1-4.1,0c-0.6,0.7-0.9,1.6-0.9,2.6l-4.1-0.4
				c0.1-1.9,0.9-3.6,2.3-4.9c1.4-1,3.1-1.5,4.8-1.5c1.8-0.1,3.6,0.5,5,1.7c1.2,1.1,1.9,2.6,1.8,4.3c0,0.9-0.2,1.9-0.5,2.8
				c-0.4,1-1,1.9-1.6,2.7c-0.8,1-1.7,1.9-2.7,2.7c-1.3,1.2-2.1,2-2.5,2.4c-0.3,0.4-0.6,0.7-0.8,1.1L1090.6,115.3z"/>
			<path class="st3" d="M1103.9,119.2h-4.1v-15.5c-1.5,1.4-3.3,2.5-5.3,3.1V103c1.3-0.5,2.5-1.1,3.5-2c1.2-0.9,2.1-2.1,2.6-3.4h3.3
				L1103.9,119.2z"/>
			<path class="st3" d="M1110.8,119.2V97.7h4.1v7.7c1.1-1.4,2.8-2.2,4.5-2.2c1.8,0,3.5,0.7,4.7,2.1c1.3,1.7,2,3.8,1.9,5.9
				c0.1,2.2-0.5,4.4-1.9,6.1c-1.1,1.4-2.8,2.2-4.6,2.2c-0.9,0-1.8-0.2-2.6-0.7c-0.9-0.5-1.7-1.1-2.2-2v2.3H1110.8z M1114.9,111
				c-0.1,1.2,0.2,2.5,0.8,3.6c0.6,1,1.7,1.6,2.8,1.6c0.9,0,1.8-0.4,2.3-1.2c0.7-1.1,1.1-2.4,1-3.7c0.1-1.4-0.2-2.7-1-3.8
				c-0.6-0.8-1.5-1.2-2.5-1.2c-1,0-1.9,0.4-2.5,1.1C1115.1,108.6,1114.8,109.8,1114.9,111L1114.9,111z"/>
			<path class="st3" d="M1128.5,114.2l4-0.4c0,0.7,0.3,1.3,0.8,1.8c0.4,0.4,1,0.6,1.6,0.6c0.9,0,1.7-0.4,2.2-1.2
				c0.6-0.8,1-2.4,1.1-4.9c-1,1.2-2.4,1.8-3.9,1.8c-1.7,0-3.3-0.7-4.4-2c-1.3-1.4-1.9-3.2-1.8-5.1c-0.1-1.9,0.6-3.8,1.9-5.3
				c2.8-2.7,7.2-2.7,9.9,0.1c0.1,0.1,0.3,0.3,0.4,0.4c1.4,1.7,2.1,4.5,2.1,8.3c0,3.9-0.7,6.8-2.2,8.5c-1.4,1.7-3.5,2.7-5.7,2.6
				c-1.5,0.1-2.9-0.4-4.1-1.3C1129.3,117.1,1128.6,115.7,1128.5,114.2z M1137.8,105.2c0.1-1.1-0.3-2.2-0.9-3.1
				c-0.5-0.7-1.3-1.1-2.1-1.1c-0.7,0-1.4,0.3-1.9,0.9c-0.6,0.9-0.8,1.9-0.8,3c-0.1,1.1,0.2,2.2,0.8,3.1c0.9,1.1,2.6,1.3,3.7,0.4
				c0.1-0.1,0.3-0.2,0.4-0.4C1137.6,107.2,1137.9,106.2,1137.8,105.2L1137.8,105.2z"/>
			<path class="st3" d="M1145.1,101.8V98h14.1v3c-1.4,1.5-2.6,3.1-3.5,4.9c-1.2,2.1-2.1,4.4-2.7,6.8c-0.6,2.1-0.9,4.3-0.9,6.5h-4
				c0.1-3.1,0.7-6.2,1.8-9.1c1.1-3,2.7-5.8,4.6-8.3H1145.1z"/>
			<path class="st3" d="M1161.8,101.8V98h14.1v3c-1.4,1.5-2.6,3.1-3.5,4.9c-1.2,2.1-2.1,4.4-2.7,6.8c-0.6,2.1-0.9,4.3-0.9,6.5h-4
				c0.1-3.1,0.7-6.2,1.8-9.1c1.1-3,2.7-5.8,4.6-8.3H1161.8z"/>
			<path class="st3" d="M1178.5,113.6l4.1-0.4c0.1,0.8,0.4,1.6,1,2.2c0.5,0.5,1.2,0.8,2,0.8c0.8,0,1.7-0.4,2.2-1
				c0.7-0.9,1-2,0.9-3.2c0.1-1.1-0.2-2.1-0.9-3c-0.6-0.7-1.4-1-2.3-1c-1.2,0-2.4,0.6-3.2,1.6l-3.3-0.5l2.1-11.2h10.9v3.9h-7.8
				l-0.6,3.6c2.5-1.3,5.5-0.7,7.5,1.3c1.3,1.4,2,3.3,1.9,5.2c0,1.7-0.5,3.4-1.5,4.7c-1.3,1.9-3.5,2.9-5.8,2.8
				c-1.8,0.1-3.5-0.5-4.8-1.6C1179.5,116.8,1178.7,115.3,1178.5,113.6z"/>
			<path class="st3" d="M1198.7,107.6c-1.9-0.7-3.1-2.5-3-4.4c0-1.5,0.6-3,1.7-4c2.8-2.1,6.7-2.1,9.5,0c1.1,1,1.7,2.5,1.7,4
				c0,0.9-0.3,1.9-0.8,2.7c-0.5,0.8-1.3,1.4-2.2,1.8c1.1,0.4,2,1.1,2.7,2.1c0.6,0.9,1,2,0.9,3.2c0.1,1.8-0.6,3.6-1.9,4.8
				c-1.4,1.3-3.2,1.9-5,1.9c-1.8,0.1-3.5-0.5-4.9-1.5c-1.5-1.2-2.4-3-2.3-5c0-1.1,0.3-2.2,0.9-3.2
				C1196.6,108.8,1197.5,108,1198.7,107.6z M1199.1,112.6c-0.1,1,0.3,1.9,0.9,2.7c0.6,0.6,1.3,1,2.2,1c0.8,0,1.6-0.3,2.1-0.9
				c0.6-0.7,0.9-1.7,0.8-2.6c0-0.9-0.3-1.8-0.8-2.4c-0.6-0.6-1.3-0.9-2.2-0.9c-0.9-0.1-1.7,0.3-2.2,1
				C1199.4,111,1199.1,111.8,1199.1,112.6z M1199.5,103.4c0,0.7,0.2,1.4,0.7,1.9c0.5,0.5,1.2,0.7,1.9,0.7c0.7,0,1.4-0.2,1.9-0.7
				c0.5-0.5,0.7-1.2,0.7-1.9c0.1-1.3-0.9-2.5-2.2-2.5c-0.1,0-0.2,0-0.3,0c-0.7,0-1.4,0.2-1.9,0.7
				C1199.7,102.1,1199.5,102.7,1199.5,103.4z"/>
		</g>
		<path class="st4" d="M948.7,255.5h321.8c3.3,0,6,2.7,6,6v58.2c0,3.3-2.7,6-6,6H948.7c-3.3,0-6-2.7-6-6v-58.2
			C942.7,258.2,945.4,255.5,948.7,255.5z"/>
		<path class="st0" d="M1270.5,326.5H948.7c-3.7,0-6.7-3-6.7-6.7v-58.2c0-3.7,3-6.7,6.7-6.7h321.8c3.7,0,6.7,3,6.7,6.7v58.2
			C1277.2,323.5,1274.2,326.5,1270.5,326.5z M948.7,256.2c-2.9,0-5.3,2.4-5.3,5.3v58.2c0,2.9,2.4,5.3,5.3,5.3h321.8
			c2.9,0,5.3-2.4,5.3-5.3v-58.2c0-2.9-2.4-5.3-5.3-5.3H948.7z"/>
		<g>
			<path class="st3" d="M1020.9,302.8v-4.3h-8.8v-3.6l9.3-13.6h3.5v13.6h2.7v3.6h-2.7v4.3H1020.9z M1020.9,294.8v-7.3l-4.9,7.3
				H1020.9z"/>
			<path class="st3" d="M1033.5,292l-3.7-0.7c0.3-1.3,1.1-2.5,2.2-3.3c1.4-0.8,3-1.2,4.6-1.1c1.4-0.1,2.8,0.1,4.1,0.7
				c0.8,0.3,1.5,0.9,1.9,1.7c0.5,1.2,0.6,2.4,0.6,3.7l0,4.8c0,1,0,2,0.2,3c0.2,0.7,0.4,1.4,0.7,2.1h-4.1c-0.1-0.3-0.2-0.7-0.4-1.2
				c-0.1-0.2-0.1-0.4-0.1-0.5c-0.7,0.6-1.4,1.2-2.3,1.5c-0.8,0.3-1.7,0.5-2.6,0.5c-1.4,0.1-2.7-0.4-3.8-1.3c-0.9-0.8-1.4-2-1.4-3.3
				c0-0.8,0.2-1.6,0.6-2.4c0.4-0.7,1-1.2,1.8-1.6c1-0.5,2.1-0.8,3.3-1c1.4-0.2,2.7-0.6,4-1v-0.4c0.1-0.6-0.2-1.2-0.6-1.7
				c-0.7-0.4-1.4-0.6-2.2-0.5c-0.6,0-1.2,0.1-1.7,0.4C1034,290.8,1033.6,291.4,1033.5,292z M1039,295.3c-0.8,0.3-1.7,0.5-2.5,0.6
				c-0.8,0.1-1.5,0.4-2.2,0.7c-0.5,0.3-0.8,0.9-0.8,1.4c0,0.6,0.2,1.1,0.6,1.5c0.4,0.4,1,0.7,1.6,0.6c0.8,0,1.5-0.3,2.1-0.7
				c0.5-0.3,0.8-0.8,1-1.4c0.1-0.7,0.2-1.3,0.2-2L1039,295.3z"/>
			<path class="st3" d="M1054.3,302.8v-4.3h-8.8v-3.6l9.3-13.6h3.5v13.6h2.7v3.6h-2.7v4.3H1054.3z M1054.3,294.8v-7.3l-4.9,7.3
				H1054.3z"/>
			<path class="st3" d="M1063,297.2l4.1-0.4c0.1,0.8,0.4,1.6,1,2.2c0.5,0.5,1.2,0.8,2,0.8c0.8,0,1.7-0.4,2.2-1c0.7-0.9,1-2,0.9-3.2
				c0.1-1.1-0.2-2.1-0.9-3c-0.6-0.7-1.4-1-2.3-1c-1.2,0-2.4,0.6-3.2,1.6l-3.3-0.5l2.1-11.2h10.9v3.9h-7.8l-0.6,3.6
				c2.5-1.3,5.5-0.7,7.5,1.3c1.3,1.4,2,3.3,1.9,5.2c0,1.7-0.5,3.4-1.5,4.7c-1.3,1.9-3.5,2.9-5.8,2.8c-1.8,0.1-3.5-0.5-4.8-1.6
				C1063.9,300.4,1063.1,298.9,1063,297.2z"/>
			<path class="st3" d="M1083.5,292l-3.7-0.7c0.3-1.3,1.1-2.5,2.2-3.3c1.4-0.8,3-1.2,4.6-1.1c1.4-0.1,2.8,0.1,4.1,0.7
				c0.8,0.3,1.5,0.9,1.9,1.7c0.5,1.2,0.6,2.4,0.5,3.7l0,4.8c0,1,0,2,0.2,3c0.2,0.7,0.4,1.4,0.7,2.1h-4.1c-0.1-0.3-0.2-0.7-0.4-1.2
				c-0.1-0.2-0.1-0.4-0.1-0.5c-0.7,0.6-1.4,1.2-2.3,1.5c-0.8,0.3-1.7,0.5-2.6,0.5c-1.4,0.1-2.7-0.4-3.8-1.3c-0.9-0.8-1.4-2-1.4-3.3
				c0-0.8,0.2-1.6,0.6-2.4c0.4-0.7,1-1.2,1.8-1.6c1-0.5,2.1-0.8,3.3-1c1.4-0.2,2.7-0.6,4-1v-0.4c0.1-0.6-0.2-1.2-0.6-1.7
				c-0.7-0.4-1.4-0.6-2.2-0.5c-0.6,0-1.2,0.1-1.7,0.4C1084,290.8,1083.7,291.4,1083.5,292z M1089,295.3c-0.8,0.3-1.7,0.5-2.5,0.6
				c-0.8,0.1-1.5,0.4-2.2,0.7c-0.5,0.3-0.8,0.9-0.8,1.4c0,0.6,0.2,1.1,0.6,1.5c0.4,0.4,1,0.7,1.6,0.6c0.8,0,1.5-0.3,2.1-0.7
				c0.5-0.3,0.8-0.8,1-1.4c0.1-0.7,0.2-1.3,0.2-2V295.3z"/>
			<path class="st3" d="M1097,302.8v-21.5h4.1v7.7c1.1-1.4,2.8-2.2,4.5-2.2c1.8,0,3.5,0.7,4.7,2.1c1.3,1.7,2,3.8,1.9,5.9
				c0.1,2.2-0.5,4.4-1.9,6.1c-1.1,1.4-2.8,2.2-4.6,2.2c-0.9,0-1.8-0.2-2.6-0.7c-0.9-0.5-1.7-1.1-2.2-2v2.3H1097z M1101.1,294.7
				c-0.1,1.2,0.2,2.5,0.8,3.6c0.6,1,1.7,1.6,2.8,1.6c0.9,0,1.8-0.4,2.3-1.2c0.7-1.1,1.1-2.4,1-3.7c0.1-1.4-0.2-2.7-1-3.8
				c-0.6-0.8-1.5-1.2-2.5-1.2c-1,0-1.9,0.4-2.5,1.1C1101.3,292.2,1101,293.4,1101.1,294.7L1101.1,294.7z"/>
			<path class="st3" d="M1114.7,297.8l4-0.4c0,0.7,0.3,1.3,0.8,1.8c0.4,0.4,1,0.6,1.6,0.6c0.9,0,1.7-0.4,2.2-1.2
				c0.6-0.8,1-2.4,1.1-4.9c-1,1.2-2.4,1.8-3.9,1.8c-1.7,0-3.3-0.7-4.4-2c-1.3-1.4-1.9-3.2-1.8-5.1c-0.1-1.9,0.6-3.8,1.9-5.3
				c2.8-2.7,7.2-2.7,9.9,0.1c0.1,0.1,0.3,0.3,0.4,0.4c1.4,1.7,2.1,4.5,2.1,8.3c0,3.9-0.7,6.8-2.2,8.5c-1.4,1.7-3.5,2.7-5.7,2.6
				c-1.5,0.1-2.9-0.4-4.1-1.3C1115.5,300.8,1114.8,299.3,1114.7,297.8z M1124,288.8c0.1-1.1-0.3-2.2-0.9-3.1
				c-0.5-0.7-1.3-1.1-2.1-1.1c-0.7,0-1.4,0.3-1.9,0.9c-0.6,0.9-0.8,1.9-0.8,3c-0.1,1.1,0.2,2.2,0.8,3.1c0.5,0.6,1.3,1,2.1,1
				c0.8,0,1.5-0.3,2-0.9C1123.8,290.8,1124.1,289.8,1124,288.8z"/>
			<path class="st3" d="M1145.2,298.9v3.8h-14.4c0.2-1.5,0.6-2.9,1.4-4.1c1.3-1.9,2.9-3.6,4.6-5.1c1.2-1.1,2.4-2.3,3.4-3.5
				c0.5-0.7,0.8-1.6,0.8-2.5c0.1-0.8-0.2-1.5-0.7-2.1c-1.2-1-2.9-1-4.1,0c-0.6,0.7-0.9,1.6-0.9,2.6l-4.1-0.4
				c0.1-1.9,0.9-3.6,2.3-4.9c1.4-1,3.1-1.5,4.8-1.5c1.8-0.1,3.6,0.5,5,1.7c1.2,1.1,1.9,2.6,1.8,4.3c0,0.9-0.2,1.9-0.5,2.8
				c-0.4,1-1,1.9-1.6,2.7c-0.8,1-1.7,1.9-2.7,2.7c-1.3,1.2-2.1,2-2.5,2.4c-0.3,0.4-0.6,0.7-0.8,1.1L1145.2,298.9z"/>
			<path class="st3" d="M1148,297.2l4.1-0.4c0.1,0.8,0.4,1.6,1,2.2c0.5,0.5,1.2,0.8,2,0.8c0.8,0,1.7-0.4,2.2-1c0.7-0.9,1-2,0.9-3.2
				c0.1-1.1-0.2-2.1-0.9-3c-0.6-0.7-1.4-1-2.3-1c-1.2,0-2.4,0.6-3.2,1.6l-3.3-0.5l2.1-11.2h10.9v3.9h-7.8l-0.6,3.6
				c2.5-1.3,5.5-0.7,7.5,1.3c1.3,1.4,2,3.3,1.9,5.2c0,1.7-0.5,3.4-1.5,4.7c-1.3,1.9-3.5,2.9-5.8,2.8c-1.8,0.1-3.5-0.5-4.8-1.6
				C1149,300.4,1148.2,298.9,1148,297.2z"/>
			<path class="st3" d="M1168.2,291.2c-1.9-0.7-3.1-2.5-3-4.4c0-1.5,0.6-3,1.7-4c2.8-2.1,6.7-2.1,9.5,0c1.1,1,1.7,2.5,1.7,4
				c0,0.9-0.3,1.9-0.8,2.7c-0.5,0.8-1.3,1.4-2.2,1.8c1.1,0.4,2,1.1,2.7,2.1c0.6,0.9,1,2,0.9,3.2c0.1,1.8-0.6,3.6-1.9,4.8
				c-1.4,1.3-3.2,1.9-5,1.9c-1.8,0.1-3.5-0.5-4.9-1.5c-1.5-1.2-2.4-3-2.3-5c0-1.1,0.3-2.2,0.9-3.2
				C1166.1,292.4,1167,291.6,1168.2,291.2z M1168.6,296.2c-0.1,1,0.3,1.9,0.9,2.6c0.5,0.6,1.3,1,2.2,1c0.8,0,1.6-0.3,2.1-0.9
				c0.6-0.7,0.9-1.7,0.8-2.6c0-0.9-0.3-1.8-0.8-2.4c-0.6-0.6-1.3-0.9-2.2-0.9c-0.9-0.1-1.7,0.3-2.2,1
				C1168.9,294.6,1168.6,295.4,1168.6,296.2L1168.6,296.2z M1169,287c0,0.7,0.2,1.4,0.7,1.9c0.5,0.5,1.2,0.7,1.9,0.7
				c0.7,0,1.4-0.2,1.9-0.7c0.5-0.5,0.7-1.2,0.7-1.9c0.1-1.3-0.9-2.5-2.2-2.5c-0.1,0-0.2,0-0.3,0c-0.7,0-1.4,0.2-1.9,0.7
				C1169.2,285.7,1169,286.3,1169,287L1169,287z"/>
			<path class="st3" d="M1181.2,297.1l4-0.5c0.1,0.9,0.4,1.7,1,2.3c0.5,0.5,1.3,0.8,2,0.8c0.8,0,1.6-0.3,2.1-1
				c0.6-0.7,0.9-1.7,0.9-2.6c0-0.9-0.2-1.8-0.8-2.5c-0.5-0.6-1.3-0.9-2-0.9c-0.6,0-1.3,0.1-1.9,0.3l0.5-3.4c0.9,0.1,1.8-0.2,2.5-0.7
				c0.6-0.5,0.9-1.3,0.9-2c0.1-1.2-0.8-2.3-2.1-2.4c-0.1,0-0.2,0-0.3,0c-0.7,0-1.3,0.3-1.8,0.7c-0.5,0.6-0.9,1.3-0.9,2.1l-3.8-0.6
				c0.2-1.1,0.6-2.2,1.2-3.1c0.6-0.8,1.3-1.4,2.2-1.8c1-0.5,2.1-0.7,3.2-0.7c1.8-0.1,3.6,0.6,4.9,1.9c1,0.9,1.5,2.2,1.5,3.6
				c0,1.9-1,3.4-3.1,4.5c1.2,0.2,2.2,0.9,3,1.8c0.7,0.9,1.1,2.1,1.1,3.3c0,1.8-0.7,3.6-2.1,4.8c-2.8,2.5-7,2.7-10,0.3
				C1182.1,300.3,1181.3,298.8,1181.2,297.1z"/>
			<path class="st3" d="M1197.1,287.2h2.3V286c0-1,0.1-2,0.4-2.9c0.3-0.7,0.9-1.2,1.5-1.6c0.9-0.4,1.9-0.6,2.8-0.6
				c1.2,0,2.3,0.2,3.4,0.5l-0.6,2.9c-0.6-0.2-1.3-0.2-1.9-0.2c-0.5,0-0.9,0.1-1.3,0.4c-0.3,0.5-0.5,1-0.4,1.6v1.1h3.1v3.2h-3.1v12.3
				h-4.1v-12.3h-2.3V287.2z"/>
		</g>
		<g class="st1">
			<path class="st2" d="M6.6,281.5h503.9c3.7,0,6.6,3,6.6,6.6v216.1c0,3.7-3,6.6-6.6,6.6H6.6c-3.7,0-6.6-3-6.6-6.6V288.1
				C0,284.5,3,281.5,6.6,281.5z"/>
		</g>
		<path class="st4" d="M97.6,320h321.8c3.3,0,6,2.7,6,6v58.2c0,3.3-2.7,6-6,6H97.6c-3.3,0-6-2.7-6-6V326
			C91.6,322.7,94.3,320,97.6,320z"/>
		<path class="st0" d="M419.5,391H97.6c-3.7,0-6.7-3-6.7-6.7V326c0-3.7,3-6.7,6.7-6.7h321.8c3.7,0,6.7,3,6.7,6.7v58.2
			C426.2,387.9,423.2,391,419.5,391z M97.6,320.7c-2.9,0-5.3,2.4-5.3,5.3v58.2c0,2.9,2.4,5.3,5.3,5.3h321.8c2.9,0,5.3-2.4,5.3-5.3
			V326c0-2.9-2.4-5.3-5.3-5.3L97.6,320.7z"/>
		<g>
			<path class="st3" d="M159.6,367.2v-21.5h4.1v7.7c1.1-1.4,2.8-2.2,4.5-2.2c1.8,0,3.5,0.7,4.7,2.1c1.3,1.7,2,3.8,1.9,5.9
				c0.1,2.2-0.5,4.4-1.9,6.1c-1.1,1.4-2.8,2.2-4.6,2.2c-0.9,0-1.8-0.2-2.6-0.7c-0.9-0.5-1.7-1.1-2.2-2v2.3L159.6,367.2z
				 M163.7,359.1c-0.1,1.2,0.2,2.5,0.8,3.6c0.6,1,1.7,1.6,2.8,1.6c0.9,0,1.8-0.4,2.3-1.2c0.7-1.1,1.1-2.4,1-3.7
				c0.1-1.4-0.2-2.7-1-3.8c-0.6-0.8-1.5-1.2-2.5-1.2c-1,0-1.9,0.4-2.5,1.1C163.9,356.6,163.6,357.9,163.7,359.1z"/>
			<path class="st3" d="M191.1,363.4v3.8h-14.4c0.2-1.5,0.6-2.9,1.4-4.1c1.3-1.9,2.9-3.6,4.6-5.1c1.2-1.1,2.4-2.2,3.4-3.5
				c0.5-0.7,0.8-1.6,0.9-2.5c0.1-0.8-0.2-1.5-0.7-2.1c-1.2-1-2.9-1-4.1,0c-0.6,0.7-0.9,1.6-0.9,2.6l-4.1-0.4
				c0.1-1.9,0.9-3.6,2.3-4.9c1.4-1,3.1-1.5,4.8-1.5c1.8-0.1,3.6,0.5,5,1.7c1.2,1.1,1.9,2.6,1.8,4.3c0,0.9-0.2,1.9-0.5,2.8
				c-0.4,1-1,1.9-1.6,2.7c-0.8,1-1.7,1.9-2.7,2.7c-1.3,1.2-2.1,2-2.5,2.4c-0.3,0.4-0.6,0.7-0.8,1.1L191.1,363.4z"/>
			<path class="st3" d="M202,367.2v-4.3h-8.8v-3.6l9.3-13.6h3.5v13.6h2.7v3.6H206v4.3L202,367.2z M202,359.3V352l-4.9,7.3L202,359.3
				z"/>
			<path class="st3" d="M210.7,362.3l4-0.4c0,0.7,0.3,1.3,0.8,1.8c0.4,0.4,1,0.6,1.6,0.6c0.9,0,1.7-0.4,2.2-1.2
				c0.6-0.8,1-2.4,1.1-4.9c-1,1.2-2.4,1.8-3.9,1.8c-1.7,0-3.3-0.7-4.4-2c-1.3-1.4-1.9-3.2-1.8-5.1c-0.1-1.9,0.6-3.8,1.9-5.3
				c2.8-2.7,7.2-2.7,9.9,0.1c0.1,0.1,0.3,0.3,0.4,0.4c1.4,1.7,2.1,4.5,2.1,8.3c0,3.9-0.7,6.8-2.2,8.5c-1.4,1.7-3.5,2.7-5.7,2.6
				c-1.5,0.1-2.9-0.4-4.1-1.3C211.5,365.2,210.8,363.8,210.7,362.3z M220,353.3c0.1-1.1-0.3-2.2-0.9-3.1c-0.5-0.7-1.3-1.1-2.1-1.1
				c-0.7,0-1.4,0.3-1.9,0.9c-0.6,0.9-0.8,1.9-0.8,3c-0.1,1.1,0.2,2.2,0.8,3.1c0.9,1.1,2.6,1.3,3.7,0.4c0.1-0.1,0.3-0.2,0.4-0.4
				C219.8,355.2,220.1,354.3,220,353.3L220,353.3z"/>
			<path class="st3" d="M227.1,361.5l4-0.5c0.1,0.9,0.4,1.7,1,2.3c0.5,0.5,1.3,0.8,2,0.8c0.8,0,1.6-0.3,2.1-1
				c0.6-0.7,0.9-1.7,0.9-2.6c0-0.9-0.3-1.8-0.8-2.5c-0.5-0.6-1.3-0.9-2-0.9c-0.6,0-1.3,0.1-1.9,0.3l0.5-3.4c0.9,0.1,1.8-0.2,2.5-0.7
				c0.6-0.5,0.9-1.3,0.9-2c0.1-1.2-0.8-2.3-2.1-2.4c-0.1,0-0.2,0-0.3,0c-0.7,0-1.3,0.3-1.8,0.7c-0.5,0.6-0.9,1.3-0.9,2.1l-3.8-0.6
				c0.2-1.1,0.6-2.2,1.2-3.1c0.6-0.8,1.3-1.4,2.2-1.8c1-0.5,2.1-0.7,3.2-0.7c1.8-0.1,3.6,0.6,4.9,1.9c1,0.9,1.5,2.2,1.5,3.6
				c0,1.9-1,3.4-3.1,4.5c1.2,0.2,2.2,0.9,3,1.8c0.7,0.9,1.1,2.1,1.1,3.3c0,1.8-0.7,3.6-2.1,4.8c-2.8,2.5-7,2.7-10,0.3
				C228.1,364.8,227.3,363.2,227.1,361.5z"/>
			<path class="st3" d="M244,362.3l4-0.4c0,0.7,0.3,1.3,0.8,1.8c0.4,0.4,1,0.6,1.6,0.6c0.9,0,1.7-0.4,2.2-1.2c0.6-0.8,1-2.4,1.1-4.9
				c-1,1.2-2.4,1.8-3.9,1.8c-1.7,0-3.3-0.7-4.4-2c-1.3-1.4-1.9-3.2-1.8-5.1c-0.1-1.9,0.6-3.8,1.9-5.3c2.8-2.7,7.2-2.7,9.9,0.1
				c0.1,0.1,0.3,0.3,0.4,0.4c1.4,1.7,2.1,4.5,2.1,8.3c0,3.9-0.7,6.8-2.2,8.5c-1.4,1.7-3.5,2.7-5.7,2.6c-1.5,0.1-2.9-0.4-4.1-1.3
				C244.9,365.2,244.2,363.8,244,362.3z M253.4,353.3c0.1-1.1-0.3-2.2-0.9-3.1c-0.5-0.7-1.3-1.1-2.1-1.1c-0.7,0-1.4,0.3-1.9,0.9
				c-0.6,0.9-0.8,1.9-0.8,3c-0.1,1.1,0.2,2.2,0.8,3.1c0.9,1.1,2.6,1.3,3.7,0.4c0.1-0.1,0.3-0.2,0.4-0.4
				C253.1,355.2,253.4,354.3,253.4,353.3z"/>
			<path class="st3" d="M264.6,356.4l-3.7-0.7c0.3-1.3,1.1-2.5,2.2-3.3c1.4-0.8,3-1.2,4.6-1.1c1.4-0.1,2.8,0.1,4.1,0.7
				c0.8,0.3,1.5,0.9,1.9,1.7c0.5,1.2,0.6,2.4,0.5,3.7l0,4.8c0,1,0,2,0.2,3c0.2,0.7,0.4,1.4,0.7,2.1H271c-0.1-0.3-0.2-0.7-0.4-1.2
				c-0.1-0.2-0.1-0.4-0.1-0.5c-0.7,0.6-1.4,1.2-2.3,1.5c-0.8,0.3-1.7,0.5-2.6,0.5c-1.4,0.1-2.7-0.4-3.8-1.3c-0.9-0.8-1.4-2-1.4-3.3
				c0-0.8,0.2-1.6,0.6-2.4c0.4-0.7,1-1.2,1.8-1.6c1-0.5,2.1-0.8,3.3-1c1.4-0.2,2.7-0.6,4-1v-0.4c0.1-0.6-0.2-1.2-0.6-1.7
				c-0.7-0.4-1.4-0.6-2.2-0.5c-0.6,0-1.2,0.1-1.7,0.4C265.1,355.3,264.8,355.8,264.6,356.4z M270.1,359.8c-0.8,0.3-1.7,0.5-2.5,0.6
				c-0.8,0.1-1.5,0.4-2.2,0.7c-0.5,0.3-0.8,0.9-0.8,1.5c0,0.6,0.2,1.1,0.6,1.5c0.4,0.4,1,0.7,1.6,0.6c0.8,0,1.5-0.3,2.1-0.7
				c0.5-0.3,0.8-0.8,1-1.4c0.1-0.7,0.2-1.3,0.2-2L270.1,359.8z"/>
			<path class="st3" d="M281.3,356.4l-3.7-0.7c0.3-1.3,1.1-2.5,2.2-3.3c1.4-0.8,3-1.2,4.6-1.1c1.4-0.1,2.8,0.1,4.1,0.7
				c0.8,0.3,1.5,0.9,1.9,1.7c0.5,1.2,0.6,2.4,0.5,3.7l0,4.8c0,1,0,2,0.2,3c0.2,0.7,0.4,1.4,0.7,2.1h-4.1c-0.1-0.3-0.2-0.7-0.4-1.2
				c-0.1-0.2-0.1-0.4-0.1-0.5c-0.7,0.6-1.4,1.2-2.3,1.5c-0.8,0.3-1.7,0.5-2.6,0.5c-1.4,0.1-2.7-0.4-3.8-1.3c-0.9-0.8-1.4-2-1.4-3.3
				c0-0.8,0.2-1.6,0.6-2.4c0.4-0.7,1-1.2,1.8-1.6c1-0.5,2.1-0.8,3.3-1c1.4-0.2,2.7-0.6,4-1v-0.4c0.1-0.6-0.2-1.2-0.6-1.7
				c-0.7-0.4-1.4-0.6-2.2-0.5c-0.6,0-1.2,0.1-1.7,0.4C281.8,355.3,281.4,355.8,281.3,356.4z M286.8,359.8c-0.8,0.3-1.7,0.5-2.5,0.6
				c-0.8,0.1-1.5,0.4-2.2,0.7c-0.5,0.3-0.8,0.9-0.8,1.5c0,0.6,0.2,1.1,0.6,1.5c0.4,0.4,1,0.7,1.6,0.6c0.8,0,1.5-0.3,2.1-0.7
				c0.5-0.3,0.8-0.8,1-1.4c0.1-0.7,0.2-1.3,0.2-2L286.8,359.8z"/>
			<path class="st3" d="M297.5,355.7c-1.9-0.7-3.1-2.5-3-4.4c0-1.5,0.6-3,1.7-4c2.8-2.1,6.7-2.1,9.5,0c1.1,1,1.7,2.5,1.7,4
				c0,0.9-0.3,1.9-0.8,2.7c-0.5,0.8-1.3,1.4-2.2,1.8c1.1,0.4,2,1.1,2.7,2.1c0.6,0.9,1,2,0.9,3.2c0.1,1.8-0.6,3.6-1.9,4.8
				c-1.4,1.3-3.2,1.9-5,1.9c-1.8,0.1-3.5-0.5-4.9-1.5c-1.5-1.2-2.4-3-2.3-5c0-1.1,0.3-2.2,0.9-3.2
				C295.5,356.9,296.4,356.1,297.5,355.7z M298,360.7c-0.1,1,0.3,1.9,0.9,2.7c0.6,0.6,1.3,1,2.2,1c0.8,0,1.6-0.3,2.1-0.9
				c0.6-0.7,0.9-1.7,0.8-2.6c0-0.9-0.3-1.8-0.9-2.4c-0.6-0.6-1.3-0.9-2.2-0.9c-0.9-0.1-1.7,0.3-2.2,1
				C298.3,359.1,298,359.9,298,360.7L298,360.7z M298.4,351.5c0,0.7,0.2,1.4,0.7,1.9c0.5,0.5,1.2,0.7,1.9,0.7c0.7,0,1.4-0.2,1.9-0.7
				c0.5-0.5,0.7-1.2,0.7-1.9c0.1-1.3-0.9-2.5-2.2-2.5c-0.1,0-0.2,0-0.3,0c-0.7,0-1.4,0.2-1.9,0.7
				C298.6,350.1,298.4,350.8,298.4,351.5L298.4,351.5z"/>
			<path class="st3" d="M310.7,349.9v-3.8h14.1v3c-1.4,1.5-2.6,3.1-3.5,4.9c-1.2,2.1-2.1,4.4-2.7,6.8c-0.6,2.1-0.9,4.3-0.9,6.5h-4
				c0.1-3.1,0.7-6.2,1.8-9.1c1.1-3,2.7-5.8,4.6-8.3H310.7z"/>
			<path class="st3" d="M335.5,367.2v-4.3h-8.8v-3.6l9.3-13.6h3.5v13.6h2.7v3.6h-2.7v4.3L335.5,367.2z M335.5,359.3V352l-4.9,7.3
				L335.5,359.3z"/>
			<path class="st3" d="M354.6,367.2h-4.1v-15.5c-1.5,1.4-3.3,2.5-5.3,3.1v-3.7c1.3-0.5,2.5-1.1,3.5-2c1.2-0.9,2.1-2.1,2.6-3.4h3.3
				V367.2z"/>
		</g>
		<path class="st4" d="M97.6,407.1h321.8c3.3,0,6,2.7,6,6v58.2c0,3.3-2.7,6-6,6H97.6c-3.3,0-6-2.7-6-6v-58.2
			C91.6,409.8,94.3,407.1,97.6,407.1z"/>
		<path class="st0" d="M419.5,478.1H97.6c-3.7,0-6.7-3-6.7-6.7v-58.2c0-3.7,3-6.7,6.7-6.7h321.8c3.7,0,6.7,3,6.7,6.7v58.2
			C426.2,475.1,423.2,478.1,419.5,478.1z M97.6,407.8c-2.9,0-5.3,2.4-5.3,5.3v58.2c0,2.9,2.4,5.3,5.3,5.3h321.8
			c2.9,0,5.3-2.4,5.3-5.3v-58.2c0-2.9-2.4-5.3-5.3-5.3H97.6z"/>
		<g>
			<path class="st3" d="M170.3,454.4v-4.3h-8.8v-3.6l9.3-13.6h3.5v13.6h2.7v3.6h-2.7v4.3L170.3,454.4z M170.3,446.5v-7.3l-4.9,7.3
				H170.3z"/>
			<path class="st3" d="M192.9,438.2l-4,0.4c0-0.7-0.3-1.3-0.8-1.8c-0.4-0.4-1-0.6-1.6-0.6c-0.9,0-1.7,0.4-2.2,1.2
				c-0.6,0.8-1,2.4-1.1,4.9c0.9-1.2,2.3-1.8,3.8-1.8c1.7,0,3.3,0.7,4.4,2c1.3,1.4,1.9,3.2,1.8,5.1c0.1,2-0.6,3.9-1.9,5.3
				c-2.8,2.7-7.2,2.6-10-0.1c-0.1-0.1-0.2-0.3-0.4-0.4c-1.4-1.7-2.1-4.4-2.1-8.3c0-3.9,0.7-6.8,2.2-8.5c1.4-1.7,3.5-2.7,5.7-2.6
				c1.5-0.1,2.9,0.4,4.1,1.4C192,435.3,192.7,436.7,192.9,438.2z M183.5,447.2c-0.1,1.1,0.3,2.2,0.9,3.1c0.5,0.7,1.3,1.1,2.1,1.1
				c0.7,0,1.4-0.3,1.9-0.9c0.6-0.9,0.9-1.9,0.8-2.9c0.1-1.1-0.2-2.2-0.8-3.1c-0.9-1.1-2.6-1.3-3.7-0.4c-0.1,0.1-0.2,0.2-0.3,0.3
				C183.8,445.2,183.5,446.2,183.5,447.2L183.5,447.2z"/>
			<path class="st3" d="M195.7,449.4l4-0.4c0,0.7,0.3,1.3,0.8,1.8c0.4,0.4,1,0.6,1.6,0.6c0.9,0,1.7-0.4,2.2-1.2
				c0.6-0.8,1-2.4,1.1-4.9c-1,1.2-2.4,1.8-3.9,1.8c-1.7,0-3.3-0.7-4.4-2c-1.3-1.4-1.9-3.2-1.8-5.1c-0.1-1.9,0.6-3.8,1.9-5.3
				c2.8-2.7,7.2-2.7,9.9,0.1c0.1,0.1,0.3,0.3,0.4,0.4c1.4,1.7,2.1,4.5,2.1,8.3c0,3.9-0.7,6.8-2.2,8.5c-1.4,1.7-3.5,2.7-5.7,2.6
				c-1.5,0.1-2.9-0.4-4.1-1.3C196.6,452.4,195.9,451,195.7,449.4z M205,440.4c0.1-1.1-0.3-2.2-0.9-3.1c-0.5-0.7-1.3-1.1-2.1-1.1
				c-0.7,0-1.4,0.3-1.9,0.9c-0.6,0.9-0.8,1.9-0.8,3c-0.1,1.1,0.2,2.2,0.8,3.1c0.9,1.1,2.6,1.3,3.7,0.4c0.1-0.1,0.3-0.2,0.4-0.4
				C204.8,442.4,205.1,441.4,205,440.4L205,440.4z"/>
			<path class="st3" d="M226.7,443.5l-4.1,0.7c-0.1-0.7-0.4-1.4-0.9-1.8c-0.5-0.4-1.2-0.6-1.9-0.6c-0.9,0-1.8,0.4-2.5,1.1
				c-0.7,1-1,2.3-0.9,3.6c-0.1,1.4,0.2,2.7,0.9,3.9c0.6,0.8,1.5,1.2,2.5,1.1c0.7,0,1.4-0.2,1.9-0.7c0.6-0.6,1-1.4,1.1-2.3l4,0.7
				c-0.3,1.6-1.1,3.1-2.4,4.2c-1.4,1-3.1,1.5-4.8,1.4c-2,0.1-4-0.7-5.4-2.2c-2.7-3.5-2.7-8.4,0-12c1.4-1.5,3.4-2.2,5.5-2.1
				c1.6-0.1,3.2,0.3,4.5,1.2C225.5,440.7,226.4,442,226.7,443.5z"/>
			<path class="st3" d="M228.1,438.9h2.3v-1.2c0-1,0.1-2,0.4-2.9c0.3-0.7,0.9-1.2,1.5-1.6c0.9-0.4,1.9-0.6,2.8-0.6
				c1.2,0,2.3,0.2,3.4,0.5L238,436c-0.6-0.2-1.3-0.2-1.9-0.2c-0.5,0-0.9,0.1-1.3,0.4c-0.3,0.5-0.5,1-0.4,1.6v1.1h3.1v3.2h-3.1v12.3
				h-4.1v-12.3h-2.3L228.1,438.9z"/>
			<path class="st3" d="M253.4,443.5l-4.1,0.7c-0.1-0.7-0.4-1.4-0.9-1.8c-0.5-0.4-1.2-0.6-1.9-0.6c-0.9,0-1.8,0.4-2.5,1.1
				c-0.7,1-1,2.3-0.9,3.6c-0.1,1.4,0.2,2.7,0.9,3.9c0.6,0.8,1.5,1.2,2.5,1.1c0.7,0,1.4-0.2,1.9-0.7c0.6-0.6,1-1.4,1.1-2.3l4,0.7
				c-0.3,1.6-1.1,3.1-2.4,4.2c-1.4,1-3.1,1.5-4.8,1.4c-2,0.1-4-0.7-5.4-2.2c-2.7-3.5-2.7-8.4,0-12c1.4-1.5,3.4-2.2,5.5-2.1
				c1.6-0.1,3.2,0.3,4.5,1.2C252.2,440.7,253,442,253.4,443.5z"/>
			<path class="st3" d="M270.1,443.5l-4.1,0.7c-0.1-0.7-0.4-1.4-0.9-1.8c-0.5-0.4-1.2-0.6-1.9-0.6c-0.9,0-1.8,0.4-2.5,1.1
				c-0.7,1-1,2.3-0.9,3.6c-0.1,1.4,0.2,2.7,0.9,3.9c0.6,0.8,1.5,1.2,2.5,1.1c0.7,0,1.4-0.2,1.9-0.7c0.6-0.6,1-1.4,1.1-2.3l4,0.7
				c-0.3,1.6-1.1,3.1-2.4,4.2c-1.4,1-3.1,1.5-4.8,1.4c-2,0.1-4-0.7-5.4-2.2c-2.7-3.5-2.7-8.4,0-12c1.4-1.5,3.4-2.2,5.5-2.1
				c1.6-0.1,3.2,0.3,4.5,1.2C268.9,440.7,269.7,442,270.1,443.5z"/>
			<path class="st3" d="M272.3,437v-3.8h14.1v3c-1.4,1.5-2.6,3.1-3.5,4.9c-1.2,2.1-2.1,4.4-2.7,6.8c-0.6,2.1-0.9,4.3-0.9,6.5h-4
				c0.1-3.1,0.7-6.2,1.8-9.1c1.1-3,2.7-5.8,4.6-8.3H272.3z"/>
			<path class="st3" d="M293,443.6l-3.7-0.7c0.3-1.3,1.1-2.5,2.2-3.3c1.4-0.8,3-1.2,4.6-1.1c1.4-0.1,2.8,0.1,4.1,0.7
				c0.8,0.3,1.5,0.9,1.9,1.7c0.5,1.2,0.6,2.4,0.5,3.7l0,4.8c0,1,0,2,0.2,3c0.2,0.7,0.4,1.4,0.7,2.1h-4.1c-0.1-0.3-0.2-0.7-0.4-1.2
				c-0.1-0.2-0.1-0.4-0.1-0.5c-0.7,0.6-1.4,1.2-2.3,1.5c-0.8,0.3-1.7,0.5-2.6,0.5c-1.4,0.1-2.7-0.4-3.8-1.3c-0.9-0.8-1.4-2-1.4-3.3
				c0-0.8,0.2-1.6,0.6-2.4c0.4-0.7,1-1.2,1.8-1.6c1-0.5,2.1-0.8,3.3-1c1.4-0.2,2.7-0.6,4-1v-0.4c0.1-0.6-0.2-1.2-0.6-1.7
				c-0.7-0.4-1.4-0.6-2.2-0.5c-0.6,0-1.2,0.1-1.7,0.4C293.5,442.5,293.1,443,293,443.6z M298.5,446.9c-0.8,0.3-1.7,0.5-2.5,0.6
				c-0.8,0.1-1.5,0.4-2.2,0.7c-0.5,0.3-0.8,0.9-0.8,1.5c0,0.6,0.2,1.1,0.6,1.5c0.4,0.4,1,0.7,1.6,0.6c0.8,0,1.5-0.3,2.1-0.7
				c0.5-0.3,0.8-0.8,1-1.4c0.1-0.7,0.2-1.3,0.2-2L298.5,446.9z"/>
			<path class="st3" d="M313.8,454.4v-4.3H305v-3.6l9.3-13.6h3.5v13.6h2.7v3.6h-2.7v4.3L313.8,454.4z M313.8,446.5v-7.3l-4.9,7.3
				H313.8z"/>
			<path class="st3" d="M323.1,454.4v-21.5h4.1v7.7c1.1-1.4,2.8-2.2,4.5-2.2c1.8,0,3.5,0.7,4.7,2.1c1.3,1.7,2,3.8,1.9,5.9
				c0.1,2.2-0.5,4.4-1.9,6.1c-1.1,1.4-2.8,2.2-4.6,2.2c-0.9,0-1.8-0.2-2.6-0.7c-0.9-0.5-1.7-1.1-2.2-2v2.3L323.1,454.4z
				 M327.2,446.3c-0.1,1.2,0.2,2.5,0.8,3.6c0.6,1,1.7,1.6,2.8,1.6c0.9,0,1.8-0.4,2.3-1.2c0.7-1.1,1.1-2.4,1-3.7
				c0.1-1.4-0.2-2.7-1-3.8c-0.6-0.8-1.5-1.2-2.5-1.2c-1,0-1.9,0.4-2.5,1.1C327.4,443.8,327.1,445,327.2,446.3L327.2,446.3z"/>
			<path class="st3" d="M340.6,448.7l4-0.5c0.1,0.9,0.4,1.7,1,2.3c1.2,1.1,3,1.1,4.1-0.1c0,0,0,0,0.1-0.1c0.6-0.7,0.9-1.7,0.9-2.6
				c0-0.9-0.3-1.8-0.8-2.5c-0.5-0.6-1.3-0.9-2-0.9c-0.6,0-1.3,0.1-1.9,0.3l0.5-3.4c0.9,0.1,1.8-0.2,2.5-0.7c0.6-0.5,0.9-1.3,0.9-2
				c0.1-1.2-0.8-2.3-2.1-2.4c-0.1,0-0.2,0-0.3,0c-0.7,0-1.3,0.3-1.8,0.7c-0.5,0.6-0.9,1.3-0.9,2.1l-3.8-0.6c0.2-1.1,0.6-2.2,1.2-3.1
				c0.6-0.8,1.3-1.4,2.2-1.8c1-0.5,2.1-0.7,3.2-0.7c1.8-0.1,3.6,0.6,4.9,1.9c1,0.9,1.5,2.2,1.5,3.6c0,1.9-1,3.4-3.1,4.5
				c1.2,0.2,2.2,0.9,3,1.8c0.7,0.9,1.1,2.1,1.1,3.3c0,1.8-0.7,3.6-2.1,4.8c-2.8,2.5-7,2.7-10,0.3C341.5,452,340.7,450.4,340.6,448.7
				z"/>
		</g>
		<g class="st1">
			<path class="st2" d="M857.8,445.6h501.5c4.3,0,7.8,3.5,7.8,7.8v302.4c0,4.3-3.5,7.8-7.8,7.8H857.8c-4.3,0-7.8-3.5-7.8-7.8V453.3
				C850,449,853.5,445.6,857.8,445.6z"/>
		</g>
		<path class="st4" d="M947.7,476.2h321.8c3.3,0,6,2.7,6,6v58.2c0,3.3-2.7,6-6,6H947.7c-3.3,0-6-2.7-6-6v-58.2
			C941.7,478.9,944.4,476.2,947.7,476.2z"/>
		<path class="st0" d="M1269.5,547.2H947.7c-3.7,0-6.7-3-6.7-6.7v-58.2c0-3.7,3-6.7,6.7-6.7h321.8c3.7,0,6.7,3,6.7,6.7v58.2
			C1276.2,544.2,1273.2,547.2,1269.5,547.2z M947.7,476.9c-2.9,0-5.3,2.4-5.3,5.3v58.2c0,2.9,2.4,5.3,5.3,5.3h321.8
			c2.9,0,5.3-2.4,5.3-5.3v-58.2c0-2.9-2.4-5.3-5.3-5.3H947.7z"/>
		<g>
			<path class="st3" d="M1016.6,512.7l-3.7-0.7c0.3-1.3,1.1-2.5,2.2-3.3c1.4-0.8,3-1.2,4.6-1.1c1.4-0.1,2.8,0.1,4.1,0.7
				c0.8,0.3,1.5,0.9,1.9,1.7c0.5,1.2,0.6,2.4,0.5,3.7l0,4.8c0,1,0,2,0.2,3c0.2,0.7,0.4,1.4,0.7,2.1h-4.1c-0.1-0.3-0.2-0.7-0.4-1.2
				c-0.1-0.2-0.1-0.4-0.1-0.5c-0.7,0.6-1.4,1.2-2.3,1.5c-0.8,0.3-1.7,0.5-2.6,0.5c-1.4,0.1-2.7-0.4-3.8-1.3c-0.9-0.8-1.4-2-1.4-3.3
				c0-0.8,0.2-1.6,0.6-2.4c0.4-0.7,1-1.2,1.8-1.6c1-0.5,2.1-0.8,3.3-1c1.4-0.2,2.7-0.6,4-1V513c0.1-0.6-0.2-1.2-0.6-1.7
				c-0.7-0.4-1.4-0.6-2.2-0.5c-0.6,0-1.2,0.1-1.7,0.4C1017.1,511.6,1016.8,512.1,1016.6,512.7z M1022.1,516
				c-0.8,0.3-1.7,0.5-2.5,0.6c-0.8,0.1-1.5,0.4-2.2,0.7c-0.5,0.3-0.8,0.9-0.8,1.5c0,0.6,0.2,1.1,0.6,1.5c0.4,0.4,1,0.7,1.6,0.6
				c0.8,0,1.5-0.3,2.1-0.7c0.5-0.3,0.8-0.8,1-1.4c0.1-0.7,0.2-1.3,0.2-2L1022.1,516z"/>
			<path class="st3" d="M1029.2,517.8l4-0.5c0.1,0.9,0.4,1.7,1,2.3c0.5,0.5,1.3,0.8,2,0.8c0.8,0,1.6-0.3,2.1-1
				c0.6-0.7,0.9-1.7,0.9-2.6c0-0.9-0.3-1.8-0.8-2.5c-0.5-0.6-1.3-0.9-2-0.9c-0.6,0-1.3,0.1-1.9,0.3l0.5-3.4c0.9,0.1,1.8-0.2,2.5-0.7
				c0.6-0.5,0.9-1.3,0.9-2c0.1-1.2-0.8-2.3-2.1-2.4c-0.1,0-0.2,0-0.3,0c-0.7,0-1.3,0.3-1.8,0.7c-0.5,0.6-0.9,1.3-0.9,2.1l-3.8-0.6
				c0.2-1.1,0.6-2.2,1.2-3.1c0.6-0.8,1.3-1.4,2.2-1.8c1-0.5,2.1-0.7,3.2-0.7c1.8-0.1,3.6,0.6,4.9,1.9c1,0.9,1.5,2.2,1.5,3.6
				c0,1.9-1,3.4-3.1,4.5c1.2,0.2,2.2,0.9,3,1.8c0.7,0.9,1.1,2.1,1.1,3.3c0,1.8-0.7,3.6-2.1,4.8c-2.8,2.5-7,2.7-10,0.3
				C1030.1,521.1,1029.3,519.5,1029.2,517.8z"/>
			<path class="st3" d="M1060.4,512.6l-4.1,0.7c-0.1-0.7-0.4-1.4-0.9-1.8c-0.5-0.4-1.2-0.6-1.9-0.6c-0.9,0-1.8,0.4-2.5,1.1
				c-0.7,1-1,2.3-0.9,3.6c-0.1,1.4,0.2,2.7,0.9,3.9c0.6,0.8,1.5,1.2,2.5,1.1c0.7,0,1.4-0.2,1.9-0.7c0.6-0.6,1-1.4,1.1-2.3l4,0.7
				c-0.3,1.6-1.1,3.1-2.4,4.2c-1.4,1-3.1,1.5-4.8,1.4c-2,0.1-4-0.7-5.4-2.2c-2.7-3.5-2.7-8.4,0-12c1.4-1.5,3.4-2.2,5.5-2.1
				c1.6-0.1,3.2,0.3,4.5,1.2C1059.2,509.8,1060.1,511.1,1060.4,512.6z"/>
			<path class="st3" d="M1062.8,518.6l4-0.4c0,0.7,0.3,1.3,0.8,1.8c0.4,0.4,1,0.6,1.6,0.6c0.9,0,1.7-0.4,2.2-1.2
				c0.6-0.8,1-2.4,1.1-4.9c-1,1.2-2.4,1.8-3.9,1.8c-1.7,0-3.3-0.7-4.4-2c-1.3-1.4-1.9-3.2-1.8-5.1c-0.1-1.9,0.6-3.8,1.9-5.3
				c2.8-2.7,7.2-2.7,9.9,0.1c0.1,0.1,0.3,0.3,0.4,0.4c1.4,1.7,2.1,4.5,2.1,8.3c0,3.9-0.7,6.8-2.2,8.5c-1.4,1.7-3.5,2.7-5.7,2.6
				c-1.5,0.1-2.9-0.4-4.1-1.3C1063.7,521.5,1062.9,520.1,1062.8,518.6z M1072.1,509.6c0.1-1.1-0.3-2.2-0.9-3.1
				c-0.5-0.7-1.3-1.1-2.1-1.1c-0.7,0-1.4,0.3-1.9,0.9c-0.6,0.9-0.8,1.9-0.8,3c-0.1,1.1,0.2,2.2,0.8,3.1c0.5,0.6,1.3,1,2.1,1
				c0.8,0,1.5-0.3,2-0.9C1071.9,511.5,1072.2,510.5,1072.1,509.6L1072.1,509.6z"/>
			<path class="st3" d="M1079.5,518.6l4-0.4c0,0.7,0.3,1.3,0.8,1.8c0.4,0.4,1,0.6,1.6,0.6c0.9,0,1.7-0.4,2.2-1.2
				c0.6-0.8,1-2.4,1.1-4.9c-1,1.2-2.4,1.8-3.9,1.8c-1.7,0-3.3-0.7-4.4-2c-1.3-1.4-1.9-3.2-1.8-5.1c-0.1-1.9,0.6-3.8,1.9-5.3
				c2.8-2.7,7.2-2.7,9.9,0.1c0.1,0.1,0.3,0.3,0.4,0.4c1.4,1.7,2.1,4.5,2.1,8.3c0,3.9-0.7,6.8-2.2,8.5c-1.4,1.7-3.5,2.7-5.7,2.6
				c-1.5,0.1-2.9-0.4-4.1-1.3C1080.3,521.5,1079.6,520.1,1079.5,518.6z M1088.8,509.6c0.1-1.1-0.3-2.2-0.9-3.1
				c-0.5-0.7-1.3-1.1-2.1-1.1c-0.7,0-1.4,0.3-1.9,0.9c-0.6,0.9-0.8,1.9-0.8,3c-0.1,1.1,0.2,2.2,0.8,3.1c0.9,1.1,2.6,1.3,3.7,0.4
				c0.1-0.1,0.3-0.2,0.4-0.4C1088.6,511.5,1088.8,510.5,1088.8,509.6L1088.8,509.6z"/>
			<path class="st3" d="M1095.9,517.8l4-0.5c0.1,0.9,0.4,1.7,1,2.3c0.5,0.5,1.3,0.8,2,0.8c0.8,0,1.6-0.3,2.1-1
				c0.6-0.7,0.9-1.7,0.9-2.6c0-0.9-0.3-1.8-0.8-2.5c-0.5-0.6-1.3-0.9-2-0.9c-0.6,0-1.3,0.1-1.9,0.3l0.5-3.4c0.9,0.1,1.8-0.2,2.5-0.7
				c0.6-0.5,0.9-1.3,0.9-2c0.1-1.2-0.8-2.3-2.1-2.4c-0.1,0-0.2,0-0.3,0c-0.7,0-1.3,0.3-1.8,0.7c-0.5,0.6-0.9,1.3-0.9,2.1l-3.8-0.6
				c0.2-1.1,0.6-2.2,1.2-3.1c0.6-0.8,1.3-1.4,2.2-1.8c1-0.5,2.1-0.7,3.2-0.7c1.8-0.1,3.6,0.6,4.9,1.9c1,0.9,1.5,2.2,1.5,3.6
				c0,1.9-1,3.4-3.1,4.5c1.2,0.2,2.2,0.9,3,1.8c0.7,0.9,1.1,2.1,1.1,3.3c0,1.8-0.7,3.6-2.1,4.8c-2.8,2.5-7,2.7-10,0.3
				C1096.9,521.1,1096.1,519.5,1095.9,517.8z"/>
			<path class="st3" d="M1123.3,523.5h-4.1V508c-1.5,1.4-3.3,2.5-5.3,3.1v-3.7c1.3-0.5,2.5-1.1,3.5-2c1.2-0.9,2.1-2.1,2.6-3.4h3.3
				L1123.3,523.5z"/>
			<path class="st3" d="M1129.5,518l4.1-0.4c0.1,0.8,0.4,1.6,1,2.2c0.5,0.5,1.2,0.8,2,0.8c0.8,0,1.7-0.4,2.2-1c0.7-0.9,1-2,0.9-3.2
				c0.1-1.1-0.2-2.1-0.9-3c-0.6-0.7-1.4-1-2.3-1c-1.2,0-2.4,0.6-3.2,1.6l-3.3-0.5l2.1-11.2h10.9v3.9h-7.8l-0.6,3.6
				c2.5-1.3,5.5-0.7,7.5,1.3c1.3,1.4,2,3.3,1.9,5.2c0,1.7-0.5,3.4-1.5,4.7c-1.3,1.9-3.5,2.9-5.8,2.8c-1.8,0.1-3.5-0.5-4.8-1.6
				C1130.5,521.2,1129.7,519.7,1129.5,518z"/>
			<path class="st3" d="M1146.2,518l4.1-0.4c0.1,0.8,0.4,1.6,1,2.2c0.5,0.5,1.2,0.8,2,0.8c0.8,0,1.7-0.4,2.2-1c0.7-0.9,1-2,0.9-3.2
				c0.1-1.1-0.2-2.1-0.9-3c-0.6-0.7-1.4-1-2.3-1c-1.2,0-2.4,0.6-3.2,1.6l-3.3-0.5l2.1-11.2h10.9v3.9h-7.8l-0.6,3.6
				c2.5-1.3,5.5-0.7,7.5,1.3c1.3,1.4,2,3.3,1.9,5.2c0,1.7-0.5,3.4-1.5,4.7c-1.3,1.9-3.5,2.9-5.8,2.8c-1.8,0.1-3.5-0.5-4.8-1.6
				C1147.1,521.2,1146.3,519.7,1146.2,518z"/>
			<path class="st3" d="M1166.3,511.9c-1.9-0.7-3.1-2.5-3-4.4c0-1.5,0.6-3,1.7-4c2.8-2.1,6.7-2.1,9.5,0c1.1,1,1.7,2.5,1.7,4
				c0,0.9-0.3,1.9-0.8,2.7c-0.5,0.8-1.3,1.4-2.2,1.8c1.1,0.4,2,1.1,2.7,2.1c0.6,0.9,1,2,0.9,3.2c0.1,1.8-0.6,3.6-1.9,4.8
				c-1.4,1.3-3.2,1.9-5,1.9c-1.8,0.1-3.5-0.5-4.9-1.5c-1.5-1.2-2.4-3-2.3-5c0-1.1,0.3-2.2,0.9-3.2
				C1164.2,513.2,1165.2,512.4,1166.3,511.9z M1166.8,517c-0.1,1,0.3,1.9,0.9,2.7c0.6,0.6,1.3,1,2.2,1c0.8,0,1.6-0.3,2.1-0.9
				c0.6-0.7,0.9-1.7,0.8-2.6c0-0.9-0.3-1.8-0.8-2.4c-0.6-0.6-1.3-0.9-2.2-0.9c-0.9-0.1-1.7,0.3-2.2,1
				C1167.1,515.4,1166.8,516.2,1166.8,517L1166.8,517z M1167.2,507.8c0,0.7,0.2,1.4,0.7,1.9c0.5,0.5,1.2,0.7,1.9,0.7
				c0.7,0,1.4-0.2,1.9-0.7c0.5-0.5,0.7-1.2,0.7-1.9c0.1-1.3-0.9-2.5-2.2-2.5c-0.1,0-0.2,0-0.3,0c-0.7,0-1.4,0.2-1.9,0.7
				C1167.4,506.4,1167.1,507.1,1167.2,507.8L1167.2,507.8z"/>
			<path class="st3" d="M1183,511.9c-1.9-0.7-3.1-2.5-3-4.4c0-1.5,0.6-3,1.7-4c2.8-2.1,6.7-2.1,9.5,0c1.1,1,1.7,2.5,1.7,4
				c0,0.9-0.3,1.9-0.8,2.7c-0.5,0.8-1.3,1.4-2.2,1.8c1.1,0.4,2,1.1,2.7,2.1c0.6,0.9,1,2,0.9,3.2c0.1,1.8-0.6,3.6-1.9,4.8
				c-1.4,1.3-3.2,1.9-5,1.9c-1.8,0.1-3.5-0.5-4.9-1.5c-1.5-1.2-2.4-3-2.3-5c0-1.1,0.3-2.2,0.9-3.2
				C1180.9,513.2,1181.9,512.4,1183,511.9z M1183.5,517c-0.1,1,0.3,1.9,0.9,2.7c0.6,0.6,1.3,1,2.2,1c0.8,0,1.6-0.3,2.1-0.9
				c0.6-0.7,0.9-1.7,0.8-2.6c0-0.9-0.3-1.8-0.8-2.4c-0.6-0.6-1.3-0.9-2.2-0.9c-0.9-0.1-1.7,0.3-2.2,1
				C1183.7,515.4,1183.5,516.2,1183.5,517L1183.5,517z M1183.9,507.8c0,0.7,0.2,1.4,0.7,1.9c0.5,0.5,1.2,0.7,1.9,0.7
				c0.7,0,1.4-0.2,1.9-0.7c0.5-0.5,0.7-1.2,0.7-1.9c0.1-1.3-0.9-2.5-2.2-2.5c-0.1,0-0.2,0-0.3,0c-0.7,0-1.4,0.2-1.9,0.7
				C1184.1,506.4,1183.8,507.1,1183.9,507.8L1183.9,507.8z"/>
			<path class="st3" d="M1195.2,508h2.3v-1.2c0-1,0.1-2,0.4-2.9c0.3-0.7,0.9-1.2,1.5-1.6c0.9-0.4,1.9-0.6,2.8-0.6
				c1.2,0,2.3,0.2,3.4,0.5l-0.6,2.9c-0.6-0.2-1.3-0.2-1.9-0.2c-0.5,0-0.9,0.1-1.3,0.4c-0.3,0.5-0.5,1-0.4,1.6v1.1h3.1v3.2h-3.1v12.3
				h-4.1v-12.3h-2.3V508z"/>
		</g>
		<path class="st4" d="M947.7,566.7h321.8c3.3,0,6,2.7,6,6v58.2c0,3.3-2.7,6-6,6H947.7c-3.3,0-6-2.7-6-6v-58.2
			C941.7,569.4,944.4,566.7,947.7,566.7z"/>
		<path class="st0" d="M1269.5,637.7H947.7c-3.7,0-6.7-3-6.7-6.7v-58.2c0-3.7,3-6.7,6.7-6.7h321.8c3.7,0,6.7,3,6.7,6.7v58.2
			C1276.2,634.7,1273.2,637.7,1269.5,637.7z M947.7,567.4c-2.9,0-5.3,2.4-5.3,5.3v58.2c0,2.9,2.4,5.3,5.3,5.3h321.8
			c2.9,0,5.3-2.4,5.3-5.3v-58.2c0-2.9-2.4-5.3-5.3-5.3H947.7z"/>
		<g>
			<path class="st3" d="M1027,610.1v3.8h-14.4c0.2-1.5,0.6-2.9,1.4-4.1c1.3-1.9,2.9-3.6,4.6-5.1c1.2-1.1,2.4-2.2,3.4-3.5
				c0.5-0.7,0.8-1.6,0.8-2.5c0.1-0.8-0.2-1.5-0.7-2.1c-1.2-1-2.9-1-4.1,0c-0.6,0.7-0.9,1.6-0.9,2.6l-4.1-0.4
				c0.1-1.9,0.9-3.6,2.3-4.9c1.4-1,3.1-1.5,4.8-1.5c1.8-0.1,3.6,0.5,5,1.7c1.2,1.1,1.9,2.6,1.8,4.3c0,0.9-0.2,1.9-0.5,2.8
				c-0.4,1-1,1.9-1.6,2.7c-0.8,1-1.7,1.9-2.7,2.7c-1.3,1.2-2.1,2-2.5,2.4c-0.3,0.4-0.6,0.7-0.8,1.1L1027,610.1z"/>
			<path class="st3" d="M1043.7,610.1v3.8h-14.4c0.2-1.5,0.6-2.9,1.4-4.1c1.3-1.9,2.9-3.6,4.6-5.1c1.2-1.1,2.4-2.3,3.4-3.5
				c0.5-0.7,0.8-1.6,0.8-2.5c0.1-0.8-0.2-1.5-0.7-2.1c-1.2-1-2.9-1-4.1,0c-0.6,0.7-0.9,1.6-0.9,2.6l-4.1-0.4
				c0.1-1.9,0.9-3.6,2.3-4.9c1.4-1,3.1-1.5,4.8-1.5c1.8-0.1,3.6,0.5,5,1.7c1.2,1.1,1.9,2.6,1.8,4.3c0,0.9-0.2,1.9-0.5,2.8
				c-0.4,1-1,1.9-1.6,2.7c-0.8,1-1.7,1.9-2.7,2.7c-1.3,1.2-2.1,2-2.5,2.4c-0.3,0.4-0.6,0.7-0.8,1.1L1043.7,610.1z"/>
			<path class="st3" d="M1050.4,603.2l-3.7-0.7c0.3-1.3,1.1-2.5,2.2-3.3c1.4-0.8,3-1.2,4.6-1.1c1.4-0.1,2.8,0.1,4.1,0.7
				c0.8,0.3,1.5,0.9,1.9,1.7c0.5,1.2,0.6,2.4,0.5,3.7l0,4.8c0,1,0,2,0.2,3c0.2,0.7,0.4,1.4,0.7,2.1h-4.1c-0.1-0.3-0.2-0.7-0.4-1.2
				c-0.1-0.2-0.1-0.4-0.1-0.5c-0.7,0.6-1.4,1.2-2.3,1.5c-0.8,0.3-1.7,0.5-2.6,0.5c-1.4,0.1-2.7-0.4-3.8-1.3c-0.9-0.8-1.4-2-1.4-3.3
				c0-0.8,0.2-1.6,0.6-2.4c0.4-0.7,1-1.2,1.8-1.6c1-0.5,2.1-0.8,3.3-1c1.4-0.2,2.7-0.6,4-1v-0.4c0.1-0.6-0.2-1.2-0.6-1.7
				c-0.7-0.4-1.4-0.6-2.2-0.5c-0.6,0-1.2,0.1-1.7,0.4C1050.9,602,1050.6,602.6,1050.4,603.2z M1055.9,606.5
				c-0.8,0.3-1.7,0.5-2.5,0.6c-0.8,0.1-1.5,0.4-2.2,0.7c-0.5,0.3-0.8,0.9-0.8,1.5c0,0.6,0.2,1.1,0.6,1.5c0.4,0.4,1,0.7,1.6,0.6
				c0.8,0,1.5-0.3,2.1-0.7c0.5-0.3,0.8-0.8,1-1.4c0.1-0.7,0.2-1.3,0.2-2V606.5z"/>
			<path class="st3" d="M1066.7,602.4c-1.9-0.7-3.1-2.5-3-4.4c0-1.5,0.6-3,1.7-4c2.8-2.1,6.7-2.1,9.5,0c1.1,1,1.7,2.5,1.7,4
				c0,0.9-0.3,1.9-0.8,2.7c-0.5,0.8-1.3,1.4-2.2,1.8c1.1,0.4,2,1.1,2.7,2.1c0.6,0.9,1,2,0.9,3.2c0.1,1.8-0.6,3.6-1.9,4.8
				c-1.4,1.3-3.2,1.9-5,1.9c-1.8,0.1-3.5-0.5-4.9-1.5c-1.5-1.2-2.4-3-2.3-5c0-1.1,0.3-2.2,0.9-3.2
				C1064.6,603.6,1065.6,602.8,1066.7,602.4z M1067.2,607.4c-0.1,1,0.3,1.9,0.9,2.7c0.6,0.6,1.3,1,2.2,1c0.8,0,1.6-0.3,2.1-0.9
				c0.6-0.7,0.9-1.7,0.8-2.6c0-0.9-0.3-1.8-0.8-2.4c-0.6-0.6-1.3-0.9-2.2-0.9c-0.9-0.1-1.7,0.3-2.2,1
				C1067.4,605.8,1067.2,606.6,1067.2,607.4z M1067.5,598.2c0,0.7,0.2,1.4,0.7,1.9c0.5,0.5,1.2,0.7,1.9,0.7c0.7,0,1.4-0.2,1.9-0.7
				c0.5-0.5,0.7-1.2,0.7-1.9c0.1-1.3-0.9-2.5-2.2-2.5c-0.1,0-0.2,0-0.3,0c-0.7,0-1.4,0.2-1.9,0.7
				C1067.8,596.9,1067.5,597.5,1067.5,598.2z"/>
			<path class="st3" d="M1090.4,614h-4.1v-15.5c-1.5,1.4-3.3,2.5-5.3,3.1v-3.7c1.3-0.5,2.5-1.1,3.5-2c1.2-0.9,2.1-2.1,2.6-3.4h3.3
				L1090.4,614z"/>
			<path class="st3" d="M1100.1,602.4c-1.9-0.7-3.1-2.5-3-4.4c0-1.5,0.6-3,1.7-4c2.8-2.1,6.7-2.1,9.5,0c1.1,1,1.7,2.5,1.7,4
				c0,0.9-0.3,1.9-0.8,2.7c-0.5,0.8-1.3,1.4-2.2,1.8c1.1,0.4,2,1.1,2.7,2.1c0.6,0.9,1,2,0.9,3.2c0.1,1.8-0.6,3.6-1.9,4.8
				c-1.4,1.3-3.2,1.9-5,1.9c-1.8,0.1-3.5-0.5-4.9-1.5c-1.5-1.2-2.4-3-2.3-5c0-1.1,0.3-2.2,0.9-3.2
				C1098,603.6,1098.9,602.8,1100.1,602.4z M1100.5,607.4c-0.1,1,0.3,1.9,0.9,2.7c0.6,0.6,1.3,1,2.2,1c0.8,0,1.6-0.3,2.1-0.9
				c0.6-0.7,0.9-1.7,0.8-2.6c0-0.9-0.3-1.8-0.8-2.4c-0.6-0.6-1.3-0.9-2.2-0.9c-0.9-0.1-1.7,0.3-2.2,1
				C1100.8,605.8,1100.5,606.6,1100.5,607.4z M1100.9,598.2c0,0.7,0.2,1.4,0.7,1.9c0.5,0.5,1.2,0.7,1.9,0.7c0.7,0,1.4-0.2,1.9-0.7
				c0.5-0.5,0.7-1.2,0.7-1.9c0.1-1.3-0.9-2.5-2.2-2.5c-0.1,0-0.2,0-0.3,0c-0.7,0-1.4,0.2-1.9,0.7
				C1101.1,596.9,1100.9,597.5,1100.9,598.2z"/>
			<path class="st3" d="M1127.1,610.1v3.8h-14.4c0.2-1.5,0.6-2.9,1.4-4.1c1.3-1.9,2.9-3.6,4.6-5.1c1.2-1.1,2.4-2.2,3.4-3.5
				c0.5-0.7,0.8-1.6,0.8-2.5c0.1-0.8-0.2-1.5-0.7-2.1c-1.2-1-2.9-1-4.1,0c-0.6,0.7-0.9,1.6-0.9,2.6l-4.1-0.4
				c0.1-1.9,0.9-3.6,2.3-4.9c1.4-1,3.1-1.5,4.8-1.5c1.8-0.1,3.6,0.5,5,1.7c1.2,1.1,1.9,2.6,1.8,4.3c0,0.9-0.2,1.9-0.5,2.8
				c-0.4,1-1,1.9-1.6,2.7c-0.8,1-1.7,1.9-2.7,2.7c-1.3,1.2-2.1,2-2.5,2.4c-0.3,0.4-0.6,0.7-0.8,1.1L1127.1,610.1z"/>
			<path class="st3" d="M1143.8,610.1v3.8h-14.4c0.2-1.5,0.6-2.9,1.4-4.1c1.3-1.9,2.9-3.6,4.6-5.1c1.2-1.1,2.4-2.3,3.4-3.5
				c0.5-0.7,0.8-1.6,0.8-2.5c0.1-0.8-0.2-1.5-0.7-2.1c-1.2-1-2.9-1-4.1,0c-0.6,0.7-0.9,1.6-0.9,2.6l-4.1-0.4
				c0.1-1.9,0.9-3.6,2.3-4.9c1.4-1,3.1-1.5,4.8-1.5c1.8-0.1,3.6,0.5,5,1.7c1.2,1.1,1.9,2.6,1.8,4.3c0,0.9-0.2,1.9-0.5,2.8
				c-0.4,1-1,1.9-1.6,2.7c-0.8,1-1.7,1.9-2.7,2.7c-1.3,1.2-2.1,2-2.5,2.4c-0.3,0.4-0.6,0.7-0.8,1.1L1143.8,610.1z"/>
			<path class="st3" d="M1145.7,598.4h2.3v-1.2c0-1,0.1-2,0.4-2.9c0.3-0.7,0.9-1.2,1.5-1.6c0.9-0.4,1.9-0.6,2.8-0.6
				c1.2,0,2.3,0.2,3.4,0.5l-0.6,2.9c-0.6-0.2-1.3-0.2-1.9-0.2c-0.5,0-0.9,0.1-1.3,0.4c-0.3,0.5-0.5,1-0.4,1.6v1.1h3.1v3.2h-3.1V614
				h-4.1v-12.3h-2.3L1145.7,598.4z"/>
			<path class="st3" d="M1156.4,608.3l4-0.5c0.1,0.9,0.4,1.7,1,2.3c1.2,1.1,3,1.1,4.1-0.1c0,0,0,0,0.1-0.1c0.6-0.7,0.9-1.7,0.9-2.6
				c0-0.9-0.2-1.8-0.8-2.5c-0.5-0.6-1.3-0.9-2-0.9c-0.6,0-1.3,0.1-1.9,0.3l0.5-3.4c0.9,0.1,1.8-0.2,2.5-0.7c0.6-0.5,0.9-1.3,0.9-2
				c0.1-1.2-0.8-2.3-2.1-2.4c-0.1,0-0.2,0-0.3,0c-0.7,0-1.3,0.3-1.8,0.7c-0.5,0.6-0.9,1.3-0.9,2.1l-3.8-0.6c0.2-1.1,0.6-2.2,1.2-3.1
				c0.6-0.8,1.3-1.4,2.2-1.8c1-0.5,2.1-0.7,3.2-0.7c1.8-0.1,3.6,0.6,4.9,1.9c1,0.9,1.5,2.2,1.5,3.6c0,1.9-1,3.4-3.1,4.5
				c1.2,0.2,2.2,0.9,3,1.8c0.7,0.9,1.1,2.1,1.1,3.3c0,1.8-0.7,3.6-2.1,4.8c-2.8,2.5-7,2.7-10,0.3
				C1157.4,611.5,1156.6,610,1156.4,608.3z"/>
			<path class="st3" d="M1187.7,603l-4.1,0.7c-0.1-0.7-0.4-1.4-0.9-1.8c-0.5-0.4-1.2-0.6-1.9-0.6c-0.9,0-1.8,0.4-2.5,1.1
				c-0.7,1-1,2.3-0.9,3.6c-0.1,1.4,0.2,2.7,0.9,3.9c0.6,0.8,1.5,1.2,2.5,1.1c0.7,0,1.4-0.2,1.9-0.7c0.6-0.6,1-1.4,1.1-2.3l4,0.7
				c-0.3,1.6-1.1,3.1-2.4,4.2c-1.4,1-3.1,1.5-4.8,1.4c-2,0.1-4-0.7-5.4-2.2c-2.7-3.5-2.7-8.4,0-12c1.4-1.5,3.4-2.2,5.5-2.1
				c1.6-0.1,3.2,0.3,4.5,1.2C1186.5,600.2,1187.3,601.5,1187.7,603z"/>
			<path class="st3" d="M1190,609l4-0.4c0,0.7,0.3,1.3,0.8,1.8c0.4,0.4,1,0.6,1.6,0.6c0.9,0,1.7-0.4,2.2-1.2c0.6-0.8,1-2.4,1.1-4.9
				c-1,1.2-2.4,1.8-3.9,1.8c-1.7,0-3.3-0.7-4.4-2c-1.3-1.4-1.9-3.2-1.8-5.1c-0.1-1.9,0.6-3.8,1.9-5.3c2.8-2.7,7.2-2.7,9.9,0.1
				c0.1,0.1,0.3,0.3,0.4,0.4c1.4,1.7,2.1,4.5,2.1,8.3c0,3.9-0.7,6.8-2.2,8.5c-1.4,1.7-3.5,2.7-5.7,2.6c-1.5,0.1-2.9-0.4-4.1-1.3
				C1190.9,612,1190.2,610.5,1190,609z M1199.3,600c0.1-1.1-0.3-2.2-0.9-3.1c-0.5-0.7-1.3-1.1-2.1-1.1c-0.7,0-1.4,0.3-1.9,0.9
				c-0.6,0.9-0.8,1.9-0.8,3c-0.1,1.1,0.2,2.2,0.8,3.1c0.9,1.1,2.6,1.3,3.7,0.4c0.1-0.1,0.3-0.2,0.4-0.4
				C1199.1,602,1199.4,601,1199.3,600z"/>
		</g>
		<path class="st4" d="M947.7,659.9h321.8c3.3,0,6,2.7,6,6v58.2c0,3.3-2.7,6-6,6H947.7c-3.3,0-6-2.7-6-6v-58.2
			C941.7,662.6,944.4,659.9,947.7,659.9z"/>
		<path class="st0" d="M1269.5,730.9H947.7c-3.7,0-6.7-3-6.7-6.7v-58.2c0-3.7,3-6.7,6.7-6.7h321.8c3.7,0,6.7,3,6.7,6.7v58.2
			C1276.2,727.8,1273.2,730.9,1269.5,730.9z M947.7,660.6c-2.9,0-5.3,2.4-5.3,5.3v58.2c0,2.9,2.4,5.3,5.3,5.3h321.8
			c2.9,0,5.3-2.4,5.3-5.3v-58.2c0-2.9-2.4-5.3-5.3-5.3L947.7,660.6z"/>
		<g>
			<path class="st3" d="M1011.4,691.6h2.3v-1.2c0-1,0.1-2,0.4-2.9c0.3-0.7,0.9-1.2,1.5-1.6c0.9-0.4,1.9-0.6,2.8-0.6
				c1.2,0,2.3,0.2,3.4,0.5l-0.6,2.9c-0.6-0.2-1.3-0.2-1.9-0.2c-0.5,0-0.9,0.1-1.3,0.4c-0.3,0.5-0.5,1-0.4,1.6v1.1h3.1v3.2h-3.1v12.3
				h-4.1v-12.3h-2.3L1011.4,691.6z"/>
			<path class="st3" d="M1022.3,701.6l4.1-0.4c0.1,0.8,0.4,1.6,1,2.2c0.5,0.5,1.2,0.8,2,0.8c0.8,0,1.7-0.4,2.2-1
				c0.7-0.9,1-2,0.9-3.2c0.1-1.1-0.2-2.1-0.9-3c-0.6-0.7-1.4-1-2.3-1c-1.2,0-2.4,0.6-3.2,1.6l-3.3-0.5l2.1-11.2h10.9v3.9h-7.8
				l-0.6,3.6c2.5-1.3,5.5-0.7,7.5,1.3c1.3,1.4,2,3.3,1.9,5.2c0,1.7-0.5,3.4-1.5,4.7c-1.3,1.9-3.5,2.9-5.8,2.8
				c-1.8,0.1-3.5-0.5-4.8-1.6C1023.3,704.8,1022.5,703.3,1022.3,701.6z"/>
			<path class="st3" d="M1052.9,703.3v3.8h-14.4c0.2-1.5,0.6-2.9,1.4-4.1c1.3-1.9,2.9-3.6,4.6-5.1c1.2-1.1,2.4-2.2,3.4-3.5
				c0.5-0.7,0.8-1.6,0.8-2.5c0.1-0.8-0.2-1.5-0.7-2.1c-1.2-1-2.9-1-4.1,0c-0.6,0.7-0.9,1.6-0.9,2.6l-4.1-0.4
				c0.1-1.9,0.9-3.6,2.3-4.9c1.4-1,3.1-1.5,4.8-1.5c1.8-0.1,3.6,0.5,5,1.7c1.2,1.1,1.9,2.6,1.8,4.3c0,0.9-0.2,1.9-0.5,2.8
				c-0.4,1-1,1.9-1.6,2.7c-0.8,1-1.7,1.9-2.7,2.7c-1.3,1.2-2.1,2-2.5,2.4c-0.3,0.4-0.6,0.7-0.8,1.1L1052.9,703.3z"/>
			<path class="st3" d="M1055.5,701.4l4-0.5c0.1,0.9,0.4,1.7,1,2.3c1.2,1.1,3,1.1,4.1-0.1c0,0,0,0,0.1-0.1c0.6-0.7,0.9-1.7,0.9-2.6
				c0-0.9-0.3-1.8-0.8-2.5c-0.5-0.6-1.3-0.9-2-0.9c-0.6,0-1.3,0.1-1.9,0.3l0.5-3.4c0.9,0.1,1.8-0.2,2.5-0.7c0.6-0.5,0.9-1.3,0.9-2
				c0.1-1.2-0.8-2.3-2.1-2.4c-0.1,0-0.2,0-0.3,0c-0.7,0-1.3,0.3-1.8,0.7c-0.5,0.6-0.9,1.3-0.9,2.1l-3.8-0.6c0.2-1.1,0.6-2.2,1.2-3.1
				c0.6-0.8,1.3-1.4,2.2-1.8c1-0.5,2.1-0.7,3.2-0.7c1.8-0.1,3.6,0.6,4.9,1.9c1,0.9,1.5,2.2,1.5,3.6c0,1.9-1,3.4-3.1,4.5
				c1.2,0.2,2.2,0.9,3,1.8c0.7,0.9,1.1,2.1,1.1,3.3c0,1.8-0.7,3.6-2.1,4.8c-2.8,2.5-7,2.7-10,0.3
				C1056.4,704.7,1055.6,703.1,1055.5,701.4z"/>
			<path class="st3" d="M1079.3,685.6c1.9-0.1,3.7,0.7,4.9,2.2c1.4,1.8,2.1,4.7,2.1,8.7c0,4.1-0.7,7-2.1,8.8c-1.2,1.5-3,2.3-4.9,2.2
				c-2,0.1-3.9-0.8-5.1-2.4c-1.3-1.6-1.9-4.5-1.9-8.6c0-4,0.7-7,2.1-8.7C1075.6,686.3,1077.4,685.5,1079.3,685.6z M1079.3,689
				c-0.5,0-1,0.2-1.3,0.5c-0.5,0.5-0.8,1.1-0.9,1.7c-0.6,3.5-0.6,7.1,0,10.6c0.1,0.7,0.5,1.4,1,1.9c0.8,0.6,1.9,0.6,2.7,0
				c0.5-0.5,0.8-1.1,0.9-1.7c0.6-3.5,0.6-7.1,0-10.6c-0.1-0.7-0.5-1.4-1-1.9C1080.2,689.2,1079.8,689,1079.3,689L1079.3,689z"/>
			<path class="st3" d="M1096,685.6c1.9-0.1,3.7,0.7,4.9,2.2c1.4,1.8,2.1,4.7,2.1,8.7c0,4.1-0.7,7-2.1,8.8c-1.2,1.5-3,2.3-4.9,2.2
				c-2,0.1-3.9-0.8-5.1-2.4c-1.3-1.6-1.9-4.5-1.9-8.6c0-4,0.7-7,2.1-8.7C1092.3,686.3,1094.1,685.5,1096,685.6z M1096,689
				c-0.5,0-1,0.2-1.3,0.5c-0.5,0.5-0.8,1.1-0.9,1.7c-0.6,3.5-0.6,7.1,0,10.6c0.1,0.7,0.5,1.4,1,1.9c0.8,0.6,1.9,0.6,2.7,0
				c0.5-0.5,0.8-1.1,0.9-1.7c0.6-3.5,0.6-7.1,0-10.6c-0.1-0.7-0.5-1.4-1-1.9C1096.9,689.2,1096.5,689,1096,689L1096,689z"/>
			<path class="st3" d="M1115.6,702.2l4.1,0.7c-0.4,1.4-1.3,2.6-2.5,3.4c-1.3,0.8-2.8,1.2-4.3,1.2c-2.7,0-4.7-0.9-6-2.7
				c-1.1-1.6-1.6-3.5-1.5-5.4c-0.1-2.2,0.6-4.4,2-6.1c1.3-1.4,3.2-2.2,5.1-2.2c2.1-0.1,4.1,0.7,5.5,2.3c1.3,1.5,2,3.9,1.9,7h-10.3
				c0,1,0.3,2.1,1,2.8c0.6,0.7,1.5,1,2.4,1c0.6,0,1.2-0.2,1.6-0.5C1115.1,703.4,1115.4,702.8,1115.6,702.2z M1115.8,698
				c0-1-0.3-2-0.9-2.7c-1.1-1.2-3-1.2-4.2-0.1c-0.1,0.1-0.1,0.1-0.2,0.2c-0.6,0.7-0.9,1.7-0.9,2.7H1115.8z"/>
			<path class="st3" d="M1123.1,707.1v-21.5h4.1v7.7c1.1-1.4,2.8-2.2,4.5-2.2c1.8,0,3.5,0.7,4.7,2.1c1.3,1.7,2,3.8,1.9,5.9
				c0.1,2.2-0.5,4.4-1.9,6.1c-1.1,1.4-2.8,2.2-4.6,2.2c-0.9,0-1.8-0.2-2.6-0.7c-0.9-0.5-1.7-1.1-2.2-2v2.3L1123.1,707.1z
				 M1127.2,699c-0.1,1.2,0.2,2.5,0.8,3.6c0.6,1,1.7,1.6,2.8,1.6c0.9,0,1.8-0.4,2.3-1.2c0.7-1.1,1.1-2.4,1-3.7
				c0.1-1.4-0.2-2.7-1-3.8c-0.6-0.8-1.5-1.2-2.5-1.2c-1,0-1.9,0.4-2.5,1.1C1127.4,696.5,1127.1,697.8,1127.2,699z"/>
			<path class="st3" d="M1147.7,685.6c1.9-0.1,3.7,0.7,4.9,2.2c1.4,1.8,2.1,4.7,2.1,8.7c0,4.1-0.7,7-2.1,8.8c-1.2,1.5-3,2.3-4.9,2.2
				c-2,0.1-3.9-0.8-5.1-2.4c-1.3-1.6-1.9-4.5-1.9-8.6c0-4,0.7-7,2.1-8.7C1144,686.3,1145.8,685.5,1147.7,685.6z M1147.7,689
				c-0.5,0-1,0.2-1.3,0.5c-0.5,0.5-0.8,1.1-0.9,1.7c-0.6,3.5-0.6,7.1,0,10.6c0.1,0.7,0.5,1.4,1,1.9c0.8,0.6,1.9,0.6,2.7,0
				c0.5-0.5,0.8-1.1,0.9-1.7c0.6-3.5,0.6-7.1,0-10.6c-0.1-0.7-0.5-1.4-1-1.9C1148.6,689.2,1148.1,689,1147.7,689L1147.7,689z"/>
			<path class="st3" d="M1160.9,695.6c-1.9-0.7-3.1-2.5-3-4.4c0-1.5,0.6-3,1.7-4c2.8-2.1,6.7-2.1,9.5,0c1.1,1,1.7,2.5,1.7,4
				c0,0.9-0.3,1.9-0.8,2.7c-0.5,0.8-1.3,1.4-2.2,1.8c1.1,0.4,2,1.1,2.7,2.1c0.6,0.9,1,2,0.9,3.2c0.1,1.8-0.6,3.6-1.9,4.8
				c-1.4,1.3-3.2,1.9-5,1.9c-1.8,0.1-3.5-0.5-4.9-1.5c-1.5-1.2-2.4-3-2.3-5c0-1.1,0.3-2.2,0.9-3.2
				C1158.8,696.8,1159.8,696,1160.9,695.6z M1161.4,700.6c-0.1,1,0.3,1.9,0.9,2.7c0.5,0.6,1.3,1,2.2,1c0.8,0,1.6-0.3,2.1-0.9
				c0.6-0.7,0.9-1.7,0.8-2.6c0-0.9-0.3-1.8-0.8-2.4c-0.6-0.6-1.3-0.9-2.2-0.9c-0.9-0.1-1.7,0.3-2.2,1
				C1161.6,699,1161.4,699.8,1161.4,700.6z M1161.8,691.4c0,0.7,0.2,1.4,0.7,1.9c0.5,0.5,1.2,0.7,1.9,0.7c0.7,0,1.4-0.2,1.9-0.7
				c0.5-0.5,0.7-1.2,0.7-1.9c0.1-1.3-0.9-2.5-2.2-2.5c-0.1,0-0.2,0-0.3,0c-0.7,0-1.4,0.2-1.9,0.7
				C1162,690,1161.7,690.7,1161.8,691.4L1161.8,691.4z"/>
			<path class="st3" d="M1181,685.6c1.9-0.1,3.7,0.7,4.9,2.2c1.4,1.8,2.1,4.7,2.1,8.7c0,4.1-0.7,7-2.1,8.8c-1.2,1.5-3,2.3-4.9,2.2
				c-2,0.1-3.9-0.8-5.1-2.4c-1.3-1.6-1.9-4.5-1.9-8.6c0-4,0.7-7,2.1-8.7C1177.3,686.3,1179.2,685.5,1181,685.6z M1181,689
				c-0.5,0-1,0.2-1.3,0.5c-0.5,0.5-0.8,1.1-0.9,1.7c-0.6,3.5-0.6,7.1,0,10.6c0.1,0.7,0.5,1.4,1,1.9c0.8,0.6,1.9,0.6,2.7,0
				c0.5-0.5,0.8-1.1,0.9-1.7c0.6-3.5,0.6-7.1,0-10.6c-0.1-0.7-0.5-1.4-1-1.9C1182,689.2,1181.5,689,1181,689L1181,689z"/>
			<path class="st3" d="M1190.6,701.4l4-0.5c0.1,0.9,0.4,1.7,1,2.3c1.2,1.1,3,1.1,4.1-0.1c0,0,0,0,0.1-0.1c0.6-0.7,0.9-1.7,0.9-2.6
				c0-0.9-0.3-1.8-0.8-2.5c-0.5-0.6-1.3-0.9-2-0.9c-0.6,0-1.3,0.1-1.9,0.3l0.5-3.4c0.9,0.1,1.8-0.2,2.5-0.7c0.6-0.5,0.9-1.3,0.9-2
				c0.1-1.2-0.8-2.3-2.1-2.4c-0.1,0-0.2,0-0.3,0c-0.7,0-1.3,0.3-1.8,0.7c-0.5,0.6-0.9,1.3-0.9,2.1l-3.8-0.6c0.2-1.1,0.6-2.2,1.2-3.1
				c0.6-0.8,1.3-1.4,2.2-1.8c1-0.5,2.1-0.7,3.2-0.7c1.8-0.1,3.6,0.6,4.9,1.9c1,0.9,1.5,2.2,1.5,3.6c0,1.9-1,3.4-3.1,4.5
				c1.2,0.2,2.2,0.9,3,1.8c0.7,0.9,1.1,2.1,1.1,3.3c0,1.8-0.7,3.6-2.1,4.8c-2.8,2.5-7,2.7-10,0.3
				C1191.6,704.7,1190.8,703.1,1190.6,701.4z"/>
		</g>
		<g class="st1">
			<path class="st2" d="M1624,501.4h506.6c2.9,0,5.2,2.3,5.2,5.2v133.7c0,2.9-2.3,5.2-5.2,5.2H1624c-2.9,0-5.2-2.3-5.2-5.2V506.7
				C1618.7,503.8,1621.1,501.4,1624,501.4z"/>
		</g>
		<path class="st4" d="M1716.4,540.1h321.8c3.3,0,6,2.7,6,6v58.2c0,3.3-2.7,6-6,6h-321.8c-3.3,0-6-2.7-6-6v-58.2
			C1710.3,542.8,1713,540.1,1716.4,540.1z"/>
		<path class="st0" d="M2038.2,611.1h-321.8c-3.7,0-6.7-3-6.7-6.7v-58.2c0-3.7,3-6.7,6.7-6.7h321.8c3.7,0,6.7,3,6.7,6.7v58.2
			C2044.9,608.1,2041.9,611.1,2038.2,611.1z M1716.4,540.8c-2.9,0-5.3,2.4-5.3,5.3v58.2c0,2.9,2.4,5.3,5.3,5.3h321.8
			c2.9,0,5.3-2.4,5.3-5.3v-58.2c0-2.9-2.4-5.3-5.3-5.3L1716.4,540.8z"/>
		<g>
			<path class="st3" d="M1790.7,571.2l-4,0.4c0-0.7-0.3-1.3-0.8-1.8c-0.4-0.4-1-0.6-1.6-0.6c-0.9,0-1.7,0.4-2.2,1.2
				c-0.6,0.8-1,2.4-1.1,4.9c0.9-1.2,2.3-1.8,3.8-1.8c1.7,0,3.3,0.7,4.4,2c1.3,1.4,1.9,3.2,1.8,5.1c0.1,2-0.6,3.9-1.9,5.3
				c-2.8,2.7-7.2,2.6-10-0.1c-0.1-0.1-0.2-0.3-0.4-0.4c-1.4-1.7-2.1-4.4-2.1-8.3c0-3.9,0.7-6.8,2.2-8.5c1.4-1.7,3.5-2.7,5.7-2.6
				c1.5-0.1,2.9,0.4,4.1,1.4C1789.8,568.2,1790.6,569.6,1790.7,571.2z M1781.4,580.2c-0.1,1.1,0.3,2.2,0.9,3.1
				c0.5,0.7,1.3,1.1,2.1,1.1c0.7,0,1.4-0.3,1.9-0.9c0.6-0.9,0.9-1.9,0.8-2.9c0.1-1.1-0.2-2.2-0.8-3.1c-0.9-1.1-2.6-1.3-3.7-0.4
				c-0.1,0.1-0.2,0.2-0.3,0.3C1781.6,578.2,1781.3,579.2,1781.4,580.2L1781.4,580.2z"/>
			<path class="st3" d="M1793.3,581.7l4-0.5c0.1,0.9,0.4,1.7,1,2.3c1.2,1.1,3,1.1,4.1-0.1c0,0,0,0,0.1-0.1c0.6-0.7,0.9-1.7,0.9-2.6
				c0-0.9-0.3-1.8-0.8-2.5c-0.5-0.6-1.3-0.9-2-0.9c-0.6,0-1.3,0.1-1.9,0.3l0.5-3.4c0.9,0.1,1.8-0.2,2.5-0.7c0.6-0.5,0.9-1.3,0.9-2
				c0.1-1.2-0.8-2.3-2.1-2.4c-0.1,0-0.2,0-0.3,0c-0.7,0-1.3,0.3-1.8,0.7c-0.5,0.6-0.9,1.3-0.9,2.1l-3.8-0.6c0.2-1.1,0.6-2.2,1.2-3.1
				c0.6-0.8,1.3-1.4,2.2-1.8c1-0.5,2.1-0.7,3.2-0.7c1.8-0.1,3.6,0.6,4.9,1.9c1,0.9,1.5,2.2,1.5,3.6c0,1.9-1,3.4-3.1,4.5
				c1.2,0.2,2.2,0.9,3,1.8c0.7,0.9,1.1,2.1,1.1,3.3c0,1.8-0.7,3.6-2.1,4.8c-2.8,2.5-7,2.7-10,0.3
				C1794.3,585,1793.5,583.4,1793.3,581.7z"/>
			<path class="st3" d="M1810.3,582.4l4-0.4c0,0.7,0.3,1.3,0.8,1.8c0.4,0.4,1,0.6,1.6,0.6c0.9,0,1.7-0.4,2.2-1.2
				c0.6-0.8,1-2.4,1.1-4.9c-1,1.2-2.4,1.8-3.9,1.8c-1.7,0-3.3-0.7-4.4-2c-1.3-1.4-1.9-3.2-1.8-5.1c-0.1-1.9,0.6-3.8,1.9-5.3
				c2.8-2.7,7.2-2.7,9.9,0.1c0.1,0.1,0.3,0.3,0.4,0.4c1.4,1.7,2.1,4.5,2.1,8.3c0,3.9-0.7,6.8-2.2,8.5c-1.4,1.7-3.5,2.7-5.7,2.6
				c-1.5,0.1-2.9-0.4-4.1-1.3C1811.1,585.4,1810.4,584,1810.3,582.4z M1819.6,573.4c0.1-1.1-0.3-2.2-0.9-3.1
				c-0.5-0.7-1.3-1.1-2.1-1.1c-0.7,0-1.4,0.3-1.9,0.9c-0.6,0.9-0.8,1.9-0.8,3c-0.1,1.1,0.2,2.2,0.8,3.1c0.5,0.6,1.3,1,2.1,1
				c0.8,0,1.5-0.3,2-0.9C1819.4,575.4,1819.6,574.4,1819.6,573.4z"/>
			<path class="st3" d="M1827.6,587.4v-21.5h4.1v7.7c1.1-1.4,2.8-2.2,4.5-2.2c1.8,0,3.5,0.7,4.7,2.1c1.3,1.7,2,3.8,1.9,5.9
				c0.1,2.2-0.5,4.4-1.9,6.1c-1.1,1.4-2.8,2.2-4.6,2.2c-0.9,0-1.8-0.2-2.6-0.7c-0.9-0.5-1.7-1.1-2.2-2v2.3L1827.6,587.4z
				 M1831.6,579.3c-0.1,1.2,0.2,2.5,0.8,3.6c0.6,1,1.7,1.6,2.8,1.6c0.9,0,1.8-0.4,2.3-1.2c0.7-1.1,1.1-2.4,1-3.7
				c0.1-1.4-0.2-2.7-1-3.8c-0.6-0.8-1.5-1.2-2.5-1.2c-1,0-1.9,0.4-2.5,1.1C1831.9,576.8,1831.6,578,1831.6,579.3L1831.6,579.3z"/>
			<path class="st3" d="M1853.3,587.4v-4.3h-8.8v-3.6l9.3-13.6h3.5v13.6h2.7v3.6h-2.7v4.3H1853.3z M1853.3,579.4v-7.3l-4.9,7.3
				H1853.3z"/>
			<path class="st3" d="M1876.3,576.4l-4.1,0.7c-0.1-0.7-0.4-1.4-0.9-1.8c-0.5-0.4-1.2-0.6-1.9-0.6c-0.9,0-1.8,0.4-2.5,1.1
				c-0.7,1-1,2.3-0.9,3.6c-0.1,1.4,0.2,2.7,0.9,3.9c0.6,0.8,1.5,1.2,2.5,1.1c0.7,0,1.4-0.2,1.9-0.7c0.6-0.6,1-1.4,1.1-2.3l4,0.7
				c-0.3,1.6-1.1,3.1-2.4,4.2c-1.4,1-3.1,1.5-4.8,1.4c-2,0.1-4-0.7-5.4-2.2c-2.7-3.5-2.7-8.4,0-12c1.4-1.5,3.4-2.2,5.5-2.1
				c1.6-0.1,3.2,0.3,4.5,1.2C1875.1,573.6,1875.9,575,1876.3,576.4z"/>
			<path class="st3" d="M1893.7,587.4h-3.8v-2.3c-0.6,0.8-1.3,1.5-2.2,2c-0.8,0.4-1.7,0.6-2.6,0.7c-1.8,0-3.5-0.8-4.6-2.2
				c-1.4-1.7-2-3.9-1.9-6c-0.2-2.2,0.5-4.3,1.9-6c1.2-1.3,2.9-2.1,4.7-2.1c1.8,0,3.4,0.8,4.5,2.2v-7.7h4.1L1893.7,587.4z
				 M1882.7,579.3c-0.1,1.2,0.1,2.5,0.7,3.6c0.6,1,1.6,1.6,2.8,1.6c1,0,1.8-0.4,2.4-1.2c0.7-1.1,1.1-2.3,1-3.6
				c0.1-1.4-0.2-2.7-1-3.9c-1.1-1.4-3.1-1.6-4.5-0.5c-0.2,0.1-0.3,0.3-0.5,0.5C1883,576.8,1882.6,578,1882.7,579.3L1882.7,579.3z"/>
			<path class="st3" d="M1907.4,587.4h-4.1v-15.5c-1.5,1.4-3.3,2.5-5.3,3.1v-3.7c1.3-0.5,2.5-1.1,3.5-2c1.2-0.9,2.1-2.1,2.6-3.4h3.3
				L1907.4,587.4z"/>
			<path class="st3" d="M1913.6,582.4l4-0.4c0,0.7,0.3,1.3,0.8,1.8c0.4,0.4,1,0.6,1.6,0.6c0.9,0,1.7-0.4,2.2-1.2
				c0.6-0.8,1-2.4,1.1-4.9c-1,1.2-2.4,1.8-3.9,1.8c-1.7,0-3.3-0.7-4.4-2c-1.3-1.4-1.9-3.2-1.8-5.1c-0.1-1.9,0.6-3.8,1.9-5.3
				c2.8-2.7,7.2-2.7,9.9,0.1c0.1,0.1,0.3,0.3,0.4,0.4c1.4,1.7,2.1,4.5,2.1,8.3c0,3.9-0.7,6.8-2.2,8.5c-1.4,1.7-3.5,2.7-5.7,2.6
				c-1.5,0.1-2.9-0.4-4.1-1.3C1914.5,585.4,1913.8,584,1913.6,582.4z M1923,573.4c0.1-1.1-0.3-2.2-0.9-3.1c-0.5-0.7-1.3-1.1-2.1-1.1
				c-0.7,0-1.4,0.3-1.9,0.9c-0.6,0.9-0.8,1.9-0.8,3c-0.1,1.1,0.2,2.2,0.8,3.1c0.5,0.6,1.3,1,2.1,1c0.8,0,1.5-0.3,2-0.9
				C1922.7,575.4,1923,574.4,1923,573.4z"/>
			<path class="st3" d="M1937.2,565.8c1.9-0.1,3.7,0.7,4.9,2.2c1.4,1.8,2.1,4.7,2.1,8.7c0,4.1-0.7,7-2.1,8.8c-1.2,1.5-3,2.3-4.9,2.2
				c-2,0.1-3.9-0.8-5.1-2.4c-1.3-1.6-1.9-4.5-1.9-8.6c0-4,0.7-7,2.1-8.7C1933.5,566.6,1935.3,565.7,1937.2,565.8z M1937.2,569.2
				c-0.5,0-1,0.2-1.3,0.5c-0.5,0.5-0.8,1.1-0.9,1.7c-0.6,3.5-0.6,7.1,0,10.6c0.1,0.7,0.5,1.4,1,1.9c0.8,0.6,1.9,0.6,2.7,0
				c0.5-0.5,0.8-1.1,0.9-1.7c0.6-3.5,0.6-7.1,0-10.6c-0.1-0.7-0.5-1.4-1-1.9C1938.2,569.4,1937.7,569.2,1937.2,569.2z"/>
			<path class="st3" d="M1953.9,565.8c1.9-0.1,3.7,0.7,4.9,2.2c1.4,1.8,2.1,4.7,2.1,8.7c0,4.1-0.7,7-2.1,8.8c-1.2,1.5-3,2.3-4.9,2.2
				c-2,0.1-3.9-0.8-5.1-2.4c-1.3-1.6-1.9-4.5-1.9-8.6c0-4,0.7-7,2.1-8.7C1950.2,566.6,1952,565.7,1953.9,565.8z M1953.9,569.2
				c-0.5,0-1,0.2-1.3,0.5c-0.5,0.5-0.8,1.1-0.9,1.7c-0.6,3.5-0.6,7.1,0,10.6c0.1,0.7,0.5,1.4,1,1.9c0.8,0.6,1.9,0.6,2.7,0
				c0.5-0.5,0.8-1.1,0.9-1.7c0.6-3.5,0.6-7.1,0-10.6c-0.1-0.7-0.5-1.4-1-1.9C1954.8,569.4,1954.4,569.2,1953.9,569.2z"/>
			<path class="st3" d="M1971.7,587.4v-4.3h-8.8v-3.6l9.3-13.6h3.5v13.6h2.7v3.6h-2.7v4.3H1971.7z M1971.7,579.4v-7.3l-4.9,7.3
				H1971.7z"/>
		</g>
		<path class="st3" d="M969.8,19.1l0.4,2.3c-0.7,0.1-1.3,0.2-2,0.2c-0.8,0-1.5-0.1-2.2-0.5c-0.5-0.3-0.9-0.7-1.1-1.2
			c-0.3-1-0.4-2.1-0.3-3.1V8h-1.9V5.9h1.9V2.1l2.6-1.6v5.4h2.7V8h-2.7v9.1c0,0.5,0,1,0.1,1.4c0.1,0.2,0.3,0.4,0.5,0.5
			c0.3,0.1,0.6,0.2,0.9,0.2C969,19.2,969.4,19.2,969.8,19.1z"/>
		<path class="st3" d="M972.3,21.5V5.9h2.4v2.4c0.4-0.8,1-1.6,1.7-2.2c0.5-0.3,1.1-0.5,1.7-0.5c1,0,1.9,0.3,2.7,0.8l-0.9,2.4
			c-0.6-0.4-1.2-0.6-1.9-0.6c-0.6,0-1.1,0.2-1.6,0.5c-0.5,0.4-0.8,0.9-1,1.4c-0.3,1-0.4,2-0.4,3.1v8.1L972.3,21.5z"/>
		<path class="st3" d="M992.5,19.6c-0.8,0.7-1.8,1.3-2.8,1.8c-0.9,0.3-1.9,0.5-2.9,0.5c-1.4,0.1-2.8-0.4-3.9-1.3
			c-0.9-0.8-1.4-2-1.4-3.2c0-0.7,0.2-1.4,0.5-2.1c0.3-0.6,0.8-1.1,1.4-1.5c0.6-0.4,1.2-0.7,1.9-0.9c0.8-0.2,1.6-0.3,2.3-0.4
			c1.6-0.1,3.2-0.5,4.7-0.9c0-0.4,0-0.6,0-0.7c0.1-0.8-0.2-1.7-0.7-2.3c-0.9-0.7-1.9-1-3-0.9c-1-0.1-1.9,0.2-2.7,0.6
			c-0.7,0.6-1.1,1.4-1.3,2.3l-2.6-0.4c0.2-1,0.6-1.9,1.2-2.7c0.6-0.7,1.4-1.3,2.3-1.6c1.1-0.4,2.3-0.6,3.5-0.5
			c1.1,0,2.2,0.1,3.2,0.5c0.7,0.2,1.3,0.6,1.8,1.2c0.4,0.5,0.7,1.1,0.8,1.8c0.1,0.8,0.2,1.6,0.1,2.4V15c0,1.6,0,3.1,0.2,4.7
			c0.1,0.7,0.3,1.3,0.7,1.9H993C992.7,20.9,992.5,20.2,992.5,19.6z M992.3,13.7c-1.4,0.5-2.8,0.8-4.3,1c-0.8,0.1-1.6,0.3-2.3,0.5
			c-0.4,0.2-0.8,0.5-1,0.9c-0.6,1-0.4,2.3,0.4,3c0.7,0.5,1.5,0.8,2.3,0.7c0.9,0,1.9-0.2,2.7-0.7c0.8-0.4,1.4-1,1.7-1.8
			c0.3-0.8,0.5-1.7,0.4-2.6L992.3,13.7z"/>
		<path class="st3" d="M999,3V0h2.6v3H999z M999,21.5V5.9h2.6v15.6H999z"/>
		<path class="st3" d="M1005.7,21.5V5.9h2.4v2.2c1.1-1.7,3-2.7,5-2.6c0.9,0,1.8,0.2,2.6,0.5c0.7,0.3,1.3,0.7,1.8,1.3
			c0.4,0.6,0.7,1.2,0.8,1.9c0.1,0.8,0.2,1.7,0.1,2.6v9.6h-2.6V12c0-0.8-0.1-1.6-0.3-2.4c-0.2-0.5-0.6-1-1.1-1.3
			c-0.6-0.3-1.2-0.5-1.8-0.5c-1.1,0-2.1,0.4-2.9,1.1c-0.8,0.7-1.2,2.1-1.2,4.1v8.5L1005.7,21.5z"/>
		<path class="st3" d="M1022.4,3V0h2.6v3H1022.4z M1022.4,21.5V5.9h2.6v15.6H1022.4z"/>
		<path class="st3" d="M1029,21.5V5.9h2.4v2.2c1.1-1.7,3-2.7,5-2.6c0.9,0,1.8,0.2,2.6,0.5c0.7,0.3,1.3,0.7,1.8,1.3
			c0.4,0.6,0.7,1.2,0.8,1.9c0.1,0.8,0.2,1.7,0.1,2.6v9.6h-2.6V12c0-0.8-0.1-1.6-0.3-2.4c-0.2-0.5-0.6-1-1.1-1.3
			c-0.6-0.3-1.2-0.5-1.8-0.5c-1.1,0-2.1,0.4-2.9,1.1c-0.8,0.7-1.2,2.1-1.2,4.1v8.5L1029,21.5z"/>
		<path class="st3" d="M1045.2,22.8l2.6,0.4c0,0.7,0.4,1.3,0.9,1.7c0.8,0.5,1.7,0.8,2.7,0.7c1,0.1,2-0.2,2.8-0.7
			c0.7-0.5,1.2-1.2,1.3-2.1c0.2-1.1,0.2-2.3,0.2-3.4c-1,1.3-2.6,2.1-4.3,2c-1.9,0.1-3.8-0.8-5-2.3c-1.2-1.6-1.8-3.6-1.8-5.6
			c0-1.4,0.3-2.8,0.8-4.1c0.5-1.2,1.3-2.2,2.3-2.9c1.1-0.7,2.3-1.1,3.6-1c1.8,0,3.5,0.8,4.5,2.2V5.9h2.4v13.4
			c0.1,1.7-0.1,3.5-0.7,5.1c-0.5,1-1.3,1.9-2.3,2.4c-1.2,0.6-2.6,0.9-3.9,0.9c-1.6,0.1-3.2-0.4-4.5-1.3
			C1045.7,25.6,1045.1,24.2,1045.2,22.8z M1047.4,13.4c-0.1,1.6,0.3,3.2,1.2,4.5c1.4,1.7,4,1.9,5.7,0.4c0.2-0.1,0.3-0.3,0.4-0.4
			c0.9-1.3,1.4-2.8,1.2-4.4c0.1-1.5-0.3-3.1-1.3-4.3c-0.7-0.9-1.9-1.5-3.1-1.4c-1.2,0-2.3,0.5-3,1.4
			C1047.7,10.4,1047.3,11.9,1047.4,13.4z"/>
		<path class="st3" d="M1061.3,16.8l2.6-0.4c0.1,0.9,0.5,1.8,1.2,2.4c0.8,0.6,1.8,0.9,2.8,0.8c1,0.1,1.9-0.2,2.7-0.7
			c0.5-0.4,0.9-1.1,0.9-1.7c0-0.6-0.3-1.1-0.8-1.4c-0.9-0.4-1.8-0.7-2.7-0.9c-1.4-0.3-2.7-0.7-4-1.3c-1.4-0.6-2.3-2-2.3-3.6
			c0-0.7,0.2-1.3,0.5-1.9c0.3-0.6,0.8-1.1,1.3-1.5c0.5-0.4,1.1-0.6,1.7-0.8c0.7-0.2,1.5-0.3,2.3-0.3c1.1,0,2.2,0.2,3.2,0.5
			c0.8,0.3,1.5,0.8,2,1.4c0.5,0.7,0.8,1.5,0.9,2.4l-2.6,0.4c-0.1-0.7-0.4-1.4-1-1.9c-0.7-0.5-1.5-0.7-2.4-0.7
			c-0.9-0.1-1.8,0.1-2.6,0.6c-0.5,0.3-0.8,0.8-0.8,1.4c0,0.3,0.1,0.7,0.3,0.9c0.3,0.3,0.6,0.6,1,0.7c0.3,0.1,1,0.3,2.3,0.7
			c1.3,0.3,2.6,0.7,3.9,1.2c0.7,0.3,1.3,0.8,1.7,1.4c0.4,0.7,0.7,1.5,0.6,2.3c0,0.9-0.3,1.8-0.8,2.5c-0.5,0.8-1.3,1.4-2.2,1.8
			c-1,0.4-2.2,0.7-3.3,0.6c-1.6,0.1-3.3-0.3-4.6-1.3C1062.2,19.6,1061.5,18.3,1061.3,16.8z"/>
		<path class="st3" d="M1078.1,8.9v-3h3v3H1078.1z M1078.1,21.5v-3h3v3H1078.1z"/>
		<path class="st3" d="M1104.2,15.8l2.6,0.3c-0.2,1.6-1,3.1-2.2,4.2c-1.2,1-2.7,1.6-4.3,1.5c-1.9,0.1-3.8-0.7-5.1-2.1
			c-1.4-1.7-2.1-3.8-1.9-6c0-1.5,0.3-3,0.8-4.4c0.5-1.2,1.4-2.2,2.5-2.8c1.1-0.6,2.4-1,3.7-0.9c1.5-0.1,3,0.4,4.1,1.3
			c1.1,0.9,1.8,2.2,2.1,3.6l-2.6,0.4c-0.2-0.9-0.6-1.7-1.3-2.4c-0.6-0.5-1.4-0.8-2.2-0.8c-1.2,0-2.4,0.5-3.2,1.4
			c-0.9,1.3-1.4,2.9-1.2,4.5c-0.1,1.6,0.3,3.2,1.2,4.6c0.8,0.9,1.9,1.5,3.1,1.4c1,0,1.9-0.3,2.6-1
			C1103.7,17.9,1104.1,16.9,1104.2,15.8z"/>
		<path class="st3" d="M1119.7,16.5l2.7,0.3c-0.4,1.5-1.2,2.8-2.4,3.7c-3.1,2-7.1,1.7-9.9-0.8c-1.4-1.6-2.1-3.7-2-5.9
			c-0.1-2.2,0.6-4.4,2-6.1c1.4-1.4,3.3-2.2,5.2-2.2c1.9-0.1,3.8,0.7,5.1,2.1c1.4,1.7,2.1,3.8,2,6c0,0.2,0,0.4,0,0.7h-11.6
			c0,1.4,0.5,2.8,1.4,3.9c0.8,0.9,2,1.4,3.3,1.4c0.9,0,1.8-0.2,2.5-0.8C1118.9,18.3,1119.4,17.4,1119.7,16.5z M1111.1,12.2h8.7
			c0-1.1-0.4-2.1-1-2.9c-0.8-1-2-1.6-3.3-1.5c-1.1,0-2.2,0.4-3.1,1.2C1111.6,9.8,1111.1,11,1111.1,12.2L1111.1,12.2z"/>
		<path class="st3" d="M1125.7,21.5V5.9h2.4v2.2c1.1-1.7,3-2.7,5-2.6c0.9,0,1.8,0.2,2.6,0.5c0.7,0.3,1.3,0.7,1.8,1.3
			c0.4,0.6,0.7,1.2,0.8,1.9c0.1,0.8,0.2,1.7,0.1,2.6v9.6h-2.6V12c0-0.8-0.1-1.6-0.3-2.4c-0.2-0.5-0.6-1-1.1-1.3
			c-0.6-0.3-1.2-0.5-1.8-0.5c-1.1,0-2.1,0.4-2.9,1.1c-0.8,0.7-1.2,2.1-1.2,4.1v8.5L1125.7,21.5z"/>
		<path class="st3" d="M1148.2,19.1l0.4,2.3c-0.7,0.1-1.3,0.2-2,0.2c-0.8,0-1.5-0.1-2.2-0.5c-0.5-0.3-0.9-0.7-1.1-1.2
			c-0.3-1-0.4-2.1-0.3-3.1V8h-1.9V5.9h1.9V2.1l2.6-1.6v5.4h2.7V8h-2.7v9.1c0,0.5,0,1,0.1,1.4c0.1,0.2,0.3,0.4,0.5,0.5
			c0.3,0.1,0.6,0.2,0.9,0.2C1147.4,19.2,1147.8,19.2,1148.2,19.1z"/>
		<path class="st3" d="M1149.8,13.7c0-2.9,0.8-5,2.4-6.4c1.4-1.2,3.1-1.8,4.9-1.7c2-0.1,3.9,0.7,5.2,2.1c1.4,1.6,2.2,3.7,2,5.8
			c0.1,1.6-0.2,3.2-0.9,4.7c-0.6,1.1-1.5,2.1-2.6,2.7c-1.1,0.6-2.4,1-3.8,1c-2,0.1-3.9-0.7-5.3-2.1
			C1150.4,18.1,1149.6,15.9,1149.8,13.7z M1152.5,13.7c-0.1,1.6,0.3,3.2,1.3,4.5c1.6,1.8,4.3,2,6.1,0.4c0.2-0.1,0.3-0.3,0.4-0.4
			c1-1.3,1.4-2.9,1.3-4.6c0.1-1.6-0.4-3.1-1.3-4.4c-1.6-1.8-4.3-2-6.1-0.4c-0.1,0.1-0.3,0.3-0.4,0.4
			C1152.8,10.5,1152.4,12.1,1152.5,13.7z"/>
		<path class="st3" d="M1166.4,16.8l2.6-0.4c0.1,0.9,0.5,1.8,1.2,2.4c0.8,0.6,1.8,0.9,2.8,0.8c1,0.1,1.9-0.2,2.7-0.7
			c0.5-0.4,0.9-1.1,0.9-1.7c0-0.6-0.3-1.1-0.8-1.4c-0.9-0.4-1.8-0.7-2.7-0.9c-1.4-0.3-2.7-0.7-4-1.3c-1.4-0.6-2.3-2-2.3-3.6
			c0-0.7,0.2-1.3,0.5-1.9c0.3-0.6,0.8-1.1,1.3-1.5c0.5-0.4,1.1-0.6,1.7-0.8c0.7-0.2,1.5-0.3,2.3-0.3c1.1,0,2.2,0.2,3.2,0.5
			c0.8,0.3,1.5,0.8,2,1.4c0.5,0.7,0.8,1.5,0.9,2.4l-2.6,0.4c-0.1-0.7-0.4-1.4-1-1.9c-0.7-0.5-1.5-0.7-2.4-0.7
			c-0.9-0.1-1.8,0.1-2.6,0.6c-0.5,0.3-0.8,0.8-0.8,1.4c0,0.3,0.1,0.7,0.3,0.9c0.3,0.3,0.6,0.6,1,0.7c0.3,0.1,1,0.3,2.3,0.7
			c1.3,0.3,2.6,0.7,3.9,1.2c0.7,0.3,1.3,0.8,1.7,1.4c0.4,0.7,0.7,1.5,0.6,2.3c0,0.9-0.3,1.8-0.8,2.5c-0.5,0.8-1.3,1.4-2.2,1.8
			c-1,0.4-2.2,0.7-3.3,0.6c-1.6,0.1-3.3-0.3-4.6-1.3C1167.3,19.6,1166.6,18.3,1166.4,16.8z"/>
		<path class="st3" d="M1181.4,15v-2.7h8.1V15L1181.4,15z"/>
		<path class="st3" d="M1192.4,21.5V5.9h2.4v2.2c1.1-1.7,3-2.7,5-2.6c0.9,0,1.8,0.2,2.6,0.5c0.7,0.3,1.3,0.7,1.8,1.3
			c0.4,0.6,0.7,1.2,0.8,1.9c0.1,0.8,0.2,1.7,0.1,2.6v9.6h-2.6V12c0-0.8-0.1-1.6-0.3-2.4c-0.2-0.5-0.6-1-1.1-1.3
			c-0.6-0.3-1.2-0.5-1.8-0.5c-1.1,0-2.1,0.4-2.9,1.1c-0.8,0.7-1.2,2.1-1.2,4.1v8.5L1192.4,21.5z"/>
		<path class="st3" d="M1208.1,13.7c0-2.9,0.8-5,2.4-6.4c1.4-1.2,3.1-1.8,4.9-1.7c2-0.1,3.9,0.7,5.2,2.1c1.4,1.6,2.2,3.7,2,5.8
			c0.1,1.6-0.2,3.2-0.9,4.7c-0.6,1.1-1.5,2.1-2.6,2.7c-1.2,0.6-2.4,1-3.8,1c-2,0.1-3.9-0.7-5.3-2.1
			C1208.7,18.1,1208,15.9,1208.1,13.7z M1210.9,13.7c-0.1,1.6,0.3,3.2,1.3,4.5c1.6,1.8,4.3,2,6.1,0.4c0.2-0.1,0.3-0.3,0.4-0.4
			c1-1.3,1.4-2.9,1.3-4.6c0.1-1.6-0.4-3.1-1.3-4.4c-1.6-1.8-4.3-2-6.1-0.4c-0.1,0.1-0.3,0.3-0.4,0.4
			C1211.2,10.5,1210.7,12.1,1210.9,13.7z"/>
		<path class="st3" d="M1235.9,21.5v-2c-0.9,1.5-2.6,2.4-4.4,2.3c-1.2,0-2.4-0.3-3.4-1c-1.1-0.7-1.9-1.7-2.4-2.9
			c-0.6-1.3-0.9-2.8-0.9-4.2c0-1.4,0.2-2.9,0.8-4.2c0.5-1.2,1.3-2.2,2.3-2.9c1-0.7,2.2-1,3.5-1c1.7,0,3.3,0.8,4.3,2.1V0h2.6v21.5
			H1235.9z M1227.6,13.7c-0.1,1.6,0.3,3.2,1.3,4.5c0.7,0.9,1.8,1.5,3,1.5c1.1,0,2.2-0.5,2.9-1.4c0.9-1.2,1.3-2.8,1.2-4.3
			c0.1-1.7-0.3-3.3-1.2-4.7c-0.7-0.9-1.8-1.5-3-1.5c-1.2,0-2.2,0.5-2.9,1.4C1227.9,10.5,1227.4,12.1,1227.6,13.7L1227.6,13.7z"/>
		<path class="st3" d="M1253.1,16.5l2.7,0.3c-0.4,1.5-1.2,2.8-2.4,3.7c-3.1,2-7.1,1.7-9.9-0.8c-1.4-1.6-2.1-3.7-2-5.9
			c-0.1-2.2,0.6-4.4,2-6.1c1.4-1.4,3.3-2.2,5.2-2.2c1.9-0.1,3.8,0.7,5.1,2.1c1.4,1.7,2.1,3.8,2,6c0,0.2,0,0.4,0,0.7h-11.6
			c0,1.4,0.5,2.8,1.4,3.9c0.8,0.9,2,1.4,3.3,1.4c0.9,0,1.8-0.2,2.5-0.8C1252.3,18.3,1252.9,17.4,1253.1,16.5z M1244.5,12.2h8.7
			c0-1.1-0.4-2.1-1-2.9c-0.8-1-2-1.6-3.3-1.5c-1.1,0-2.2,0.4-3.1,1.2C1245,9.8,1244.5,11,1244.5,12.2z"/>
		<path class="st3" d="M1800.2,490.2c-0.8,0.7-1.8,1.3-2.8,1.8c-0.9,0.3-1.9,0.5-2.9,0.5c-1.4,0.1-2.8-0.4-3.9-1.3
			c-0.9-0.8-1.4-2-1.4-3.2c0-0.7,0.2-1.4,0.5-2.1c0.3-0.6,0.8-1.1,1.4-1.5c0.6-0.4,1.2-0.7,1.9-0.9c0.8-0.2,1.6-0.3,2.3-0.4
			c1.6-0.1,3.2-0.5,4.7-0.9c0-0.4,0-0.6,0-0.7c0.1-0.8-0.2-1.7-0.7-2.3c-0.9-0.7-1.9-1-3-0.9c-1-0.1-1.9,0.2-2.7,0.7
			c-0.7,0.6-1.2,1.4-1.3,2.3l-2.6-0.4c0.2-1,0.6-1.9,1.2-2.7c0.6-0.7,1.4-1.3,2.3-1.6c1.1-0.4,2.3-0.6,3.5-0.5
			c1.1,0,2.2,0.1,3.2,0.5c0.7,0.2,1.3,0.6,1.8,1.2c0.4,0.5,0.7,1.1,0.8,1.8c0.1,0.8,0.2,1.6,0.1,2.4v3.5c0,1.6,0,3.1,0.2,4.7
			c0.1,0.7,0.3,1.3,0.7,1.9h-2.8C1800.4,491.5,1800.2,490.8,1800.2,490.2z M1800,484.3c-1.4,0.5-2.8,0.8-4.3,1
			c-0.8,0.1-1.6,0.3-2.3,0.5c-0.4,0.2-0.8,0.5-1,0.9c-0.6,1-0.4,2.3,0.4,3c0.7,0.5,1.5,0.8,2.3,0.7c0.9,0,1.9-0.2,2.7-0.7
			c0.8-0.4,1.4-1,1.7-1.8c0.3-0.8,0.5-1.7,0.4-2.6V484.3z"/>
		<path class="st3" d="M1806.7,492.1v-15.6h2.4v2.2c1.1-1.7,3-2.7,5-2.6c0.9,0,1.8,0.2,2.6,0.5c0.7,0.3,1.3,0.7,1.8,1.3
			c0.4,0.6,0.7,1.2,0.8,1.9c0.1,0.8,0.2,1.7,0.1,2.6v9.6h-2.6v-9.5c0-0.8-0.1-1.6-0.3-2.4c-0.2-0.5-0.6-1-1.1-1.3
			c-0.6-0.3-1.2-0.5-1.8-0.5c-1.1,0-2.1,0.4-2.9,1.1c-0.8,0.7-1.2,2.1-1.2,4.1v8.5L1806.7,492.1z"/>
		<path class="st3" d="M1822.3,487.4l2.6-0.4c0.1,0.9,0.5,1.8,1.2,2.4c0.8,0.6,1.8,0.9,2.8,0.8c1,0.1,1.9-0.2,2.7-0.7
			c0.5-0.4,0.9-1.1,0.9-1.7c0-0.6-0.3-1.1-0.8-1.4c-0.9-0.4-1.8-0.7-2.7-0.9c-1.4-0.3-2.7-0.7-4-1.3c-1.4-0.6-2.3-2-2.3-3.6
			c0-0.7,0.2-1.3,0.5-1.9c0.3-0.6,0.8-1.1,1.3-1.5c0.5-0.3,1.1-0.6,1.7-0.8c0.7-0.2,1.5-0.3,2.3-0.3c1.1,0,2.2,0.2,3.2,0.5
			c0.8,0.3,1.5,0.8,2,1.4c0.5,0.7,0.8,1.5,0.9,2.4l-2.6,0.4c-0.1-0.7-0.4-1.4-1-1.9c-0.7-0.5-1.5-0.7-2.4-0.7
			c-0.9-0.1-1.8,0.1-2.6,0.6c-0.5,0.3-0.8,0.8-0.8,1.4c0,0.3,0.1,0.7,0.3,0.9c0.3,0.3,0.6,0.6,1,0.7c0.3,0.1,1,0.3,2.3,0.7
			c1.3,0.3,2.6,0.7,3.9,1.2c0.7,0.3,1.3,0.8,1.7,1.4c0.4,0.7,0.7,1.5,0.6,2.3c0,0.9-0.3,1.8-0.8,2.5c-0.5,0.8-1.3,1.4-2.2,1.8
			c-1,0.4-2.2,0.7-3.3,0.6c-1.6,0.1-3.3-0.3-4.6-1.3C1823.2,490.2,1822.5,488.9,1822.3,487.4z"/>
		<path class="st3" d="M1838.4,473.6v-3h2.6v3H1838.4z M1838.4,492.1v-15.6h2.6v15.6H1838.4z"/>
		<path class="st3" d="M1847.5,492.1h-2.4v-21.5h2.6v7.7c1-1.3,2.6-2.1,4.3-2.1c0.9,0,1.9,0.2,2.7,0.6c0.8,0.4,1.5,0.9,2.1,1.6
			c0.6,0.8,1,1.6,1.3,2.5c0.3,1,0.5,2.1,0.5,3.2c0.1,2.2-0.6,4.4-2,6.2c-1.2,1.4-2.9,2.2-4.7,2.2c-1.7,0-3.4-0.8-4.3-2.3
			L1847.5,492.1z M1847.5,484.2c-0.1,1.4,0.2,2.8,0.8,4c1,1.8,3.2,2.6,5.1,1.6c0.5-0.3,0.9-0.6,1.3-1.1c0.9-1.3,1.4-2.9,1.3-4.5
			c0.1-1.6-0.3-3.2-1.2-4.5c-0.7-0.9-1.8-1.4-2.9-1.5c-1.2,0-2.3,0.6-3,1.5C1847.8,481.1,1847.4,482.6,1847.5,484.2L1847.5,484.2z"
			/>
		<path class="st3" d="M1861.7,492.1v-21.5h2.6v21.5L1861.7,492.1z"/>
		<path class="st3" d="M1879.1,487.1l2.7,0.3c-0.4,1.5-1.2,2.8-2.4,3.7c-3.1,2-7.1,1.7-9.9-0.8c-1.4-1.6-2.1-3.7-2-5.9
			c-0.1-2.2,0.6-4.4,2-6.1c1.4-1.4,3.3-2.2,5.2-2.2c1.9-0.1,3.8,0.7,5.1,2.1c1.4,1.7,2.1,3.8,2,6c0,0.2,0,0.4,0,0.7h-11.6
			c0,1.4,0.5,2.8,1.4,3.9c0.8,0.9,2,1.4,3.3,1.4c0.9,0,1.8-0.2,2.5-0.8C1878.2,488.9,1878.8,488,1879.1,487.1z M1870.4,482.8h8.7
			c0-1.1-0.4-2.1-1-2.9c-0.8-1-2-1.6-3.3-1.5c-1.1,0-2.2,0.4-3.1,1.2C1870.9,480.4,1870.4,481.6,1870.4,482.8L1870.4,482.8z"/>
		<path class="st3" d="M1885.8,479.5v-3h3v3H1885.8z M1885.8,492.1v-3h3v3H1885.8z"/>
		<path class="st3" d="M1914.9,489.6v2.5h-14.2c0-0.6,0.1-1.2,0.3-1.8c0.4-1,1-2,1.7-2.9c1.1-1.2,2.2-2.3,3.4-3.3
			c1.7-1.3,3.3-2.9,4.7-4.5c0.7-0.9,1.2-2,1.2-3.2c0-1-0.4-2-1.1-2.6c-0.8-0.7-1.8-1.1-2.9-1.1c-1.1-0.1-2.2,0.4-3,1.1
			c-0.8,0.9-1.2,2-1.2,3.2l-2.7-0.3c0.1-1.8,0.8-3.4,2.1-4.6c1.4-1.1,3.1-1.7,4.9-1.6c1.8-0.1,3.6,0.5,4.9,1.7
			c1.2,1.1,1.8,2.6,1.8,4.2c0,0.9-0.2,1.7-0.5,2.5c-0.4,1-1,1.8-1.8,2.6c-1.3,1.3-2.6,2.6-4.1,3.8c-1.6,1.3-2.6,2.2-3,2.7
			c-0.4,0.4-0.8,0.9-1.1,1.4L1914.9,489.6z"/>
		<path class="st3" d="M1919.2,492.1v-3h3v3H1919.2z"/>
		<path class="st3" d="M1939.7,475.9l-2.6,0.2c-0.1-0.8-0.5-1.6-1-2.3c-0.7-0.7-1.6-1.1-2.6-1.1c-0.8,0-1.6,0.2-2.2,0.7
			c-0.9,0.7-1.6,1.6-2,2.7c-0.5,1.6-0.8,3.3-0.7,5c0.6-0.9,1.4-1.7,2.3-2.2c0.9-0.5,1.9-0.7,2.9-0.7c1.7,0,3.3,0.7,4.5,1.9
			c1.3,1.4,1.9,3.2,1.9,5c0,1.3-0.3,2.6-0.9,3.8c-0.5,1.1-1.4,2-2.4,2.7c-1,0.6-2.2,0.9-3.5,0.9c-2.1,0.1-4.1-0.8-5.4-2.4
			c-1.4-1.6-2.1-4.3-2.1-8c0-4.2,0.8-7.2,2.3-9.1c1.3-1.6,3.3-2.5,5.4-2.5C1936.8,470.3,1939.5,472.7,1939.7,475.9L1939.7,475.9z
			 M1929,485.1c0,0.9,0.2,1.8,0.6,2.6c0.3,0.8,0.9,1.4,1.6,1.9c0.6,0.4,1.4,0.6,2.2,0.7c1.1,0,2.2-0.5,2.9-1.3
			c0.8-1,1.3-2.3,1.2-3.7c0.1-1.3-0.4-2.5-1.2-3.5c-0.8-0.8-1.9-1.3-3-1.3c-1.1,0-2.2,0.4-3,1.3
			C1929.4,482.7,1928.9,483.9,1929,485.1L1929,485.1z"/>
		<path class="st3" d="M1944.2,492.1v-3h3v3H1944.2z"/>
		<path class="st3" d="M1964.9,489.6v2.5h-14.2c0-0.6,0.1-1.2,0.3-1.8c0.4-1,1-2,1.7-2.9c1.1-1.2,2.2-2.3,3.4-3.3
			c1.7-1.3,3.3-2.9,4.7-4.5c0.7-0.9,1.2-2,1.2-3.2c0-1-0.4-2-1.1-2.6c-0.8-0.7-1.8-1.1-2.9-1.1c-1.1-0.1-2.2,0.4-3,1.1
			c-0.8,0.9-1.2,2-1.2,3.2l-2.7-0.3c0.1-1.8,0.8-3.4,2.1-4.6c1.4-1.1,3.1-1.7,4.9-1.6c1.8-0.1,3.6,0.5,4.9,1.7
			c1.2,1.1,1.8,2.6,1.8,4.2c0,0.9-0.2,1.7-0.5,2.5c-0.4,1-1,1.8-1.8,2.6c-1.3,1.3-2.6,2.6-4.1,3.8c-1.6,1.3-2.6,2.2-3,2.7
			c-0.4,0.4-0.8,0.9-1.1,1.4L1964.9,489.6z"/>
		<path class="st3" d="M1031.5,435.4c-0.8,0.7-1.8,1.3-2.8,1.8c-0.9,0.3-1.9,0.5-2.9,0.5c-1.4,0.1-2.8-0.4-3.9-1.3
			c-0.9-0.8-1.4-2-1.4-3.2c0-0.7,0.2-1.4,0.5-2.1c0.3-0.6,0.8-1.1,1.4-1.5c0.6-0.4,1.2-0.7,1.9-0.9c0.8-0.2,1.6-0.3,2.3-0.4
			c1.6-0.1,3.2-0.5,4.7-0.9c0-0.4,0-0.6,0-0.7c0.1-0.8-0.2-1.7-0.7-2.3c-0.9-0.7-1.9-1-3-0.9c-1-0.1-1.9,0.2-2.7,0.6
			c-0.7,0.6-1.1,1.4-1.3,2.3l-2.6-0.4c0.2-1,0.6-1.9,1.2-2.7c0.6-0.7,1.4-1.3,2.3-1.6c1.1-0.4,2.3-0.6,3.5-0.5
			c1.1,0,2.2,0.1,3.2,0.5c0.7,0.2,1.3,0.6,1.8,1.2c0.4,0.5,0.7,1.1,0.8,1.8c0.1,0.8,0.2,1.6,0.1,2.4v3.5c0,1.6,0,3.1,0.2,4.6
			c0.1,0.7,0.3,1.3,0.7,1.9h-2.8C1031.7,436.7,1031.5,436.1,1031.5,435.4z M1031.3,429.5c-1.4,0.5-2.8,0.8-4.3,1
			c-0.8,0.1-1.6,0.3-2.3,0.5c-0.4,0.2-0.8,0.5-1,0.9c-0.6,1-0.4,2.3,0.4,3c0.7,0.5,1.5,0.8,2.3,0.7c0.9,0,1.9-0.2,2.7-0.7
			c0.8-0.4,1.4-1,1.7-1.8c0.3-0.8,0.5-1.7,0.4-2.6L1031.3,429.5z"/>
		<path class="st3" d="M1038,437.3v-15.6h2.4v2.2c1.1-1.7,3-2.7,5-2.6c0.9,0,1.8,0.2,2.6,0.5c0.7,0.3,1.3,0.7,1.8,1.3
			c0.4,0.6,0.7,1.2,0.8,1.9c0.1,0.8,0.2,1.7,0.1,2.6v9.6h-2.6v-9.5c0-0.8-0.1-1.6-0.3-2.4c-0.2-0.5-0.6-1-1.1-1.3
			c-0.6-0.3-1.2-0.5-1.8-0.5c-1.1,0-2.1,0.4-2.9,1.1c-0.8,0.7-1.2,2.1-1.2,4.1v8.5H1038z"/>
		<path class="st3" d="M1053.6,432.7l2.6-0.4c0.1,0.9,0.5,1.8,1.2,2.4c0.8,0.6,1.8,0.9,2.8,0.8c1,0.1,1.9-0.2,2.7-0.7
			c0.5-0.4,0.9-1.1,0.9-1.7c0-0.6-0.3-1.1-0.8-1.4c-0.9-0.4-1.8-0.7-2.7-0.9c-1.4-0.3-2.7-0.7-4-1.3c-1.4-0.6-2.3-2-2.3-3.6
			c0-0.7,0.2-1.3,0.5-1.9c0.3-0.6,0.8-1.1,1.3-1.5c0.5-0.4,1.1-0.6,1.7-0.8c0.7-0.2,1.5-0.3,2.3-0.3c1.1,0,2.2,0.2,3.2,0.5
			c0.8,0.3,1.5,0.8,2,1.4c0.5,0.7,0.8,1.5,0.9,2.4l-2.6,0.4c-0.1-0.7-0.4-1.4-1-1.9c-0.7-0.5-1.5-0.7-2.4-0.7
			c-0.9-0.1-1.8,0.1-2.6,0.6c-0.5,0.3-0.8,0.8-0.8,1.4c0,0.3,0.1,0.7,0.3,0.9c0.3,0.3,0.6,0.6,1,0.7c0.3,0.1,1,0.3,2.3,0.7
			c1.3,0.3,2.6,0.7,3.9,1.2c0.7,0.3,1.3,0.8,1.7,1.4c0.4,0.7,0.7,1.5,0.6,2.3c0,0.9-0.3,1.8-0.8,2.5c-0.5,0.8-1.3,1.4-2.2,1.8
			c-1,0.4-2.2,0.7-3.3,0.6c-1.6,0.1-3.3-0.3-4.6-1.3C1054.6,435.5,1053.8,434.1,1053.6,432.7z"/>
		<path class="st3" d="M1069.7,418.9v-3h2.6v3H1069.7z M1069.7,437.3v-15.6h2.6v15.6L1069.7,437.3z"/>
		<path class="st3" d="M1078.8,437.3h-2.4v-21.5h2.6v7.7c1-1.3,2.6-2.1,4.3-2.1c0.9,0,1.9,0.2,2.7,0.6c0.8,0.4,1.5,0.9,2.1,1.6
			c0.6,0.8,1,1.6,1.3,2.5c0.3,1,0.5,2.1,0.5,3.2c0.1,2.2-0.6,4.4-2,6.2c-1.2,1.4-2.9,2.2-4.7,2.2c-1.7,0-3.4-0.8-4.3-2.3V437.3z
			 M1078.8,429.4c-0.1,1.4,0.2,2.8,0.8,4c1,1.8,3.2,2.6,5.1,1.6c0.5-0.3,0.9-0.6,1.3-1.1c0.9-1.3,1.4-2.9,1.3-4.5
			c0.1-1.6-0.3-3.2-1.2-4.5c-0.7-0.9-1.8-1.4-2.9-1.5c-1.2,0-2.3,0.6-3,1.5C1079.1,426.3,1078.7,427.9,1078.8,429.4L1078.8,429.4z"
			/>
		<path class="st3" d="M1093,437.3v-21.5h2.6v21.5H1093z"/>
		<path class="st3" d="M1110.4,432.3l2.7,0.3c-0.4,1.5-1.2,2.8-2.4,3.7c-3.1,2-7.1,1.7-9.9-0.8c-1.4-1.6-2.1-3.7-2-5.9
			c-0.1-2.2,0.6-4.4,2-6.1c1.4-1.4,3.3-2.2,5.2-2.2c1.9-0.1,3.8,0.7,5.1,2.1c1.4,1.7,2.1,3.8,2,6c0,0.2,0,0.4,0,0.7h-11.6
			c0,1.4,0.5,2.8,1.4,3.9c0.8,0.9,2,1.4,3.3,1.4c0.9,0,1.8-0.2,2.5-0.8C1109.5,434.1,1110.1,433.3,1110.4,432.3z M1101.7,428h8.7
			c0-1.1-0.4-2.1-1-2.9c-0.8-1-2-1.6-3.3-1.5c-1.1,0-2.2,0.4-3.1,1.2C1102.2,425.7,1101.7,426.8,1101.7,428L1101.7,428z"/>
		<path class="st3" d="M1117.1,424.8v-3h3v3L1117.1,424.8z M1117.1,437.3v-3h3v3H1117.1z"/>
		<path class="st3" d="M1146.2,434.8v2.5H1132c0-0.6,0.1-1.2,0.3-1.8c0.4-1,1-2,1.7-2.9c1.1-1.2,2.2-2.3,3.4-3.3
			c1.7-1.3,3.3-2.9,4.7-4.5c0.7-0.9,1.2-2,1.2-3.2c0-1-0.4-2-1.1-2.6c-0.8-0.7-1.8-1.1-2.9-1.1c-1.1-0.1-2.2,0.4-3,1.1
			c-0.8,0.9-1.2,2-1.2,3.2l-2.7-0.3c0.1-1.8,0.8-3.4,2.1-4.6c1.4-1.1,3.1-1.7,4.9-1.6c1.8-0.1,3.6,0.5,4.9,1.7
			c1.2,1.1,1.8,2.6,1.8,4.2c0,0.9-0.2,1.7-0.5,2.5c-0.4,1-1,1.8-1.8,2.6c-1.3,1.3-2.6,2.6-4.1,3.8c-1.6,1.3-2.6,2.2-3,2.7
			c-0.4,0.4-0.8,0.9-1.1,1.4L1146.2,434.8z"/>
		<path class="st3" d="M1150.5,437.3v-3h3v3H1150.5z"/>
		<path class="st3" d="M1171,421.1l-2.6,0.2c-0.1-0.8-0.5-1.6-1-2.3c-0.7-0.7-1.6-1.1-2.6-1.1c-0.8,0-1.6,0.2-2.2,0.7
			c-0.9,0.7-1.6,1.6-2,2.7c-0.5,1.6-0.8,3.3-0.7,5c0.6-0.9,1.4-1.7,2.3-2.2c0.9-0.5,1.9-0.7,2.9-0.7c1.7,0,3.3,0.7,4.5,1.9
			c1.3,1.4,1.9,3.2,1.9,5c0,1.3-0.3,2.6-0.9,3.8c-0.5,1.1-1.4,2-2.4,2.7c-1,0.6-2.2,0.9-3.5,0.9c-2.1,0.1-4.1-0.8-5.4-2.4
			c-1.4-1.6-2.1-4.3-2.1-8c0-4.2,0.8-7.2,2.3-9.1c1.3-1.6,3.3-2.5,5.4-2.5C1168.1,415.6,1170.8,417.9,1171,421.1L1171,421.1z
			 M1160.3,430.4c0,0.9,0.2,1.8,0.6,2.6c0.3,0.8,0.9,1.4,1.6,1.9c0.6,0.4,1.4,0.6,2.2,0.7c1.1,0,2.2-0.5,2.9-1.3
			c0.8-1,1.3-2.3,1.2-3.7c0.1-1.3-0.4-2.5-1.2-3.5c-0.8-0.8-1.9-1.3-3-1.3c-1.1,0-2.2,0.4-3,1.3
			C1160.7,427.9,1160.2,429.1,1160.3,430.4z"/>
		<path class="st3" d="M1175.5,437.3v-3h3v3H1175.5z"/>
		<path class="st3" d="M1192.3,437.3h-2.6v-16.8c-0.8,0.7-1.6,1.3-2.5,1.8c-0.9,0.5-1.8,1-2.8,1.4v-2.5c1.4-0.6,2.7-1.5,3.9-2.5
			c1-0.8,1.8-1.8,2.3-2.9h1.7V437.3z"/>
		<path class="st3" d="M103.5,262.5l2.6-0.4c0.1,0.9,0.5,1.8,1.2,2.4c0.8,0.6,1.8,0.9,2.8,0.8c1,0.1,1.9-0.2,2.7-0.7
			c0.5-0.4,0.9-1.1,0.9-1.7c0-0.6-0.3-1.1-0.8-1.4c-0.9-0.4-1.8-0.7-2.7-0.9c-1.4-0.3-2.7-0.7-4-1.3c-1.4-0.6-2.3-2-2.3-3.6
			c0-0.7,0.2-1.3,0.5-1.9c0.3-0.6,0.8-1.1,1.3-1.5c0.5-0.3,1.1-0.6,1.7-0.8c0.7-0.2,1.5-0.3,2.3-0.3c1.1,0,2.2,0.2,3.2,0.5
			c0.8,0.3,1.5,0.8,2,1.4c0.5,0.7,0.8,1.5,0.9,2.4l-2.6,0.4c-0.1-0.7-0.4-1.4-1-1.9c-0.7-0.5-1.5-0.7-2.4-0.7
			c-0.9-0.1-1.8,0.1-2.6,0.6c-0.5,0.3-0.8,0.8-0.8,1.4c0,0.3,0.1,0.7,0.3,0.9c0.3,0.3,0.6,0.6,1,0.7c0.3,0.1,1,0.3,2.3,0.7
			c1.3,0.3,2.6,0.7,3.9,1.2c0.7,0.3,1.3,0.8,1.7,1.4c0.4,0.7,0.7,1.5,0.6,2.3c0,0.9-0.3,1.8-0.8,2.5c-0.5,0.8-1.3,1.4-2.2,1.8
			c-1,0.4-2.2,0.7-3.3,0.6c-1.6,0.1-3.3-0.3-4.6-1.3C104.5,265.3,103.7,263.9,103.5,262.5z"/>
		<path class="st3" d="M122,267.1h-2.4v-21.5h2.6v7.7c1-1.3,2.6-2.1,4.3-2.1c0.9,0,1.9,0.2,2.7,0.6c0.8,0.4,1.5,0.9,2.1,1.6
			c0.6,0.8,1,1.6,1.3,2.5c0.3,1,0.5,2.1,0.5,3.2c0.1,2.2-0.6,4.4-2,6.2c-1.2,1.4-2.9,2.2-4.7,2.2c-1.7,0-3.4-0.8-4.3-2.3L122,267.1z
			 M122,259.2c-0.1,1.4,0.2,2.8,0.8,4c1,1.8,3.2,2.6,5.1,1.6c0.5-0.3,0.9-0.6,1.3-1.1c0.9-1.3,1.4-2.9,1.3-4.5
			c0.1-1.6-0.3-3.2-1.2-4.5c-0.7-0.9-1.8-1.4-2.9-1.4c-1.2,0-2.3,0.6-3,1.5C122.3,256.1,121.9,257.7,122,259.2z"/>
		<path class="st3" d="M146.9,262.1l2.7,0.3c-0.4,1.5-1.2,2.8-2.4,3.7c-3.1,2-7.1,1.7-9.9-0.8c-1.4-1.6-2.1-3.7-2-5.9
			c-0.1-2.2,0.6-4.4,2-6.1c1.4-1.4,3.3-2.2,5.2-2.2c1.9-0.1,3.8,0.7,5.1,2.1c1.4,1.7,2.1,3.8,2,6c0,0.2,0,0.4,0,0.7h-11.6
			c0,1.4,0.5,2.8,1.5,3.9c0.8,0.9,2,1.4,3.3,1.4c0.9,0,1.8-0.2,2.5-0.8C146.1,263.9,146.6,263.1,146.9,262.1z M138.3,257.8h8.7
			c0-1.1-0.4-2.1-1-2.9c-0.8-1-2-1.6-3.3-1.5c-1.1,0-2.2,0.4-3.1,1.2C138.8,255.5,138.3,256.6,138.3,257.8z"/>
		<path class="st3" d="M152.9,267.1v-21.5h2.6v21.5H152.9z"/>
		<path class="st3" d="M159.6,248.7v-3h2.6v3H159.6z M159.6,267.1v-15.6h2.6v15.6H159.6z"/>
		<path class="st3" d="M176.4,265.2c-0.8,0.7-1.8,1.3-2.8,1.8c-0.9,0.3-1.9,0.5-2.9,0.5c-1.4,0.1-2.8-0.4-3.9-1.3
			c-0.9-0.8-1.4-2-1.4-3.2c0-0.7,0.2-1.4,0.5-2.1c0.3-0.6,0.8-1.1,1.4-1.5c0.6-0.4,1.2-0.7,1.9-0.9c0.8-0.2,1.6-0.3,2.3-0.4
			c1.6-0.1,3.2-0.5,4.7-0.9c0-0.4,0-0.6,0-0.7c0.1-0.8-0.2-1.7-0.7-2.3c-0.9-0.7-1.9-1-3-0.9c-1-0.1-1.9,0.2-2.7,0.7
			c-0.7,0.6-1.2,1.4-1.3,2.3l-2.6-0.4c0.2-1,0.6-1.9,1.2-2.7c0.6-0.7,1.4-1.3,2.3-1.6c1.1-0.4,2.3-0.6,3.5-0.5
			c1.1,0,2.2,0.1,3.2,0.5c0.7,0.2,1.3,0.6,1.8,1.2c0.4,0.5,0.7,1.1,0.8,1.8c0.1,0.8,0.2,1.6,0.1,2.4v3.5c0,1.6,0,3.1,0.2,4.7
			c0.1,0.7,0.3,1.3,0.7,1.9H177C176.7,266.5,176.5,265.9,176.4,265.2z M176.2,259.3c-1.4,0.5-2.8,0.8-4.3,1
			c-0.8,0.1-1.6,0.3-2.3,0.5c-0.4,0.2-0.8,0.5-1,0.9c-0.6,1-0.4,2.3,0.4,3c0.7,0.5,1.5,0.8,2.3,0.7c0.9,0,1.9-0.2,2.7-0.7
			c0.8-0.4,1.4-1,1.7-1.8c0.3-0.8,0.5-1.7,0.4-2.6L176.2,259.3z"/>
		<path class="st3" d="M183,267.1v-21.5h2.6v12.2l6.2-6.3h3.4l-5.9,5.8l6.5,9.8h-3.3l-5.1-8l-1.9,1.8v6.2L183,267.1z"/>
		<path class="st3" d="M197,259.3c0-2.9,0.8-5,2.4-6.4c1.4-1.2,3.1-1.8,4.9-1.7c2-0.1,3.9,0.7,5.2,2.1c1.4,1.6,2.2,3.7,2,5.8
			c0.1,1.6-0.2,3.2-0.9,4.7c-0.6,1.1-1.5,2.1-2.6,2.7c-1.1,0.6-2.4,1-3.8,1c-2,0.1-3.9-0.7-5.3-2.1
			C197.6,263.7,196.9,261.5,197,259.3z M199.7,259.3c-0.1,1.6,0.3,3.2,1.3,4.5c1.6,1.8,4.3,2,6.1,0.4c0.2-0.1,0.3-0.3,0.4-0.4
			c1-1.3,1.4-2.9,1.3-4.6c0.1-1.6-0.4-3.1-1.3-4.4c-1.6-1.8-4.3-2-6.1-0.4c-0.1,0.1-0.3,0.3-0.4,0.4
			C200.1,256.1,199.6,257.7,199.7,259.3z"/>
		<path class="st3" d="M224.9,267.1v-2.3c-1.1,1.7-2.9,2.7-4.9,2.6c-0.9,0-1.8-0.2-2.6-0.5c-0.7-0.3-1.3-0.7-1.8-1.3
			c-0.4-0.6-0.7-1.3-0.8-2c-0.1-0.8-0.2-1.6-0.2-2.5v-9.6h2.6v8.6c0,0.9,0,1.9,0.2,2.8c0.1,0.7,0.5,1.2,1.1,1.6
			c0.6,0.4,1.3,0.6,2,0.6c0.8,0,1.6-0.2,2.2-0.6c0.7-0.4,1.2-1,1.5-1.7c0.3-1,0.5-2,0.4-3v-8.3h2.6v15.6L224.9,267.1z"/>
		<path class="st3" d="M229.4,267.5l6.2-22.2h2.1l-6.2,22.2H229.4z"/>
		<path class="st3" d="M249.8,261.4l2.6,0.3c-0.2,1.6-1,3.1-2.2,4.2c-1.2,1-2.7,1.6-4.3,1.5c-1.9,0.1-3.8-0.7-5.1-2.1
			c-1.4-1.7-2.1-3.8-1.9-6c0-1.5,0.3-3,0.8-4.4c0.5-1.2,1.4-2.2,2.5-2.8c1.1-0.6,2.4-1,3.7-0.9c1.5-0.1,3,0.4,4.1,1.3
			c1.1,0.9,1.8,2.2,2.1,3.6l-2.6,0.4c-0.2-0.9-0.6-1.7-1.3-2.4c-0.6-0.5-1.4-0.8-2.2-0.8c-1.2,0-2.4,0.5-3.2,1.4
			c-0.9,1.3-1.4,2.9-1.2,4.5c-0.1,1.6,0.3,3.2,1.2,4.6c0.8,0.9,1.9,1.5,3.1,1.4c1,0,1.9-0.3,2.6-1
			C249.3,263.6,249.8,262.5,249.8,261.4z"/>
		<path class="st3" d="M265.3,262.1l2.7,0.3c-0.4,1.5-1.2,2.8-2.4,3.7c-3.1,2-7.1,1.7-9.9-0.8c-1.4-1.6-2.1-3.7-2-5.9
			c-0.1-2.2,0.6-4.4,2-6.1c1.4-1.4,3.3-2.2,5.2-2.2c1.9-0.1,3.8,0.7,5.1,2.1c1.4,1.7,2.1,3.8,2,6c0,0.2,0,0.4,0,0.7h-11.6
			c0,1.4,0.5,2.8,1.4,3.9c0.8,0.9,2,1.4,3.3,1.4c0.9,0,1.8-0.2,2.5-0.8C264.5,263.9,265,263.1,265.3,262.1z M256.7,257.8h8.7
			c0-1.1-0.4-2.1-1-2.9c-0.8-1-2-1.6-3.3-1.5c-1.1,0-2.2,0.4-3.1,1.2C257.2,255.5,256.7,256.6,256.7,257.8L256.7,257.8z"/>
		<path class="st3" d="M271.4,267.1v-15.6h2.4v2.2c1.1-1.7,3-2.7,5-2.6c0.9,0,1.8,0.2,2.6,0.5c0.7,0.3,1.3,0.7,1.8,1.3
			c0.4,0.6,0.7,1.2,0.8,1.9c0.1,0.8,0.2,1.7,0.1,2.6v9.6h-2.6v-9.5c0-0.8-0.1-1.6-0.3-2.4c-0.2-0.5-0.6-1-1.1-1.3
			c-0.6-0.3-1.2-0.5-1.8-0.5c-1.1,0-2.1,0.4-2.9,1.1c-0.8,0.7-1.2,2.1-1.2,4.1v8.5L271.4,267.1z"/>
		<path class="st3" d="M293.8,264.8l0.4,2.3c-0.7,0.1-1.3,0.2-2,0.2c-0.8,0-1.5-0.1-2.2-0.5c-0.5-0.3-0.9-0.7-1.1-1.2
			c-0.3-1-0.4-2.1-0.3-3.1v-8.9h-1.9v-2.1h1.9v-3.9l2.6-1.6v5.4h2.6v2.1h-2.6v9.1c0,0.5,0,1,0.1,1.5c0.1,0.2,0.3,0.4,0.5,0.5
			c0.3,0.1,0.6,0.2,0.9,0.2C293,264.9,293.4,264.8,293.8,264.8z"/>
		<path class="st3" d="M295.4,259.3c0-2.9,0.8-5,2.4-6.4c1.4-1.2,3.1-1.8,4.9-1.7c2-0.1,3.9,0.7,5.2,2.1c1.4,1.6,2.2,3.7,2,5.8
			c0.1,1.6-0.2,3.2-0.9,4.7c-0.6,1.1-1.5,2.1-2.6,2.7c-1.1,0.6-2.4,1-3.8,1c-2,0.1-3.9-0.7-5.3-2.1
			C296,263.7,295.3,261.5,295.4,259.3z M298.1,259.3c-0.1,1.6,0.3,3.2,1.3,4.5c1.6,1.8,4.3,2,6.1,0.4c0.2-0.1,0.3-0.3,0.4-0.4
			c1-1.3,1.4-2.9,1.3-4.6c0.1-1.6-0.4-3.1-1.3-4.4c-1.6-1.8-4.3-2-6.1-0.4c-0.1,0.1-0.3,0.3-0.4,0.4
			C298.5,256.1,298,257.7,298.1,259.3L298.1,259.3z"/>
		<path class="st3" d="M312,262.5l2.6-0.4c0.1,0.9,0.5,1.8,1.2,2.4c0.8,0.6,1.8,0.9,2.8,0.8c1,0.1,1.9-0.2,2.7-0.7
			c0.5-0.4,0.9-1.1,0.9-1.7c0-0.6-0.3-1.1-0.8-1.4c-0.9-0.4-1.8-0.7-2.7-0.9c-1.4-0.3-2.7-0.7-4-1.3c-1.4-0.6-2.3-2-2.3-3.6
			c0-0.7,0.2-1.3,0.5-1.9c0.3-0.6,0.8-1.1,1.3-1.5c0.5-0.3,1.1-0.6,1.7-0.8c0.7-0.2,1.5-0.3,2.3-0.3c1.1,0,2.2,0.2,3.2,0.5
			c0.8,0.3,1.5,0.8,2,1.4c0.5,0.7,0.8,1.5,0.9,2.4l-2.6,0.4c-0.1-0.7-0.4-1.4-1-1.9c-0.7-0.5-1.5-0.7-2.4-0.7
			c-0.9-0.1-1.8,0.1-2.6,0.6c-0.5,0.3-0.8,0.8-0.8,1.4c0,0.3,0.1,0.7,0.3,0.9c0.3,0.3,0.6,0.6,1,0.7c0.3,0.1,1,0.3,2.3,0.7
			c1.3,0.3,2.6,0.7,3.9,1.2c0.7,0.3,1.3,0.8,1.7,1.4c0.4,0.7,0.7,1.5,0.6,2.3c0,0.9-0.3,1.8-0.8,2.5c-0.5,0.8-1.3,1.4-2.2,1.8
			c-1,0.4-2.2,0.7-3.3,0.6c-1.6,0.1-3.3-0.3-4.6-1.3C312.9,265.3,312.2,263.9,312,262.5z"/>
		<path class="st3" d="M328.8,254.6v-3h3v3H328.8z M328.8,267.1v-3h3v3H328.8z"/>
		<path class="st3" d="M344.7,267.1v-21.5h2.6v21.5H344.7z"/>
		<path class="st3" d="M361.6,265.2c-0.8,0.7-1.8,1.3-2.8,1.8c-0.9,0.3-1.9,0.5-2.9,0.5c-1.4,0.1-2.8-0.4-3.9-1.3
			c-0.9-0.8-1.4-2-1.4-3.2c0-0.7,0.2-1.4,0.5-2.1c0.3-0.6,0.8-1.1,1.4-1.5c0.6-0.4,1.2-0.7,1.9-0.9c0.8-0.2,1.6-0.3,2.3-0.4
			c1.6-0.1,3.2-0.5,4.7-0.9c0-0.4,0-0.6,0-0.7c0.1-0.8-0.2-1.7-0.7-2.3c-0.9-0.7-1.9-1-3-0.9c-1-0.1-1.9,0.2-2.7,0.7
			c-0.7,0.6-1.2,1.4-1.3,2.3L351,256c0.2-1,0.6-1.9,1.2-2.7c0.6-0.7,1.4-1.3,2.3-1.6c1.1-0.4,2.3-0.6,3.5-0.5c1.1,0,2.2,0.1,3.2,0.5
			c0.7,0.2,1.3,0.6,1.8,1.2c0.4,0.5,0.7,1.1,0.8,1.8c0.1,0.8,0.2,1.6,0.1,2.4v3.5c0,1.6,0,3.1,0.2,4.7c0.1,0.7,0.3,1.3,0.7,1.9h-2.8
			C361.8,266.5,361.6,265.9,361.6,265.2z M361.3,259.3c-1.4,0.5-2.8,0.8-4.3,1c-0.8,0.1-1.6,0.3-2.3,0.5c-0.4,0.2-0.8,0.5-1,0.9
			c-0.6,1-0.4,2.3,0.4,3c0.7,0.5,1.5,0.8,2.3,0.7c0.9,0,1.9-0.2,2.7-0.7c0.8-0.4,1.4-1,1.7-1.8c0.3-0.8,0.5-1.7,0.4-2.6L361.3,259.3
			z"/>
		<path class="st3" d="M373.9,264.8l0.4,2.3c-0.7,0.1-1.3,0.2-2,0.2c-0.8,0-1.5-0.1-2.2-0.5c-0.5-0.3-0.9-0.7-1.1-1.2
			c-0.3-1-0.4-2.1-0.3-3.1v-8.9h-1.9v-2.1h1.9v-3.9l2.6-1.6v5.4h2.6v2.1h-2.6v9.1c0,0.5,0,1,0.1,1.5c0.1,0.2,0.3,0.4,0.5,0.5
			c0.3,0.1,0.6,0.2,0.9,0.2C373.1,264.9,373.5,264.8,373.9,264.8z"/>
		<path class="st3" d="M387.1,262.1l2.7,0.3c-0.4,1.5-1.2,2.8-2.4,3.7c-3.1,2-7.1,1.7-9.9-0.8c-1.4-1.6-2.1-3.7-2-5.9
			c-0.1-2.2,0.6-4.4,2-6.1c1.4-1.4,3.3-2.2,5.2-2.2c1.9-0.1,3.8,0.7,5.1,2.1c1.4,1.7,2.1,3.8,2,6c0,0.2,0,0.4,0,0.7h-11.6
			c0,1.4,0.5,2.8,1.5,3.9c0.8,0.9,2,1.4,3.3,1.4c0.9,0,1.8-0.2,2.5-0.8C386.2,263.9,386.8,263.1,387.1,262.1z M378.4,257.8h8.7
			c0-1.1-0.4-2.1-1-2.9c-0.8-1-2-1.6-3.3-1.5c-1.1,0-2.2,0.4-3.1,1.2C378.9,255.5,378.5,256.6,378.4,257.8L378.4,257.8z"/>
		<path class="st3" d="M392.1,262.5l2.6-0.4c0.1,0.9,0.5,1.8,1.2,2.4c0.8,0.6,1.8,0.9,2.8,0.8c1,0.1,1.9-0.2,2.7-0.7
			c0.5-0.4,0.9-1.1,0.9-1.7c0-0.6-0.3-1.1-0.8-1.4c-0.9-0.4-1.8-0.7-2.7-0.9c-1.4-0.3-2.7-0.7-4-1.3c-1.4-0.6-2.3-2-2.3-3.6
			c0-0.7,0.2-1.3,0.5-1.9c0.3-0.6,0.8-1.1,1.3-1.5c0.5-0.3,1.1-0.6,1.7-0.8c0.7-0.2,1.5-0.3,2.3-0.3c1.1,0,2.2,0.2,3.2,0.5
			c0.8,0.3,1.5,0.8,2,1.4c0.5,0.7,0.8,1.5,0.9,2.4l-2.6,0.4c-0.1-0.7-0.4-1.4-1-1.9c-0.7-0.5-1.5-0.7-2.4-0.7
			c-0.9-0.1-1.8,0.1-2.6,0.6c-0.5,0.3-0.8,0.8-0.8,1.4c0,0.3,0.1,0.7,0.3,0.9c0.3,0.3,0.6,0.6,1,0.7c0.3,0.1,1,0.3,2.3,0.7
			c1.3,0.3,2.6,0.7,3.9,1.2c0.7,0.3,1.3,0.8,1.7,1.4c0.4,0.7,0.7,1.5,0.6,2.3c0,0.9-0.3,1.8-0.8,2.5c-0.5,0.8-1.3,1.4-2.2,1.8
			c-1,0.4-2.2,0.7-3.3,0.6c-1.6,0.1-3.3-0.3-4.6-1.3C393,265.3,392.2,263.9,392.1,262.5z"/>
		<path class="st3" d="M413.9,264.8l0.4,2.3c-0.7,0.1-1.3,0.2-2,0.2c-0.8,0-1.5-0.1-2.2-0.5c-0.5-0.3-0.9-0.7-1.1-1.2
			c-0.3-1-0.4-2.1-0.3-3.1v-8.9h-1.9v-2.1h1.9v-3.9l2.6-1.6v5.4h2.6v2.1h-2.6v9.1c0,0.5,0,1,0.1,1.5c0.1,0.2,0.3,0.4,0.5,0.5
			c0.3,0.1,0.6,0.2,0.9,0.2C413.1,264.9,413.5,264.8,413.9,264.8z"/>
		<path class="st3" d="M848.7,217.1l-15.5-5.9c-0.7-0.3-1.5,0.1-1.8,0.8c-0.1,0.2-0.1,0.3-0.1,0.5v11.8c0,0.8,0.6,1.4,1.4,1.4
			c0.2,0,0.3,0,0.5-0.1l15.5-5.9c0.7-0.3,1.1-1.1,0.8-1.8C849.4,217.5,849.1,217.2,848.7,217.1z"/>
		<path class="st3" d="M848.7,582.3l-15.5-5.9c-0.7-0.3-1.5,0.1-1.8,0.8c-0.1,0.2-0.1,0.3-0.1,0.5v11.8c0,0.8,0.6,1.4,1.4,1.4
			c0.2,0,0.3,0,0.5-0.1l15.5-5.9c0.7-0.3,1.1-1.1,0.8-1.8C849.4,582.7,849.1,582.4,848.7,582.3z"/>
		<path class="st3" d="M1615.3,582.3l-15.5-5.9c-0.7-0.3-1.5,0.1-1.8,0.8c-0.1,0.2-0.1,0.3-0.1,0.5v11.8c0,0.8,0.6,1.4,1.4,1.4
			c0.2,0,0.3,0,0.5-0.1l15.5-5.9c0.7-0.3,1.1-1.1,0.8-1.8C1616,582.7,1615.7,582.4,1615.3,582.3z"/>
	</g>
</g>
</svg>
